<?xml version="1.0" encoding="iso-8859-1"?>
<!-- Generator: Adobe Illustrator 19.0.0, SVG Export Plug-In . SVG Version: 6.00 Build 0)  -->
<svg version="1.1" id="Capa_1" xmlns="http://www.w3.org/2000/svg" xmlns:xlink="http://www.w3.org/1999/xlink" x="0px" y="0px"
	 viewBox="0 0 511.999 511.999" style="enable-background:new 0 0 511.999 511.999;" xml:space="preserve">
<g>
	<g>
		<path d="M120.997,270.662c-33.091,0-60,26.909-60,60s26.91,60,60,60c33.091,0,60-26.909,60-60S154.088,270.662,120.997,270.662z"
			/>
	</g>
</g>
<g>
	<g>
		<path d="M345.003,65.335c-1.772-5.435-6.46-9.39-12.114-10.21l-43.828-6.372L269.445,8.027c-5.039-10.254-21.855-10.254-26.895,0
			l-19.614,40.727l-43.828,6.372c-5.654,0.82-10.342,4.775-12.114,10.21c-1.758,5.42-0.293,11.382,3.794,15.366l31.728,30.922
			l-7.485,43.652c-0.967,5.625,1.348,11.309,5.962,14.663c4.644,3.369,10.796,3.823,15.791,1.143l39.214-20.596l39.214,20.596
			c4.974,2.637,11.146,2.25,15.791-1.143c4.614-3.354,6.929-9.038,5.962-14.663l-7.485-43.652l31.729-30.923
			C345.296,76.717,346.761,70.755,345.003,65.335z"/>
	</g>
</g>
<g>
	<g>
		<path d="M179.739,125.335c-1.772-5.435-6.46-9.39-12.114-10.21l-43.828-6.372l-19.614-39.727
			c-5.039-10.254-21.855-10.254-26.895,0l-19.614,39.727l-44.828,6.372c-5.654,0.82-10.342,4.775-12.114,10.21
			c-1.758,5.42-0.293,11.382,3.794,15.366l32.726,30.923l-7.485,43.652c-0.967,5.625,1.348,11.309,5.962,14.663
			c4.644,3.384,10.796,3.809,15.791,1.143l39.214-20.596l39.214,20.596c4.974,2.637,11.146,2.25,15.791-1.143
			c4.614-3.354,6.929-9.038,5.962-14.663l-7.485-43.652l31.729-30.923C180.032,136.717,181.497,130.755,179.739,125.335z"/>
	</g>
</g>
<g>
	<g>
		<path d="M511.267,125.335c-1.772-5.435-6.46-9.39-12.114-10.21l-44.828-6.372l-19.617-39.726
			c-5.039-10.254-21.855-10.254-26.895,0l-19.614,39.727l-43.828,6.372c-5.654,0.82-10.341,4.775-12.114,10.209
			c-1.758,5.42-0.293,11.382,3.794,15.366l31.729,30.923l-7.485,43.652c-0.967,5.625,1.348,11.309,5.962,14.663
			c4.644,3.384,10.796,3.809,15.791,1.143l39.214-20.596l39.214,20.596c4.974,2.637,11.146,2.25,15.791-1.143
			c4.614-3.354,6.929-9.038,5.962-14.663l-7.485-43.652l32.729-30.923C511.56,136.717,513.025,130.755,511.267,125.335z"/>
	</g>
</g>
<g>
	<g>
		<path d="M239.705,494.024c-5.861-39.619-31.392-73.585-66.088-90.678c-14.835,10.772-32.922,17.316-52.619,17.316
			s-37.784-6.544-52.619-17.316C33.682,420.439,7.151,454.405,1.29,494.024c-1.364,9.219,5.605,17.639,14.925,17.639H224.78
			C234.1,511.663,241.069,503.244,239.705,494.024z"/>
	</g>
</g>
<g>
	<g>
		<path d="M390.997,270.662c-33.091,0-60,26.909-60,60s26.91,60,60,60c33.091,0,60-26.909,60-60S424.088,270.662,390.997,270.662z"
			/>
	</g>
</g>
<g>
	<g>
		<path d="M510.705,494.024c-5.861-39.619-32.392-73.585-67.088-90.678c-14.835,10.772-32.922,17.316-52.619,17.316
			c-19.697,0-37.784-6.544-52.619-17.316c-34.697,17.093-60.227,51.059-66.088,90.678c-1.364,9.219,5.605,17.639,14.925,17.639
			h208.565C505.1,511.662,512.069,503.243,510.705,494.024z"/>
	</g>
</g>
<g>
</g>
<g>
</g>
<g>
</g>
<g>
</g>
<g>
</g>
<g>
</g>
<g>
</g>
<g>
</g>
<g>
</g>
<g>
</g>
<g>
</g>
<g>
</g>
<g>
</g>
<g>
</g>
<g>
</g>
</svg>
