<svg xmlns="http://www.w3.org/2000/svg" width="643" height="635" fill="none" viewBox="0 0 643 635">
    <g opacity=".16">
        <path fill="url(#prefix__paint0_linear)" d="M50.05 285.273c21.823-6.875 47.453-16.991 52.337-40.205 4.099-19.479-9.01-38.118-11.87-57.841-2.909-20.051 5.906-41.465 21.852-53.08 15.946-11.619 38.263-12.886 55.323-3.143 20.599 11.76 33.209 37.486 56.005 43.364 15.155 3.909 31.291-2.35 43.806-12.082 12.514-9.731 22.288-22.696 32.937-34.598 19.692-22.006 43.314-41.002 70.741-50.38 27.423-9.379 59.003-8.19 83.544 7.648 8.921 5.756 16.653 13.62 22.577 22.704 9.978 15.308 30.086 19.098 44.507 8.299 2.539-1.899 5.17-3.665 7.885-5.285 15.475-9.222 36.405-13.044 50.257-1.346 9.346 7.895 13.194 21.233 12.714 33.766-.482 12.529-4.708 24.541-9.037 36.238-9.488 25.636-19.822 51.413-22.499 78.748-2.68 27.334 3.512 57.129 22.736 75.925 16.705 16.336 42.029 23.584 52.926 44.589 7.324 14.123 6.195 31.486 1.846 46.888-8.786 31.102-30.312 58.044-58.062 72.681-29.099 15.343-62.833 17.018-95.414 18.388-104.782 4.414-209.563 8.833-314.344 13.247-18.086.762-36.657 1.456-53.789-4.63-17.133-6.086-32.761-20.554-35.222-39.248-2.611-19.856 9.75-39.641 6.195-59.335C83.8 403.3 60.208 390.731 40 379.893 19.79 369.059-2.374 351.302.206 327.762c2.585-23.614 28.02-35.618 49.844-42.489z"/>
        <path fill="url(#prefix__paint1_linear)" d="M367.332 64.258c-16.651 2.783-37.473 1.178-45.823-9.68-5.851-7.605-3.25-17.535 3.699-24.63 6.949-7.095 17.512-11.839 28.221-15.723 16.317-5.917 33.676-10.291 51.512-12.992 6.488-.98 13.209-1.74 19.713-.813 6.503.928 12.819 3.846 15.213 8.35 2.622 4.922.132 10.473-3.041 15.223-13.387 20.048-39.664 35.276-69.494 40.265z" opacity=".26"/>
        <path fill="url(#prefix__paint2_linear)" d="M412.338 70.37c-16.651 2.783-37.472 1.178-45.823-9.68-5.85-7.605-3.249-17.536 3.7-24.63 6.949-7.095 17.511-11.84 28.221-15.723 16.317-5.917 33.676-10.291 51.511-12.993 6.489-.98 13.21-1.74 19.713-.812 6.504.928 12.82 3.845 15.214 8.35 2.622 4.921.132 10.473-3.042 15.222-13.386 20.049-39.663 35.277-69.494 40.266z" opacity=".16"/>
    </g>
    <path fill="url(#prefix__paint3_linear)" d="M73.412 400.491c3.336.485 6.64.229 9.138-.044 1.926-.234 3.843-.5 5.761-.765 1.064-.152 2.13-.297 3.197-.438 2.259-.696 4.808-.889 7.852-.617 1.698.153 3.42.415 5.084.674.958.15 1.911.294 2.874.421 1.792.435 3.668 1.175 5.862 2.32 1.548 1.223 3.234 2.334 5.024 3.31 1.961 1.064 3.788 1.847 5.58 2.395 2.07.64 4.084 1.002 5.99 1.074 2.057.081 4.138-.257 6.015-.979 1.918-.753 3.66-1.905 5.041-3.334 1.361-1.38 2.511-3.028 3.418-4.904.635-1.315 1.163-2.768 1.585-4.318.091-.344.172-.705.256-1.065.769.162 1.495.314 2.153.447l4.699.972c1.813.38 3.469.721 4.976 1.024l8.132 1.991.108-1.591-7.998-1.646c-1.503-.341-3.143-.713-4.947-1.111l-4.678-1.046c-.678-.152-1.397-.313-2.144-.485.269-1.432.472-2.967.606-4.675.414-4.388.304-8.269-.348-11.852-.435-2.239-.986-4.135-1.691-5.799-.85-1.963-1.899-3.734-3.122-5.273-1.346-1.605-2.904-3.003-4.63-4.157-.31-.192-.616-.364-.921-.536l-1.315-.727c-.159-.08-.323-.156-.489-.228-.949-.429-1.955-.762-2.977-.995-1.927-.446-4.014-.524-6.206-.236-1.757.227-3.57.659-5.89 1.411-.058.017-.113.044-.164.076l-1.281.802-1.29.706c-1.055.513-1.893.862-2.69 1.117-.968.316-1.92.541-2.835.661-1.021.136-1.995.17-2.9.095-.854-.043-1.765-.202-2.875-.505-.814-.221-1.686-.559-2.742-1.061-.773-.404-1.687-.909-2.537-1.518-.787-.545-1.575-1.169-2.35-1.859-2.613-2.323-5.07-5.266-7.722-9.276l-1.642-2.588c-.626-.938-1.36-1.766-2.181-2.462-.83-.708-1.762-1.3-2.789-1.757-.491-.218-1.01-.402-1.573-.558-.457-.132-.965-.206-1.46-.277l-.133-.015-.042-.01c-.01-.002-.02.001-.03-.001l-1.681-.179-1.784.039-1.748.229-1.705.368-1.657.461-1.626.518-4.783 1.575-1.596.426-1.606.32-1.617.17-1.608-.025c-.15-.028-.351-.053-.55-.083-.339-.046-.675-.097-1.014-.163-.156-.049-.348-.112-.547-.166-.325-.103-.653-.196-.97-.316l-1.402-.688c-1.697-1.393-3.307-2.98-4.855-4.513-.547-.54-1.103-1.083-1.66-1.626-2.003-1.935-4.383-4.142-7.215-5.77-1.458-.833-2.88-1.432-4.358-1.821l-1.121-.256-1.226-.112c-.563-.091-1.134-.037-1.692.021-.226.023-.456.046-.679.055-3.02.521-5.773 2.412-7.595 5.185-.925 1.271-1.572 2.751-2.096 4.032-.284.838-.497 1.509-.666 2.141-.221.817-.371 1.562-.473 2.283-.282 1.581-.295 3.188-.263 4.55.121 1.642.364 3.154.733 4.521.739 2.948 1.934 5.785 3.557 8.418 1.541 2.516 3.513 4.902 5.859 7.086 1.013.916 2.229 1.981 3.578 2.928 1.193.838 2.498 1.607 3.985 2.358.797.41 1.626.783 2.424 1.143.576.257 1.152.514 1.714.787 1.469.742 2.738 1.474 3.873 2.24 2.392 1.599 4.717 3.522 6.904 5.735 1.914 1.919 3.818 4.059 6 6.738l2.831 3.533c.312.405.646.805.988 1.206l.462.551c.169.166.308.311.453.456.392.398.8.814 1.26 1.169 2.168 1.903 5.091 3.186 8.413 3.688zm-41.458-41.307l1.328-.018c1.008-.056 1.885-.14 2.687-.261.907-.108 1.795-.308 2.62-.493.854-.198 1.716-.438 2.566-.711.792-.251 1.518-.517 2.22-.804l2.807 1.692c.309.177.611.363.913.549.567.343 1.142.688 1.733 1.012l2.785 1.485c.624.327 1.255.665 1.886 1.003 1.28.685 2.583 1.38 3.919 2.058l9.28 4.375c-.017.035-.04.07-.046.078-.017.051-.084.134-.126.189l-.097.13c-.153.178-.377.374-.7.612-.61.43-1.303.767-1.838 1.012-1.159.514-2.476.988-4.023 1.44-1.207.38-2.397.68-3.545.97l-.38.097c-1.157.288-2.359.551-3.568.783l-.497.095c-.922.178-1.773.342-2.549.459-.91.142-1.708.249-2.367.323-1.273.144-2.026.113-2.032.117-.049-.001-.096.013-.144.031-.66-.388-1.364-.772-2.12-1.163-.59-.285-1.168-.552-1.753-.815-.783-.358-1.593-.731-2.363-1.13-1.435-.739-2.691-1.488-3.83-2.299-1.035-.734-2.096-1.611-3.45-2.845-2.258-2.115-4.15-4.419-5.632-6.853-.517-.849-.975-1.729-1.404-2.623.33.152.664.277.997.39.174.059.306.103.433.151.296.101.6.213.923.281l1.293.299c.337.07.67.115 1.004.16l.343.047c.436.068.898.107 1.366.119.151.004.306.014.466.025.304.019.6.036.895.033zm-9.255-19.083l.679.876c.248.297.531.611.846.962l.59.654c.37.413.806.835 1.266 1.283.258.25.52.505.793.778.53.557 1.156 1.091 1.821 1.653.285.241.577.493.873.752l2.044 1.707 1.267.968c1.951 1.574 4.282 3.139 6.74 4.792l1.566 1.054.593.359c-1.068.347-2.25.659-3.582.957-.321.076-.638.133-.955.19l-.297.057c-.42.079-.833.154-1.253.212l-.284.04c-.325.051-.645.102-.974.127l-1.285.131-1.271.07c-.27.019-.533.014-.802.008l-.47-.001c-.438.005-.85-.013-1.243-.057-.183-.016-.362-.027-.541-.037-.247-.016-.494-.032-.736-.066l-1.28-.198c-.25-.026-.485-.093-.735-.159-.166-.047-.338-.091-.512-.125-.443-.104-.825-.194-1.195-.341l-.66-.231c-.597-1.399-1.082-2.837-1.447-4.312-.35-1.334-.573-2.743-.685-4.314-.02-1.285 0-2.812.269-4.288.146-1.056.396-2.073.86-3.501zm18.889-6.038c.343 1.481.657 3.072.952 4.862.161.952.293 1.907.42 2.861.113.882.214 1.821.306 2.865.035.348.057.693.08 1.033l.04.654c.027.39.053.78.055 1.169l.033 1.445-.03 1.421c.002.321-.023.631-.052.939-.011.16-.027.319-.032.476-.03.446-.067.92-.147 1.39-.027.166-.051.343-.075.515-.04.291-.075.584-.148.868l-.141.613-1.01-.595-1.571-1.035c-2.447-1.616-4.763-3.139-6.698-4.674l-1.764-1.315-1.532-1.294c-.296-.258-.599-.508-.892-.755-.645-.543-1.257-1.055-1.76-1.571-.287-.281-.558-.538-.818-.783-.453-.432-.878-.837-1.23-1.221l-.592-.645c-.317-.341-.593-.644-.827-.918l-1.042-1.381c.48-1.128 1.025-2.301 1.79-3.341 1.66-2.505 4.12-4.195 6.76-4.649.189-.007.424-.028.66-.049.49-.048.952-.093 1.41-.015l1.106.1 1.058.251c1.324.355 2.673.928 3.998 1.697.584.332 1.14.698 1.693 1.082zm11.88 10.787c.008.007.067.049.08.057l1.614.795c.403.153.78.267 1.156.381.189.057.377.114.565.176.426.09.82.149 1.21.201.195.029.385.057.574.089.564.023 1.093.028 1.612.031l.181.001.25-.023c.472 1.036 1.49 3.327 2.66 6.386.463 1.231.864 2.36 1.232 3.446.467 1.41.852 2.682 1.182 3.889l.51 2.083c.04.236.09.493.146.752.087.448.18.912.237 1.368.169 1.072.23 2.124.202 3.113l-8.869-4.111c-1.236-.616-2.458-1.254-3.662-1.887-.716-.377-1.423-.747-2.127-1.111l-2.788-1.451c-.574-.31-1.137-.643-1.692-.974-.311-.188-.62-.365-.928-.547l-2.68-1.58.218-1.074c.066-.32.103-.641.142-.972.018-.169.035-.332.058-.504.075-.515.104-1.021.12-1.49.005-.157.015-.312.02-.468.021-.34.037-.677.028-1.013l-.007-1.45-.07-1.473c-.015-.397-.049-.799-.087-1.201l-.058-.668c-.029-.356-.062-.713-.106-1.068-.179-1.67-.464-3.457-.916-5.778-.285-1.433-.58-2.735-.883-3.955 1.395 1.075 2.76 2.306 4.236 3.744.553.537 1.095 1.077 1.642 1.618 1.587 1.581 3.223 3.203 4.998 4.668zm30.459-.777c.865 2.356 1.735 4.914 2.637 7.814.448 1.429.854 2.85 1.299 4.426.382 1.415.791 2.93 1.15 4.458.191.747.36 1.489.518 2.238l.175.802c.104.482.214.959.298 1.441l.42 2.265c.084.482.153.97.221 1.458l.116.804c.115.72.185 1.42.265 2.255l.058.599c.056.545.108 1.108.115 1.651.007.277.015.55.029.819.02.482.041.964.032 1.445l-.021.517-7.036-2.553c-.68-.251-1.366-.498-2.052-.745-1.594-.573-3.239-1.162-4.796-1.836l-6.704-2.749c-.386-.16-.777-.322-1.169-.478-.422-.174-.844-.352-1.26-.529.056-1.208-.03-2.453-.273-3.857-.069-.488-.18-.976-.282-1.447-.058-.249-.115-.503-.162-.755l-.569-2.121c-.43-1.426-.866-2.75-1.303-3.941-.409-1.1-.849-2.233-1.344-3.451-1.184-2.841-2.213-5.016-2.756-6.127.232-.027.462-.049.694-.076l.604-.111c.37-.075.742-.14 1.112-.219l1.662-.436 1.632-.502 4.796-1.567 1.597-.435 1.606-.34 1.615-.206 1.611-.033 1.93.23c.366.057.717.111 1.09.219.48.137.929.301 1.34.482.385.164.75.374 1.105.591zM99.2 361.336c.94.673 1.959 1.23 2.746 1.643 1.163.55 2.12.922 3.025 1.174 1.222.332 2.241.511 3.197.557.462.039.937.047 1.424.038.685 1.487 1.381 3.105 2.113 4.934.785 1.948 1.447 3.76 2.032 5.545.246.705.456 1.417.671 2.125l.21.692.382 1.415c.088.31.158.616.227.922.037.166.074.332.115.499.133.551.225 1 .29 1.414.025.173.06.348.091.517.057.299.112.602.138.903l.059.53c.016.171.032.342.052.519l-7.342-2.08-15.741-5.012-.281-.103.022-.965c.006-.51-.024-1.019-.053-1.528-.014-.269-.032-.539-.04-.812-.014-.579-.086-1.161-.147-1.727l-.068-.601c-.091-.828-.17-1.574-.305-2.318l-.127-.797c-.077-.495-.157-.995-.249-1.488l-.457-2.274c-.091-.493-.213-.983-.33-1.472-.064-.266-.129-.526-.183-.79-.175-.758-.356-1.512-.563-2.263-.386-1.509-.822-3.015-1.245-4.468-.502-1.649-.928-3.025-1.4-4.435-.813-2.457-1.601-4.676-2.383-6.723.046.035.098.067.148.107.713.608 1.349 1.326 1.883 2.145l1.628 2.59c1.223 1.873 2.416 3.524 3.648 5.045.661.823 1.353 1.618 2.054 2.37.866.918 1.563 1.6 2.258 2.204.833.733 1.672 1.393 2.501 1.968zm39.38 29.477l.163-.692.023-.079c.119-.451.169-.897.218-1.339.028-.236.054-.466.091-.699l.132-1.059c.025-.245.029-.481.036-.715l.013-.367c.006-.25.016-.494.026-.738.02-.463.04-.931.026-1.397l-.09-2.113c-.02-.463-.071-.922-.121-1.381-.028-.248-.058-.491-.082-.737l-.114-1.055-.172-1.058c-.044-.246-.079-.485-.118-.73-.074-.46-.144-.919-.244-1.375l-.435-2.062-.519-2.061c-.118-.484-.262-.964-.401-1.444l-.176-.6c-.192-.683-.405-1.356-.633-2.033-.417-1.304-.897-2.653-1.422-4.001-.282-.742-.56-1.435-.836-2.092.121.051.236.107.347.161l.222.104.605.347.514.292c.261.147.52.288.77.443 1.587 1.049 3.027 2.317 4.261 3.764 1.148 1.414 2.14 3.064 2.953 4.886.685 1.576 1.209 3.323 1.659 5.497.325 1.653.524 3.475.617 5.731.055 1.721 0 3.561-.174 5.782-.114 1.643-.296 3.124-.534 4.509-.596-.143-1.2-.298-1.815-.465l-4.79-1.224zm-13.143-3.367l-8.117-2.303-.001-.04c-.032-.342-.074-.661-.121-.982l-.069-.527c-.035-.328-.099-.658-.169-.984-.036-.17-.073-.336-.104-.505-.079-.442-.186-.909-.334-1.479-.043-.162-.081-.323-.122-.49-.076-.322-.161-.646-.256-.968l-.588-1.948c-.247-.765-.505-1.551-.789-2.324-.643-1.788-1.364-3.604-2.203-5.549-.742-1.717-1.444-3.238-2.132-4.648.314-.023.63-.056.959-.101 1.011-.133 2.055-.377 3.109-.727 1.11-.358 2.137-.832 2.912-1.21l1.373-.747 1.23-.769c2.18-.699 3.884-1.106 5.52-1.316 2.005-.261 3.907-.19 5.643.208.589.132 1.17.321 1.737.531.347.866.698 1.781 1.05 2.781.489 1.355.927 2.699 1.308 3.99.208.672.404 1.336.573 2.014l.17.624c.123.466.251.928.352 1.399l.467 2.054.389 2.047c.089.438.149.875.209 1.312.034.249.067.497.106.743l.149 1.028.092 1.025c.019.245.041.496.065.743.04.437.085.876.092 1.311l.05 2.074c.006.435-.022.872-.05 1.309-.016.247-.031.495-.038.744l-.021.36c-.009.22-.022.433-.046.65l-.144 1.006c-.041.228-.074.466-.103.706-.06.445-.107.858-.242 1.266l-.182.688-11.724-2.996zm-37.403-6.484c-1.24.88-2.41 1.648-3.573 2.353l-.442.27c-.46.282-.919.558-1.397.811-.255.135-.507.275-.759.416-.37.208-.74.42-1.125.605l-1.931.967-1.96.856c-.412.194-.849.352-1.27.504-.24.089-.486.177-.727.271l-1.005.371-1.012.296c-.244.063-.492.141-.74.218-.447.137-.868.264-1.301.34l-2.136.453c-.436.065-.894.115-1.352.17l-.776.092c-.536.092-1.06.093-1.62.096l-.517.008c-.187.002-.374.005-.567.011-.543.016-1.051.031-1.559-.048l-2.188-.219-.374-.478c-2.184-2.714-4.096-4.884-6.025-6.847-2.219-2.269-4.584-4.255-7.03-5.9-.173-.123-.363-.239-.546-.364.276.013.595.015.95.006.718-.007 1.542-.054 2.447-.133.911-.081 1.98-.192 3.143-.37 1.235-.192 2.475-.412 3.673-.661 1.186-.237 2.475-.564 4.047-1.02 1.164-.36 2.684-.867 4.207-1.605.628-.313 1.36-.696 2.05-1.216.298-.239.636-.523.939-.893.158-.181.316-.451.428-.717l.96.407c.382.154.764.314 1.145.477l6.686 2.801c1.591.7 3.26 1.315 4.876 1.902.671.244 1.342.493 2.012.746l7.333 2.718c-1.021.889-2.111 1.69-2.964 2.306zm28.779 22.607c.831.166 1.761.177 2.829.027 1.164-.163 2.258-.519 3.082-.808 1.708-.598 3.448-1.435 5.636-2.698 1.62-.933 3.311-2.057 5.152-3.433.873-.666 1.662-1.302 2.413-1.947.393-.335.779-.682 1.159-1.045.193-.184.376-.369.567-.568.096-.101.188-.204.287-.32.07-.093.111-.147.156-.216.012-.012.052-.082.087-.148.009-.018.012-.032.022-.054l4.819 1.156c.632.161 1.262.307 1.878.445-.095.432-.191.863-.302 1.277-.376 1.383-.846 2.686-1.403 3.866-.84 1.777-1.903 3.342-3.175 4.653-1.269 1.341-2.873 2.425-4.643 3.132-1.738.69-3.675 1.02-5.6.964-1.812-.056-3.746-.38-5.742-.979-1.735-.511-3.513-1.253-5.43-2.273-.611-.319-1.205-.673-1.792-1.031zm-20.711-5.823c.564-.179 1.114-.357 1.641-.524 2.08-.707 4.526-1.564 6.928-2.553 2.339-.949 4.596-1.991 6.706-3.099.906-.482 2.085-1.13 3.213-1.882.515-.353 1.041-.713 1.53-1.15l.107-.104c.397-.374.832-.809 1.069-1.479l7.705 2.19c1.889.502 3.751.953 5.555 1.381l6.058 1.453-.078.086c-.158.161-.336.323-.515.49-.369.336-.749.655-1.133.973-.711.594-1.489 1.203-2.364 1.855-1.522 1.156-3.187 2.315-4.963 3.445-1.857 1.165-3.593 2.091-5.306 2.826-.921.395-1.869.71-2.826.934-1.106.255-2.055.309-2.893.151-.169-.033-.386.101-.431.263-.005.043-.003.078-.002.118-.85-.545-1.672-1.128-2.455-1.736-2.35-1.21-4.298-1.961-6.21-2.408-.986-.132-1.943-.282-2.896-.431-1.673-.261-3.404-.53-5.125-.688-1.174-.1-2.274-.139-3.315-.111zm-30.572-1.593c-.435-.338-.799-.71-1.186-1.107-.144-.146-.283-.295-.428-.435l-.445-.538c-.321-.387-.647-.775-.951-1.173l-1.744-2.202 1.376.234c.556.124 1.13.149 1.683.174.185.007.37.014.558.026l.335.016c.636.029 1.292.058 1.941-.019l.753-.053c.488-.033.976-.067 1.457-.112l2.207-.373c.486-.069.966-.203 1.427-.331.245-.068.49-.137.74-.199l1.078-.281 1.066-.362c.245-.088.49-.172.728-.251.45-.151.916-.307 1.367-.502l2.023-.852 1.982-.975c.461-.222.91-.476 1.343-.724.197-.114.392-.223.59-.336.49-.27.973-.565 1.452-.867l.432-.268c1.08-.669 2.236-1.455 3.62-2.475 1.1-.827 2.277-1.731 3.42-2.77.054-.047.097-.107.13-.164l15.65 5.13 7.867 2.237c-.121.259-.386.569-.81.932-.418.359-.884.669-1.406 1.01-1.095.691-2.252 1.284-3.134 1.722-2.105 1.041-4.316 1.989-6.452 2.905l-.179.078c-1.958.823-4.392 1.844-6.765 2.747-2.305.907-4.61 1.766-6.864 2.552-.042.015-.083.045-.116.082-.698.095-1.395.185-2.093.281-1.912.261-3.829.522-5.747.748-2.448.265-5.68.507-8.919.029-3.16-.504-5.925-1.724-7.986-3.534z"/>
    <path fill="url(#prefix__paint4_linear)" d="M78.503 291.162c-6.707 9.383-7.949 18.032-8.382 23.702-2.765-3.189-5.263-6.215-7.494-9.003 4.378-10.736 2.692-19.297 3.764-23.976-4.677 8.325-5.762 16.157-5.846 21.334-2.196-2.816-4.071-5.328-5.603-7.443-1.389-9.415-8.192-13.039-9.811-16.375.198 12.216 8.745 17.575 9.883 18.238 1.627 2.441 3.264 4.812 4.906 7.114-4.528-.195-11.75.371-19.522 4.473 4.108-.79 11.534 1.004 20.97-2.465 2.382 3.28 4.774 6.425 7.17 9.423-5.237.281-13.844 1.05-22.903 7.927 4.662-1.646 13.771-.746 24.1-6.443 2.888 3.561 5.775 6.929 8.666 10.102-6.41.462-16.981 1.575-28.232 10.084 5.763-2.099 16.955-1.192 29.795-8.395 3.41 3.667 6.815 7.088 10.193 10.256-7.45.594-19.54 2.052-32.453 11.799 6.686-2.459 19.623-1.501 34.524-9.883 4.003 3.648 7.966 6.962 11.865 9.97-.386-.071-.731-.198-.942-.594-7.57 1.862-20.36 5.28-32.318 18.176 6.55-3.77 20.431-4.989 34.459-16.663 4.991 3.789 9.881 7.084 14.607 9.948-8.009 2.67-21.175 7.501-34.664 21.389 7.104-4.433 21.286-7.053 36.93-20.04 5.945 3.466 11.618 6.261 16.912 8.509-6.857 3.14-17.956 8.664-29.175 21.829 6.014-4.535 18.119-8.229 31.308-20.943 5.796 2.35 11.097 4.037 15.756 5.256-5.272 3.248-13.456 8.765-22.131 19.637 4.631-4.095 13.583-8.278 23.86-19.142.1.057.206.11.33.148l.025-.113c6.14 1.487 11.014 2.133 14.221 2.427.005-.137.016-.272.026-.408-4.755-.827-9.417-1.943-13.964-3.295 2.279-10.978-2.525-19.901-2.489-24.773-4.472 9.877-1.967 18.572-.099 23.973-5.001-1.601-9.87-3.487-14.598-5.613 4.391-16.164.611-28.222 1.408-35.178-6.295 14.871-4.834 26.878-3.705 34.127-5.553-2.606-10.908-5.531-16.041-8.678 5.623-15.775 2.855-28.128 4.218-35.023-7.396 14.128-7.098 26.116-6.58 33.554-4.846-3.073-9.488-6.337-13.918-9.716 7.321-15.311 5.725-28.018 7.769-34.799-8.911 13.616-9.629 25.806-9.817 33.219-3.99-3.128-7.8-6.334-11.42-9.566 7.181-14.063 6.232-25.99 8.421-32.3-8.597 12.023-10.114 23.107-10.653 30.289-3.579-3.277-6.956-6.558-10.12-9.787 6.453-12.261 5.6-22.699 7.502-28.177-7.588 10.613-8.727 20.369-9.15 26.479-2.958-3.074-5.727-6.092-8.286-8.993 5.741-11.135 4.997-20.603 6.728-25.598z"/>
    <path fill="url(#prefix__paint5_linear)" d="M133.252 430.841c3.926-3.283 6.955-7.209 8.76-11.365.89-2.066 1.429-4.162 1.612-6.228.021-.271.042-.542.053-.811.1-2.375-.311-4.811-1.184-7.045 1.164.014 2.321.041 3.478.084 1.472-.001 2.946.121 4.366.242.684.055 1.364.108 2.046.152 1.613.09 3.202.288 4.744.48l4.315.517c.614.083 1.223.19 1.821.299.335.06.67.12.997.174.556.099 1.109.194 1.653.286.201-.596.411-1.189.621-1.782-.641-.119-1.286-.238-1.949-.367-.33-.059-.66-.123-.99-.182-.62-.124-1.247-.239-1.887-.338l-3.394-.464c-1.87-.26-3.802-.525-5.79-.63-.673-.042-1.351-.1-2.031-.153-1.455-.119-2.958-.243-4.469-.242-1.532-.057-3.004-.076-4.455-.08-.837-1.6-1.897-3.142-3.183-4.602-1.615-1.828-3.57-3.516-5.811-5.022-2.022-1.319-4.319-2.487-6.829-3.487-2.101-.829-4.441-1.49-7.375-2.087-2.811-.481-5.307-.729-7.618-.744-1.108-.026-2.233.028-3.318.076l-.526.025c-.392.045-.782.076-1.177.111-.866.077-1.757.159-2.626.319l-1.902.303-1.853.418c-.934.185-1.853.457-2.74.722l-.97.285c-.799.235-1.589.526-2.35.814-.422.157-.838.31-1.28.467l-.928.403c-.846.362-1.725.742-2.571 1.153-2.494 1.25-4.67 2.501-6.648 3.832-2.112 1.408-4.166 2.973-6.103 4.652-1.748 1.49-3.556 3.228-5.537 5.326-.3.332-.6.668-.899 1-.558.614-1.106 1.23-1.655 1.866l-2.405 2.993-.344.469c-1.372 1.875-2.793 3.812-4.05 5.811-1.322 2.063-2.592 4.231-3.878 6.622-2.255 4.194-4.36 8.8-6.274 13.69l-.107.04.066.059c-.016.046-.036.095-.055.135-.068.172-.06.361.016.526.076.164.211.283.38.346.167.062.346.052.52-.027.05-.023.094-.048.143-.071l.057.052.036-.095c2.014-.943 4.102-1.909 6.26-2.545 2.51-.768 4.736-1.186 6.808-1.264 2.095-.093 4.364.07 6.937.502 2.012.327 4.047.816 6.016 1.291l7.798 1.946c2.27.562 4.619 1.136 6.988 1.577 2.652.451 5.006.696 7.185.755 2.643.134 5.246-.058 7.219-.242 9.893-1.126 19.226-5.012 26.266-10.947zm-6.461 3.169c-2.11 1.198-4.243 2.213-6.353 3.011-2.061.825-4.314 1.537-6.702 2.111-.624.161-1.257.295-1.894.423-.461-.974-.884-1.985-1.241-3.049-.163-.436-.294-.888-.422-1.326-.072-.252-.147-.51-.222-.749-.12-.45-.225-.907-.335-1.36-.062-.255-.122-.514-.182-.75l-.381-2.153c-.064-.462-.108-.93-.157-1.394-.026-.257-.051-.519-.078-.776-.057-.451-.062-.915-.065-1.364-.005-.266-.004-.532-.018-.801-.045-.705.007-1.427.059-2.149.013-.169.026-.339.035-.509.038-.592.079-1.174.176-1.635l.35-2.128.571-2.112c.113-.531.317-1.032.528-1.561.058-.15.121-.303.177-.443.102-.239.196-.488.29-.733.162-.442.322-.854.543-1.253l1.025-1.927c.232-.49.54-.928.868-1.391.094-.137.187-.269.28-.401l1.152-1.653c1.34-.271 2.634-.509 3.911-.716l3.436-.566 3.466-.411c.417-.045.83-.095 1.244-.146.051-.008.1-.012.15-.015l-.273.5c-.092.196-.19.396-.283.592-.179.363-.353.728-.525 1.108-.086.208-.176.414-.261.622-.154.364-.319.731-.447 1.111l-.069.196c-.187.515-.379 1.048-.527 1.581-.756 2.48-1.087 5.036-.962 7.457.026.567.085 1.161.189 1.889.087.512.204 1.178.385 1.844.312 1.202.751 2.388 1.301 3.531.531 1.103 1.174 2.183 1.922 3.211.341.476.714.958 1.136 1.466.138.174.287.345.44.517.185.204.346.407.495.622-.915.608-1.82 1.169-2.732 1.679zm15.113-28.484c.84 2.182 1.224 4.563 1.095 6.873-.114 2.259-.681 4.526-1.674 6.77-.871 1.982-2.125 3.986-3.717 5.945-1.38 1.71-3.063 3.372-4.999 4.934-.85.691-1.718 1.334-2.594 1.941-.164-.254-.339-.48-.518-.692-.135-.164-.271-.327-.407-.51-.401-.513-.75-.995-1.068-1.465-.691-1.021-1.28-2.078-1.752-3.154-.491-1.105-.875-2.249-1.133-3.405-.139-.592-.235-1.2-.312-1.759-.081-.692-.123-1.258-.138-1.788-.061-2.309.308-4.703 1.085-7.055.15-.499.345-1.002.535-1.486l.08-.204c.135-.363.299-.73.465-1.077.086-.193.172-.38.257-.563.165-.347.342-.682.521-1.021l.299-.574.774-1.323c.119-.008.235-.022.355-.029l3.451-.238c3.088-.191 6.22-.268 9.341-.25.011.037.035.082.054.13zm-23.659-16.636c2.783.544 5.158 1.203 7.258 2.017 2.473.972 4.73 2.117 6.717 3.398 3.842 2.558 6.782 5.663 8.651 9.07-2.954.004-5.775.097-8.499.305l-3.474.272c-.076.008-.146.017-.226.023-.12-.479-.26-.974-.433-1.5-.247-.764-.561-1.583-.985-2.569-.416-.886-.828-1.682-1.262-2.424-.16-.297-.342-.579-.523-.846l-.21-.317c-.238-.384-.51-.75-.79-1.123-.398-.571-.855-1.102-1.294-1.619-.144-.17-.283-.339-.443-.522l-.34-.347c-.516-.529-1.048-1.071-1.626-1.54-.62-.563-1.328-1.11-2.149-1.677-.354-.262-.73-.489-1.107-.711.246.04.479.073.735.11zm-17.521 1.907c-.147-.067-.29-.128-.432-.195-.466-.222-.975-.449-1.51-.603l-.392-.132c.382-.107.772-.207 1.162-.287l1.827-.429 1.876-.319c.836-.167 1.704-.254 2.546-.336.401-.039.797-.078 1.181-.125l.511-.029c1.068-.061 2.176-.124 3.261-.108 1.63-.004 3.351.11 5.204.332l.012.013c.283.23.578.444.865.656.434.319.843.622 1.226.973l.999.869c.21.18.407.376.598.577.112.113.224.227.338.336l.088.089c.286.28.559.553.805.859l.858.975c.133.173.266.345.404.519.394.502.803 1.026 1.177 1.617.234.338.475.687.675 1.047.091.163.193.324.29.484.13.211.255.421.377.645.409.722.789 1.482 1.167 2.32.318.711.681 1.555.971 2.413.149.412.274.8.387 1.175-.192.026-.389.05-.576.073-.414.055-.824.111-1.246.159l-3.51.456-3.475.607c-1.213.206-2.468.447-3.765.719l-.047-.119-.097-.224-.242-.546c-.176-.379-.352-.758-.546-1.122-.478-.939-1.018-1.887-1.603-2.811-.483-.743-1.13-1.715-1.867-2.638l-.058-.072c-.305-.393-.62-.808-.973-1.183-.127-.136-.248-.277-.375-.413-.231-.264-.466-.528-.713-.785l-1.142-1.132c-.254-.249-.522-.476-.791-.704-.14-.12-.285-.241-.419-.364-.363-.333-.773-.651-1.291-1.013-.154-.103-.305-.216-.458-.324-.278-.205-.565-.417-.875-.589l-1.378-.816c-.332-.187-.684-.345-1.024-.495zm-19.292 7.834c-.27-.045-.535-.061-.8-.081.602-.441 1.198-.894 1.816-1.312 1.935-1.315 4.064-2.558 6.507-3.799.766-.375 1.56-.725 2.33-1.064.37-.164.74-.327 1.095-.489.426-.151.845-.314 1.268-.475.74-.283 1.511-.578 2.274-.811.325-.095.651-.194.978-.294.137-.043.278-.085.42-.127l1.201.534c.482.192.94.447 1.362.694.182.11.37.211.558.312.276.15.539.293.786.461l1.295.886c.265.172.509.379.77.595.145.121.289.242.435.359.383.307.79.639 1.166 1.004.134.123.267.252.402.375.25.224.494.45.72.688l1.062 1.139c.221.241.434.501.642.754.12.145.235.289.36.435.234.269.454.56.67.849l.281.368c.696.889 1.306 1.829 1.765 2.547.641 1 1.144 1.851 1.575 2.671.193.349.369.703.546 1.058l.263.561c-2.576.576-5.366 1.282-8.504 2.161-1.789.545-3.713 1.149-5.684 1.811l-.594-.773c-.3-.392-.603-.775-.915-1.16-.638-.773-1.296-1.521-1.966-2.212-1.563-1.581-3.041-2.832-4.522-3.828-1.816-1.233-3.534-2.134-5.251-2.75-1.006-.373-1.937-.645-2.847-.829-.491-.109-.982-.195-1.464-.258zM69.28 416.023c-.235-.047-.471-.085-.71-.114-.124-.018-.248-.031-.366-.052-.321-.057-.676-.092-1.115-.107-.117-.001-.227-.011-.349-.019-.246-.015-.502-.033-.757-.012-.124.007-.247.009-.375.01-.242.005-.488.009-.745.04l-.82.142c.596-.856 1.204-1.695 1.804-2.521l2.703-3.449c.524-.616 1.06-1.22 1.6-1.818.301-.342.607-.682.903-1.019 1.94-2.073 3.71-3.794 5.42-5.264 1.102-.965 2.25-1.87 3.411-2.753l.005.001c1.947.357 3.768.922 5.417 1.67.894.392 1.732.86 2.506 1.309.765.442 1.534.953 2.347 1.558 1.493 1.117 2.92 2.377 4.244 3.751.637.645 1.285 1.347 1.914 2.093l1.202 1.46c-1.913.666-3.854 1.389-5.73 2.171-1.415.54-2.796 1.152-4.125 1.746-.626.279-1.24.555-1.88.83l-1.498.714c-1.432.684-2.78 1.323-4.094 2.029-.542.273-1.056.557-1.578.834-2.734-1.32-4.997-2.196-7.213-2.775-.762-.19-1.537-.344-2.12-.455zm-11.19 9.671c1.26-2.363 2.502-4.513 3.8-6.561.488-.783 1.008-1.558 1.53-2.322l.463-.074 1.034-.015c.215.004.431.023.648.041.13.015.255.023.39.033.214.009.43.048.662.089.118.022.23.042.336.056 1.487.259 2.804.583 4.036.996.58.169 1.212.374 1.99.647l.624.218c.456.156.907.311 1.36.482.76.283 1.447.55 2.1.814-2.416 1.336-4.684 2.695-6.818 4-3.389 2.167-5.925 3.895-7.982 5.429-2.191 1.608-4.163 3.156-5.87 4.591-1.649 1.375-2.87 2.48-3.68 3.24 1.642-4.089 3.444-8.01 5.377-11.664zm6.676 8.844c-2.195.1-4.531.548-7.147 1.371-.915.278-1.802.607-2.66.956.627-.544 1.351-1.155 2.19-1.844 1.71-1.405 3.678-2.915 5.855-4.481 2.07-1.507 4.601-3.186 7.961-5.286 1.911-1.144 3.944-2.324 6.078-3.496l-.52.681c-.156.197-.29.408-.43.618-.069.108-.143.219-.222.334-.068.108-.14.215-.214.322-.138.205-.283.414-.4.63l-.567.966c-.13.212-.243.433-.356.654l-.204.388c-.169.321-.338.643-.48.971-.611 1.296-1.133 2.676-1.59 4.224-.35 1.202-.6 2.308-.764 3.359-2.165-.322-4.323-.479-6.53-.367zm21.237 3.715l-6.974-1.747c-2.448-.596-4.78-1.142-7.086-1.51.203-1.004.496-2.061.888-3.209.496-1.44 1.08-2.792 1.728-4.031.148-.311.318-.613.51-.949.065-.114.129-.227.194-.346.114-.201.222-.403.354-.6l.594-.931c.117-.195.255-.376.39-.563l.227-.313.233-.323c.13-.187.264-.374.417-.551l.693-.85c.303-.37.639-.734.966-1.079.167-.179.333-.354.498-.543.04-.046.074-.092.102-.15.036-.076.063-.153.068-.241 0-.005-.003-.01 0-.02.358-.18.698-.365 1.062-.545 1.28-.664 2.593-1.276 3.983-1.926.526-.247 1.056-.492 1.571-.737.622-.26 1.247-.533 1.872-.807 1.318-.572 2.682-1.168 4.087-1.691 1.29-.529 2.617-1.025 3.938-1.498-.21.259-.41.519-.581.806l-1.082 1.649c-.32.45-.576.939-.824 1.416l-.174.34c-.104.203-.213.41-.322.612-.2.374-.41.766-.584 1.175l-.744 1.828c-.198.428-.328.882-.455 1.321-.058.194-.11.389-.175.591l-.09.29c-.161.53-.328 1.084-.424 1.649-.04.227-.09.452-.14.677-.09.423-.178.847-.241 1.286l-.228 1.977c-.031.427-.043.857-.06 1.287-.007.23-.014.46-.026.693-.018.435.002.873.016 1.299.008.228.02.462.023.69.012.436.058.869.102 1.288.023.227.05.459.066.699.09.7.203 1.385.305 1.964.213 1.072.444 2 .712 2.848-1.798-.363-3.556-.776-5.389-1.225zm11.308 2.115c-.337-.031-.669-.061-.992-.084-1.254-.142-2.39-.307-3.463-.488-.263-.05-.515-.111-.773-.163-.277-.919-.51-1.926-.706-3.118-.084-.57-.175-1.245-.237-1.914-.012-.234-.029-.469-.045-.705-.033-.406-.063-.821-.061-1.229.003-.236 0-.468-.002-.7-.007-.41-.007-.829.019-1.232.018-.237.03-.471.049-.708.021-.34.041-.675.072-1.013l.3-2.129c.067-.408.165-.805.258-1.203.056-.229.106-.454.158-.688.1-.519.27-1.043.431-1.548l.093-.285c.067-.192.13-.389.19-.588.133-.428.257-.829.452-1.223l.766-1.774c.17-.366.373-.729.574-1.083.113-.201.228-.407.336-.609l.188-.337c.248-.457.487-.891.8-1.304l1.105-1.604c.208-.338.476-.642.757-.958.15-.169.302-.342.438-.513l.803-.943c2.191-.726 4.343-1.383 6.322-1.969 2.849-.771 5.351-1.394 7.676-1.903l-.306.473c-.089.138-.183.275-.273.412-.322.48-.654.981-.891 1.519l-1.004 1.987c-.235.44-.403.909-.563 1.366-.088.241-.173.488-.272.737l-.165.455c-.209.544-.417 1.108-.536 1.688l-.539 2.188-.32 2.194c-.103.573-.128 1.153-.151 1.739-.008.17-.016.341-.022.522-.035.731-.076 1.49-.016 2.237.017.255.025.507.037.761.016.482.037.984.11 1.473.036.259.068.512.099.77.055.48.116.957.201 1.439l.446 2.187c.072.253.138.509.204.765.123.461.242.92.383 1.39.083.245.165.495.243.739.145.451.293.913.469 1.356.37 1.008.807 1.978 1.271 2.918-1.477.266-2.954.467-4.364.635-2.169.16-4.623.344-7.023.217-.863-.001-1.71-.077-2.526-.152z"/>
    <path fill="url(#prefix__paint6_linear)" d="M174.043 372.02l38.968 14.561c1.459.548 2.264 2.254 1.881 3.984l-6.587 29.762c-.379 1.711-1.807 2.907-3.336 2.81l-42.735-2.793c-1.896-.125-3.146-2.152-2.622-4.254l10.354-41.524c.501-1.999 2.386-3.176 4.077-2.546z"/>
    <path fill="url(#prefix__paint7_linear)" d="M168.8 370.822l-10.736 48.457c-.15.675.28 1.352.955 1.503l4.056.908c.674.151 1.345-.279 1.493-.95l10.737-48.457c.149-.676-.281-1.353-.955-1.504l-4.056-.908c-.675-.151-1.345.28-1.494.951z"/>
    <path fill="url(#prefix__paint8_linear)" d="M157.735 423.295l12.409-55.984c.127-.572-.237-1.151-.813-1.28l-1.992-.446c-.571-.128-1.149.235-1.277.812l-12.41 55.989c-.127.572.238 1.146.81 1.274l1.991.446c.581.13 1.154-.234 1.282-.811z"/>
    <path fill="url(#prefix__paint9_linear)" d="M424.455 554.988c11.92-28.73-139.074-17.362-216.395-21.78-36.841-2.105-91.897-3.278-120.72 5.134-179.377 52.336 327.096 40.785 337.115 16.646z" opacity=".25"/>
    <path fill="url(#prefix__paint10_linear)" d="M312.514 210.654s15.778-15.838-30.321-7.201c-23.505 4.403-46.712 16.665-49.992 8.638-3.279-8.022-13.93 1.649-12.087 11.522 1.843 9.878 4.916 19.957 21.513 13.781 16.592-6.167 40.973-30.239 70.887-26.74z"/>
    <path fill="url(#prefix__paint11_linear)" d="M314.3 206.222s14.873-6.542-20.566-11.973c-18.066-2.769-37.592-.346-38.272-6.369-.68-6.018-10.503-2.269-11.264 4.609-.756 6.879-.666 14.19 12.743 14.151 13.409-.038 36.305-9.877 57.359-.418z"/>
    <path fill="url(#prefix__paint12_linear)" d="M90.471 502.656c-4.04 1.29-8.503-.921-9.97-4.936-1.466-4.015.62-8.32 4.655-9.608 4.04-1.29 8.503.921 9.97 4.936 1.469 4.019-.614 8.318-4.655 9.608z"/>
    <path fill="url(#prefix__paint13_linear)" d="M305.556 506.487c2.262-.202 4.524-.067 6.788.148l-2.129-4.027c-.527-.993-1.557-1.643-2.681-1.684l-105.064-4.092c-1.678-.063-3.037 1.215-3.041 2.859-.001.359.063.708.182 1.029.425 1.156 1.537 2.017 2.852 2.066l102.142 3.981c.269-.148.584-.244.951-.28z"/>
    <path fill="url(#prefix__paint14_linear)" d="M316.583 517.737c.549-.875.58-1.981.083-2.925l-1.724-3.263c-2.33-.252-4.659-.493-6.98-.465l.986 1.87-99.068-3.437c-1.674-.055-3.031 1.228-3.028 2.874.007 1.645 1.368 3.026 3.044 3.085l104.093 3.61c1.062.035 2.049-.477 2.594-1.349z"/>
    <path fill="url(#prefix__paint15_linear)" d="M91.653 517.337c-4.728 1.509-9.956-1.08-11.671-5.781-1.718-4.705.72-9.74 5.448-11.249 4.733-1.508 9.955 1.079 11.67 5.78 1.719 4.705-.72 9.74-5.447 11.25z"/>
    <path fill="#223265" d="M227.593 509.99c-.109-4.479-11.202-37.818-20.274-47.134-2.499-2.566-5.946-4.072-9.579-4.144-17.851-.351-76.547-1.205-102.377 2.086-.493.06-.979.047-1.478.03-11.446-.432-14.68 26.81-5.702 48.111 2.103 4.981 85.651 2.549 121.099 7.267 7.953 1.052 18.497 1.457 18.311-6.216z"/>
    <path fill="#223265" d="M227.313 508.212l-3.362-11.303c-.874-2.942-3.69-5.01-6.909-5.076l-125.225-2.521c-4.763-.094-8.29 4.096-7.135 8.478l4.864 18.484c.843 3.193 3.945 5.403 7.41 5.274l123.725-4.656c4.663-.178 7.902-4.413 6.632-8.68zM316.82 514.768l-7.53-15.098c-.984-1.951-3.338-2.811-5.292-1.932-1.947.882-2.742 3.178-1.767 5.123l7.535 15.096c.038.077.078.149.118.22 1.034 1.793 3.295 2.56 5.174 1.712 1.943-.88 2.733-3.174 1.762-5.121z"/>
    <path fill="url(#prefix__paint16_linear)" d="M362.457 528.123l7.439 18.895s-2.068 4.879 3.002 6.249c5.069 1.37 14.212-1.937 15.811-3.523 3.337-3.303-11.719-4.35-11.719-4.35l-9.301-23.337-5.232 6.066z"/>
    <path fill="url(#prefix__paint17_linear)" d="M375.21 538.433c-14.988-147.777-24.715-203.915-29.641-225.06-2.595-11.137-3.859-12.569-3.859-12.569-8.913-5.759-36.511-24.168-45.19 26.038.206 34.449 26.478 112.256 49.369 165.966 8.852 20.775 15.209 38.242 19.024 48.831 1.025-.149 9.354-2.73 10.297-3.206z"/>
    <path fill="#223265" d="M377.575 545.028s19.071-.87 21.158 2.783c3.337 5.845-23.983 11.007-28.191 8.431-4.04-2.471-1.34-8.133-1.34-8.133s4.107 2.322 8.373-3.081z"/>
    <path fill="#E9E9EA" d="M379.274 545.533s-1.427 1.956-1.57 3.903c.282 1.206 3.925-5.11 1.57-3.903zM383.281 545.72s-1.412 1.942-1.537 3.889c.283 1.202 3.878-5.081 1.537-3.889zM386.981 545.677s-1.192 1.687-1.268 3.403c.272 1.062 3.293-4.412 1.268-3.403z"/>
    <path fill="url(#prefix__paint18_linear)" d="M319.441 188.404l-8.153 31.714s13.586 14.137 20.882 14.949c8.482.947 3.686-44.174 3.686-44.174l-16.415-2.489z"/>
    <path fill="url(#prefix__paint19_linear)" d="M249.148 517.687l-15.716 12.969s-5.285-.485-5.027 4.812c.254 5.292 6.224 13.055 8.225 14.107 4.174 2.187.536-12.598.536-12.598l19.373-16.127-7.391-3.163z"/>
    <path fill="url(#prefix__paint20_linear)" d="M333.319 363.349c-.019.005-.048.005-.067.009-1.652-14.285-4.677-22.961-4.677-22.961s7.53-28.624-10.106-37.108c-17.635-8.484-54.237-29.345-38.584 73.245 15.654 102.589-44.136 148.662-44.136 148.662s7.266 9.368 7.736 9.084c88.072-59.425 93.807-133.746 89.834-170.931z"/>
    <path fill="url(#prefix__paint21_linear)" d="M368.197 224.372c-3.317-7.767-30.953-17.261-31.058-14.66-.034.783-.584 4.854-8.028 6.7-10.403 2.581-15.161-6.994-15.161-6.994-10.163-1.605-30.139 7.821-34.931 14.401-11.092 15.223-14.443 137.405-2.164 142.063 8.727 3.307 68.379 4.047 81.347-6.898 17.827-56.373 14.734-123.508 9.995-134.612z"/>
    <path fill="#223265" d="M238.085 537.342s6.122 18.155 3.202 21.183c-4.667 4.836-17.181-20.087-15.878-24.86 1.244-4.581 7.41-3.552 7.41-3.552s-1.082 4.61 5.266 7.229z"/>
    <path fill="#E9E9EA" d="M238.08 539.121s-2.269-.832-4.174-.433c-1.077.606 5.979 2.37 4.174.433zM239.009 543.038s-2.25-.817-4.146-.408c-1.072.61 5.931 2.336 4.146.408zM240.076 546.6s-1.943-.683-3.609-.284c-.943.558 5.131 1.952 3.609.284z"/>
    <path fill="url(#prefix__paint22_linear)" d="M357.539 158.824c1.272 3.347-.107 5.221 4.181 11.07 1.892 2.581-.121 10.428 2.201 12.009 2.322 1.576 10.935-2.788 10.504-6.153-.431-3.365-15.046-21.827-15.648-21.86-.598-.032-4.335-3.202-1.238 4.934z"/>
    <path fill="url(#prefix__paint23_linear)" d="M308.542 158.935c-1.877 3.074-.764 5.165-6.182 10.17-2.39 2.21-1.621 10.302-4.289 11.448-2.668 1.142-10.849-4.687-9.839-7.928 1.01-3.24 19.226-18.847 19.855-18.773.624.074 5.022-2.388.455 5.083z"/>
    <path fill="url(#prefix__paint24_linear)" d="M373.192 171.841c2.898-.127 34.551 50.95 17.634 87.807-2.35 5.116-7.93 7.352-12.335 4.685-11.426-6.922-19.911-35.874-16.346-89.008 3.516-3.192 6.806-3.297 11.047-3.484z"/>
    <path fill="url(#prefix__paint25_linear)" d="M290.163 168.991c-2.977-.639-44.291 44.098-32.96 83.429 1.574 5.459 6.973 8.654 11.979 6.805 12.984-4.797 26.615-31.832 31.828-84.841-3.103-3.77-6.49-4.456-10.847-5.393z"/>
    <path fill="url(#prefix__paint26_linear)" d="M346.578 156.058c.342-.655 4.773-2.448 7.534-3.025s5.989.47 8.062 1.982c2.778 2.026 3.208 6.554 3.083 6.874-.09.227-4.95-3.073-4.95-3.073s-.271-.28-4.003 1.315c-3.73 1.598-10.936-1.742-9.726-4.073z"/>
    <path fill="url(#prefix__paint27_linear)" d="M319.322 150.255c-.654-.363-5.548.596-8.31 1.651-2.762 1.054-5.073 3.743-6.11 6.18-1.389 3.266.643 7.337.925 7.537.201.143 2.761-5.365 2.761-5.365s.092-.387 4.259-1.124c4.168-.732 8.793-7.584 6.475-8.879z"/>
    <path fill="url(#prefix__paint28_linear)" d="M341.404 213.504c-6.286 4.706-21.188 12.344-39.494-2.182-.77-8.638 12.906-10.181 13.524-9.565.613.615 15.52 8.536 24.122 3.393 1.058-1.35 2.236-.216 3.193 1.375 1.398 2.322.823 5.359-1.345 6.979z"/>
    <path fill="url(#prefix__paint29_linear)" d="M335.147 145.153c-1.336.596-19.397 6.83-15.295 30.489.551 11.377 15.525 17.933 24.031 3.542 8.507-14.391 6.085-40.636-8.736-34.031z"/>
    <path fill="#223265" d="M338.345 175.45c-.297-.539-.785-.938-1.374-1.106-.412-.111-.857-.245-1.12-.346-.651-.245-1.379-.144-1.968.236-3.815 2.461-9.914 4.532-11.939-5.413-.847-5.037-2.202-5.037-2.202-5.037s-12.528 23.831 4.021 36.117c10.163 7.542 28.474-3.162 21.796-24.36-3.045 4.706-5.687 2.697-7.214-.091zM325.218 148.878s9.91-19.9 31.48-8.811c.924.476 1.738 1.207 2.183 2.149 1.671 3.528-3.126 5.749-6.774 5.422 5.276.745 8.857 6.643.47 7.676 2.025 1.798.186 6.869-4.127 6.994.187-.37.307-6.994-4.007-9.344-2.585-1.409-9.985-4.519-13.313-2.721-7.142 3.86-11.34 12.685-11.34 12.685s1.436-9.051 5.428-14.05z"/>
    <path fill="url(#prefix__paint30_linear)" d="M323.309 158.256s-4.38-5.864-5.419.452c-.824 5.008 3.92 5.864 3.92 5.864l1.499-6.316z"/>
    <ellipse fill="#C4C4C4" rx="4.501" ry="7.529" transform="matrix(.97576 .21953 -.21786 .97613 332.55 188.369)"/>
    <path fill="url(#prefix__paint31_linear)" d="M457.692 611.292c-3.236-28.758 69.977-15.304 108.403-18.607 18.311-1.576 45.492-1.956 58.896 6.821 83.424 54.624-164.58 35.95-167.299 11.786z" opacity=".25"/>
    <path fill="#223265" d="M626.901 425.513l-42.194 1.634c-4.116.159-7.357 3.595-7.29 7.729l1.034 65.035c.072 4.422 3.863 7.854 8.248 7.465l48.531-4.288c4.261-.375 7.367-4.215 6.865-8.484l-7.368-62.386c-.464-3.937-3.872-6.859-7.826-6.705z"/>
    <path fill="url(#prefix__paint32_linear)" d="M602.506 395.726c1.168.418 3.854 11.065 6.802 14.184 3.414 3.605 4.888 8.782 3.495 10.575-2.599 3.345-12.116 8.936-14.826 3.225-1.249-2.629-.804-7.118-1.014-10.998-.245-4.547-6.597-16.914-6.597-16.914l12.14-.072z"/>
    <path fill="#223265" d="M513.361 262.642s-3.873 1.658-4.189 9.253c-.632 3.163-6.084 95.009-6.558 95.009-.474 0 2.843 7.167 2.843 7.167l7.904-111.429z"/>
    <path fill="url(#prefix__paint33_linear)" d="M528.273 265.165s12.465-10.146 22.269.798c9.804 10.94 38.627 42.396 55.923 136.372-5.879 4.273-11.992 5.542-11.992 5.542s-18.162-34.315-35.937-65.506c-18.114-31.768-35.788-60.579-30.263-77.206z"/>
    <path fill="url(#prefix__paint34_linear)" d="M544.578 265.949c-.364-.75-4.754-10.378-7.851-18.881 4.471-11.911.359-29.691-4.017-34.32-4.006-4.234-7.908-5.701-15.711-1.908-9.411 4.571-13.021 14.165-10.953 25.057 1.25 6.59 6.07 14.382 11.796 18.429-.618 12.19-6.539 17.122-7.923 20.756-3.38 8.887 33.716 17.813 42.342 3.735-.005 0-3.926-5.129-7.683-12.868z"/>
    <path fill="#223265" d="M587.546 432.776s.962-5.086 3.801-9.244c4.773-6.989 17.808-11.324 26.975-2.927 6.712 6.148 5.879 10.479 3.639 12.055-1.169.827-5.008-.461-4.965-1.903.058-1.875-.378-4.355-2.527-6.355-5.448-5.066-16.793-4.941-20.465 6.417.22 1.25-5.046 10.061-6.458 1.957z"/>
    <path fill="url(#prefix__paint35_linear)" d="M522.274 587.013l-2.676 22.924s4.232 3.542.168 7.243c-4.064 3.697-15.635-.87-17.875-1.576-4.667-1.476 10.335-3.783 10.335-3.783l.742-26.865 9.306 2.057z"/>
    <path fill="#223265" d="M510.766 607.802s-13.935.01-16.022 3.932c-3.332 6.263 22.188 11.142 26.434 8.143 5.788-4.091-.531-10.118-.531-10.118s-4.615 1.009-9.881-1.957z"/>
    <path fill="url(#prefix__paint36_linear)" d="M580.983 585.028l6.013 21.948s4.499 3.196.746 7.205c-3.753 4.014-15.653.394-17.937-.13-4.768-1.096 10-4.605 10-4.605l-7.817-25.557 8.995 1.139z"/>
    <path fill="#223265" d="M578.365 607.553s-13.773 4.114-14.462 8.503c-1.096 7.017 24.481 3.249 27.516-.986 4.131-5.773-3.81-9.382-3.81-9.382s-3.294 2.927-9.244 1.865z"/>
    <path fill="url(#prefix__paint37_linear)" d="M518.971 405.488c-.21-1.932 5.156-4.158 5.156-4.158 3.284-7.542 5.826-30.446 11.456-33.229 20.124-9.964 35.103 15.915 33.677 54.393-2.246 60.444 19.177 178.118 19.177 178.118s-5.501 2.562-14.802 3.1c-38.861-85.281-52.744-180.857-54.664-198.224z"/>
    <path fill="url(#prefix__paint38_linear)" d="M508.986 602.563c-6.817-152.512-4.653-201.752-2.217-223.882 1.288-11.661 11.886-18.914 11.886-18.914 8.378-6.961 27.584-28.898 42.538 21.149 7.229 21.414-6.635 47.462-6.793 48.154-13.896 59.892-27.573 166.976-29.526 175.445-1.068-.024-11.111.63-15.888-1.952z"/>
    <path fill="url(#prefix__paint39_linear)" d="M542.193 259.003s19.374 13.296 24.472 42.948c6.989 40.655 7.037 60.589 1.58 83.608 1.139 8.474-61.543 10.565-63.86 7.172-3.006-4.398 3.083-13.704-1.01-46.798-5.453-44.092 6.678-77.018 12.145-82.921.584-.639 19.947-.423 26.673-4.009z"/>
    <path fill="#223265" d="M501.547 212.388c-.254-1.62-.36-3.216-.388-4.672-.053-3.005 2.034-5.384 4.653-5.119 3.585.355 8.976-.539 15.342-3.293 11.422-4.941 24.142 3.884 27.617 16.343 4.691 16.818-7.003 24.216-11.982 34.541-2.528 5.244-11.953 2.922-12.49-2.312-.828-8.085-6.362-16.362-12.211-21.784-4.854-4.499-9.292-5.677-10.541-13.704z"/>
    <path fill="url(#prefix__paint40_linear)" d="M513.84 229.654s2.666-3.759 4.117-1.784c1.967 2.687-.8 9.119-.8 9.119l-3.317-7.335z"/>
    <path fill="url(#prefix__paint41_linear)" d="M515.515 261.114s21.006 2.11 25.209-4.644c0-.629 5.462 3.057 5.462 4.538 0 1.475-10.714 13.819-36.971 6.854-.526-.211 4.199-6.748 6.3-6.748z"/>
    <path fill="url(#prefix__paint42_linear)" d="M521.283 295.674c2.413 7.359-8.602 74.566-26.448 71.096-37.603-7.311-52.184-29.158-52.184-29.158s-9.392-7.075-5.744-15.867c3.906-9.406 12.532 8.816 13.279 9.282 22.413 14.016 37.602 18.838 39.034 13.233 3.863-15.165 19.607-46.793 20.091-59.31.306-7.893 8.248-.654 11.972 10.724z"/>
    <path fill="url(#prefix__paint43_linear)" d="M510.043 352.816c22.567-45.991 17.483-70.937 10.685-79.753-2.623-3.403-9.593-5.98-11.561-1.173-12.757 31.152-19.301 62.766-21.403 73.038-19.832-5.936-35.706-15.569-37.09-14.208-2.705 2.648-1.781 1.98-7.889 8.781 20.857 20.131 47.871 35.056 58.086 26.654 2.7-2.221 7.636-9.104 9.172-13.339z"/>
    <defs>
        <linearGradient id="prefix__paint0_linear" x1="321.048" x2="321.048" y1="71.382" y2="571.525" gradientUnits="userSpaceOnUse">
            <stop stop-color="#fff"/>
            <stop offset="1" stop-color="#EDB0B9"/>
        </linearGradient>
        <linearGradient id="prefix__paint1_linear" x1="379.622" x2="379.622" y1="-.001" y2="65.456" gradientUnits="userSpaceOnUse">
            <stop stop-color="#F9D2D9"/>
            <stop offset="1" stop-color="#EDB0B9"/>
        </linearGradient>
        <linearGradient id="prefix__paint2_linear" x1="424.629" x2="424.629" y1="-334.901" y2="319.324" gradientUnits="userSpaceOnUse">
            <stop stop-color="#F9D2D9"/>
            <stop offset="1" stop-color="#EDB0B9"/>
        </linearGradient>
        <linearGradient id="prefix__paint3_linear" x1="93.59" x2="92.952" y1="330.121" y2="408.534" gradientUnits="userSpaceOnUse">
            <stop stop-color="#E2C8CE"/>
            <stop offset="1" stop-color="#DFACB6"/>
        </linearGradient>
        <linearGradient id="prefix__paint4_linear" x1="54.961" x2="149.416" y1="272.873" y2="415.033" gradientUnits="userSpaceOnUse">
            <stop stop-color="#A0C4E8"/>
            <stop offset="1" stop-color="#67A3D8"/>
        </linearGradient>
        <linearGradient id="prefix__paint5_linear" x1="106.624" x2="111.65" y1="444.804" y2="387.39" gradientUnits="userSpaceOnUse">
            <stop stop-color="#75ACDD"/>
            <stop offset="1" stop-color="#406EAD"/>
        </linearGradient>
        <linearGradient id="prefix__paint6_linear" x1="193.235" x2="182.344" y1="376.296" y2="424.883" gradientUnits="userSpaceOnUse">
            <stop stop-color="#67A9DC"/>
            <stop offset="1" stop-color="#3A6EAE"/>
        </linearGradient>
        <linearGradient id="prefix__paint7_linear" x1="172.322" x2="160.929" y1="370.325" y2="421.21" gradientUnits="userSpaceOnUse">
            <stop stop-color="#D7EDFA"/>
            <stop offset="1" stop-color="#A7CFEE"/>
        </linearGradient>
        <linearGradient id="prefix__paint8_linear" x1="168.337" x2="155.346" y1="365.814" y2="423.857" gradientUnits="userSpaceOnUse">
            <stop stop-color="#2F5B91"/>
            <stop offset="1" stop-color="#00264C"/>
        </linearGradient>
        <linearGradient id="prefix__paint9_linear" x1="249.527" x2="244.945" y1="528.899" y2="608.635" gradientUnits="userSpaceOnUse">
            <stop stop-color="#F9D2D9"/>
            <stop offset="1" stop-color="#EDB0B9"/>
        </linearGradient>
        <linearGradient id="prefix__paint10_linear" x1="219.9" x2="315.118" y1="220.082" y2="220.082" gradientUnits="userSpaceOnUse">
            <stop stop-color="#D7EDFA"/>
            <stop offset="1" stop-color="#A7CFEE"/>
        </linearGradient>
        <linearGradient id="prefix__paint11_linear" x1="244.799" x2="314.243" y1="190.137" y2="212.826" gradientUnits="userSpaceOnUse">
            <stop stop-color="#D7EDFA"/>
            <stop offset="1" stop-color="#A7CFEE"/>
        </linearGradient>
        <linearGradient id="prefix__paint12_linear" x1="84.518" x2="91.153" y1="488.338" y2="502.41" gradientUnits="userSpaceOnUse">
            <stop stop-color="#67A9DC"/>
            <stop offset="1" stop-color="#3A6EAE"/>
        </linearGradient>
        <linearGradient id="prefix__paint13_linear" x1="248.239" x2="267.141" y1="480.921" y2="536.057" gradientUnits="userSpaceOnUse">
            <stop stop-color="#67A9DC"/>
            <stop offset="1" stop-color="#3A6EAE"/>
        </linearGradient>
        <linearGradient id="prefix__paint14_linear" x1="250.128" x2="269.03" y1="479.574" y2="534.71" gradientUnits="userSpaceOnUse">
            <stop stop-color="#67A9DC"/>
            <stop offset="1" stop-color="#3A6EAE"/>
        </linearGradient>
        <linearGradient id="prefix__paint15_linear" x1="84.683" x2="92.45" y1="500.571" y2="517.046" gradientUnits="userSpaceOnUse">
            <stop stop-color="#67A9DC"/>
            <stop offset="1" stop-color="#3A6EAE"/>
        </linearGradient>
        <linearGradient id="prefix__paint16_linear" x1="362.456" x2="389.193" y1="537.825" y2="537.825" gradientUnits="userSpaceOnUse">
            <stop stop-color="#FBD4DA"/>
            <stop offset="1" stop-color="#EDB0BA"/>
        </linearGradient>
        <linearGradient id="prefix__paint17_linear" x1="375.212" x2="296.518" y1="417.187" y2="417.187" gradientUnits="userSpaceOnUse">
            <stop stop-color="#2F5B91"/>
            <stop offset="1" stop-color="#00264C"/>
        </linearGradient>
        <linearGradient id="prefix__paint18_linear" x1="311.288" x2="337.207" y1="211.742" y2="211.742" gradientUnits="userSpaceOnUse">
            <stop stop-color="#DDBCC2"/>
            <stop offset="1" stop-color="#D9A2AB"/>
        </linearGradient>
        <linearGradient id="prefix__paint19_linear" x1="228.398" x2="256.539" y1="533.742" y2="533.742" gradientUnits="userSpaceOnUse">
            <stop stop-color="#FBD4DA"/>
            <stop offset="1" stop-color="#EDB0BA"/>
        </linearGradient>
        <linearGradient id="prefix__paint20_linear" x1="334.217" x2="235.743" y1="414.964" y2="414.964" gradientUnits="userSpaceOnUse">
            <stop stop-color="#2F5B91"/>
            <stop offset="1" stop-color="#00264C"/>
        </linearGradient>
        <linearGradient id="prefix__paint21_linear" x1="371.87" x2="269.054" y1="288.635" y2="288.635" gradientUnits="userSpaceOnUse">
            <stop stop-color="#A0C4E8"/>
            <stop offset="1" stop-color="#67A3D8"/>
        </linearGradient>
        <linearGradient id="prefix__paint22_linear" x1="354.774" x2="375.243" y1="166.98" y2="169.45" gradientUnits="userSpaceOnUse">
            <stop stop-color="#FBD4DA"/>
            <stop offset="1" stop-color="#EDB0BA"/>
        </linearGradient>
        <linearGradient id="prefix__paint23_linear" x1="310.036" x2="288.429" y1="167.465" y2="166.549" gradientUnits="userSpaceOnUse">
            <stop stop-color="#FBD4DA"/>
            <stop offset="1" stop-color="#EDB0BA"/>
        </linearGradient>
        <linearGradient id="prefix__paint24_linear" x1="393.67" x2="358.268" y1="211.214" y2="226.246" gradientUnits="userSpaceOnUse">
            <stop stop-color="#A0C4E8"/>
            <stop offset="1" stop-color="#67A3D8"/>
        </linearGradient>
        <linearGradient id="prefix__paint25_linear" x1="262.375" x2="295.73" y1="204.172" y2="226.408" gradientUnits="userSpaceOnUse">
            <stop stop-color="#A0C4E8"/>
            <stop offset="1" stop-color="#67A3D8"/>
        </linearGradient>
        <linearGradient id="prefix__paint26_linear" x1="348.01" x2="363.759" y1="161.401" y2="156.015" gradientUnits="userSpaceOnUse">
            <stop stop-color="#FBD4DA"/>
            <stop offset="1" stop-color="#EDB0BA"/>
        </linearGradient>
        <linearGradient id="prefix__paint27_linear" x1="320.897" x2="303.919" y1="155.574" y2="159.328" gradientUnits="userSpaceOnUse">
            <stop stop-color="#FBD4DA"/>
            <stop offset="1" stop-color="#EDB0BA"/>
        </linearGradient>
        <linearGradient id="prefix__paint28_linear" x1="301.879" x2="343.509" y1="210.698" y2="210.698" gradientUnits="userSpaceOnUse">
            <stop stop-color="#D7EDFA"/>
            <stop offset="1" stop-color="#A7CFEE"/>
        </linearGradient>
        <linearGradient id="prefix__paint29_linear" x1="319.25" x2="348.767" y1="165.77" y2="165.77" gradientUnits="userSpaceOnUse">
            <stop stop-color="#FBD4DA"/>
            <stop offset="1" stop-color="#EDB0BA"/>
        </linearGradient>
        <linearGradient id="prefix__paint30_linear" x1="323.306" x2="317.792" y1="160.171" y2="160.171" gradientUnits="userSpaceOnUse">
            <stop stop-color="#FBD4DA"/>
            <stop offset="1" stop-color="#EDB0BA"/>
        </linearGradient>
        <linearGradient id="prefix__paint31_linear" x1="546.097" x2="552.875" y1="587.813" y2="666.193" gradientUnits="userSpaceOnUse">
            <stop stop-color="#F9D2D9"/>
            <stop offset="1" stop-color="#EDB0B9"/>
        </linearGradient>
        <linearGradient id="prefix__paint32_linear" x1="592.928" x2="608.227" y1="413.075" y2="405.815" gradientUnits="userSpaceOnUse">
            <stop stop-color="#FBD4DA"/>
            <stop offset="1" stop-color="#EDB0BA"/>
        </linearGradient>
        <linearGradient id="prefix__paint33_linear" x1="545.839" x2="587.564" y1="340.427" y2="328.109" gradientUnits="userSpaceOnUse">
            <stop stop-color="#D7EDFA"/>
            <stop offset="1" stop-color="#A7CFEE"/>
        </linearGradient>
        <linearGradient id="prefix__paint34_linear" x1="552.258" x2="505.478" y1="247.409" y2="247.409" gradientUnits="userSpaceOnUse">
            <stop stop-color="#FBD4DA"/>
            <stop offset="1" stop-color="#EDB0BA"/>
        </linearGradient>
        <linearGradient id="prefix__paint35_linear" x1="505.313" x2="524.18" y1="599.503" y2="604.784" gradientUnits="userSpaceOnUse">
            <stop stop-color="#FBD4DA"/>
            <stop offset="1" stop-color="#EDB0BA"/>
        </linearGradient>
        <linearGradient id="prefix__paint36_linear" x1="569.146" x2="590.919" y1="598.412" y2="602.668" gradientUnits="userSpaceOnUse">
            <stop stop-color="#FBD4DA"/>
            <stop offset="1" stop-color="#EDB0BA"/>
        </linearGradient>
        <linearGradient id="prefix__paint37_linear" x1="529.401" x2="578.478" y1="488.568" y2="482.395" gradientUnits="userSpaceOnUse">
            <stop stop-color="#2F5B91"/>
            <stop offset="1" stop-color="#00264C"/>
        </linearGradient>
        <linearGradient id="prefix__paint38_linear" x1="494.442" x2="572.882" y1="481.136" y2="471.742" gradientUnits="userSpaceOnUse">
            <stop stop-color="#2F5B91"/>
            <stop offset="1" stop-color="#00264C"/>
        </linearGradient>
        <linearGradient id="prefix__paint39_linear" x1="486.007" x2="576.772" y1="296.179" y2="376.92" gradientUnits="userSpaceOnUse">
            <stop stop-color="#D7EDFA"/>
            <stop offset="1" stop-color="#A7CFEE"/>
        </linearGradient>
        <linearGradient id="prefix__paint40_linear" x1="518.811" x2="514.073" y1="231.986" y2="232.391" gradientUnits="userSpaceOnUse">
            <stop stop-color="#FBD4DA"/>
            <stop offset="1" stop-color="#EDB0BA"/>
        </linearGradient>
        <linearGradient id="prefix__paint41_linear" x1="509.332" x2="545.992" y1="268.5" y2="260.093" gradientUnits="userSpaceOnUse">
            <stop stop-color="#D7EDFA"/>
            <stop offset="1" stop-color="#A7CFEE"/>
        </linearGradient>
        <linearGradient id="prefix__paint42_linear" x1="484.591" x2="467.44" y1="295.057" y2="360.595" gradientUnits="userSpaceOnUse">
            <stop stop-color="#FBD4DA"/>
            <stop offset="1" stop-color="#EDB0BA"/>
        </linearGradient>
        <linearGradient id="prefix__paint43_linear" x1="461.156" x2="521.508" y1="300.23" y2="328.457" gradientUnits="userSpaceOnUse">
            <stop stop-color="#D7EDFA"/>
            <stop offset="1" stop-color="#A7CFEE"/>
        </linearGradient>
    </defs>
</svg>
