<svg xmlns="http://www.w3.org/2000/svg" width="1083" height="701" fill="none" viewBox="0 0 1083 701">
    <g clip-path="url(#prefix__clip0)">
        <path fill="url(#prefix__paint0_linear)" d="M45.691 300.916c38.236-8.387 83.142-20.727 91.699-49.045 7.181-23.762-15.788-46.499-20.798-70.557-5.096-24.46 10.348-50.581 38.286-64.75 27.939-14.174 67.04-15.72 96.931-3.834 36.091 14.346 58.184 45.727 98.125 52.898 26.552 4.768 54.824-2.867 76.75-14.738 21.927-11.872 39.051-27.687 57.708-42.205 34.502-26.844 75.89-50.017 123.943-61.457 48.048-11.44 103.378-9.99 146.376 9.33 15.631 7.021 29.177 16.614 39.556 27.695 17.484 18.673 52.714 23.297 77.98 10.124 4.448-2.317 9.058-4.47 13.815-6.447 27.113-11.25 63.785-15.912 88.055-1.642 16.375 9.63 23.115 25.901 22.275 41.19-.845 15.284-8.248 29.936-15.833 44.205-16.624 31.272-34.73 62.716-39.421 96.061-4.695 33.344 6.154 69.69 39.836 92.618 29.266 19.928 73.636 28.769 92.726 54.392 12.84 17.228 10.86 38.409 3.24 57.197-15.4 37.94-53.11 70.806-101.73 88.66-50.983 18.716-110.088 20.76-167.174 22.431-183.583 5.385-367.168 10.775-550.752 16.16-31.687.929-64.225 1.776-94.243-5.648-30.018-7.425-57.4-25.073-61.711-47.877-4.575-24.221 17.084-48.356 10.854-72.381-7.362-28.404-48.695-43.736-84.102-56.957-35.408-13.217-74.24-34.877-69.722-63.592 4.53-28.807 49.096-43.45 87.331-51.831z" opacity=".26"/>
        <path fill="#F3F7F8" d="M45.691 300.916c38.236-8.387 83.142-20.727 91.699-49.045 7.181-23.762-15.788-46.499-20.798-70.557-5.096-24.46 10.348-50.581 38.286-64.75 27.939-14.174 67.04-15.72 96.931-3.834 36.091 14.346 58.184 45.727 98.125 52.898 26.552 4.768 54.824-2.867 76.75-14.738 21.927-11.872 39.051-27.687 57.708-42.205 34.502-26.844 75.89-50.017 123.943-61.457 48.048-11.44 103.378-9.99 146.376 9.33 15.631 7.021 29.177 16.614 39.556 27.695 17.484 18.673 52.714 23.297 77.98 10.124 4.448-2.317 9.058-4.47 13.815-6.447 27.113-11.25 63.785-15.912 88.055-1.642 16.375 9.63 23.115 25.901 22.275 41.19-.845 15.284-8.248 29.936-15.833 44.205-16.624 31.272-34.73 62.716-39.421 96.061-4.695 33.344 6.154 69.69 39.836 92.618 29.266 19.928 73.636 28.769 92.726 54.392 12.84 17.228 10.86 38.409 3.24 57.197-15.4 37.94-53.11 70.806-101.73 88.66-50.983 18.716-110.088 20.76-167.174 22.431-183.583 5.385-367.168 10.775-550.752 16.16-31.687.929-64.225 1.776-94.243-5.648-30.018-7.425-57.4-25.073-61.711-47.877-4.575-24.221 17.084-48.356 10.854-72.381-7.362-28.404-48.695-43.736-84.102-56.957-35.408-13.217-74.24-34.877-69.722-63.592 4.53-28.807 49.096-43.45 87.331-51.831z"/>
        <path fill="url(#prefix__paint1_linear)" d="M370.277 141.905c-16.649 2.772-37.467 1.173-45.817-9.64-5.849-7.573-3.248-17.463 3.7-24.528 6.947-7.065 17.508-11.79 28.216-15.657 16.315-5.893 33.672-10.249 51.504-12.939 6.488-.976 13.208-1.733 19.71-.809 6.503.924 12.818 3.83 15.212 8.315 2.621 4.901.131 10.43-3.042 15.159-13.384 19.966-39.658 35.13-69.483 40.099z" opacity=".26"/>
        <path fill="#F3F7F8" d="M370.277 141.905c-16.649 2.772-37.467 1.173-45.817-9.64-5.849-7.573-3.248-17.463 3.7-24.528 6.947-7.065 17.508-11.79 28.216-15.657 16.315-5.893 33.672-10.249 51.504-12.939 6.488-.976 13.208-1.733 19.71-.809 6.503.924 12.818 3.83 15.212 8.315 2.621 4.901.131 10.43-3.042 15.159-13.384 19.966-39.658 35.13-69.483 40.099z"/>
        <path fill="url(#prefix__paint2_linear)" d="M43.192 394.15c.254 3.361 1.22 6.529 2.03 8.908.646 1.829 1.32 3.643 1.995 5.457.379 1.006.752 2.016 1.12 3.026 1.168 2.053 1.91 4.499 2.307 7.529.22 1.69.34 3.427.45 5.108.063.967.13 1.929.216 2.896-.034 1.842-.345 3.834-.981 6.222-.852 1.776-1.566 3.662-2.126 5.62-.607 2.144-.971 4.097-1.115 5.964-.172 2.159-.086 4.203.259 6.079.368 2.025 1.148 3.983 2.259 5.658 1.149 1.709 2.647 3.16 4.336 4.198 1.637 1.03 3.49 1.795 5.51 2.274 1.416.335 2.943.536 4.542.613.354.014.722.014 1.09.019.01.785.02 1.527.034 2.197l.077 4.796c.024 1.853.053 3.543.086 5.079l-.167 8.367 1.57-.239-.14-8.161c.005-1.542.01-3.222.005-5.07v-4.791c0-.694 0-1.431.005-2.197 1.45-.048 2.987-.182 4.677-.421 4.355-.546 8.103-1.494 11.444-2.906 2.082-.909 3.805-1.857 5.27-2.906 1.723-1.254 3.216-2.661 4.446-4.188 1.268-1.661 2.288-3.485 3.035-5.419.12-.344.22-.679.32-1.014l.422-1.441c.043-.172.08-.35.114-.527.211-1.019.316-2.072.321-3.121.015-1.977-.364-4.03-1.12-6.108-.603-1.665-1.417-3.341-2.652-5.442-.028-.053-.067-.101-.11-.144l-1.057-1.077-.967-1.105c-.728-.92-1.25-1.661-1.67-2.384-.518-.876-.944-1.757-1.26-2.623-.354-.967-.598-1.91-.722-2.81-.144-.843-.187-1.767-.134-2.915.038-.843.177-1.767.435-2.906.225-.842.517-1.843.924-2.805.359-.885.795-1.79 1.297-2.695 1.69-3.054 4.016-6.089 7.338-9.545l2.158-2.163c.776-.814 1.422-1.709 1.92-2.662.507-.962.88-2.001 1.1-3.102.106-.526.173-1.072.202-1.656.028-.474-.01-.986-.048-1.484l-.015-.134v-.043c0-.009-.004-.019-.004-.028l-.192-1.681-.426-1.732-.603-1.657-.728-1.584-.808-1.517-.857-1.475-2.57-4.327-.762-1.465-.66-1.498-.517-1.541-.325-1.575c-.005-.153-.024-.354-.039-.555-.028-.34-.052-.68-.062-1.025.014-.162.034-.364.043-.569.029-.34.048-.68.096-1.015l.364-1.518c.986-1.957 2.177-3.872 3.33-5.715.408-.651.815-1.311 1.222-1.972 1.445-2.374 3.072-5.175 4.039-8.291.493-1.603.766-3.121.823-4.648l.005-1.148-.158-1.221c-.033-.57-.21-1.115-.387-1.647-.072-.215-.144-.435-.201-.651-1.164-2.833-3.6-5.112-6.692-6.289-1.436-.628-3.015-.939-4.375-1.173-.876-.096-1.574-.158-2.225-.187-.843-.038-1.599-.024-2.322.034-1.598.067-3.163.402-4.48.727-1.57.474-2.986 1.039-4.236 1.695-2.704 1.359-5.202 3.14-7.409 5.294-2.11 2.049-4.001 4.49-5.614 7.252-.67 1.187-1.44 2.604-2.068 4.126-.555 1.345-1.02 2.786-1.426 4.399-.225.866-.407 1.757-.584 2.613-.125.618-.25 1.235-.393 1.843-.402 1.594-.837 2.992-1.335 4.265-1.034 2.681-2.398 5.366-4.073 7.98-1.45 2.283-3.116 4.605-5.246 7.314l-2.82 3.528c-.325.392-.64.804-.957 1.225l-.435.57c-.125.201-.235.368-.345.541-.301.469-.617.957-.861 1.484-1.379 2.527-1.991 5.658-1.757 9.008zm31.14-49.404l.306 1.293c.273.971.546 1.809.838 2.565.302.862.69 1.685 1.048 2.451.378.79.8 1.58 1.25 2.351.416.718.832 1.369 1.263 1.991l-1.034 3.106c-.105.34-.22.675-.335 1.01-.21.628-.42 1.264-.608 1.91l-.837 3.04c-.182.68-.373 1.369-.565 2.058-.388 1.398-.78 2.82-1.149 4.27l-2.235 10.004c-.038-.009-.076-.024-.086-.028-.053-.005-.148-.053-.21-.082l-.15-.067c-.205-.11-.444-.287-.746-.55-.55-.503-1.029-1.106-1.383-1.575-.751-1.02-1.498-2.202-2.273-3.614-.632-1.096-1.183-2.192-1.714-3.25l-.177-.35c-.531-1.067-1.048-2.183-1.537-3.312l-.2-.464c-.374-.862-.719-1.657-1.001-2.389-.335-.857-.613-1.613-.828-2.24-.416-1.211-.55-1.953-.555-1.958-.01-.048-.034-.091-.062-.134.234-.728.454-1.498.67-2.322.148-.636.282-1.259.411-1.886.177-.842.364-1.713.584-2.551.407-1.56.862-2.949 1.403-4.236.488-1.168 1.11-2.394 2.015-3.983 1.565-2.661 3.393-5.007 5.437-6.979.713-.689 1.47-1.326 2.245-1.939-.077.355-.125.709-.163 1.058-.02.182-.033.321-.053.455-.033.311-.076.632-.071.962l-.01 1.326c.005.345.034.68.062 1.015l.029.345c.029.44.09.899.182 1.359.029.148.052.302.076.46.048.301.096.593.163.88zm16.537-13.163l-.704.852c-.234.306-.478.651-.751 1.034l-.507.718c-.321.45-.637.967-.972 1.512-.187.307-.378.618-.584.943-.426.637-.809 1.365-1.21 2.135-.173.331-.355.67-.542 1.015l-1.216 2.365-.665 1.445c-1.105 2.245-2.12 4.859-3.192 7.616l-.685 1.757-.22.656c-.57-.967-1.13-2.054-1.709-3.289-.143-.297-.268-.594-.392-.89l-.12-.278c-.167-.392-.33-.78-.478-1.177l-.1-.269c-.12-.306-.24-.607-.336-.923l-.407-1.226-.344-1.225c-.077-.259-.13-.517-.182-.78l-.1-.46c-.101-.426-.173-.833-.216-1.225-.024-.182-.053-.359-.082-.536-.038-.245-.076-.489-.095-.733l-.087-1.292c-.028-.249-.014-.493-.004-.752.01-.172.014-.349.01-.526.004-.455.009-.848.071-1.24l.082-.694c1.23-.886 2.522-1.671 3.876-2.346 1.221-.632 2.542-1.153 4.045-1.603 1.244-.297 2.733-.608 4.226-.666 1.058-.086 2.102-.062 3.59.082zm9.975 17.127c-1.364.656-2.843 1.307-4.518 1.981-.89.364-1.79.699-2.69 1.03-.833.301-1.724.603-2.72.919-.33.11-.66.206-.985.301l-.627.182c-.373.11-.747.22-1.125.306l-1.398.345-1.388.278c-.31.072-.617.115-.923.153-.158.024-.316.043-.47.072-.44.067-.909.134-1.383.158-.167.009-.344.024-.517.038-.291.024-.584.053-.875.043l-.627-.005.359-1.115.665-1.757c1.038-2.738 2.015-5.327 3.087-7.548l.895-2.006.924-1.776c.186-.345.364-.694.54-1.034.388-.747.752-1.455 1.145-2.058.21-.34.402-.661.584-.967.32-.536.622-1.039.919-1.465l.497-.718c.264-.383.498-.718.714-1.005l1.115-1.316c1.201.224 2.46.502 3.637 1.024 2.796 1.077 4.973 3.111 5.988 5.591.048.182.12.407.192.632.153.469.296.909.32 1.373l.144 1.101-.015 1.087c-.057 1.369-.32 2.81-.78 4.27-.196.641-.431 1.263-.684 1.886zm-7.902 13.929l-.039.091-.421 1.747c-.062.426-.09.819-.12 1.211-.014.197-.028.393-.047.589.004.436.033.833.067 1.226.014.196.028.387.038.579.1.555.21 1.072.32 1.579l.039.177.076.24c-.904.684-2.91 2.173-5.628 3.978-1.097.718-2.106 1.354-3.083 1.948-1.268.761-2.422 1.412-3.523 1.996l-1.914.948c-.22.091-.46.196-.699.306-.416.182-.847.373-1.278.527-1.005.397-2.015.684-2.982.871l2.068-9.545c.33-1.34.684-2.671 1.039-3.983.21-.78.416-1.551.617-2.316l.804-3.035c.177-.627.378-1.25.58-1.862.114-.345.22-.685.33-1.025l.952-2.958 1.091-.019c.326-.005.647-.038.977-.072.167-.019.33-.038.502-.052.517-.039 1.015-.12 1.475-.206.153-.029.306-.053.459-.082.335-.052.665-.11.99-.191l1.408-.321 1.417-.388c.383-.1.766-.22 1.148-.344l.637-.201c.34-.106.68-.216 1.015-.335 1.584-.536 3.26-1.202 5.418-2.145 1.33-.589 2.532-1.158 3.652-1.718-.742 1.594-1.642 3.193-2.719 4.945-.402.655-.809 1.301-1.216 1.952-1.191 1.891-2.412 3.839-3.45 5.888zm7.375 29.558c-2.1 1.355-4.398 2.758-7.021 4.265-1.293.747-2.585 1.451-4.02 2.226-1.293.68-2.676 1.407-4.084 2.087-.684.35-1.368.675-2.063.991l-.741.345c-.446.206-.886.416-1.336.603l-2.11.9c-.45.186-.91.359-1.37.531l-.756.287c-.675.268-1.34.489-2.134.747l-.57.187c-.517.172-1.053.344-1.58.469-.267.067-.53.134-.79.206-.464.124-.928.249-1.397.344l-.507.091.952-7.419c.096-.718.187-1.441.278-2.164.21-1.68.426-3.413.742-5.079l1.215-7.137c.072-.411.144-.828.211-1.244.077-.45.158-.9.24-1.345 1.186-.206 2.378-.56 3.69-1.101.46-.173.91-.388 1.345-.589.23-.11.464-.22.699-.321l1.938-1.014c1.292-.728 2.484-1.441 3.547-2.126.98-.636 1.986-1.311 3.063-2.058 2.503-1.771 4.394-3.246 5.356-4.016.076.22.148.44.225.66l.24.565c.152.345.296.694.454 1.039l.785 1.527.842 1.484 2.566 4.341.77 1.465.68 1.494.55 1.531.383 1.566.197 1.933c.023.369.047.723.023 1.111-.028.498-.09.972-.177 1.412-.076.412-.201.814-.335 1.206zm-13.459 18.645c-.45 1.062-.77 2.178-1 3.035-.283 1.254-.436 2.268-.484 3.207-.057 1.263-.01 2.297.154 3.24.062.46.157.924.272 1.398-1.297.991-2.718 2.02-4.336 3.131-1.723 1.187-3.341 2.225-4.95 3.183-.631.392-1.277.751-1.919 1.115l-.627.354-1.292.68c-.282.153-.565.287-.847.421-.153.072-.306.144-.46.22-.507.249-.923.436-1.311.589-.163.062-.326.134-.484.201-.277.12-.56.24-.847.33l-.502.173c-.163.052-.326.105-.493.163l.426-7.616 1.45-16.447.038-.297.943-.187c.498-.105.986-.244 1.474-.383.259-.072.517-.148.78-.215.56-.139 1.111-.335 1.647-.517l.57-.196c.785-.268 1.493-.508 2.187-.8l.747-.297c.464-.181.933-.368 1.393-.564l2.11-.939c.46-.196.91-.421 1.36-.641.244-.12.483-.239.727-.35.699-.335 1.393-.674 2.078-1.038 1.383-.704 2.752-1.455 4.073-2.183 1.493-.847 2.737-1.56 4.006-2.326 2.211-1.326 4.198-2.576 6.016-3.782-.024.053-.043.11-.072.168-.435.828-.995 1.603-1.675 2.302l-2.163 2.149c-1.556 1.599-2.9 3.121-4.112 4.653-.655.823-1.278 1.671-1.857 2.518-.703 1.043-1.216 1.871-1.651 2.68-.531.972-.99 1.934-1.369 2.868zm-20.093 44.813l.708.01.082.005c.464.019.91-.029 1.35-.077.234-.024.464-.048.698-.062l1.058-.101c.244-.028.474-.076.704-.119l.359-.067c.244-.048.483-.091.722-.134.455-.082.915-.163 1.365-.278l2.034-.546c.445-.119.88-.268 1.316-.416.234-.082.464-.163.699-.24l1-.339.99-.398c.23-.095.456-.182.685-.273.431-.172.862-.339 1.283-.536l1.91-.871 1.89-.952c.446-.221.881-.465 1.317-.704l.545-.302c.623-.335 1.23-.689 1.838-1.057 1.178-.69 2.384-1.451 3.58-2.255.661-.436 1.274-.857 1.853-1.269-.024.13-.053.254-.082.374l-.052.239-.206.666c-.058.186-.115.378-.172.564-.087.288-.168.57-.264.848-.674 1.776-1.593 3.456-2.733 4.973-1.124 1.426-2.513 2.752-4.106 3.94-1.384 1.01-2.968 1.9-4.983 2.809-1.536.675-3.264 1.264-5.437 1.843-1.661.426-3.46.771-5.658 1.082-1.622.244-3.101.388-4.499.455.01-.613.029-1.235.058-1.872l.148-4.94zm.416-13.556l.474-8.42.038-.009c.326-.106.627-.216.929-.331l.498-.181c.31-.106.617-.24.919-.379.158-.071.31-.143.469-.21.412-.173.842-.378 1.364-.646.148-.077.297-.149.45-.225.297-.144.593-.297.885-.46l1.767-.996c.689-.406 1.397-.828 2.086-1.273 1.599-1.015 3.207-2.111 4.916-3.351 1.508-1.096 2.834-2.111 4.054-3.087.091.302.192.603.306.914.35.958.814 1.925 1.384 2.877.588 1.005 1.273 1.905 1.809 2.58l1.024 1.178 1.015 1.034c1.153 1.977 1.92 3.551 2.48 5.102.688 1.901 1.033 3.772 1.023 5.553 0 .603-.057 1.211-.138 1.809-.766.527-1.58 1.068-2.475 1.628-1.21.77-2.422 1.488-3.594 2.139-.608.35-1.211.685-1.834.996l-.57.302c-.425.22-.846.445-1.282.646l-1.895.9-1.905.823c-.407.182-.819.335-1.23.488-.235.087-.47.173-.7.264l-.966.368-.977.311c-.234.072-.473.149-.708.225-.416.134-.833.273-1.254.374l-2.005.498c-.422.1-.852.167-1.283.234-.244.038-.488.077-.732.125l-.355.057c-.215.038-.426.072-.641.096l-1.01.076c-.23.01-.469.029-.708.053-.445.038-.857.081-1.283.038l-.708-.029.363-12.091zm-1.828-37.906c-1.125-1.02-2.125-1.996-3.063-2.977l-.36-.374c-.373-.388-.741-.775-1.09-1.187-.187-.22-.379-.435-.57-.651-.283-.316-.57-.632-.833-.967l-1.36-1.675-1.258-1.728c-.278-.359-.527-.752-.766-1.13-.139-.215-.277-.435-.421-.651l-.58-.9-.507-.924c-.114-.225-.244-.45-.373-.675-.23-.406-.445-.789-.613-1.196l-.904-1.987c-.158-.411-.307-.847-.46-1.283l-.258-.737c-.206-.502-.32-1.015-.445-1.56l-.12-.503c-.043-.182-.086-.364-.134-.55-.134-.527-.258-1.02-.292-1.532l-.263-2.183.383-.469c2.163-2.719 3.857-5.055 5.346-7.362 1.723-2.657 3.14-5.395 4.207-8.137.082-.197.153-.407.235-.613.048.273.115.584.2.929.163.698.389 1.493.661 2.359.278.872.618 1.891 1.044 2.987.455 1.163.938 2.327 1.44 3.442.489 1.106 1.087 2.293 1.872 3.729.603 1.058 1.426 2.432 2.475 3.757.44.546.971 1.178 1.627 1.738.297.239.646.507 1.072.723.21.115.507.21.79.263l-.187 1.024c-.067.407-.139.814-.215 1.221l-1.269 7.132c-.335 1.704-.57 3.466-.79 5.17-.09.708-.186 1.417-.287 2.125l-1.048 7.745c-1.086-.804-2.101-1.694-2.886-2.393zm-15.718 32.981c.019.847.21 1.756.588 2.766.412 1.101.996 2.092 1.455 2.834.953 1.537 2.145 3.054 3.849 4.916 1.258 1.379 2.718 2.786 4.456 4.284.837.709 1.627 1.341 2.417 1.934.411.311.833.613 1.268.905.22.148.44.287.675.431.12.071.24.138.373.21.106.048.168.077.245.106.014.009.09.033.162.052.02.005.034.005.058.01l-.077 4.954c-.02.651-.024 1.297-.024 1.929-.44 0-.88 0-1.306-.019-1.427-.067-2.796-.244-4.064-.531-1.91-.436-3.662-1.135-5.212-2.092-1.58-.948-2.982-2.279-4.055-3.854-1.048-1.546-1.79-3.365-2.153-5.255-.34-1.781-.446-3.739-.297-5.816.12-1.805.454-3.7 1.029-5.792.177-.666.392-1.321.613-1.972zm1.158-21.474c.297.512.589 1.01.866 1.489 1.14 1.876 2.504 4.078 3.987 6.208 1.431 2.078 2.934 4.055 4.47 5.874.666.78 1.551 1.79 2.528 2.728.455.426.919.862 1.45 1.245l.125.081c.45.306.966.637 1.67.723l-.455 7.994c-.076 1.953-.11 3.867-.134 5.72l-.095 6.227-.1-.057c-.192-.12-.389-.258-.59-.397-.406-.287-.799-.589-1.191-.895-.733-.565-1.494-1.192-2.317-1.906-1.455-1.235-2.944-2.608-4.427-4.097-1.537-1.56-2.815-3.054-3.901-4.567-.584-.813-1.096-1.67-1.522-2.556-.489-1.024-.747-1.938-.776-2.79-.005-.173-.182-.355-.35-.364-.042.005-.076.014-.114.024.345-.948.732-1.877 1.154-2.772.665-2.556.971-4.619.99-6.582-.086-.99-.148-1.957-.21-2.919-.11-1.69-.225-3.437-.445-5.151-.158-1.168-.36-2.25-.613-3.26zm-5.098-30.18c.235-.498.517-.934.819-1.398.11-.172.225-.34.33-.512l.426-.551c.306-.397.613-.799.933-1.182l1.762-2.178.072 1.393c0 .57.1 1.135.196 1.68.033.182.067.364.096.551l.057.33c.11.627.225 1.273.44 1.891l.216.723c.139.469.277.938.426 1.397l.842 2.073c.172.459.407.9.632 1.321.12.225.24.45.354.68l.508.991.583.962c.14.22.273.44.402.656.245.406.498.828.785 1.225l1.269 1.79 1.378 1.723c.316.403.66.786.996 1.154.153.168.301.335.455.503.368.421.76.828 1.158 1.23l.354.364c.886.909 1.9 1.867 3.192 2.996 1.044.895 2.178 1.848 3.437 2.738.058.043.125.072.187.091l-1.585 16.385-.464 8.162c-.277-.063-.636-.254-1.081-.589-.44-.33-.843-.718-1.288-1.154-.91-.919-1.737-1.919-2.355-2.685-1.47-1.829-2.872-3.782-4.226-5.668l-.115-.158c-1.225-1.732-2.748-3.886-4.14-6.007-1.384-2.054-2.719-4.117-3.973-6.146-.024-.038-.062-.072-.105-.096-.244-.66-.484-1.321-.728-1.982-.67-1.809-1.34-3.623-1.977-5.447-.79-2.331-1.727-5.433-1.967-8.697-.196-3.193.388-6.156 1.7-8.559z"/>
        <path fill="url(#prefix__paint3_linear)" d="M150.569 375.449c-10.578-4.514-19.255-3.854-24.86-3.05 2.498-3.389 4.896-6.481 7.122-9.262 11.387 1.948 19.342-1.551 24.123-1.517-9.108-2.762-16.958-2.126-22.007-1.087 2.259-2.752 4.293-5.127 6.016-7.08 8.85-3.393 10.894-10.818 13.785-13.12-11.832 2.838-15.183 12.34-15.58 13.594-2.02 2.116-3.968 4.227-5.849 6.328-.794-4.461-2.915-11.387-8.591-18.084 1.661 3.839 1.531 11.474 6.954 19.932-2.67 3.035-5.207 6.051-7.6 9.037-1.412-5.05-4.031-13.283-12.684-20.635 2.613 4.193 3.719 13.278 11.501 22.124-2.833 3.59-5.48 7.137-7.935 10.646-1.843-6.156-5.222-16.232-15.939-25.37 3.293 5.17 4.844 16.289 14.637 27.261-2.824 4.121-5.409 8.185-7.754 12.168-2.197-7.142-6.242-18.626-18.523-29.118 3.843 5.993 5.724 18.826 17.111 31.554-2.676 4.696-5.035 9.281-7.113 13.738-.014-.393.034-.756.374-1.048-3.456-6.984-9.559-18.726-24.693-27.606 5.088 5.577 9.29 18.86 23.688 30.023-2.6 5.691-4.739 11.177-6.496 16.409-4.336-7.238-11.894-19.042-28.325-29.199 5.853 5.974 11.482 19.247 27.507 31.702-2.077 6.553-3.561 12.695-4.595 18.348-4.542-6.012-12.325-15.648-27.56-23.747 5.715 4.887 11.937 15.902 27.163 26.021-1.025 6.165-1.513 11.703-1.685 16.514-4.303-4.442-11.444-11.235-23.898-17.347 4.987 3.633 10.999 11.464 23.793 19.142-.034.11-.063.225-.072.354h.115c-.11 6.314.32 11.211.732 14.404.134-.024.268-.044.402-.063-.23-4.82-.158-9.611.168-14.341 11.166-.153 18.796-6.773 23.539-7.793-10.573-2.225-18.48 2.102-23.324 5.094.47-5.228 1.245-10.388 2.283-15.462 16.666.785 27.565-5.514 34.5-6.242-15.824-2.924-27.177 1.101-33.978 3.772 1.326-5.983 3.006-11.842 4.949-17.533 16.556 2.072 27.962-3.303 34.959-3.466-15.34-4.16-26.928-1.273-34.045.842 1.934-5.394 4.097-10.631 6.419-15.686 16.474 3.83 28.478-.478 35.514.048-15.172-5.749-27.177-3.81-34.423-2.389 2.173-4.571 4.461-8.984 6.816-13.216 15.23 3.964 26.617.455 33.227 1.226-13.555-5.787-24.66-4.868-31.758-3.839 2.408-4.203 4.863-8.21 7.314-11.996 13.32 3.643 23.281.551 29.019 1.221-11.966-5.108-21.696-4.107-27.727-3.198 2.345-3.552 4.676-6.907 6.94-10.033 12.071 3.193 21.113.417 26.344 1.025z"/>
        <path fill="url(#prefix__paint4_linear)" d="M26.698 459.121c4.045 3.121 8.52 5.227 12.952 6.089 2.202.421 4.356.493 6.404.225.268-.039.536-.077.8-.125 2.33-.416 4.609-1.345 6.59-2.68.24 1.139.465 2.273.675 3.413.321 1.436.522 2.9.714 4.312.095.68.191 1.355.296 2.03.264 1.594.417 3.188.565 4.734l.436 4.322c.052.618.081 1.235.105 1.843.014.34.029.68.048 1.01.024.565.053 1.125.081 1.676.622.067 1.245.143 1.867.22-.024-.651-.048-1.307-.067-1.982-.014-.335-.024-.67-.038-1.005-.015-.632-.039-1.268-.082-1.915l-.287-3.413c-.153-1.881-.316-3.824-.646-5.787-.105-.665-.196-1.34-.292-2.015-.201-1.446-.407-2.939-.737-4.413-.278-1.508-.58-2.949-.89-4.366 1.373-1.163 2.642-2.532 3.78-4.102 1.427-1.972 2.643-4.246 3.62-6.759.842-2.259 1.478-4.753 1.904-7.42.35-2.23.484-4.657.426-7.649-.143-2.848-.445-5.337-.933-7.596-.215-1.087-.512-2.173-.795-3.222l-.139-.507c-.129-.374-.244-.747-.363-1.125-.264-.828-.536-1.68-.88-2.494l-.71-1.79-.808-1.719c-.383-.871-.847-1.709-1.297-2.517-.163-.292-.326-.589-.489-.886-.402-.728-.856-1.436-1.301-2.116-.245-.378-.484-.751-.733-1.149l-.593-.818c-.536-.747-1.096-1.522-1.68-2.259-1.757-2.164-3.446-4.017-5.17-5.658-1.828-1.757-3.795-3.423-5.849-4.95-1.828-1.383-3.91-2.771-6.38-4.251l-1.167-.66c-.718-.412-1.436-.814-2.174-1.211l-3.431-1.699-.532-.235c-2.12-.933-4.312-1.9-6.528-2.695-2.293-.842-4.676-1.613-7.28-2.35-4.566-1.293-9.501-2.351-14.67-3.159l-.063-.096-.043.076c-.048-.004-.1-.014-.143-.024-.182-.028-.364.02-.508.13-.143.11-.23.268-.253.445-.024.177.024.349.138.502.034.044.067.082.1.125l-.037.067.1.014c1.355 1.762 2.747 3.59 3.834 5.558 1.292 2.283 2.183 4.365 2.71 6.371.545 2.025.88 4.274 1.019 6.878.12 2.035.086 4.127.052 6.151l-.196 8.033c-.053 2.335-.1 4.753-.014 7.161.138 2.685.411 5.035.828 7.175.445 2.609 1.196 5.107 1.804 6.993 3.245 9.411 9.051 17.678 16.35 23.264zm-4.485-5.62c-1.622-1.8-3.072-3.662-4.307-5.548-1.25-1.833-2.432-3.877-3.509-6.084-.292-.574-.56-1.163-.823-1.756.847-.661 1.738-1.293 2.695-1.872.388-.254.8-.479 1.196-.699.23-.124.465-.253.68-.378.412-.215.833-.416 1.25-.622.234-.115.473-.23.689-.34l2.01-.838c.435-.162.88-.306 1.32-.454l.738-.245c.426-.153.876-.258 1.311-.359.259-.062.517-.119.776-.191.675-.196 1.388-.302 2.101-.407.168-.024.335-.048.503-.077.584-.09 1.158-.177 1.627-.181l2.144-.12 2.178.1c.54-.004 1.072.087 1.632.178.158.023.32.052.47.076.253.048.516.086.775.125.464.062.9.129 1.335.258l2.096.584c.527.12 1.02.326 1.542.546.153.062.301.124.45.186l1.857.766c.555 1.25 1.067 2.461 1.546 3.662l1.297 3.231 1.153 3.293c.134.398.273.79.412 1.183.02.048.034.096.048.143l-.546-.158c-.21-.047-.426-.1-.636-.148-.393-.096-.785-.187-1.192-.273-.22-.038-.44-.081-.66-.119-.388-.072-.78-.154-1.178-.197l-.206-.024c-.54-.071-1.1-.143-1.651-.172-2.575-.201-5.131.029-7.457.675-.546.148-1.11.335-1.795.594-.479.196-1.101.454-1.71.775-1.1.565-2.158 1.249-3.149 2.034-.957.757-1.866 1.618-2.704 2.571-.387.435-.775.905-1.177 1.426-.139.173-.273.354-.407.541-.158.225-.32.426-.498.618-.79-.761-1.532-1.523-2.226-2.303zm30.973 8.583c-1.938 1.292-4.169 2.183-6.442 2.556-2.221.378-4.547.316-6.945-.168-2.116-.421-4.337-1.211-6.586-2.34-1.963-.977-3.944-2.26-5.883-3.811-.857-.679-1.67-1.388-2.45-2.11.21-.216.392-.436.56-.656.129-.168.258-.335.406-.508.412-.502.805-.947 1.192-1.359.843-.895 1.742-1.699 2.685-2.393.967-.718 1.996-1.341 3.064-1.843.545-.264 1.115-.489 1.641-.685.656-.23 1.197-.392 1.709-.522 2.23-.56 4.638-.718 7.093-.469.517.039 1.049.12 1.56.201l.216.034c.383.052.776.134 1.149.22.206.043.407.086.603.129.373.086.737.187 1.106.287.21.058.426.115.622.168l1.455.469c.033.115.072.225.105.34l.981 3.317c.857 2.973 1.613 6.012 2.274 9.061-.034.02-.072.053-.115.082zm11.028-26.691c.076 2.834-.048 5.294-.383 7.52-.407 2.623-1.03 5.074-1.843 7.29-1.651 4.303-4.03 7.846-6.935 10.407-.646-2.882-1.35-5.615-2.145-8.229l-1.02-3.331c-.023-.072-.047-.139-.07-.216.44-.22.89-.464 1.363-.747.69-.406 1.417-.89 2.283-1.517.77-.598 1.455-1.173 2.082-1.757.254-.22.489-.459.709-.694l.263-.273c.32-.316.617-.66.919-1.014.47-.513.886-1.073 1.292-1.614.134-.177.268-.349.412-.545l.263-.407c.402-.618.814-1.254 1.144-1.92.412-.727.79-1.536 1.163-2.46.177-.402.316-.819.45-1.235.014.249.034.484.053.742zm-5.663-16.687c.034-.158.063-.311.096-.464.115-.503.225-1.048.259-1.603l.043-.412c.187.349.368.708.531 1.072l.814 1.69.718 1.761c.344.781.617 1.609.88 2.413.125.383.25.761.379 1.125l.138.493c.292 1.029.594 2.096.814 3.159.359 1.589.622 3.293.809 5.151l-.01.014c-.162.325-.306.66-.45.986-.215.493-.42.957-.68 1.407l-.626 1.163c-.13.245-.278.479-.431.709-.086.134-.172.268-.254.402l-.067.105c-.21.34-.416.666-.66.972l-.761 1.048c-.14.168-.278.335-.417.508-.402.493-.823 1.005-1.316 1.498-.277.302-.565.613-.871.886-.139.124-.273.258-.407.387-.177.173-.354.34-.546.508-.612.555-1.268 1.091-2 1.641-.622.465-1.364 1.001-2.135 1.47-.369.235-.718.44-1.058.632-.067-.182-.134-.369-.196-.546-.143-.392-.287-.78-.426-1.182l-1.206-3.327-1.345-3.26c-.464-1.139-.972-2.312-1.517-3.518l.105-.072.196-.143.479-.355c.33-.253.66-.507.971-.775.81-.67 1.613-1.403 2.384-2.173.618-.632 1.422-1.475 2.159-2.394l.057-.071c.316-.383.651-.781.938-1.207.106-.153.216-.301.321-.454.206-.283.412-.57.608-.867l.852-1.359c.187-.302.35-.613.512-.924.086-.163.172-.33.263-.488.244-.426.465-.895.704-1.479.067-.173.143-.345.215-.517.139-.316.283-.642.383-.982l.493-1.522c.11-.364.187-.742.258-1.106zm-11.807-17.131c-.015-.273-.058-.536-.096-.8.56.493 1.13.977 1.67 1.489 1.7 1.603 3.37 3.413 5.107 5.529.532.665 1.044 1.364 1.542 2.044.239.325.478.651.713.962.239.383.488.756.737 1.134.435.661.89 1.35 1.283 2.044.162.297.33.594.497.89.072.125.144.254.216.383l-.259 1.288c-.081.512-.23 1.015-.378 1.479-.067.201-.124.407-.182.613-.086.301-.167.589-.277.866l-.58 1.455c-.11.297-.258.58-.411.881-.086.168-.172.335-.254.503-.215.44-.45.909-.723 1.354-.09.158-.186.316-.277.474-.163.292-.33.579-.512.852l-.876 1.283c-.187.268-.393.531-.594.79-.115.148-.23.292-.344.445-.21.287-.445.565-.68.838l-.297.354c-.713.871-1.493 1.671-2.091 2.274-.833.842-1.551 1.517-2.255 2.115-.297.264-.603.513-.91.762l-.487.378c-1.12-2.389-2.413-4.959-3.95-7.831-.918-1.628-1.923-3.375-2.995-5.156l.622-.746c.316-.379.622-.757.928-1.144.613-.79 1.197-1.594 1.724-2.399 1.196-1.866 2.091-3.58 2.737-5.241.804-2.039 1.307-3.911 1.532-5.72.143-1.063.206-2.03.187-2.958 0-.503-.024-1.001-.067-1.484zm-19.548-8.095c-.005-.239-.019-.478-.043-.718-.01-.124-.024-.249-.029-.368-.014-.326-.057-.68-.139-1.111-.023-.115-.038-.225-.057-.345-.038-.244-.076-.497-.153-.741-.034-.12-.062-.24-.091-.364-.058-.235-.115-.474-.201-.718l-.316-.771c.962.397 1.91.809 2.843 1.216l3.94 1.891c.712.378 1.416.77 2.115 1.168.397.22.794.445 1.187.66 2.436 1.446 4.494 2.8 6.294 4.15 1.177.867 2.307 1.791 3.417 2.734v.004c.077 1.977-.076 3.878-.445 5.649-.186.957-.46 1.876-.727 2.728-.263.843-.594 1.704-1.005 2.628-.761 1.699-1.676 3.365-2.724 4.954-.488.761-1.029 1.546-1.618 2.322l-1.158 1.489c-1.063-1.724-2.187-3.461-3.355-5.122-.833-1.264-1.728-2.48-2.594-3.648-.407-.55-.81-1.091-1.216-1.656l-1.02-1.307c-.976-1.249-1.89-2.427-2.862-3.556-.383-.469-.77-.91-1.153-1.36.689-2.953 1.048-5.351 1.13-7.639.018-.785 0-1.575-.02-2.169zm-11.832-8.827c2.57.718 4.93 1.465 7.204 2.289.866.306 1.732.646 2.59.99l.171.436.24 1.005c.043.211.072.426.1.642.015.129.034.253.053.387.038.211.048.431.057.666.005.119.01.234.02.34.071 1.507.043 2.862-.091 4.154-.039.604-.101 1.264-.197 2.083l-.076.655c-.053.479-.106.953-.173 1.432-.11.804-.22 1.531-.335 2.226-1.823-2.068-3.637-3.988-5.37-5.788-2.843-2.838-5.073-4.94-7.012-6.615-2.039-1.79-3.973-3.379-5.739-4.734-1.694-1.312-3.034-2.264-3.949-2.891 4.332.718 8.535 1.627 12.507 2.723zm-7.146 8.43c-.574-2.121-1.517-4.303-2.886-6.678-.47-.832-.981-1.627-1.508-2.388.666.493 1.417 1.067 2.269 1.737 1.737 1.365 3.633 2.959 5.629 4.744 1.914 1.695 4.097 3.801 6.868 6.625 1.527 1.618 3.116 3.346 4.72 5.174l-.776-.359c-.225-.11-.46-.196-.694-.287-.12-.043-.244-.091-.373-.143-.12-.043-.24-.091-.36-.139-.229-.091-.463-.187-.698-.254l-1.063-.345c-.234-.081-.473-.143-.713-.205-.124-.034-.249-.067-.42-.115-.35-.096-.7-.192-1.05-.259-1.392-.316-2.847-.526-4.45-.636-1.245-.082-2.374-.087-3.432-.02-.158-2.182-.474-4.322-1.063-6.452zm1.005 21.531l.182-7.185c.048-2.518.072-4.911-.072-7.243 1.02-.019 2.111.039 3.313.173 1.507.172 2.948.45 4.293.814.335.076.665.177 1.034.292l.378.114c.22.067.44.13.66.216l1.034.378c.216.072.421.167.632.258l.354.154.364.158c.21.086.421.177.627.287l.977.493c.425.215.851.464 1.258.708.21.125.417.249.637.369.053.029.105.053.167.067.082.019.163.029.25.014.004 0 .009-.005.018-.005.254.312.508.604.761.919.924 1.106 1.805 2.255 2.738 3.471.354.459.709.924 1.058 1.374.388.55.79 1.101 1.192 1.651.842 1.163 1.718 2.365 2.532 3.624.794 1.144 1.565 2.331 2.312 3.518-.297-.148-.594-.287-.91-.393l-1.838-.698c-.507-.216-1.038-.359-1.555-.498l-.369-.096c-.22-.057-.445-.12-.665-.182-.407-.115-.833-.234-1.268-.316l-1.939-.33c-.46-.101-.929-.129-1.383-.158-.201-.014-.402-.024-.613-.043l-.302-.024c-.55-.043-1.124-.086-1.694-.058-.23.01-.46.01-.69.01-.43.005-.86.01-1.301.043l-1.972.206c-.421.062-.842.144-1.263.22-.226.043-.45.086-.68.125-.426.076-.847.191-1.259.296-.22.058-.445.12-.665.173-.421.105-.833.244-1.23.378-.216.072-.436.148-.666.215-.66.24-1.302.498-1.842.723-.996.44-1.848.866-2.614 1.312-.038-1.834-.019-3.638.02-5.524zm.402 11.493c-.043-.335-.086-.666-.134-.986-.134-1.255-.22-2.399-.277-3.485-.01-.268-.005-.527-.01-.79.833-.469 1.762-.914 2.877-1.364.536-.206 1.172-.441 1.809-.646.225-.063.45-.13.675-.197.388-.119.785-.239 1.182-.325.23-.048.455-.101.68-.153.397-.096.804-.187 1.201-.249.235-.034.464-.072.699-.106.335-.052.665-.105 1-.148l2.135-.167c.412-.024.819-.015 1.225-.01.235.005.465.005.704.005.526-.015 1.072.038 1.599.086l.296.029c.201.024.407.043.613.057.445.038.861.072 1.287.177l1.891.364c.393.086.79.206 1.178.326.22.067.445.134.665.196l.368.11c.498.143.972.282 1.441.498l1.8.732c.373.129.727.326 1.096.531.196.11.397.221.593.316l1.092.579c1.182 1.982 2.288 3.94 3.288 5.745 1.369 2.613 2.517 4.92 3.518 7.079l-.527-.196c-.153-.058-.306-.12-.46-.177-.535-.211-1.095-.426-1.67-.541l-2.149-.551c-.478-.134-.971-.196-1.45-.253-.254-.034-.512-.062-.775-.106l-.479-.062c-.574-.086-1.168-.167-1.757-.158l-2.244-.052-2.202.162c-.58.024-1.149.125-1.723.23-.168.029-.335.058-.512.091-.718.125-1.465.249-2.178.469-.244.072-.488.134-.732.201-.465.12-.948.249-1.408.426-.244.091-.483.177-.727.263-.455.158-.905.321-1.355.508l-2.029.909c-.23.125-.464.244-.699.364-.421.22-.842.436-1.268.675-.22.134-.445.268-.665.397-.407.24-.824.484-1.216.752-.9.579-1.747 1.216-2.561 1.872-.58-1.384-1.096-2.782-1.565-4.122-.627-2.082-1.34-4.437-1.738-6.807-.186-.842-.296-1.685-.402-2.498z"/>
        <path fill="url(#prefix__paint5_linear)" d="M92.75 486.223l-5.667 41.147c-.215 1.542-1.7 2.695-3.465 2.695H53.234c-1.747 0-3.221-1.134-3.46-2.647l-6.601-42.281c-.292-1.877 1.407-3.533 3.566-3.475l42.646 1.134c2.054.058 3.61 1.642 3.365 3.427z"/>
        <path fill="url(#prefix__paint6_linear)" d="M92.77 480.834H43.325c-.69 0-1.254.564-1.254 1.254v4.145c0 .689.565 1.249 1.25 1.249h49.442c.69 0 1.255-.564 1.255-1.254v-4.145c0-.689-.565-1.249-1.25-1.249z"/>
        <path fill="url(#prefix__paint7_linear)" d="M39.353 481.37h57.12c.585 0 1.068-.479 1.068-1.068v-2.034c0-.584-.478-1.068-1.067-1.068H39.349c-.584 0-1.063.479-1.063 1.063v2.035c0 .593.479 1.072 1.067 1.072z"/>
        <path fill="url(#prefix__paint8_linear)" d="M899.568 113.026H157.553v384.347h742.015V113.026z"/>
        <path fill="url(#prefix__paint9_linear)" d="M259.291 120.34h-92.888v172.055h92.888V120.34z"/>
        <path fill="url(#prefix__paint10_linear)" d="M259.291 302.227h-92.888v172.055h92.888V302.227z"/>
        <path fill="url(#prefix__paint11_linear)" d="M367.975 120.34h-92.889v172.055h92.889V120.34z"/>
        <path fill="url(#prefix__paint12_linear)" d="M473.869 120.34H380.98v112.891h92.889V120.34z"/>
        <path fill="url(#prefix__paint13_linear)" d="M578.834 120.34h-92.889v83.869h92.889V120.34z"/>
        <path fill="url(#prefix__paint14_linear)" d="M578.834 424.356h-92.889v48.983h92.889v-48.983z"/>
        <path fill="url(#prefix__paint15_linear)" d="M578.834 377.115h-92.889v40.874h92.889v-40.874z"/>
        <path fill="url(#prefix__paint16_linear)" d="M578.834 321.843h-92.889v48.983h92.889v-48.983z"/>
        <path fill="url(#prefix__paint17_linear)" d="M473.869 240.87H380.98v112.891h92.889V240.87z"/>
        <path fill="url(#prefix__paint18_linear)" d="M473.869 361.396H380.98v112.89h92.889v-112.89z"/>
        <path fill="url(#prefix__paint19_linear)" d="M682.291 120.34h-92.889v112.891h92.889V120.34z"/>
        <path fill="url(#prefix__paint20_linear)" d="M682.291 240.87h-92.889v112.891h92.889V240.87z"/>
        <path fill="url(#prefix__paint21_linear)" d="M682.291 361.396h-92.889v112.89h92.889v-112.89z"/>
        <path fill="url(#prefix__paint22_linear)" d="M785.437 120.34h-92.889v112.891h92.889V120.34z"/>
        <path fill="url(#prefix__paint23_linear)" d="M785.437 240.87h-92.889v112.891h92.889V240.87z"/>
        <path fill="url(#prefix__paint24_linear)" d="M785.437 361.396h-92.889v112.89h92.889v-112.89z"/>
        <path fill="url(#prefix__paint25_linear)" d="M891.057 120.34h-92.889v112.891h92.889V120.34z"/>
        <path fill="url(#prefix__paint26_linear)" d="M891.057 240.87h-92.889v112.891h92.889V240.87z"/>
        <path fill="url(#prefix__paint27_linear)" d="M891.057 361.396h-92.889v112.89h92.889v-112.89z"/>
        <path fill="url(#prefix__paint28_linear)" d="M367.975 302.227h-92.889v172.055h92.889V302.227z"/>
        <path fill="url(#prefix__paint29_linear)" d="M578.838 220.206h-91.031v64.099h91.031v-64.099z"/>
        <path fill="url(#prefix__paint30_linear)" d="M569.768 314.414h-13.995c-.881 0-1.599-.713-1.599-1.599v-20.363c0-.881.713-1.599 1.599-1.599h13.995c.881 0 1.599.714 1.599 1.599v20.363c-.005.886-.718 1.599-1.599 1.599z"/>
        <path fill="url(#prefix__paint31_linear)" d="M488.017 309.637V295.64c0-.881.713-1.599 1.599-1.599h20.361c.881 0 1.599.714 1.599 1.599v13.997c0 .88-.713 1.598-1.599 1.598h-20.361c-.886-.004-1.599-.718-1.599-1.598z"/>
        <path fill="url(#prefix__paint32_linear)" d="M533.32 217.635c1.055 0 1.91-.855 1.91-1.91 0-1.054-.855-1.91-1.91-1.91s-1.91.856-1.91 1.91c0 1.055.855 1.91 1.91 1.91z"/>
        <path fill="url(#prefix__paint33_linear)" d="M494.584 162.693c1.055 0 1.91-.855 1.91-1.91s-.855-1.91-1.91-1.91-1.91.855-1.91 1.91.855 1.91 1.91 1.91z"/>
        <path fill="url(#prefix__paint34_linear)" d="M494.584 451.635c1.055 0 1.91-.855 1.91-1.909 0-1.055-.855-1.91-1.91-1.91s-1.91.855-1.91 1.91c0 1.054.855 1.909 1.91 1.909z"/>
        <path fill="url(#prefix__paint35_linear)" d="M494.584 401.839c1.055 0 1.91-.855 1.91-1.91s-.855-1.91-1.91-1.91-1.91.855-1.91 1.91.855 1.91 1.91 1.91z"/>
        <path fill="url(#prefix__paint36_linear)" d="M494.584 349.419c1.055 0 1.91-.855 1.91-1.91 0-1.054-.855-1.91-1.91-1.91s-1.91.856-1.91 1.91c0 1.055.855 1.91 1.91 1.91z"/>
        <path fill="#223265" d="M521.134 155.116c.067.038.144.057.22.057.158 0 .311-.081.393-.23 1.598-2.877 4.331-5.021 7.5-5.887.239-.067.383-.312.316-.556-.067-.239-.316-.383-.555-.316-3.399.924-6.333 3.227-8.051 6.319-.115.22-.038.493.177.613zM538.044 149.951c2.302 1.168 4.212 3.078 5.385 5.375.081.158.239.244.402.244.067 0 .139-.014.206-.047.22-.115.311-.383.196-.608-1.259-2.466-3.307-4.514-5.777-5.773-.22-.115-.493-.024-.608.196-.115.23-.024.503.196.613z"/>
        <path fill="#223265" d="M557.261 147.572c-.129-.072-.473-.206-.895.1l-14.349 10.565c-.168.124-.249.335-.201.54.158.69.234 1.403.234 2.116 0 1.628-.421 3.226-1.201 4.639v-2.882c0-1.369-.981-2.527-2.331-2.757l-1.551-.263v-10.235c0-.77-.55-1.426-1.316-1.555l-3.307-.56c-.091-.015-.177-.024-.268-.024-.871 0-1.575.708-1.575 1.579v9.698l-1.422-.239c-.808-.134-1.646.091-2.273.622-.22.187-.249.517-.062.742.186.22.521.249.742.062.392-.33.914-.473 1.416-.387l9.439 1.603c.842.144 1.455.867 1.455 1.719v4.595c0 .22.139.412.33.488h.005l.043.015c.005 0 .005 0 .01.004.014.005.024.005.038.01.005 0 .014 0 .019.005.01 0 .019.005.029.005H540.323c.153 0 .306-.067.406-.197 1.532-1.881 2.374-4.255 2.374-6.682 0-.675-.062-1.35-.191-2.006l13.818-10.167c.034.288.038.718.005 1.106l-.206 2.197c-.134 1.431-.9 2.714-2.096 3.514l-6.792 4.537c-.23.154-.302.455-.168.695.134.239.426.335.68.225l7.673-3.49-.154.46c-.335 1.01-1.1 1.809-2.101 2.187l-5.854 2.221c-.253.096-.392.364-.32.627.067.259.32.431.589.388l6.466-.977-.134.225c-.426.718-1.144 1.197-1.967 1.322l-5.016.746c-.264.039-.455.268-.45.536.009.268.21.484.478.508l4.839.455-.153.172c-.507.569-1.24.876-2.001.838l-3.604-.168c-.253-.01-.483.163-.536.412-.057.249.077.502.311.603l3.016 1.263-.197.144c-.555.407-1.258.546-1.924.373l-1.914-.493c-.24-.062-.488.053-.603.273-.11.22-.053.488.139.646l1.488 1.207-.225.105c-.565.268-1.216.268-1.78 0l-.56-.263c-.264-.125-.575-.015-.704.249-.124.263-.014.574.249.699l.56.263c.426.201.885.306 1.345.306.459 0 .914-.1 1.34-.301l.981-.465c.163-.076.278-.234.297-.411.024-.177-.053-.359-.191-.469l-.302-.245c.857.115 1.718-.1 2.422-.622l.943-.694c.153-.11.234-.297.21-.483-.023-.187-.143-.35-.32-.422l-1.13-.474.632.029c1.082.048 2.116-.383 2.834-1.187l.847-.948c.134-.148.172-.359.095-.541-.071-.186-.244-.311-.44-.33l-1.57-.148.737-.11c1.139-.168 2.13-.833 2.719-1.824l.699-1.178c.105-.172.095-.392-.015-.56-.115-.167-.316-.253-.517-.225l-2.694.407 1.249-.474c1.297-.493 2.288-1.527 2.723-2.838l.532-1.604c.067-.201.009-.416-.149-.555-.153-.139-.378-.172-.569-.086l-2.882 1.311 1.412-.943c1.465-.976 2.393-2.541 2.561-4.289l.206-2.197c.129-1.345-.043-2.13-.508-2.388zm-25.09.737l3.308.56c.253.043.44.263.44.517v.091l-4.351-.737c.039-.278.302-.484.603-.431zm-.617 1.498l4.36.742v8.899l-4.36-.742v-8.899z"/>
        <path fill="#223265" d="M537.202 164.636v8.018c0 .196.105.374.277.465.077.043.163.062.249.062.101 0 .206-.029.292-.091l2.59-1.743.005-.004h.004s.005 0 .005-.005c.01-.005.019-.014.029-.019 3.235-2.532 5.088-6.333 5.088-10.431 0-.292-.235-.526-.527-.526-.292 0-.526.234-.526.526 0 3.768-1.704 7.267-4.672 9.593l-1.761 1.182v-7.027c0-1.369-.981-2.527-2.331-2.757l-10.08-1.713c-.125-.02-.249-.034-.378-.034-1.24 0-2.25 1.01-2.25 2.245v3.14c-.78-1.412-1.201-3.011-1.201-4.638 0-.713.081-1.427.234-2.116.048-.206-.033-.416-.201-.541l-14.349-10.564c-.421-.306-.766-.172-.895-.101-.46.259-.637 1.049-.522 2.346l.206 2.197c.162 1.752 1.096 3.312 2.56 4.289l1.412.943-2.881-1.312c-.191-.086-.416-.052-.57.086-.157.139-.215.359-.148.556l.531 1.603c.436 1.312 1.432 2.351 2.724 2.839l1.249.474-2.695-.407c-.201-.029-.402.057-.517.225-.114.167-.119.388-.014.56l.699 1.177c.589.991 1.579 1.657 2.719 1.824l.737.11-1.57.149c-.197.019-.369.148-.441.33-.071.187-.033.392.096.541l.847.948c.723.804 1.757 1.239 2.834 1.187l.632-.029-1.13.474c-.177.072-.297.234-.321.421-.024.187.058.373.211.484l.943.694c.703.517 1.57.737 2.422.622l-.302.244c-.139.115-.21.292-.191.469.019.182.134.335.296.412l.982.464c.426.201.885.302 1.34.302.459 0 .919-.101 1.345-.307l.56-.263c.263-.124.373-.44.249-.699-.125-.263-.441-.373-.704-.249l-.56.264c-.565.268-1.216.268-1.78 0l-.225-.106 1.493-1.206c.191-.158.249-.426.139-.646-.11-.22-.364-.335-.603-.273l-1.915.493c-.67.172-1.369.038-1.924-.373l-.196-.144 3.015-1.264c.235-.1.369-.354.311-.603-.057-.249-.287-.416-.536-.411l-3.604.167c-.761.034-1.493-.273-2.001-.838l-.153-.172 4.839-.455c.264-.024.469-.244.479-.507.01-.268-.187-.493-.45-.536l-5.016-.747c-.823-.124-1.541-.603-1.967-1.321l-.134-.225 6.466.976c.268.044.522-.124.589-.387.067-.259-.072-.532-.321-.627l-5.854-2.221c-.995-.379-1.761-1.178-2.101-2.188l-.153-.459 7.673 3.489c.248.115.545.019.679-.225.134-.239.062-.541-.167-.694l-6.792-4.538c-1.197-.799-1.963-2.082-2.097-3.513l-.205-2.193c-.034-.392-.029-.823.004-1.11l13.819 10.172c-.125.66-.192 1.33-.192 2.005 0 2.427.843 4.801 2.374 6.683l.024.024c.024.028.053.052.081.071.005 0 .005.005.01.005.01.005.019.015.029.019.005.005.009.005.014.01.01.005.019.009.024.014.005.005.014.005.019.01.005.005.015.005.019.009.01.005.02.005.029.01.005 0 .014.005.019.005.01.005.019.005.034.009.014.005.028.005.048.005H523.786c.004 0 .014 0 .019-.005.009 0 .019-.004.029-.004.009 0 .014-.005.023-.005.01 0 .02-.005.029-.005.01-.005.015-.005.024-.01.01-.004.015-.004.024-.009.01-.005.019-.01.024-.015.005-.004.014-.004.019-.009.01-.005.019-.01.029-.019.005-.005.009-.005.014-.01.01-.009.024-.014.034-.024.005 0 .005-.005.009-.005.015-.009.024-.023.039-.033.014-.014.024-.024.033-.038.005-.005.01-.015.014-.024.005-.005.01-.015.015-.019l.014-.024c.005-.005.01-.015.015-.02.004-.004.004-.014.009-.019l.014-.024c0-.004.005-.009.005-.019.005-.009.01-.019.01-.033 0-.005 0-.01.005-.015.004-.014.004-.024.009-.038v-.005c.005-.019.005-.038.01-.057v-4.897c0-.661.536-1.197 1.196-1.197.067 0 .134.005.201.019l10.08 1.714c.857.192 1.47.914 1.47 1.766z"/>
        <path fill="#223265" d="M533.923 164.254c-.287-.048-.56.143-.608.43-.048.288.144.56.431.608.407.067.704.417.704.833v13.523c0 .593-.484 1.081-1.082 1.081-.062 0-.125-.004-.182-.014l-7.462-1.268c-.842-.144-1.455-.867-1.455-1.719v-6.821c0-.172-.081-.321-.21-.416-2.973-2.332-4.682-5.826-4.682-9.598 0-.292-.234-.526-.526-.526-.292 0-.527.234-.527.526 0 4.016 1.781 7.745 4.887 10.273v6.562c0 1.369.982 2.528 2.331 2.757l7.462 1.269c.12.019.239.029.359.029 1.178 0 2.135-.958 2.135-2.135V166.12c.005-.924-.661-1.709-1.575-1.866zM540.064 172.927c-1.283 0-2.293 1.326-2.293 3.021 0 .847.254 1.603.666 2.144l-1.68 1.091c-.244.158-.311.484-.154.728.101.153.269.239.441.239.1 0 .196-.028.287-.086l1.862-1.211c.029-.019.057-.043.081-.067.244.115.512.177.79.177 1.283 0 2.293-1.326 2.293-3.02 0-1.69-1.005-3.016-2.293-3.016zm0 4.988c-.67 0-1.24-.9-1.24-1.967 0-1.068.565-1.968 1.24-1.968.67 0 1.24.9 1.24 1.968 0 1.067-.57 1.967-1.24 1.967zM520.292 150.879c.277-.402.21-.746.028-1l-.55.096c.033.081.024.177-.029.253-.076.11-.215.163-.373.158l-1.479-.033-.431-2.154-.699 1.005.35 1.642-1.005-.699-.599.862 3.092 2.139.598-.861-1.067-.738-.033-.205 1.144.043c.483.009.804-.153 1.053-.508zM522.781 148.294l-.604-.651-1.105 1.025-.417-.45.781-.723-.537-.579-.78.723-.397-.426 1.048-.967-.603-.651-1.823 1.685 2.551 2.757 1.886-1.743zM523.393 143.469l-2.115 1.298 1.962 3.202 2.183-1.336-.465-.756-1.287.79-.321-.527.909-.555-.411-.67-.909.555-.307-.498 1.221-.746-.46-.757zM527.667 143.087c-.258-.714-.986-.948-1.833-.642l-1.168.426 1.288 3.528.991-.359-.436-1.202.182-.067c.637-.234 1.273-.866.976-1.684zm-1.292 1.019l-.124.043-.307-.838.158-.057c.264-.096.498-.005.594.263.105.292-.105.508-.321.589zM532.396 145.03l.747-1.513.038 1.494 1.025-.024-.096-3.753-.881.024-1.149 2.331-1.268-2.269-.881.024.096 3.753 1.024-.024-.038-1.493.823 1.474.56-.024zM536.771 145.6l.34-1.403 1.8-1.943-1.149-.278-.91 1.087-.311-1.384-1.148-.277.708 2.556-.34 1.402 1.01.24zM543.027 145.513c.287-.497.134-1.125-.627-1.565l-1.158-.675-1.891 3.246 1.278.746c.713.417 1.421.268 1.728-.258.206-.354.177-.747-.01-1.029.278-.019.512-.173.68-.465zm-1.503.848c-.125.21-.349.239-.584.105l-.258-.148.387-.661.244.144c.268.148.316.383.211.56zm.536-1.226c-.11.187-.278.206-.421.12l-.254-.148.34-.584.153.09c.239.139.297.326.182.522zM546.195 146.82l-.66-.613-3.609 1.776.785.728.512-.273.909.847-.234.532.785.727 1.512-3.724zm-2.273 1.25l.995-.537-.464 1.034-.531-.497zM546.846 150.42c.489-.33 1.159-.187 1.58.435.206.307.354.704.392 1.058l.747-.502c-.043-.393-.191-.805-.474-1.221-.727-1.082-1.948-1.297-2.857-.689-.91.612-1.168 1.819-.441 2.901.283.416.603.708.948.899l1.345-.904-.56-.828-.818.55-.058-.081c-.412-.623-.287-1.297.196-1.618z"/>
        <path fill="#223265" d="M512.657 150.123c.072.038.149.057.221.057.158 0 .311-.081.392-.229 3.609-6.338 10.094-10.493 17.355-11.115 8.511-.728 16.523 3.375 20.902 10.713.13.215.403.282.618.158.215-.13.282-.407.158-.618-4.557-7.635-12.895-11.909-21.754-11.148-7.558.646-14.311 4.968-18.064 11.565-.12.22-.043.493.172.617z"/>
        <path fill="url(#prefix__paint37_linear)" d="M765.299 626.262c-1.981-28.922 81.89-17.621 126.542-22.149 21.275-2.159 52.741-3.389 67.712 5.055 93.157 52.539-192.588 41.396-194.254 17.094z" opacity=".25"/>
        <path fill="url(#prefix__paint38_linear)" d="M873.045 598.747l-1.68 22.603s4.317 3.303.469 7.099c-3.848 3.796-15.436-.196-17.666-.795-4.658-1.249 10.022-4.145 10.022-4.145l-.392-26.389 9.247 1.627z"/>
        <path fill="url(#prefix__paint39_linear)" d="M934.899 600.858l4.174 21.957s4.168 3.485.162 7.113c-4.006 3.629-15.412-.857-17.618-1.551-4.6-1.45 10.19-3.714 10.19-3.714l-5.662-25.638 8.754 1.833z"/>
        <path fill="url(#prefix__paint40_linear)" d="M926.527 392.309c4.428-.603 20.433 14.916 10.913 42.258-.177.502 4.351 16.571-8.907 73.936-1.91 8.281 12.631 14.92 9.113 93.217-2.924 1.077-10.18 2.101-14.292 2.072-1.503-.009-16.503-56.067-21.074-79.996-6.596-34.55-11.325-99.238-11.913-105.667-1.092-11.795 31.245-25.15 36.16-25.82z"/>
        <path fill="url(#prefix__paint41_linear)" d="M911.652 400.126c4.379 1.12 14.809 21.081 2.737 36.939-.033.043-8.744 41.305-26.013 74.884-3.633 7.065 9.912 12.096-12.871 90.187-5.748.33-7.093.082-13.048-1.244-.818-.182-3.388-59.758-2.584-84.376 1.163-35.551 10.659-99.191 11.482-105.558 1.517-11.694 35.443-12.072 40.297-10.832z"/>
        <path fill="url(#prefix__paint42_linear)" d="M938.417 615.08l1.551 10.253s-8.817-.972-8.74-2.135c.076-1.163-1.709-7.305-1.709-7.305s8.046-.966 8.898-.813z"/>
        <path fill="url(#prefix__paint43_linear)" d="M872.552 614.328l-.522 10.359s-8.946-2.322-8.635-3.447c.316-1.125.312-8.027.312-8.027s8.022.79 8.845 1.115z"/>
        <path fill="#223265" d="M930.96 622.619s-12.359-1.001-14.244 2.532c-3.016 5.648 19.968 10.048 23.816 7.343 5.241-3.686-.478-9.119-.478-9.119s-4.327 1.915-9.094-.756zM863.625 620.273s-12.052.522-13.713 3.978c-2.651 5.519 19.6 8.784 23.166 6.041 4.858-3.739-.828-8.693-.828-8.693s-3.963 1.034-8.625-1.326z"/>
        <path fill="url(#prefix__paint44_linear)" d="M818.461 617.248c1.317 4.303-1.072 9.009-5.327 10.526-4.26 1.513-8.783-.747-10.099-5.045-1.317-4.299 1.067-9.014 5.327-10.526 4.26-1.508 8.778.747 10.099 5.045z"/>
        <path fill="url(#prefix__paint45_linear)" d="M824.923 389.14c-.187-2.398-.024-4.796.229-7.199l-4.274 2.212c-1.057.55-1.752 1.637-1.814 2.824l-5.504 111.402c-.086 1.78 1.249 3.236 2.987 3.26.378.004.746-.058 1.086-.182 1.225-.436 2.149-1.609 2.216-3.002l5.356-108.305c-.148-.287-.249-.622-.282-1.01z"/>
        <path fill="url(#prefix__paint46_linear)" d="M836.932 377.566c-.914-.589-2.087-.637-3.087-.12l-3.471 1.795c-.292 2.466-.574 4.936-.574 7.401l1.986-1.029-4.743 105.045c-.081 1.78 1.264 3.231 3.001 3.245 1.738.01 3.212-1.417 3.293-3.197l4.988-110.378c.052-1.12-.479-2.168-1.393-2.762z"/>
        <path fill="url(#prefix__paint47_linear)" d="M833.979 616.162c1.541 5.03-1.254 10.55-6.242 12.316-4.987 1.771-10.281-.876-11.822-5.907-1.541-5.031 1.254-10.55 6.241-12.316 4.988-1.771 10.281.876 11.823 5.907z"/>
        <path fill="#223265" d="M773.24 502.974c-.575 18.936-2.14 81.183 1.053 108.626.062.522.038 1.038.014 1.565-.584 12.139 28.158 15.868 50.764 6.587 5.284-2.174 3.657-90.829 9.037-128.376 1.206-8.425 1.752-19.607-6.357-19.492-4.733.067-40.08 11.464-50.022 20.98-2.742 2.619-4.374 6.262-4.489 10.11z"/>
        <path fill="url(#prefix__paint48_linear)" d="M808.453 482.87l-4.073 132.808c-.158 5.05 4.231 8.836 8.878 7.659l19.581-4.955c3.384-.856 5.749-4.121 5.653-7.802l-3.527-131.296c-.134-4.949-4.576-8.434-9.095-7.132l-11.98 3.442c-3.121.9-5.337 3.863-5.437 7.276z"/>
        <path fill="url(#prefix__paint49_linear)" d="M837.319 384.684c-.076.043-.153.081-.234.124l-16.034 7.822c-2.068 1.01-4.485.144-5.39-1.934-.909-2.077.029-4.566 2.101-5.591l16.035-7.821c2.072-1.01 4.484-.149 5.394 1.929.871 2.001.038 4.394-1.872 5.471z"/>
        <path fill="url(#prefix__paint50_linear)" d="M924.647 299.288s-3.279-3.245-6.945-10.545c-.498-.991-9.487-27.945-12.373-29.003-3.346-1.225-6.955-3.829-9.937-2.714-1.474.551 4.136 9.885 3.427 26.562-.521 12.225-10.98 19.353-12.435 22.871-3.451 8.348 29.532 6.031 38.263-7.171z"/>
        <path fill="url(#prefix__paint51_linear)" d="M921.851 292.912s15.786 12.408 16.556 47.686c.804 36.829-6.198 46.101-3.211 80.078.1 13.79-45.983 19.74-66.234-8.119-1.8-2.479 12.531-21.406 9.74-42.688-5.102-38.969-11.415-39.945 9.741-69.125 2.627-3.619 18.355-14.906 33.408-7.832z"/>
        <path fill="url(#prefix__paint52_linear)" d="M905.401 298.403s17.767 10.43 24.458 27.442c1.948 2.571 11.382-5.863 11.382-5.863s-27.029-34.891-49.544-21.56c-22.515 13.331-2.738 99.876 21.97 125.403.971-3.073 2.072-14.164 2.072-14.164s-36.778-77.148-29.345-100.612c4.375-13.834 19.007-10.646 19.007-10.646z"/>
        <path fill="url(#prefix__paint53_linear)" d="M959.156 332.145c-4.748-2.264-5.413-10.766-11.473-17.496-9.496-10.545-18.738-6.055-19.207 5.763-2.81 70.658-26.56 85.07-17.432 100.345 9.127 15.274 37.233 12.034 48.203 3.466 6.529-5.098 21.381-39.376 13.684-50.505-7.696-11.125.503-34.767-13.775-41.573z"/>
        <path fill="url(#prefix__paint54_linear)" d="M909.144 310.667s5.973 52.563-8.98 67.024c-21.419 20.717-59.212 9.123-59.212 9.123s-10.271-.775-12.1-5.385c-1.828-4.61-5.901-4.562-4.705-6.457 2.322-3.677 15.877 1.278 20.649 2.479 17.949 4.509 37.314-5.251 40.129-9.798 4.13-6.683 7.294-36.906 5.839-43.564-2.891-13.221 8.96-19.368 18.38-13.422z"/>
        <path fill="url(#prefix__paint55_linear)" d="M888.251 334.921s10.817 5.744 27.019 2.25c-.206.531 4.217-22.081-10.229-37.504-17.604-7.377-22.385 12.809-16.79 35.254z"/>
        <path fill="url(#prefix__paint56_linear)" d="M910.489 233.25c1.388 1.207 21.653 15.653 8.749 42.287-2.661 7.429-25.641 15.595-30.7-5.036-5.002-20.382 6.495-50.649 21.951-37.251z"/>
        <path fill="#223265" d="M912.936 264.575c.675-2.092 2.01-5.313-.321-7.52-2.479-2.336-5.141 3.925-5.141 3.925s-15.78-3.135-15.081-16.222c.009-.508-1.695-.235-2.997 6.342-1.555.642-7.835-15.94 14.522-23.206 8.994-1.307 19.658-.526 28.192 11.91 4.111 5.61 3.518 14.164 2.158 20.726-1.694 8.185-9.122 19.434-17.628 18.668-1.024-.1-4.475-12.23-3.704-14.623z"/>
        <path fill="#223265" d="M887.758 243.791s-.713 13.355 9.554 19.329c10.267 5.978 14.115 5.481 13.713 12.493.043.163 2.747-6.328-5.107-10.76-9.865-5.572-12.823-9.239-11.109-20.54 1.713-11.297-7.051-.522-7.051-.522zM943.51 260.884c10.965 2.882 14.622 11.331 14.435 30.43-.158 16.662 26.378 23.651 22.956 14.24-3.423-9.415-8.07 1.216-8.295.273-.359-1.517 3.092-13.829 13.268-4.509 8.371 7.664 1.708 24.049-10.971 26.968-12.679 2.916-42.656-2.867-41.368-20.975 1.125-15.849 8.941-33.957-5.648-36.398-1.484-.249-.512-.101-.641-.709 0 .005-.522-13.723 16.264-9.32z"/>
        <path fill="#223265" d="M949.378 259.29c12.128 8.1 14.589 10.632 12.827 20.603-1.761 9.97-6.686 23.306 5.433 28.208-2.417.115-12.895-6.165-8.53-24.997 4.064-17.524-10.984-23.402-16.479-23.828-5.49-.426-13.881 5.069-14.895 6.711 0 0-3.676 1.178-1.005-2.053 6.279-7.597 16.029-9.067 22.649-4.644z"/>
        <path fill="url(#prefix__paint57_linear)" d="M518.693 589.379c-3.236-28.639 69.967-15.241 108.387-18.529 18.308-1.571 45.485-1.949 58.887 6.792 83.412 54.397-164.555 35.8-167.274 11.737z" opacity=".25"/>
        <path fill="#223265" d="M687.876 404.371l-42.187 1.628c-4.116.158-7.356 3.58-7.289 7.697l1.034 64.765c.071 4.403 3.862 7.821 8.247 7.433l48.524-4.269c4.259-.374 7.366-4.198 6.863-8.449l-7.366-62.127c-.464-3.921-3.872-6.831-7.826-6.678z"/>
        <path fill="url(#prefix__paint58_linear)" d="M663.485 374.708c1.168.416 3.853 11.019 6.802 14.125 3.412 3.591 4.887 8.746 3.494 10.531-2.599 3.332-12.115 8.899-14.824 3.212-1.249-2.618-.804-7.089-1.014-10.952-.245-4.528-6.596-16.844-6.596-16.844l12.138-.072z"/>
        <path fill="#223265" d="M574.354 242.177s-3.873 1.652-4.188 9.215c-.632 3.149-6.084 94.614-6.558 94.614-.474 0 2.843 7.137 2.843 7.137l7.903-110.966z"/>
        <path fill="url(#prefix__paint59_linear)" d="M589.263 244.69s12.464-10.105 22.266.795c9.803 10.894 38.621 42.219 55.914 135.805-5.877 4.255-11.989 5.519-11.989 5.519s-18.16-34.173-35.932-65.234c-18.111-31.636-35.782-60.328-30.259-76.885z"/>
        <path fill="url(#prefix__paint60_linear)" d="M605.565 245.47c-.363-.746-4.752-10.334-7.849-18.802 4.47-11.862.359-29.568-4.016-34.177-4.006-4.217-7.907-5.677-15.709-1.901-9.41 4.553-13.019 14.107-10.951 24.954 1.249 6.562 6.069 14.322 11.794 18.352-.618 12.139-6.539 17.05-7.922 20.669-3.379 8.851 33.71 17.74 42.335 3.72-.004 0-3.924-5.108-7.682-12.815z"/>
        <path fill="#223265" d="M648.528 411.604s.962-5.064 3.8-9.205c4.772-6.96 17.806-11.277 26.971-2.915 6.711 6.122 5.878 10.435 3.638 12.005-1.168.823-5.006-.459-4.963-1.895.057-1.867-.379-4.337-2.528-6.328-5.447-5.046-16.79-4.921-20.461 6.39.22 1.244-5.045 10.018-6.457 1.948z"/>
        <path fill="url(#prefix__paint61_linear)" d="M583.266 565.201l-2.676 22.828s4.231 3.528.168 7.214c-4.064 3.681-15.633-.867-17.873-1.57-4.666-1.47 10.334-3.767 10.334-3.767l.742-26.754 9.305 2.049z"/>
        <path fill="#223265" d="M571.759 585.904s-13.933.009-16.02 3.915c-3.331 6.238 22.185 11.096 26.431 8.109 5.786-4.073-.532-10.076-.532-10.076s-4.614 1.005-9.879-1.948z"/>
        <path fill="url(#prefix__paint62_linear)" d="M641.966 563.224l6.011 21.857s4.499 3.183.747 7.175c-3.753 3.997-15.651.392-17.934-.129-4.768-1.092 9.998-4.586 9.998-4.586l-7.816-25.451 8.994 1.134z"/>
        <path fill="#223265" d="M639.348 585.655s-13.771 4.097-14.46 8.468c-1.096 6.988 24.477 3.236 27.512-.982 4.131-5.748-3.81-9.343-3.81-9.343s-3.293 2.915-9.242 1.857z"/>
        <path fill="url(#prefix__paint63_linear)" d="M579.963 384.43c-.21-1.925 5.155-4.141 5.155-4.141 3.284-7.51 5.825-30.319 11.454-33.091 20.122-9.923 35.098 15.849 33.672 54.167-2.245 60.193 19.174 177.378 19.174 177.378s-5.499 2.551-14.799 3.087c-38.856-84.926-52.736-180.106-54.656-197.4z"/>
        <path fill="url(#prefix__paint64_linear)" d="M569.979 580.686c-6.816-151.878-4.653-200.914-2.216-222.952 1.287-11.613 11.884-18.836 11.884-18.836 8.376-6.931 27.579-28.778 42.532 21.062 7.227 21.325-6.634 47.264-6.792 47.953-13.895 59.643-27.569 166.283-29.522 174.717-1.068-.024-11.109.627-15.886-1.944z"/>
        <path fill="url(#prefix__paint65_linear)" d="M603.182 238.554s19.37 13.24 24.468 42.769c6.988 40.486 7.036 60.337 1.579 83.261 1.139 8.439-61.533 10.521-63.85 7.142-3.006-4.38 3.082-13.647-1.01-46.604-5.452-43.909 6.677-76.698 12.143-82.576.584-.637 19.945-.422 26.67-3.992z"/>
        <path fill="#223265" d="M562.541 192.132c-.254-1.613-.359-3.203-.388-4.653-.053-2.992 2.034-5.361 4.652-5.098 3.585.354 8.975-.536 15.341-3.279 11.42-4.921 24.137 3.868 27.612 16.275 4.691 16.749-7.002 24.116-11.98 34.398-2.527 5.222-11.952 2.91-12.488-2.303-.828-8.051-6.361-16.294-12.21-21.693-4.853-4.481-9.29-5.653-10.539-13.647z"/>
        <path fill="url(#prefix__paint66_linear)" d="M574.832 209.326s2.666-3.744 4.116-1.776c1.968 2.676-.799 9.08-.799 9.08l-3.317-7.304z"/>
        <path fill="url(#prefix__paint67_linear)" d="M576.507 240.655s21.003 2.101 25.205-4.624c0-.627 5.462 3.044 5.462 4.519 0 1.469-10.712 13.761-36.965 6.825-.527-.21 4.197-6.72 6.298-6.72z"/>
        <path fill="url(#prefix__paint68_linear)" d="M582.275 275.072c2.412 7.328-8.601 74.256-26.445 70.8-37.597-7.28-52.176-29.036-52.176-29.036s-9.391-7.046-5.743-15.801c3.905-9.368 12.53 8.779 13.277 9.243 22.41 13.958 37.597 18.759 39.028 13.178 3.862-15.102 19.605-46.599 20.088-59.064.307-7.859 8.247-.651 11.971 10.68z"/>
        <path fill="url(#prefix__paint69_linear)" d="M571.037 331.977c22.563-45.8 17.479-70.643 10.683-79.422-2.623-3.389-9.592-5.955-11.559-1.168-12.756 31.023-19.299 62.505-21.4 72.734-19.83-5.911-35.702-15.504-37.085-14.149-2.704 2.637-1.78 1.972-7.888 8.745 20.854 20.047 47.864 34.91 58.078 26.543 2.7-2.212 7.634-9.066 9.171-13.283z"/>
        <path fill="url(#prefix__paint70_linear)" d="M427.392 630.596c11.918-28.61-139.054-17.29-216.363-21.689-36.836-2.096-91.884-3.264-120.702 5.113-179.35 52.118 327.047 40.615 337.065 16.576z" opacity=".25"/>
        <path fill="url(#prefix__paint71_linear)" d="M315.468 287.693s15.775-15.773-30.317-7.171c-23.501 4.385-46.706 16.596-49.984 8.602-3.279-7.989-13.928 1.642-12.086 11.474 1.843 9.836 4.916 19.874 21.51 13.723 16.59-6.141 40.967-30.113 70.877-26.628z"/>
        <path fill="url(#prefix__paint72_linear)" d="M317.253 283.279s14.871-6.515-20.562-11.924c-18.064-2.757-37.588-.344-38.267-6.342-.68-5.993-10.501-2.259-11.263 4.59-.756 6.85-.665 14.131 12.742 14.093 13.406-.039 36.299-9.837 57.35-.417z"/>
        <path fill="url(#prefix__paint73_linear)" d="M104.523 621.085c-.622 4.193-4.561 7.232-8.797 6.792-4.236-.44-7.17-4.198-6.548-8.386.622-4.193 4.562-7.233 8.797-6.793 4.241.441 7.17 4.194 6.548 8.387z"/>
        <path fill="url(#prefix__paint74_linear)" d="M202.49 429.605c.814-2.12 1.929-4.092 3.116-6.031l-4.537.148c-1.12.039-2.154.68-2.685 1.671l-49.841 92.561c-.794 1.479-.249 3.26 1.221 3.983.32.158.66.254 1 .287 1.221.125 2.479-.498 3.102-1.656l48.457-89.986c-.015-.307.038-.632.167-.977z"/>
        <path fill="url(#prefix__paint75_linear)" d="M217.4 424.627c-.541-.876-1.517-1.388-2.58-1.354l-3.676.119c-1.249 1.982-2.489 3.968-3.484 6.065l2.106-.067-46.62 87.463c-.785 1.48-.234 3.26 1.24 3.978 1.474.713 3.307.096 4.097-1.383l48.984-91.901c.498-.938.474-2.049-.067-2.92z"/>
        <path fill="url(#prefix__paint76_linear)" d="M118.174 626.451c-.728 4.906-5.342 8.467-10.3 7.95-4.964-.516-8.396-4.911-7.668-9.817.732-4.911 5.341-8.468 10.3-7.951 4.964.517 8.395 4.911 7.668 9.818z"/>
        <path fill="#223265" d="M171.355 501.153c-4.054-1.862-38.75-6.496-51.07-2.427-3.394 1.12-6.256 3.556-7.917 6.788-8.161 15.877-34.725 68.216-43.135 92.853-.163.469-.387.9-.622 1.34-5.418 10.091 17.528 24.92 40.526 26.184 5.38.292 39.928-75.803 59.729-105.572 4.437-6.682 9.434-15.973 2.489-19.166z"/>
        <path fill="#223265" d="M169.642 500.626l-11.588-1.929c-3.016-.502-6.103 1.12-7.577 3.983L93.179 614.034c-2.177 4.236.02 9.238 4.447 10.119l18.672 3.724c3.226.642 6.566-1.177 7.974-4.346l50.218-113.149c1.891-4.265-.474-9.028-4.848-9.756zM214.849 423.114l-16.815.154c-2.178.028-3.982 1.766-4.054 3.906-.067 2.135 1.637 3.853 3.805 3.829l16.815-.158c.086 0 .167-.005.249-.009 2.058-.144 3.738-1.839 3.805-3.897.067-2.13-1.637-3.844-3.805-3.825z"/>
        <path fill="url(#prefix__paint77_linear)" d="M209.048 407.845l-4.815 5.634s-17.925 8.295-6.658 16.696c11.267 8.401 12.286 0 13.928-3.073 1.637-3.073 5.433-3.38 5.433-3.38s1.124-.306 1.024-5.327c-.924-4.715 6.863-18.539 6.863-18.539l-9.323-3.174-6.452 11.163z"/>
        <path fill="url(#prefix__paint78_linear)" d="M365.404 603.843l7.438 18.817s-2.068 4.858 3.001 6.223c5.068 1.364 14.21-1.93 15.809-3.509 3.336-3.289-11.717-4.332-11.717-4.332l-9.3-23.24-5.231 6.041z"/>
        <path fill="url(#prefix__paint79_linear)" d="M378.155 614.111c-14.987-147.164-24.712-203.069-29.638-224.126-2.594-11.09-3.857-12.517-3.857-12.517-8.913-5.734-36.506-24.068-45.184 25.93.206 34.306 26.474 111.79 49.362 165.277 8.85 20.688 15.206 38.083 19.021 48.628 1.024-.148 9.353-2.719 10.296-3.192z"/>
        <path fill="#223265" d="M380.519 620.678s19.069-.867 21.156 2.771c3.336 5.821-23.98 10.962-28.187 8.396-4.04-2.46-1.34-8.099-1.34-8.099s4.106 2.312 8.371-3.068z"/>
        <path fill="#E9E9EA" d="M382.218 621.18s-1.426 1.949-1.57 3.887c.283 1.202 3.925-5.088 1.57-3.887zM386.224 621.367s-1.412 1.934-1.536 3.873c.282 1.196 3.877-5.06 1.536-3.873zM389.924 621.324s-1.192 1.68-1.268 3.389c.273 1.058 3.293-4.394 1.268-3.389z"/>
        <path fill="url(#prefix__paint80_linear)" d="M322.393 265.535l-8.151 31.583s13.584 14.078 20.878 14.887c8.482.943 3.686-43.991 3.686-43.991l-16.413-2.479z"/>
        <path fill="url(#prefix__paint81_linear)" d="M252.111 593.451l-15.714 12.915s-5.284-.484-5.026 4.791c.254 5.27 6.223 13.001 8.223 14.049 4.174 2.178.536-12.546.536-12.546l19.371-16.059-7.39-3.15z"/>
        <path fill="url(#prefix__paint82_linear)" d="M336.269 439.753c-.019.005-.048.005-.067.01-1.651-14.226-4.676-22.867-4.676-22.867s7.529-28.505-10.104-36.953c-17.633-8.449-54.23-29.223-38.578 72.94 15.651 102.164-44.13 148.045-44.13 148.045s7.265 9.329 7.734 9.047c88.06-59.179 93.794-133.192 89.821-170.222z"/>
        <path fill="url(#prefix__paint83_linear)" d="M371.143 301.354c-3.317-7.735-30.949-17.189-31.054-14.6-.034.781-.584 4.835-8.027 6.673-10.401 2.571-15.159-6.965-15.159-6.965-10.161-1.598-30.134 7.788-34.926 14.342-11.09 15.159-14.44 136.833-2.163 141.472 8.726 3.293 68.368 4.03 81.335-6.869 17.824-56.139 14.732-122.996 9.994-134.053z"/>
        <path fill="#223265" d="M241.049 613.024s6.122 18.079 3.202 21.095c-4.666 4.815-17.178-20.004-15.876-24.757 1.244-4.562 7.409-3.537 7.409-3.537s-1.081 4.59 5.265 7.199z"/>
        <path fill="#E9E9EA" d="M241.044 614.795s-2.268-.828-4.173-.431c-1.077.603 5.978 2.36 4.173.431zM241.973 618.696s-2.25-.814-4.145-.407c-1.072.608 5.93 2.327 4.145.407zM243.04 622.243s-1.943-.68-3.609-.282c-.942.555 5.131 1.943 3.609.282z"/>
        <path fill="url(#prefix__paint84_linear)" d="M352.002 267.564c1.503 3.236.258 5.194 4.944 10.704 2.068 2.431.608 10.368 3.035 11.775 2.426 1.402 10.712-3.538 10.046-6.85-.665-3.312-16.532-20.626-17.135-20.616-.598.009-4.547-2.877-.89 4.987z"/>
        <path fill="url(#prefix__paint85_linear)" d="M368.524 279.397c2.882-.33 38.023 48.188 23.726 85.989-1.986 5.247-7.395 7.86-11.975 5.519-11.88-6.074-22.367-34.239-22.525-87.272 3.284-3.417 6.558-3.752 10.774-4.236z"/>
        <path fill="#223265" d="M353.897 243.434l18.117 25.509c.186.263.201.617.028.895l-7.246 11.699c-.316.507-1.053.512-1.369.009l-15.632-24.584c-.139-.216-.168-.484-.077-.718l4.767-12.623c.225-.608 1.039-.713 1.412-.187z"/>
        <path fill="url(#prefix__paint86_linear)" d="M353.73 244.755l15.996 22.465c.129.182.134.426.014.617l-6.428 10.067c-.215.335-.708.34-.924.005l-13.646-20.928c-.095-.144-.115-.326-.057-.484l4.078-11.598c.143-.431.708-.507.967-.144z"/>
        <path fill="url(#prefix__paint87_linear)" d="M353.452 251.672c.56-.478 5.337-.488 8.113.005s5.385 2.662 6.749 4.83c1.828 2.906.55 7.252.316 7.501-.168.177-3.456-4.682-3.456-4.682s-.148-.359-4.203-.272c-4.054.09-9.505-5.678-7.519-7.382z"/>
        <path fill="url(#prefix__paint88_linear)" d="M285.357 297.501s-1.92-1.767-8.913 5.763c-5.71 6.146-48.241 45.278-69.139 105.505 2.049 6.964 11.062 7.17 12.292 7.17 1.23 0 22.917-34.723 53.234-57.053 2.843-3.384 14.057-58.006 12.526-61.385z"/>
        <path fill="url(#prefix__paint89_linear)" d="M344.353 290.531c-6.284 4.686-21.184 12.293-39.487-2.173-.771-8.602 12.904-10.138 13.521-9.526.613.613 15.518 8.502 24.119 3.38 1.058-1.345 2.235-.216 3.192 1.369 1.398 2.312.823 5.337-1.345 6.95z"/>
        <path fill="url(#prefix__paint90_linear)" d="M338.097 222.464c-1.335.593-19.394 6.802-15.292 30.362.55 11.33 15.522 17.859 24.028 3.528 8.505-14.332 6.083-40.467-8.736-33.89z"/>
        <path fill="#223265" d="M341.295 252.634c-.297-.536-.785-.933-1.374-1.1-.412-.111-.857-.245-1.12-.345-.651-.244-1.378-.144-1.967.234-3.815 2.451-9.913 4.514-11.937-5.389-.847-5.017-2.202-5.017-2.202-5.017s-12.526 23.733 4.021 35.968c10.161 7.51 28.469-3.15 21.792-24.26-3.044 4.687-5.686 2.686-7.213-.091zM328.171 226.173s9.907-19.817 31.475-8.774c.923.474 1.737 1.202 2.182 2.14 1.671 3.513-3.125 5.725-6.772 5.399 5.274.742 8.854 6.616.469 7.645 2.024 1.79.186 6.84-4.126 6.964.186-.368.306-6.964-4.006-9.305-2.585-1.402-9.985-4.499-13.311-2.709-7.142 3.844-11.339 12.632-11.339 12.632s1.436-9.013 5.428-13.992z"/>
        <path fill="url(#prefix__paint91_linear)" d="M326.261 235.512s-4.38-5.84-5.418.45c-.823 4.988 3.92 5.84 3.92 5.84l1.498-6.29z"/>
    </g>
    <defs>
        <linearGradient id="prefix__paint0_linear" x1="520.5" x2="520.5" y1="40" y2="599.799" gradientUnits="userSpaceOnUse">
            <stop stop-color="#F9D2D9"/>
            <stop offset="1" stop-color="#EDB0B9"/>
        </linearGradient>
        <linearGradient id="prefix__paint1_linear" x1="382.566" x2="382.566" y1="77.912" y2="143.098" gradientUnits="userSpaceOnUse">
            <stop stop-color="#F9D2D9"/>
            <stop offset="1" stop-color="#EDB0B9"/>
        </linearGradient>
        <linearGradient id="prefix__paint2_linear" x1="115.98" x2="39.623" y1="398.607" y2="414.966" gradientUnits="userSpaceOnUse">
            <stop stop-color="#E2C8CE"/>
            <stop offset="1" stop-color="#DFACB6"/>
        </linearGradient>
        <linearGradient id="prefix__paint3_linear" x1="163.229" x2="45.125" y1="348.514" y2="471.036" gradientUnits="userSpaceOnUse">
            <stop stop-color="#A0C4E8"/>
            <stop offset="1" stop-color="#67A3D8"/>
        </linearGradient>
        <linearGradient id="prefix__paint4_linear" x1="7.338" x2="64.234" y1="436.156" y2="428.592" gradientUnits="userSpaceOnUse">
            <stop stop-color="#75ACDD"/>
            <stop offset="1" stop-color="#406EAD"/>
        </linearGradient>
        <linearGradient id="prefix__paint5_linear" x1="92.776" x2="43.142" y1="505.863" y2="505.863" gradientUnits="userSpaceOnUse">
            <stop stop-color="#67A9DC"/>
            <stop offset="1" stop-color="#3A6EAE"/>
        </linearGradient>
        <linearGradient id="prefix__paint6_linear" x1="94.019" x2="42.072" y1="484.156" y2="484.156" gradientUnits="userSpaceOnUse">
            <stop stop-color="#D7EDFA"/>
            <stop offset="1" stop-color="#A7CFEE"/>
        </linearGradient>
        <linearGradient id="prefix__paint7_linear" x1="97.535" x2="38.287" y1="479.288" y2="479.288" gradientUnits="userSpaceOnUse">
            <stop stop-color="#2F5B91"/>
            <stop offset="1" stop-color="#00264C"/>
        </linearGradient>
        <linearGradient id="prefix__paint8_linear" x1="528.561" x2="528.561" y1="497.372" y2="-94.001" gradientUnits="userSpaceOnUse">
            <stop stop-color="#ECF5FB"/>
            <stop offset="1" stop-color="#BBD8ED"/>
        </linearGradient>
        <linearGradient id="prefix__paint9_linear" x1="175.543" x2="253.877" y1="120.153" y2="301.159" gradientUnits="userSpaceOnUse">
            <stop stop-color="#F7BF83"/>
            <stop offset="1" stop-color="#F09021"/>
        </linearGradient>
        <linearGradient id="prefix__paint10_linear" x1="173.202" x2="252.506" y1="299.201" y2="477.306" gradientUnits="userSpaceOnUse">
            <stop stop-color="#F7BF83"/>
            <stop offset="1" stop-color="#F09021"/>
        </linearGradient>
        <linearGradient id="prefix__paint11_linear" x1="281.884" x2="361.188" y1="117.314" y2="295.419" gradientUnits="userSpaceOnUse">
            <stop stop-color="#F7BF83"/>
            <stop offset="1" stop-color="#F09021"/>
        </linearGradient>
        <linearGradient id="prefix__paint12_linear" x1="398.771" x2="456.089" y1="112.42" y2="241.148" gradientUnits="userSpaceOnUse">
            <stop stop-color="#F7BF83"/>
            <stop offset="1" stop-color="#F09021"/>
        </linearGradient>
        <linearGradient id="prefix__paint13_linear" x1="509.128" x2="555.663" y1="110.02" y2="214.53" gradientUnits="userSpaceOnUse">
            <stop stop-color="#F7BF83"/>
            <stop offset="1" stop-color="#F09021"/>
        </linearGradient>
        <linearGradient id="prefix__paint14_linear" x1="515.609" x2="549.18" y1="411.146" y2="486.542" gradientUnits="userSpaceOnUse">
            <stop stop-color="#F7BF83"/>
            <stop offset="1" stop-color="#F09021"/>
        </linearGradient>
        <linearGradient id="prefix__paint15_linear" x1="517.115" x2="547.673" y1="363.237" y2="431.866" gradientUnits="userSpaceOnUse">
            <stop stop-color="#F7BF83"/>
            <stop offset="1" stop-color="#F09021"/>
        </linearGradient>
        <linearGradient id="prefix__paint16_linear" x1="515.609" x2="549.18" y1="308.633" y2="384.029" gradientUnits="userSpaceOnUse">
            <stop stop-color="#F7BF83"/>
            <stop offset="1" stop-color="#F09021"/>
        </linearGradient>
        <linearGradient id="prefix__paint17_linear" x1="398.771" x2="456.089" y1="232.947" y2="361.675" gradientUnits="userSpaceOnUse">
            <stop stop-color="#F7BF83"/>
            <stop offset="1" stop-color="#F09021"/>
        </linearGradient>
        <linearGradient id="prefix__paint18_linear" x1="398.771" x2="456.089" y1="353.473" y2="482.201" gradientUnits="userSpaceOnUse">
            <stop stop-color="#F7BF83"/>
            <stop offset="1" stop-color="#F09021"/>
        </linearGradient>
        <linearGradient id="prefix__paint19_linear" x1="607.192" x2="664.51" y1="112.42" y2="241.148" gradientUnits="userSpaceOnUse">
            <stop stop-color="#F7BF83"/>
            <stop offset="1" stop-color="#F09021"/>
        </linearGradient>
        <linearGradient id="prefix__paint20_linear" x1="607.192" x2="664.51" y1="232.947" y2="361.675" gradientUnits="userSpaceOnUse">
            <stop stop-color="#F7BF83"/>
            <stop offset="1" stop-color="#F09021"/>
        </linearGradient>
        <linearGradient id="prefix__paint21_linear" x1="607.192" x2="664.51" y1="353.473" y2="482.201" gradientUnits="userSpaceOnUse">
            <stop stop-color="#F7BF83"/>
            <stop offset="1" stop-color="#F09021"/>
        </linearGradient>
        <linearGradient id="prefix__paint22_linear" x1="710.336" x2="767.654" y1="112.42" y2="241.148" gradientUnits="userSpaceOnUse">
            <stop stop-color="#F7BF83"/>
            <stop offset="1" stop-color="#F09021"/>
        </linearGradient>
        <linearGradient id="prefix__paint23_linear" x1="710.336" x2="767.654" y1="232.947" y2="361.675" gradientUnits="userSpaceOnUse">
            <stop stop-color="#F7BF83"/>
            <stop offset="1" stop-color="#F09021"/>
        </linearGradient>
        <linearGradient id="prefix__paint24_linear" x1="710.336" x2="767.654" y1="353.473" y2="482.201" gradientUnits="userSpaceOnUse">
            <stop stop-color="#F7BF83"/>
            <stop offset="1" stop-color="#F09021"/>
        </linearGradient>
        <linearGradient id="prefix__paint25_linear" x1="815.961" x2="873.279" y1="112.42" y2="241.148" gradientUnits="userSpaceOnUse">
            <stop stop-color="#F7BF83"/>
            <stop offset="1" stop-color="#F09021"/>
        </linearGradient>
        <linearGradient id="prefix__paint26_linear" x1="815.961" x2="873.279" y1="232.947" y2="361.675" gradientUnits="userSpaceOnUse">
            <stop stop-color="#F7BF83"/>
            <stop offset="1" stop-color="#F09021"/>
        </linearGradient>
        <linearGradient id="prefix__paint27_linear" x1="815.961" x2="873.279" y1="353.473" y2="482.201" gradientUnits="userSpaceOnUse">
            <stop stop-color="#F7BF83"/>
            <stop offset="1" stop-color="#F09021"/>
        </linearGradient>
        <linearGradient id="prefix__paint28_linear" x1="281.884" x2="361.188" y1="299.201" y2="477.306" gradientUnits="userSpaceOnUse">
            <stop stop-color="#F7BF83"/>
            <stop offset="1" stop-color="#F09021"/>
        </linearGradient>
        <linearGradient id="prefix__paint29_linear" x1="549.684" x2="508.808" y1="276.803" y2="215.494" gradientUnits="userSpaceOnUse">
            <stop stop-color="#A0C4E8"/>
            <stop offset="1" stop-color="#67A3D8"/>
        </linearGradient>
        <linearGradient id="prefix__paint30_linear" x1="556.627" x2="571.914" y1="291.578" y2="319.092" gradientUnits="userSpaceOnUse">
            <stop stop-color="#2F5B91"/>
            <stop offset="1" stop-color="#00264C"/>
        </linearGradient>
        <linearGradient id="prefix__paint31_linear" x1="510.853" x2="483.339" y1="296.493" y2="311.777" gradientUnits="userSpaceOnUse">
            <stop stop-color="#2F5B91"/>
            <stop offset="1" stop-color="#00264C"/>
        </linearGradient>
        <linearGradient id="prefix__paint32_linear" x1="532.477" x2="534.578" y1="214.204" y2="217.986" gradientUnits="userSpaceOnUse">
            <stop stop-color="#2F5B91"/>
            <stop offset="1" stop-color="#00264C"/>
        </linearGradient>
        <linearGradient id="prefix__paint33_linear" x1="493.74" x2="495.842" y1="159.263" y2="163.046" gradientUnits="userSpaceOnUse">
            <stop stop-color="#2F5B91"/>
            <stop offset="1" stop-color="#00264C"/>
        </linearGradient>
        <linearGradient id="prefix__paint34_linear" x1="493.74" x2="495.842" y1="448.207" y2="451.99" gradientUnits="userSpaceOnUse">
            <stop stop-color="#2F5B91"/>
            <stop offset="1" stop-color="#00264C"/>
        </linearGradient>
        <linearGradient id="prefix__paint35_linear" x1="493.74" x2="495.842" y1="398.41" y2="402.192" gradientUnits="userSpaceOnUse">
            <stop stop-color="#2F5B91"/>
            <stop offset="1" stop-color="#00264C"/>
        </linearGradient>
        <linearGradient id="prefix__paint36_linear" x1="493.74" x2="495.842" y1="345.991" y2="349.773" gradientUnits="userSpaceOnUse">
            <stop stop-color="#2F5B91"/>
            <stop offset="1" stop-color="#00264C"/>
        </linearGradient>
        <linearGradient id="prefix__paint37_linear" x1="869.008" x2="876.982" y1="599.827" y2="678.199" gradientUnits="userSpaceOnUse">
            <stop stop-color="#F9D2D9"/>
            <stop offset="1" stop-color="#EDB0B9"/>
        </linearGradient>
        <linearGradient id="prefix__paint38_linear" x1="856.858" x2="875.655" y1="611.715" y2="616.143" gradientUnits="userSpaceOnUse">
            <stop stop-color="#FBD4DA"/>
            <stop offset="1" stop-color="#EDB0BA"/>
        </linearGradient>
        <linearGradient id="prefix__paint39_linear" x1="922.205" x2="943.258" y1="613.017" y2="618.943" gradientUnits="userSpaceOnUse">
            <stop stop-color="#FBD4DA"/>
            <stop offset="1" stop-color="#EDB0BA"/>
        </linearGradient>
        <linearGradient id="prefix__paint40_linear" x1="963.728" x2="893.369" y1="487.097" y2="509.019" gradientUnits="userSpaceOnUse">
            <stop stop-color="#2F5B91"/>
            <stop offset="1" stop-color="#00264C"/>
        </linearGradient>
        <linearGradient id="prefix__paint41_linear" x1="920.86" x2="859.406" y1="500.613" y2="501.255" gradientUnits="userSpaceOnUse">
            <stop stop-color="#2F5B91"/>
            <stop offset="1" stop-color="#00264C"/>
        </linearGradient>
        <linearGradient id="prefix__paint42_linear" x1="939.318" x2="930.595" y1="619.732" y2="621.419" gradientUnits="userSpaceOnUse">
            <stop stop-color="#D7EDFA"/>
            <stop offset="1" stop-color="#A7CFEE"/>
        </linearGradient>
        <linearGradient id="prefix__paint43_linear" x1="872.506" x2="863.405" y1="619.031" y2="618.946" gradientUnits="userSpaceOnUse">
            <stop stop-color="#D7EDFA"/>
            <stop offset="1" stop-color="#A7CFEE"/>
        </linearGradient>
        <linearGradient id="prefix__paint44_linear" x1="803.265" x2="818.228" y1="623.406" y2="616.572" gradientUnits="userSpaceOnUse">
            <stop stop-color="#67A9DC"/>
            <stop offset="1" stop-color="#3A6EAE"/>
        </linearGradient>
        <linearGradient id="prefix__paint45_linear" x1="797.269" x2="855.78" y1="449.656" y2="430.367" gradientUnits="userSpaceOnUse">
            <stop stop-color="#67A9DC"/>
            <stop offset="1" stop-color="#3A6EAE"/>
        </linearGradient>
        <linearGradient id="prefix__paint46_linear" x1="795.867" x2="854.379" y1="447.637" y2="428.349" gradientUnits="userSpaceOnUse">
            <stop stop-color="#67A9DC"/>
            <stop offset="1" stop-color="#3A6EAE"/>
        </linearGradient>
        <linearGradient id="prefix__paint47_linear" x1="816.19" x2="833.708" y1="623.369" y2="615.368" gradientUnits="userSpaceOnUse">
            <stop stop-color="#67A9DC"/>
            <stop offset="1" stop-color="#3A6EAE"/>
        </linearGradient>
        <linearGradient id="prefix__paint48_linear" x1="838.492" x2="804.372" y1="547.718" y2="547.718" gradientUnits="userSpaceOnUse">
            <stop stop-color="#2F5B91"/>
            <stop offset="1" stop-color="#00264C"/>
        </linearGradient>
        <linearGradient id="prefix__paint49_linear" x1="839.535" x2="815.314" y1="384.958" y2="384.958" gradientUnits="userSpaceOnUse">
            <stop stop-color="#2F5B91"/>
            <stop offset="1" stop-color="#00264C"/>
        </linearGradient>
        <linearGradient id="prefix__paint50_linear" x1="926.488" x2="889.15" y1="291.536" y2="282.664" gradientUnits="userSpaceOnUse">
            <stop stop-color="#DDBCC2"/>
            <stop offset="1" stop-color="#D9A2AB"/>
        </linearGradient>
        <linearGradient id="prefix__paint51_linear" x1="938.593" x2="868.431" y1="361.233" y2="361.759" gradientUnits="userSpaceOnUse">
            <stop stop-color="#67A9DC"/>
            <stop offset="1" stop-color="#3A6EAE"/>
        </linearGradient>
        <linearGradient id="prefix__paint52_linear" x1="939.119" x2="880.145" y1="360.764" y2="357.695" gradientUnits="userSpaceOnUse">
            <stop stop-color="#2F5B91"/>
            <stop offset="1" stop-color="#00264C"/>
        </linearGradient>
        <linearGradient id="prefix__paint53_linear" x1="963.398" x2="930.65" y1="315.764" y2="431.917" gradientUnits="userSpaceOnUse">
            <stop stop-color="#2F5B91"/>
            <stop offset="1" stop-color="#00264C"/>
        </linearGradient>
        <linearGradient id="prefix__paint54_linear" x1="857.775" x2="908.102" y1="341.511" y2="365.128" gradientUnits="userSpaceOnUse">
            <stop stop-color="#FBD4DA"/>
            <stop offset="1" stop-color="#EDB0BA"/>
        </linearGradient>
        <linearGradient id="prefix__paint55_linear" x1="901.633" x2="899.17" y1="338.586" y2="298.043" gradientUnits="userSpaceOnUse">
            <stop stop-color="#67A9DC"/>
            <stop offset="1" stop-color="#3A6EAE"/>
        </linearGradient>
        <linearGradient id="prefix__paint56_linear" x1="887.481" x2="923.689" y1="252.121" y2="262.715" gradientUnits="userSpaceOnUse">
            <stop stop-color="#FBD4DA"/>
            <stop offset="1" stop-color="#EDB0BA"/>
        </linearGradient>
        <linearGradient id="prefix__paint57_linear" x1="607.085" x2="613.808" y1="565.998" y2="644.056" gradientUnits="userSpaceOnUse">
            <stop stop-color="#F9D2D9"/>
            <stop offset="1" stop-color="#EDB0B9"/>
        </linearGradient>
        <linearGradient id="prefix__paint58_linear" x1="653.909" x2="669.182" y1="391.985" y2="384.708" gradientUnits="userSpaceOnUse">
            <stop stop-color="#FBD4DA"/>
            <stop offset="1" stop-color="#EDB0BA"/>
        </linearGradient>
        <linearGradient id="prefix__paint59_linear" x1="606.827" x2="648.519" y1="319.639" y2="307.282" gradientUnits="userSpaceOnUse">
            <stop stop-color="#D7EDFA"/>
            <stop offset="1" stop-color="#A7CFEE"/>
        </linearGradient>
        <linearGradient id="prefix__paint60_linear" x1="613.244" x2="566.472" y1="227.008" y2="227.008" gradientUnits="userSpaceOnUse">
            <stop stop-color="#FBD4DA"/>
            <stop offset="1" stop-color="#EDB0BA"/>
        </linearGradient>
        <linearGradient id="prefix__paint61_linear" x1="566.307" x2="585.16" y1="577.639" y2="582.937" gradientUnits="userSpaceOnUse">
            <stop stop-color="#FBD4DA"/>
            <stop offset="1" stop-color="#EDB0BA"/>
        </linearGradient>
        <linearGradient id="prefix__paint62_linear" x1="630.13" x2="651.894" y1="576.553" y2="580.823" gradientUnits="userSpaceOnUse">
            <stop stop-color="#FBD4DA"/>
            <stop offset="1" stop-color="#EDB0BA"/>
        </linearGradient>
        <linearGradient id="prefix__paint63_linear" x1="590.391" x2="639.454" y1="467.164" y2="460.968" gradientUnits="userSpaceOnUse">
            <stop stop-color="#2F5B91"/>
            <stop offset="1" stop-color="#00264C"/>
        </linearGradient>
        <linearGradient id="prefix__paint64_linear" x1="555.437" x2="633.857" y1="459.764" y2="450.334" gradientUnits="userSpaceOnUse">
            <stop stop-color="#2F5B91"/>
            <stop offset="1" stop-color="#00264C"/>
        </linearGradient>
        <linearGradient id="prefix__paint65_linear" x1="547.004" x2="637.433" y1="275.575" y2="356.341" gradientUnits="userSpaceOnUse">
            <stop stop-color="#D7EDFA"/>
            <stop offset="1" stop-color="#A7CFEE"/>
        </linearGradient>
        <linearGradient id="prefix__paint66_linear" x1="579.803" x2="575.066" y1="211.649" y2="212.055" gradientUnits="userSpaceOnUse">
            <stop stop-color="#FBD4DA"/>
            <stop offset="1" stop-color="#EDB0BA"/>
        </linearGradient>
        <linearGradient id="prefix__paint67_linear" x1="570.326" x2="606.965" y1="248.011" y2="239.575" gradientUnits="userSpaceOnUse">
            <stop stop-color="#D7EDFA"/>
            <stop offset="1" stop-color="#A7CFEE"/>
        </linearGradient>
        <linearGradient id="prefix__paint68_linear" x1="545.588" x2="528.568" y1="274.457" y2="339.756" gradientUnits="userSpaceOnUse">
            <stop stop-color="#FBD4DA"/>
            <stop offset="1" stop-color="#EDB0BA"/>
        </linearGradient>
        <linearGradient id="prefix__paint69_linear" x1="522.156" x2="582.413" y1="279.609" y2="307.905" gradientUnits="userSpaceOnUse">
            <stop stop-color="#D7EDFA"/>
            <stop offset="1" stop-color="#A7CFEE"/>
        </linearGradient>
        <linearGradient id="prefix__paint70_linear" x1="252.49" x2="247.945" y1="604.616" y2="684.023" gradientUnits="userSpaceOnUse">
            <stop stop-color="#F9D2D9"/>
            <stop offset="1" stop-color="#EDB0B9"/>
        </linearGradient>
        <linearGradient id="prefix__paint71_linear" x1="222.867" x2="318.071" y1="297.081" y2="297.081" gradientUnits="userSpaceOnUse">
            <stop stop-color="#D7EDFA"/>
            <stop offset="1" stop-color="#A7CFEE"/>
        </linearGradient>
        <linearGradient id="prefix__paint72_linear" x1="247.763" x2="317.143" y1="267.26" y2="290.02" gradientUnits="userSpaceOnUse">
            <stop stop-color="#D7EDFA"/>
            <stop offset="1" stop-color="#A7CFEE"/>
        </linearGradient>
        <linearGradient id="prefix__paint73_linear" x1="89.1" x2="104.602" y1="620.163" y2="620.413" gradientUnits="userSpaceOnUse">
            <stop stop-color="#67A9DC"/>
            <stop offset="1" stop-color="#3A6EAE"/>
        </linearGradient>
        <linearGradient id="prefix__paint74_linear" x1="154.429" x2="212.036" y1="469.886" y2="477.191" gradientUnits="userSpaceOnUse">
            <stop stop-color="#67A9DC"/>
            <stop offset="1" stop-color="#3A6EAE"/>
        </linearGradient>
        <linearGradient id="prefix__paint75_linear" x1="154.055" x2="211.661" y1="467.6" y2="474.905" gradientUnits="userSpaceOnUse">
            <stop stop-color="#67A9DC"/>
            <stop offset="1" stop-color="#3A6EAE"/>
        </linearGradient>
        <linearGradient id="prefix__paint76_linear" x1="100.114" x2="118.263" y1="625.37" y2="625.664" gradientUnits="userSpaceOnUse">
            <stop stop-color="#67A9DC"/>
            <stop offset="1" stop-color="#3A6EAE"/>
        </linearGradient>
        <linearGradient id="prefix__paint77_linear" x1="193.857" x2="224.821" y1="415.243" y2="415.243" gradientUnits="userSpaceOnUse">
            <stop stop-color="#FBD4DA"/>
            <stop offset="1" stop-color="#EDB0BA"/>
        </linearGradient>
        <linearGradient id="prefix__paint78_linear" x1="365.403" x2="392.136" y1="613.505" y2="613.505" gradientUnits="userSpaceOnUse">
            <stop stop-color="#FBD4DA"/>
            <stop offset="1" stop-color="#EDB0BA"/>
        </linearGradient>
        <linearGradient id="prefix__paint79_linear" x1="378.156" x2="299.474" y1="493.368" y2="493.368" gradientUnits="userSpaceOnUse">
            <stop stop-color="#2F5B91"/>
            <stop offset="1" stop-color="#00264C"/>
        </linearGradient>
        <linearGradient id="prefix__paint80_linear" x1="314.241" x2="340.157" y1="288.776" y2="288.776" gradientUnits="userSpaceOnUse">
            <stop stop-color="#DDBCC2"/>
            <stop offset="1" stop-color="#D9A2AB"/>
        </linearGradient>
        <linearGradient id="prefix__paint81_linear" x1="231.364" x2="259.501" y1="609.439" y2="609.439" gradientUnits="userSpaceOnUse">
            <stop stop-color="#FBD4DA"/>
            <stop offset="1" stop-color="#EDB0BA"/>
        </linearGradient>
        <linearGradient id="prefix__paint82_linear" x1="337.167" x2="238.707" y1="491.154" y2="491.154" gradientUnits="userSpaceOnUse">
            <stop stop-color="#2F5B91"/>
            <stop offset="1" stop-color="#00264C"/>
        </linearGradient>
        <linearGradient id="prefix__paint83_linear" x1="374.815" x2="272.014" y1="365.35" y2="365.35" gradientUnits="userSpaceOnUse">
            <stop stop-color="#A0C4E8"/>
            <stop offset="1" stop-color="#67A3D8"/>
        </linearGradient>
        <linearGradient id="prefix__paint84_linear" x1="349.815" x2="370.402" y1="275.86" y2="276.897" gradientUnits="userSpaceOnUse">
            <stop stop-color="#FBD4DA"/>
            <stop offset="1" stop-color="#EDB0BA"/>
        </linearGradient>
        <linearGradient id="prefix__paint85_linear" x1="391.701" x2="357.493" y1="317.073" y2="334.589" gradientUnits="userSpaceOnUse">
            <stop stop-color="#A0C4E8"/>
            <stop offset="1" stop-color="#67A3D8"/>
        </linearGradient>
        <linearGradient id="prefix__paint86_linear" x1="348.439" x2="370.11" y1="260.853" y2="261.945" gradientUnits="userSpaceOnUse">
            <stop stop-color="#67A9DC"/>
            <stop offset="1" stop-color="#3A6EAE"/>
        </linearGradient>
        <linearGradient id="prefix__paint87_linear" x1="352.803" x2="369.416" y1="257.143" y2="257.98" gradientUnits="userSpaceOnUse">
            <stop stop-color="#FBD4DA"/>
            <stop offset="1" stop-color="#EDB0BA"/>
        </linearGradient>
        <linearGradient id="prefix__paint88_linear" x1="207.306" x2="285.498" y1="356.63" y2="356.63" gradientUnits="userSpaceOnUse">
            <stop stop-color="#A0C4E8"/>
            <stop offset="1" stop-color="#67A3D8"/>
        </linearGradient>
        <linearGradient id="prefix__paint89_linear" x1="304.834" x2="346.458" y1="287.737" y2="287.737" gradientUnits="userSpaceOnUse">
            <stop stop-color="#D7EDFA"/>
            <stop offset="1" stop-color="#A7CFEE"/>
        </linearGradient>
        <linearGradient id="prefix__paint90_linear" x1="322.203" x2="351.715" y1="242.995" y2="242.995" gradientUnits="userSpaceOnUse">
            <stop stop-color="#FBD4DA"/>
            <stop offset="1" stop-color="#EDB0BA"/>
        </linearGradient>
        <linearGradient id="prefix__paint91_linear" x1="326.259" x2="320.745" y1="237.42" y2="237.42" gradientUnits="userSpaceOnUse">
            <stop stop-color="#FBD4DA"/>
            <stop offset="1" stop-color="#EDB0BA"/>
        </linearGradient>
        <clipPath id="prefix__clip0">
            <path fill="#fff" d="M0 0h1083v701H0V0z"/>
        </clipPath>
    </defs>
</svg>
