<svg xmlns="http://www.w3.org/2000/svg" width="517" height="334" fill="none" viewBox="0 0 517 334">
    <g clip-path="url(#prefix__clip0)">
        <path fill="url(#prefix__paint0_linear)" d="M21.812 143.375c18.253-3.996 39.69-9.875 43.775-23.368 3.428-11.322-7.537-22.155-9.929-33.618-2.432-11.654 4.94-24.1 18.278-30.85 13.337-6.754 32.003-7.49 46.272-1.828 17.229 6.836 27.776 21.788 46.843 25.204 12.675 2.272 26.171-1.366 36.639-7.022 10.467-5.656 18.641-13.191 27.548-20.109 16.47-12.79 36.228-23.83 59.168-29.282 22.937-5.45 49.35-4.76 69.876 4.445 7.462 3.346 13.929 7.917 18.883 13.197 8.347 8.897 25.165 11.1 37.226 4.823 2.124-1.104 4.324-2.13 6.595-3.072 12.943-5.36 30.45-7.581 42.036-.782 7.817 4.589 11.034 12.34 10.633 19.625-.403 7.282-3.937 14.264-7.558 21.063-7.936 14.9-16.579 29.881-18.818 45.769-2.242 15.887 2.937 33.204 19.016 44.129 13.972 9.495 35.153 13.707 44.267 25.916 6.127 8.208 5.182 18.3 1.544 27.252-7.349 18.077-25.353 33.736-48.563 42.243-24.338 8.918-52.553 9.891-79.804 10.687l-262.917 7.7c-15.127.443-30.66.846-44.99-2.691-14.33-3.538-27.401-11.947-29.46-22.812-2.183-11.54 8.156-23.039 5.182-34.486-3.515-13.534-23.246-20.839-40.148-27.138-16.903-6.297-35.441-16.618-33.284-30.3 2.162-13.725 23.437-20.702 41.69-24.695z" opacity=".26"/>
        <path fill="#F3F7F8" d="M21.812 143.375c18.253-3.996 39.69-9.875 43.775-23.368 3.428-11.322-7.537-22.155-9.929-33.618-2.432-11.654 4.94-24.1 18.278-30.85 13.337-6.754 32.003-7.49 46.272-1.828 17.229 6.836 27.776 21.788 46.843 25.204 12.675 2.272 26.171-1.366 36.639-7.022 10.467-5.656 18.641-13.191 27.548-20.109 16.47-12.79 36.228-23.83 59.168-29.282 22.937-5.45 49.35-4.76 69.876 4.445 7.462 3.346 13.929 7.917 18.883 13.197 8.347 8.897 25.165 11.1 37.226 4.823 2.124-1.104 4.324-2.13 6.595-3.072 12.943-5.36 30.45-7.581 42.036-.782 7.817 4.589 11.034 12.34 10.633 19.625-.403 7.282-3.937 14.264-7.558 21.063-7.936 14.9-16.579 29.881-18.818 45.769-2.242 15.887 2.937 33.204 19.016 44.129 13.972 9.495 35.153 13.707 44.267 25.916 6.127 8.208 5.182 18.3 1.544 27.252-7.349 18.077-25.353 33.736-48.563 42.243-24.338 8.918-52.553 9.891-79.804 10.687l-262.917 7.7c-15.127.443-30.66.846-44.99-2.691-14.33-3.538-27.401-11.947-29.46-22.812-2.183-11.54 8.156-23.039 5.182-34.486-3.515-13.534-23.246-20.839-40.148-27.138-16.903-6.297-35.441-16.618-33.284-30.3 2.162-13.725 23.437-20.702 41.69-24.695z"/>
        <path fill="url(#prefix__paint1_linear)" d="M176.762 67.612c-7.948 1.32-17.886.56-21.872-4.593-2.792-3.608-1.551-8.32 1.766-11.686 3.317-3.367 8.358-5.618 13.47-7.46 7.788-2.808 16.074-4.883 24.587-6.165 3.097-.465 6.305-.826 9.409-.386 3.104.44 6.119 1.825 7.262 3.962 1.251 2.335.062 4.97-1.452 7.223-6.39 9.513-18.932 16.738-33.17 19.105z" opacity=".26"/>
        <path fill="#F3F7F8" d="M176.762 67.612c-7.948 1.32-17.886.56-21.872-4.593-2.792-3.608-1.551-8.32 1.766-11.686 3.317-3.367 8.358-5.618 13.47-7.46 7.788-2.808 16.074-4.883 24.587-6.165 3.097-.465 6.305-.826 9.409-.386 3.104.44 6.119 1.825 7.262 3.962 1.251 2.335.062 4.97-1.452 7.223-6.39 9.513-18.932 16.738-33.17 19.105z"/>
        <path fill="url(#prefix__paint2_linear)" d="M20.619 187.798c.121 1.601.583 3.111.969 4.244.308.871.63 1.736.953 2.6.18.479.358.96.534 1.441.558.979.912 2.144 1.102 3.588.105.805.162 1.633.214 2.434.03.46.062.919.103 1.379-.016.878-.164 1.827-.468 2.965-.407.846-.747 1.745-1.015 2.678-.29 1.022-.464 1.952-.532 2.842-.082 1.028-.041 2.002.123 2.896.176.965.549 1.898 1.079 2.696.548.814 1.263 1.505 2.07 2 .781.49 1.665.855 2.63 1.083.676.16 1.405.256 2.168.292.17.007.345.007.521.009.005.374.01.728.016 1.047l.037 2.286c.011.882.025 1.687.04 2.419l-.08 3.987.75-.114-.066-3.889c.002-.734.005-1.535.002-2.415v-2.283c0-.331 0-.682.003-1.047.692-.022 1.425-.086 2.232-.2 2.08-.26 3.868-.712 5.463-1.385.994-.433 1.817-.885 2.516-1.384.822-.598 1.535-1.268 2.122-1.996.606-.791 1.093-1.66 1.45-2.582.056-.164.104-.323.152-.483l.201-.687c.02-.082.04-.166.055-.25.1-.486.15-.988.153-1.487.007-.942-.173-1.921-.535-2.911-.287-.793-.676-1.592-1.265-2.593-.014-.025-.032-.048-.053-.068l-.505-.513-.461-.527c-.348-.438-.597-.792-.798-1.136-.247-.417-.45-.837-.6-1.25-.17-.461-.286-.91-.346-1.339-.068-.401-.089-.841-.064-1.389.019-.401.085-.841.208-1.384.107-.401.247-.878.441-1.336.172-.422.38-.853.62-1.284.806-1.456 1.916-2.901 3.502-4.548l1.03-1.031c.37-.388.68-.814.917-1.268.242-.459.42-.953.525-1.478.05-.251.083-.511.096-.789.014-.226-.004-.47-.023-.707l-.006-.064v-.021l-.003-.013-.091-.801-.203-.825-.288-.789-.348-.755-.386-.723-.409-.703-1.227-2.062-.363-.697-.315-.714-.247-.735-.155-.75c-.003-.073-.012-.169-.019-.265-.014-.162-.025-.324-.03-.488.007-.077.016-.173.021-.271.014-.162.023-.324.046-.484l.173-.723c.471-.932 1.04-1.845 1.59-2.723.195-.31.39-.625.583-.939.69-1.132 1.467-2.466 1.929-3.951.235-.764.365-1.487.393-2.214l.002-.548-.075-.581c-.016-.272-.1-.532-.185-.785-.035-.102-.069-.207-.096-.31-.556-1.35-1.719-2.436-3.195-2.997-.685-.298-1.44-.447-2.088-.558-.418-.046-.752-.076-1.063-.089-.402-.019-.763-.012-1.108.016-.763.031-1.51.191-2.138.346-.75.226-1.426.495-2.023.808-1.29.647-2.483 1.496-3.537 2.522-1.007.976-1.91 2.139-2.68 3.455-.32.566-.688 1.241-.987 1.966-.265.641-.486 1.328-.68 2.096-.108.413-.195.837-.28 1.246-.059.294-.118.588-.187.878-.192.759-.4 1.425-.637 2.032-.494 1.277-1.145 2.556-1.945 3.802-.692 1.088-1.487 2.194-2.504 3.485l-1.346 1.68c-.155.187-.306.384-.457.584l-.208.272-.164.257c-.144.224-.295.457-.412.707-.658 1.205-.95 2.696-.838 4.293zm14.865-23.539l.147.615c.13.463.26.862.4 1.223.144.41.329.803.5 1.168.18.376.382.752.596 1.119.2.342.398.653.604.949l-.494 1.48c-.05.162-.105.322-.16.482-.1.298-.201.602-.29.91l-.4 1.448c-.087.324-.178.652-.27.98-.185.666-.372 1.344-.548 2.035l-1.067 4.767c-.018-.005-.037-.012-.041-.014-.025-.002-.071-.025-.1-.039l-.072-.032c-.098-.052-.212-.137-.356-.262-.263-.24-.491-.527-.66-.75-.359-.486-.716-1.05-1.086-1.722-.301-.523-.564-1.045-.818-1.549l-.084-.166c-.254-.509-.5-1.041-.734-1.579l-.096-.221c-.178-.411-.342-.789-.477-1.138-.16-.408-.293-.769-.395-1.067-.2-.577-.263-.931-.265-.933-.005-.023-.016-.044-.03-.064.112-.347.217-.714.32-1.106.07-.304.134-.6.196-.899.085-.401.174-.816.279-1.215.194-.744.411-1.405.67-2.019.232-.556.53-1.14.961-1.897.748-1.268 1.62-2.386 2.596-3.326.34-.328.701-.631 1.072-.923-.037.168-.06.337-.078.504-.01.086-.016.152-.025.216-.016.149-.037.301-.034.459l-.005.632c.002.164.016.323.03.483l.013.164c.014.21.044.429.087.648.014.071.025.144.037.219.023.144.046.283.078.42zm7.895-6.272l-.336.406c-.112.146-.228.31-.359.492l-.242.342c-.153.215-.304.461-.464.721-.089.146-.18.294-.279.449-.203.304-.386.65-.578 1.018-.082.157-.169.319-.258.483l-.58 1.127-.318.688c-.528 1.07-1.012 2.315-1.524 3.629l-.327.837-.105.313c-.272-.461-.539-.979-.815-1.567-.069-.142-.128-.283-.188-.425l-.057-.132c-.08-.187-.157-.372-.228-.561l-.048-.128c-.058-.146-.115-.289-.16-.44l-.194-.584-.165-.583c-.037-.124-.062-.247-.087-.372l-.048-.219c-.048-.203-.082-.397-.103-.584-.011-.087-.025-.171-.038-.255-.019-.117-.037-.233-.046-.349l-.041-.616c-.014-.119-.007-.235-.003-.358.005-.082.007-.167.005-.251.002-.217.005-.404.034-.591l.04-.331c.586-.421 1.203-.796 1.85-1.117.583-.301 1.213-.55 1.93-.764.595-.142 1.305-.29 2.018-.317.505-.041 1.003-.03 1.714.039zm4.762 8.16c-.652.312-1.358.623-2.157.944-.425.174-.855.333-1.285.491-.397.143-.822.287-1.297.437-.158.053-.316.099-.471.144l-.3.087c-.178.052-.356.105-.536.146l-.667.164-.663.132c-.149.034-.295.055-.441.073-.075.012-.15.021-.224.034-.21.032-.434.064-.66.076-.08.004-.165.011-.247.018-.14.011-.279.025-.418.02l-.3-.002.172-.531.317-.837c.496-1.305.962-2.539 1.474-3.597l.427-.956.441-.846c.09-.164.174-.33.259-.492.185-.356.358-.694.546-.981.1-.162.192-.315.279-.461.153-.255.297-.495.438-.698l.238-.342c.125-.182.237-.342.34-.479l.533-.627c.573.107 1.174.24 1.736.488 1.335.513 2.374 1.483 2.859 2.664.022.087.057.194.091.301.073.224.142.433.153.655l.069.524-.007.518c-.028.652-.153 1.339-.373 2.034-.093.306-.205.602-.326.899zm-3.773 6.637l-.018.043-.201.833c-.03.203-.044.39-.057.577-.007.093-.014.187-.023.28.002.208.016.397.032.584.007.094.014.185.018.276.048.265.1.511.153.753l.019.084.036.114c-.432.326-1.39 1.035-2.687 1.895-.523.342-1.005.646-1.471.929-.606.362-1.157.672-1.682.951l-.914.451c-.105.044-.22.094-.334.146-.198.087-.404.178-.61.251-.48.189-.962.326-1.423.415l.987-4.548c.157-.638.327-1.272.496-1.897.1-.372.198-.739.294-1.104l.384-1.446c.085-.299.18-.595.277-.887.055-.164.105-.326.157-.488l.455-1.41.521-.009c.155-.002.309-.018.466-.034.08-.009.158-.018.24-.025.247-.018.485-.057.704-.098.073-.014.146-.025.22-.039.16-.025.317-.052.472-.091l.672-.153.676-.185c.183-.048.366-.105.549-.164l.303-.096c.163-.05.325-.102.485-.159.756-.256 1.556-.573 2.586-1.022.636-.281 1.21-.552 1.744-.819-.354.76-.784 1.521-1.298 2.356-.192.312-.386.62-.58.931-.57.9-1.152 1.829-1.648 2.805zm3.521 14.083c-1.003.646-2.1 1.314-3.352 2.032-.617.356-1.234.691-1.919 1.061-.617.324-1.277.67-1.95.994-.326.167-.652.322-.984.472l-.354.165c-.212.098-.423.198-.637.287l-1.008.429c-.215.089-.434.171-.654.253l-.36.137c-.323.127-.64.232-1.02.355l-.272.089c-.246.082-.502.165-.754.224-.128.032-.253.064-.377.098-.221.059-.443.119-.667.164l-.242.044.455-3.536c.045-.342.089-.686.132-1.03.1-.801.203-1.627.354-2.42l.58-3.401c.035-.196.07-.394.101-.593.037-.214.076-.429.114-.641.567-.098 1.136-.267 1.762-.524.22-.082.434-.185.642-.281.11-.052.222-.105.334-.153l.925-.483c.617-.347 1.186-.687 1.693-1.013.469-.303.949-.625 1.463-.98 1.195-.844 2.097-1.547 2.556-1.914l.108.315.114.269c.073.164.142.331.217.495l.375.727.402.707 1.225 2.069.368.698.324.711.263.73.183.746.093.922c.012.175.023.344.012.529-.014.237-.044.463-.085.672-.036.197-.096.388-.16.575zm-6.425 8.884c-.215.506-.368 1.037-.477 1.445-.135.598-.208 1.082-.231 1.529-.028.602-.005 1.094.073 1.544.03.219.075.44.13.666-.62.472-1.298.962-2.07 1.491-.823.566-1.595 1.061-2.363 1.517-.301.187-.61.358-.916.531l-.3.169-.616.324c-.135.073-.27.137-.405.201-.073.034-.146.068-.219.104-.242.119-.44.208-.626.281-.078.03-.155.064-.23.096-.133.057-.268.114-.405.157l-.24.082c-.078.025-.155.05-.235.078l.203-3.629.692-7.836.019-.142.45-.089c.237-.05.47-.116.703-.182.124-.034.247-.071.373-.103.267-.066.53-.159.786-.246l.272-.094c.374-.127.713-.241 1.044-.38l.356-.142c.222-.087.446-.175.665-.269l1.008-.447c.22-.094.434-.201.649-.306.116-.057.23-.114.347-.166.334-.16.665-.322.992-.495.66-.335 1.314-.693 1.944-1.04.713-.404 1.307-.744 1.913-1.108 1.055-.632 2.004-1.227 2.872-1.802-.011.025-.02.052-.034.08-.208.394-.476.764-.8 1.097l-1.033 1.024c-.742.761-1.385 1.487-1.963 2.217-.313.392-.61.795-.886 1.199-.336.497-.58.892-.788 1.277-.254.463-.473.922-.654 1.367zm-9.592 21.351l.338.005.04.002c.22.009.433-.013.643-.036.112-.012.222-.023.334-.03l.505-.048c.117-.013.226-.036.336-.057l.171-.032.345-.064c.217-.038.437-.077.651-.132l.971-.26c.213-.057.42-.128.629-.198.112-.039.221-.078.334-.114l.477-.162.473-.19c.11-.045.217-.086.327-.13.205-.082.411-.161.612-.255l.912-.415.902-.454c.213-.105.42-.221.629-.335l.26-.144c.297-.159.587-.328.877-.504.563-.328 1.138-.691 1.71-1.074.315-.208.607-.408.884-.604-.011.061-.025.12-.039.177l-.025.114-.098.317-.083.27c-.04.136-.08.271-.125.403-.322.846-.761 1.647-1.305 2.37-.537.68-1.2 1.311-1.96 1.877-.66.481-1.417.905-2.379 1.339-.733.321-1.558.602-2.596.878-.792.203-1.652.367-2.7.515-.775.117-1.481.185-2.148.217.004-.292.014-.589.027-.892l.071-2.354zm.199-6.458l.226-4.012.018-.005c.156-.05.3-.102.444-.157l.237-.087c.149-.05.295-.114.439-.18.075-.034.148-.068.224-.1.196-.082.402-.181.651-.308.07-.037.142-.071.215-.107.142-.069.283-.142.422-.219l.844-.475c.329-.194.667-.394.996-.606.763-.484 1.53-1.006 2.346-1.597.72-.522 1.353-1.006 1.936-1.471.043.144.091.287.146.436.167.456.388.916.66 1.37.281.479.608.908.864 1.23l.489.561.484.492c.551.942.917 1.693 1.184 2.432.329.905.493 1.797.489 2.645 0 .288-.027.577-.066.862-.366.251-.754.509-1.182.776-.578.367-1.156.709-1.715 1.019-.29.167-.579.326-.876.475l-.272.143c-.203.105-.404.212-.612.308l-.905.429-.91.392c-.193.087-.39.16-.586.233-.112.041-.224.082-.334.125l-.462.176-.466.148c-.112.034-.226.071-.338.107-.199.064-.397.13-.598.178l-.958.237c-.2.048-.406.08-.612.112-.117.018-.233.037-.35.059l-.169.028c-.103.018-.203.034-.306.045l-.482.037c-.11.004-.224.014-.338.025-.213.018-.41.039-.613.018l-.338-.013.174-5.761zm-.873-18.061c-.537-.486-1.015-.951-1.462-1.419l-.172-.178c-.178-.185-.354-.369-.52-.565-.09-.105-.181-.208-.273-.311-.134-.15-.271-.301-.397-.46l-.649-.799-.601-.823c-.133-.171-.251-.358-.365-.538-.067-.103-.133-.208-.202-.31l-.276-.429-.242-.44c-.055-.108-.117-.215-.179-.322-.11-.194-.212-.376-.292-.57l-.432-.947c-.075-.196-.146-.403-.22-.611l-.123-.351c-.098-.239-.153-.484-.212-.744l-.057-.239c-.02-.087-.041-.173-.064-.262-.064-.251-.123-.486-.14-.73l-.125-1.04.183-.224c1.032-1.295 1.841-2.408 2.552-3.507.822-1.266 1.499-2.571 2.008-3.878.04-.093.073-.193.112-.291.023.13.055.278.096.442.078.333.185.712.316 1.124.132.415.294.901.498 1.424.217.554.447 1.108.687 1.639.233.527.519 1.093.894 1.777.288.504.68 1.159 1.181 1.79.21.26.464.561.777.828.142.114.308.242.512.345.1.054.242.1.377.125l-.09.488c-.031.194-.066.388-.102.582l-.606 3.398c-.16.812-.272 1.651-.377 2.463-.043.338-.089.675-.137 1.013l-.5 3.69c-.519-.383-1.003-.807-1.378-1.14zm-7.504 15.714c.01.403.1.837.282 1.318.196.524.475.997.694 1.35.455.732 1.024 1.455 1.837 2.342.601.657 1.298 1.328 2.127 2.042.4.337.777.638 1.154.921.197.148.398.292.606.431.105.071.21.137.322.205.057.035.114.066.178.101.05.022.08.036.117.05.006.004.043.016.077.025l.028.004-.037 2.361c-.009.31-.011.618-.011.919-.21 0-.42 0-.624-.009-.68-.032-1.334-.116-1.94-.253-.912-.208-1.748-.541-2.488-.997-.754-.451-1.424-1.085-1.935-1.836-.5-.736-.855-1.603-1.029-2.504-.162-.848-.212-1.781-.141-2.771.057-.86.217-1.763.49-2.76.085-.317.188-.629.293-.939zm.553-10.232l.414.71c.544.894 1.195 1.943 1.903 2.958.683.99 1.4 1.932 2.134 2.798.318.372.74.853 1.207 1.3.217.203.438.411.692.593l.06.039c.214.146.461.303.797.344l-.217 3.809c-.037.931-.053 1.843-.064 2.726l-.046 2.967-.048-.028c-.091-.057-.185-.123-.28-.189-.195-.137-.382-.28-.57-.426-.35-.27-.713-.568-1.106-.908-.694-.589-1.405-1.243-2.113-1.952-.734-.744-1.344-1.455-1.862-2.176-.28-.388-.524-.796-.727-1.218-.233-.488-.356-.924-.37-1.33-.002-.082-.087-.169-.167-.173-.02.002-.037.007-.055.011.165-.451.35-.894.55-1.32.319-1.218.465-2.201.474-3.136-.041-.472-.071-.933-.1-1.391-.053-.805-.108-1.638-.213-2.454-.076-.557-.171-1.072-.293-1.554zm-2.433-14.379c.112-.238.247-.445.39-.666.053-.082.108-.162.158-.244l.204-.263c.146-.189.292-.381.445-.563l.841-1.038.034.664c0 .271.048.54.094.8.016.087.032.174.046.263l.027.157c.053.299.107.607.21.901l.103.344c.066.224.133.447.204.666l.402.988c.082.219.194.429.301.629.057.108.114.215.17.324l.242.472.278.459c.067.105.13.21.192.312.117.194.238.395.375.584l.605.853.659.821c.15.192.315.374.475.55l.217.239c.176.201.363.395.553.586l.169.174c.423.433.907.889 1.524 1.427.498.427 1.04.881 1.64 1.305.028.021.06.034.09.043l-.757 7.807-.221 3.889c-.133-.03-.304-.121-.517-.281-.21-.157-.402-.342-.614-.549-.434-.438-.83-.915-1.125-1.28-.701-.871-1.37-1.802-2.017-2.7l-.055-.076c-.585-.825-1.311-1.851-1.976-2.862-.66-.978-1.298-1.961-1.897-2.928-.011-.018-.03-.034-.05-.046-.117-.315-.23-.629-.347-.944-.32-.862-.64-1.727-.944-2.595-.377-1.111-.825-2.589-.94-4.145-.093-1.521.186-2.932.812-4.077z"/>
        <path fill="url(#prefix__paint3_linear)" d="M71.878 178.887c-5.05-2.151-9.192-1.836-11.867-1.453 1.192-1.615 2.337-3.088 3.4-4.413 5.435.928 9.233-.739 11.516-.723-4.349-1.316-8.096-1.013-10.507-.518 1.079-1.311 2.05-2.442 2.873-3.373 4.224-1.617 5.2-5.154 6.58-6.251-5.648 1.352-7.248 5.879-7.437 6.477-.964 1.008-1.894 2.014-2.792 3.015-.38-2.126-1.392-5.426-4.102-8.616.793 1.829.731 5.466 3.32 9.496-1.275 1.446-2.486 2.883-3.628 4.306-.674-2.406-1.924-6.329-6.055-9.832 1.247 1.998 1.775 6.327 5.49 10.542-1.352 1.71-2.616 3.4-3.788 5.072-.88-2.933-2.493-7.734-7.609-12.088 1.572 2.463 2.313 7.761 6.988 12.989-1.349 1.964-2.582 3.9-3.702 5.797-1.049-3.402-2.98-8.874-8.843-13.873 1.835 2.855 2.733 8.97 8.169 15.034-1.277 2.238-2.404 4.423-3.395 6.546-.007-.187.016-.36.178-.5-1.65-3.327-4.563-8.922-11.788-13.152 2.429 2.657 4.435 8.986 11.308 14.304-1.24 2.712-2.262 5.326-3.1 7.818-2.07-3.448-5.679-9.072-13.523-13.912 2.795 2.846 5.482 9.171 13.132 15.105-.992 3.123-1.7 6.049-2.194 8.742-2.168-2.864-5.884-7.455-13.156-11.314 2.728 2.328 5.698 7.576 12.966 12.398-.488 2.937-.721 5.576-.804 7.868-2.054-2.117-5.463-5.353-11.408-8.265 2.38 1.731 5.25 5.462 11.358 9.12-.016.053-.03.107-.034.169h.054c-.052 3.008.154 5.341.35 6.863.064-.012.128-.021.192-.03-.11-2.297-.075-4.58.08-6.833 5.33-.073 8.973-3.227 11.237-3.713-5.047-1.061-8.822 1.001-11.134 2.427.224-2.491.594-4.949 1.09-7.367 7.956.374 13.159-2.627 16.47-2.974-7.555-1.394-12.974.525-16.221 1.797.633-2.851 1.435-5.642 2.362-8.354 7.904.987 13.349-1.574 16.69-1.651-7.324-1.982-12.856-.607-16.253.401.923-2.57 1.956-5.065 3.064-7.474 7.864 1.825 13.595-.228 16.954.023-7.243-2.739-12.974-1.815-16.433-1.138 1.037-2.178 2.13-4.281 3.253-6.297 7.271 1.888 12.707.217 15.862.584-6.47-2.758-11.771-2.32-15.16-1.829 1.15-2.003 2.321-3.912 3.491-5.716 6.36 1.736 11.114.263 13.854.582-5.713-2.434-10.358-1.957-13.237-1.524 1.12-1.692 2.233-3.291 3.313-4.78 5.763 1.521 10.079.198 12.576.488z"/>
        <path fill="url(#prefix__paint4_linear)" d="M12.745 218.754c1.93 1.487 4.067 2.49 6.183 2.901 1.051.2 2.08.235 3.057.107.128-.018.256-.037.382-.059 1.113-.199 2.2-.641 3.146-1.278.114.543.222 1.084.322 1.627.153.684.25 1.382.34 2.054.046.324.092.646.142.967.126.76.2 1.519.27 2.256l.208 2.06c.025.294.039.588.05.878.007.162.014.324.023.481.012.269.025.536.039.798.297.032.594.069.891.105-.011-.31-.023-.623-.032-.944l-.018-.479c-.007-.301-.018-.604-.039-.912l-.137-1.627c-.073-.896-.15-1.822-.309-2.757-.05-.317-.093-.638-.139-.96-.096-.689-.194-1.4-.352-2.103-.132-.718-.276-1.405-.425-2.08.656-.554 1.261-1.206 1.805-1.954.681-.94 1.261-2.023 1.728-3.221.402-1.076.706-2.265.91-3.535.166-1.063.23-2.219.202-3.644-.068-1.357-.212-2.543-.445-3.62-.103-.518-.245-1.035-.38-1.535l-.066-.242c-.061-.177-.116-.355-.173-.536-.126-.394-.256-.8-.42-1.188l-.339-.853-.386-.819c-.183-.415-.405-.814-.62-1.199l-.232-.422c-.192-.347-.41-.684-.622-1.008-.116-.18-.23-.358-.35-.548l-.283-.39c-.256-.355-.523-.725-.802-1.076-.838-1.031-1.645-1.914-2.467-2.696-.873-.837-1.812-1.631-2.793-2.358-.872-.659-1.866-1.321-3.045-2.025l-.558-.315c-.343-.196-.685-.388-1.037-.577l-1.639-.81-.253-.112c-1.012-.444-2.059-.905-3.117-1.284-1.094-.401-2.232-.768-3.475-1.119-2.18-.616-4.536-1.12-7.003-1.506l-.03-.045-.02.036c-.023-.002-.049-.007-.07-.011-.086-.014-.173.009-.241.061-.069.053-.11.128-.121.213-.012.084.011.166.066.239l.048.059-.018.032.048.007c.646.839 1.311 1.711 1.83 2.648.617 1.088 1.042 2.08 1.293 3.036.26.964.42 2.036.487 3.277.057.969.04 1.966.025 2.931l-.094 3.827c-.025 1.113-.048 2.264-.007 3.412.067 1.279.197 2.399.396 3.418.212 1.243.57 2.434.861 3.332 1.55 4.484 4.32 8.423 7.805 11.085zm-2.14-2.678c-.775-.857-1.468-1.745-2.057-2.643-.597-.874-1.16-1.848-1.675-2.899-.14-.274-.267-.554-.393-.837.404-.315.83-.616 1.286-.892.185-.121.382-.228.572-.333.11-.059.221-.121.324-.18.197-.103.398-.198.596-.296.112-.055.227-.11.33-.162l.96-.399c.207-.078.42-.146.63-.217l.352-.116c.203-.073.418-.124.626-.171.123-.03.246-.058.37-.092.322-.093.662-.143 1.003-.194.08-.011.16-.022.24-.036.279-.043.553-.084.777-.087l1.023-.057 1.04.048c.258-.002.512.041.78.085.075.011.152.025.223.036.121.023.247.041.37.059.222.03.43.062.638.123l1 .279c.252.057.487.155.736.26.073.029.144.059.215.089l.886.365c.266.595.51 1.172.738 1.744l.62 1.54.55 1.569c.064.189.13.376.197.563.009.023.016.046.023.069l-.26-.076c-.101-.022-.204-.047-.305-.07-.187-.046-.374-.089-.569-.13l-.315-.057c-.185-.035-.372-.073-.562-.094l-.098-.011c-.258-.034-.526-.069-.788-.082-1.23-.096-2.45.013-3.56.321-.26.071-.53.16-.857.283-.229.094-.526.217-.816.37-.525.269-1.03.595-1.503.969-.457.36-.892.771-1.291 1.225-.185.207-.37.431-.562.679-.067.082-.13.169-.195.258-.075.107-.153.203-.237.294-.377-.362-.732-.725-1.063-1.097zm14.785 4.089c-.926.616-1.99 1.04-3.076 1.218-1.06.18-2.17.151-3.315-.079-1.01-.201-2.07-.578-3.144-1.116-.937-.465-1.883-1.076-2.808-1.815-.41-.324-.798-.662-1.17-1.006.1-.103.187-.208.267-.312.062-.08.124-.16.194-.242.197-.24.384-.452.57-.648.402-.426.831-.81 1.281-1.14.462-.342.953-.639 1.463-.878.26-.126.532-.233.783-.326.313-.11.572-.188.816-.249 1.065-.267 2.214-.342 3.386-.224.247.019.5.057.745.096l.103.016c.183.025.37.064.548.105l.288.062c.178.041.352.089.528.136.1.028.203.055.297.08l.695.224.05.162.468 1.58c.41 1.417.77 2.865 1.086 4.318-.016.009-.035.025-.055.038zm5.264-12.717c.037 1.35-.023 2.523-.183 3.583-.194 1.25-.49 2.418-.88 3.474-.788 2.05-1.923 3.738-3.31 4.958-.308-1.373-.644-2.675-1.024-3.921l-.486-1.587-.035-.103c.21-.104.425-.221.651-.355.33-.194.677-.425 1.09-.723.368-.285.695-.559.994-.837.122-.105.233-.219.338-.331l.126-.13c.153-.151.295-.315.439-.484.224-.244.423-.51.617-.768.064-.085.128-.167.196-.26l.126-.194c.192-.294.388-.598.546-.915.197-.346.377-.732.555-1.172.085-.191.151-.39.215-.588.007.118.016.23.025.353zm-2.703-7.95l.046-.222c.055-.239.107-.499.123-.764l.02-.196c.09.167.177.338.255.511l.388.805.343.84c.164.371.294.766.42 1.149.06.182.119.363.18.536l.067.235c.14.49.283.999.388 1.505.172.757.297 1.569.386 2.454l-.004.007c-.078.155-.146.315-.215.47-.103.235-.201.456-.324.67l-.3.555c-.061.116-.132.228-.205.337-.041.064-.083.128-.121.192l-.032.05c-.101.162-.2.317-.316.463l-.363.499c-.066.08-.133.16-.199.242-.192.235-.393.479-.628.714-.133.144-.27.292-.416.422-.066.059-.13.123-.194.185-.085.082-.17.162-.26.241-.293.265-.606.52-.956.783-.297.221-.651.476-1.019.7-.176.112-.343.21-.505.301l-.094-.26c-.068-.187-.137-.372-.203-.563l-.576-1.586-.642-1.553c-.221-.542-.464-1.101-.724-1.676l.05-.034.094-.069.228-.168c.158-.121.316-.242.464-.37.386-.319.77-.668 1.138-1.035.295-.301.679-.703 1.03-1.141l.028-.034c.15-.182.31-.372.448-.575.05-.073.103-.143.153-.216.098-.135.196-.272.29-.413l.407-.648c.089-.143.167-.292.244-.44.041-.078.083-.157.126-.233.116-.203.222-.426.336-.704.032-.082.068-.165.103-.247.066-.15.134-.305.183-.467l.235-.725c.052-.174.089-.354.123-.527zm-5.637-8.163c-.006-.13-.027-.255-.045-.381.267.235.539.465.797.709.811.765 1.609 1.627 2.438 2.635.254.317.498.65.736.974.114.155.228.31.34.458.115.182.233.36.352.541.208.314.425.643.613.973.077.142.157.283.237.425l.103.182-.123.614c-.04.244-.11.483-.181.704-.032.096-.06.194-.087.292-.04.144-.08.281-.132.413l-.277.693c-.052.142-.123.276-.196.42l-.121.239c-.103.21-.215.434-.345.646-.044.075-.09.15-.133.226-.078.139-.158.276-.244.406l-.418.611c-.09.128-.188.253-.284.376-.055.071-.11.139-.164.212-.1.137-.213.269-.325.399l-.142.169c-.34.415-.712.796-.998 1.084-.398.401-.74.723-1.076 1.008-.142.125-.288.244-.434.362l-.233.18c-.535-1.138-1.152-2.362-1.885-3.731-.44-.775-.919-1.608-1.43-2.456l.296-.356c.151-.18.297-.36.444-.545.292-.376.57-.759.822-1.143.571-.889.999-1.706 1.307-2.497.384-.972.624-1.863.731-2.725.069-.507.098-.967.09-1.41 0-.239-.012-.477-.033-.707zm-9.331-3.857c-.003-.114-.01-.228-.02-.342-.005-.059-.012-.118-.014-.175-.007-.155-.028-.324-.067-.529-.011-.055-.018-.108-.027-.165-.018-.116-.037-.237-.073-.353-.016-.057-.03-.114-.044-.173-.027-.112-.054-.226-.096-.343l-.15-.367c.459.189.911.386 1.357.58l1.88.9c.34.181.677.368 1.01.557l.567.315c1.163.688 2.145 1.334 3.005 1.977.562.413 1.1.853 1.63 1.302v.003c.038.941-.036 1.847-.212 2.691-.089.456-.219.894-.347 1.3-.126.401-.283.812-.48 1.252-.363.81-.8 1.603-1.3 2.36-.233.363-.491.737-.772 1.107l-.553.709c-.507-.821-1.044-1.649-1.602-2.441-.397-.602-.825-1.181-1.238-1.737-.194-.263-.386-.52-.58-.79l-.487-.622c-.466-.595-.903-1.156-1.367-1.695-.182-.223-.367-.433-.55-.647.329-1.408.5-2.55.539-3.64.01-.374 0-.751-.01-1.034zm-5.648-4.205c1.227.342 2.353.698 3.438 1.09.414.146.827.308 1.236.472l.083.208.114.479c.02.1.034.203.048.305.007.062.016.121.025.185.018.1.023.205.027.317.003.057.005.112.01.162.034.718.02 1.364-.044 1.979-.018.288-.048.603-.094.993l-.036.312c-.025.228-.05.454-.082.682-.053.383-.105.73-.16 1.061-.87-.986-1.737-1.9-2.564-2.758-1.357-1.352-2.422-2.354-3.347-3.152-.974-.853-1.897-1.61-2.74-2.255-.809-.625-1.448-1.079-1.885-1.378 2.068.342 4.074.776 5.97 1.298zm-3.412 4.016c-.274-1.01-.724-2.05-1.378-3.181-.224-.397-.468-.776-.72-1.139.318.235.677.509 1.084.828.83.65 1.734 1.41 2.687 2.261.914.807 1.956 1.81 3.279 3.156.728.771 1.487 1.594 2.252 2.465l-.37-.171c-.107-.052-.219-.093-.331-.136-.057-.021-.117-.044-.178-.069-.057-.02-.114-.043-.172-.066-.11-.043-.221-.089-.333-.121l-.507-.164c-.112-.039-.227-.069-.34-.098l-.202-.055c-.167-.046-.334-.091-.5-.123-.665-.151-1.36-.251-2.125-.303-.594-.039-1.134-.041-1.639-.01-.075-1.04-.226-2.059-.507-3.074zm.48 10.259l.087-3.424c.023-1.199.034-2.34-.034-3.45.486-.009 1.007.018 1.58.082.72.082 1.408.214 2.05.387.16.037.318.085.494.14l.18.054c.105.032.21.062.316.103l.493.18c.103.034.201.08.302.123l.169.073.174.076c.1.041.2.084.299.136l.466.235c.203.103.407.222.6.338.101.059.2.118.305.175.025.014.05.026.08.032.039.01.077.014.119.007.002 0 .004-.002.009-.002.12.148.242.287.363.438.441.527.861 1.074 1.307 1.653.169.219.338.441.505.655.185.262.377.524.569.787.402.554.82 1.126 1.209 1.726.379.545.747 1.111 1.103 1.677-.142-.071-.283-.137-.434-.187l-.877-.333c-.242-.103-.496-.171-.743-.238l-.176-.045c-.105-.028-.212-.057-.317-.087-.195-.055-.398-.112-.606-.15l-.925-.158c-.22-.048-.444-.061-.66-.075-.097-.007-.193-.011-.293-.021l-.144-.011c-.263-.021-.537-.041-.809-.027-.11.004-.22.004-.329.004-.206.002-.411.005-.622.021l-.94.098c-.202.029-.403.068-.604.105-.107.02-.215.041-.325.059-.203.037-.404.091-.6.141-.106.028-.213.057-.318.083-.201.05-.398.116-.587.18-.103.034-.208.07-.318.102-.315.114-.621.238-.88.345-.475.21-.882.413-1.247.625-.018-.874-.01-1.734.009-2.632zm.192 5.476c-.02-.16-.041-.317-.064-.47-.064-.598-.105-1.143-.133-1.661-.004-.127-.002-.25-.004-.376.397-.223.84-.435 1.373-.65.256-.098.56-.21.864-.308.107-.029.215-.061.322-.093.185-.057.375-.114.564-.155.11-.023.217-.048.325-.073.19-.046.384-.089.573-.119l.334-.05c.16-.025.317-.05.477-.071l1.02-.08c.196-.011.39-.006.584-.004.112.002.222.002.336.002.252-.007.512.018.764.041l.141.014c.096.011.194.02.293.027.212.018.41.034.614.085l.903.173c.187.041.377.098.562.155.105.032.212.064.318.094l.175.052c.238.068.464.135.688.237l.86.349c.177.062.347.155.522.253.094.053.19.105.284.151l.52.276c.565.944 1.093 1.877 1.57 2.737.654 1.245 1.202 2.344 1.68 3.373l-.251-.094c-.074-.027-.147-.057-.22-.084-.256-.1-.523-.203-.797-.258l-1.026-.262c-.229-.064-.464-.094-.692-.121-.122-.016-.245-.03-.37-.05l-.23-.03c-.273-.041-.557-.08-.838-.075l-1.071-.025-1.051.077c-.277.012-.549.06-.823.11-.08.014-.16.027-.244.043-.343.059-.7.119-1.04.224-.117.034-.233.064-.35.095-.221.058-.452.119-.671.203-.117.044-.231.085-.348.126-.217.075-.431.153-.646.242l-.97.433c-.109.059-.22.116-.333.173-.2.105-.402.208-.605.322-.105.064-.213.128-.318.189-.194.114-.393.231-.58.358-.43.276-.834.58-1.223.892-.276-.659-.523-1.325-.747-1.964-.299-.992-.64-2.114-.83-3.243-.088-.401-.14-.803-.191-1.19z"/>
        <path fill="url(#prefix__paint5_linear)" d="M44.277 231.667l-2.706 19.605c-.102.734-.81 1.284-1.654 1.284H25.413c-.834 0-1.538-.541-1.652-1.261l-3.151-20.146c-.14-.894.672-1.683 1.702-1.656l20.358.541c.98.027 1.723.782 1.607 1.633z"/>
        <path fill="url(#prefix__paint6_linear)" d="M44.286 229.099H20.683c-.33 0-.599.269-.599.598v1.975c0 .328.27.595.597.595h23.603c.329 0 .598-.269.598-.598v-1.975c0-.328-.27-.595-.596-.595z"/>
        <path fill="url(#prefix__paint7_linear)" d="M18.787 229.354h27.267c.28 0 .51-.228.51-.508v-.969c0-.279-.228-.509-.51-.509h-27.27c-.278 0-.507.228-.507.506v.97c0 .282.229.51.51.51z"/>
        <path fill="url(#prefix__paint8_linear)" d="M429.434 53.852H75.212V236.98h354.222V53.852z"/>
        <path fill="url(#prefix__paint9_linear)" d="M123.78 57.337H79.437v81.978h44.343V57.338z"/>
        <path fill="url(#prefix__paint10_linear)" d="M123.78 144H79.437v81.977h44.343V144z"/>
        <path fill="url(#prefix__paint11_linear)" d="M175.663 57.337H131.32v81.978h44.343V57.338z"/>
        <path fill="url(#prefix__paint12_linear)" d="M226.214 57.337h-44.343v53.789h44.343V57.337z"/>
        <path fill="url(#prefix__paint13_linear)" d="M276.322 57.337h-44.343v39.96h44.343v-39.96z"/>
        <path fill="url(#prefix__paint14_linear)" d="M276.322 202.19h-44.343v23.338h44.343V202.19z"/>
        <path fill="url(#prefix__paint15_linear)" d="M276.322 179.681h-44.343v19.475h44.343v-19.475z"/>
        <path fill="url(#prefix__paint16_linear)" d="M276.322 153.346h-44.343v23.338h44.343v-23.338z"/>
        <path fill="url(#prefix__paint17_linear)" d="M226.214 114.766h-44.343v53.788h44.343v-53.788z"/>
        <path fill="url(#prefix__paint18_linear)" d="M226.214 172.191h-44.343v53.789h44.343v-53.789z"/>
        <path fill="url(#prefix__paint19_linear)" d="M325.71 57.337h-44.343v53.789h44.343V57.337z"/>
        <path fill="url(#prefix__paint20_linear)" d="M325.71 114.766h-44.343v53.788h44.343v-53.788z"/>
        <path fill="url(#prefix__paint21_linear)" d="M325.71 172.191h-44.343v53.789h44.343v-53.789z"/>
        <path fill="url(#prefix__paint22_linear)" d="M374.95 57.337h-44.343v53.789h44.343V57.337z"/>
        <path fill="url(#prefix__paint23_linear)" d="M374.95 114.766h-44.343v53.788h44.343v-53.788z"/>
        <path fill="url(#prefix__paint24_linear)" d="M374.95 172.191h-44.343v53.789h44.343v-53.789z"/>
        <path fill="url(#prefix__paint25_linear)" d="M425.371 57.337h-44.343v53.789h44.343V57.337z"/>
        <path fill="url(#prefix__paint26_linear)" d="M425.371 114.766h-44.343v53.788h44.343v-53.788z"/>
        <path fill="url(#prefix__paint27_linear)" d="M425.371 172.191h-44.343v53.789h44.343v-53.789z"/>
        <path fill="url(#prefix__paint28_linear)" d="M175.663 144H131.32v81.977h44.343V144z"/>
        <path fill="url(#prefix__paint29_linear)" d="M276.324 104.92h-43.456v30.541h43.456V104.92z"/>
        <path fill="url(#prefix__paint30_linear)" d="M271.995 149.806h-6.681c-.421 0-.764-.34-.764-.761v-9.703c0-.419.341-.761.764-.761h6.681c.42 0 .763.34.763.761v9.703c-.002.421-.343.761-.763.761z"/>
        <path fill="url(#prefix__paint31_linear)" d="M232.969 147.53v-6.669c0-.419.34-.761.763-.761h9.72c.42 0 .763.339.763.761v6.669c0 .42-.341.762-.763.762h-9.72c-.423-.002-.763-.342-.763-.762z"/>
        <path fill="url(#prefix__paint32_linear)" d="M254.595 103.695c.504 0 .912-.407.912-.91 0-.503-.408-.91-.912-.91-.503 0-.911.407-.911.91 0 .503.408.91.911.91z"/>
        <path fill="url(#prefix__paint33_linear)" d="M236.103 77.517c.504 0 .912-.407.912-.91 0-.502-.408-.91-.912-.91-.503 0-.911.408-.911.91 0 .503.408.91.911.91z"/>
        <path fill="url(#prefix__paint34_linear)" d="M236.103 215.187c.504 0 .912-.407.912-.91 0-.502-.408-.91-.912-.91-.503 0-.911.408-.911.91 0 .503.408.91.911.91z"/>
        <path fill="url(#prefix__paint35_linear)" d="M236.103 191.461c.504 0 .912-.407.912-.91 0-.502-.408-.91-.912-.91-.503 0-.911.408-.911.91 0 .503.408.91.911.91z"/>
        <path fill="url(#prefix__paint36_linear)" d="M236.103 166.485c.504 0 .912-.407.912-.91 0-.502-.408-.91-.912-.91-.503 0-.911.408-.911.91 0 .503.408.91.911.91z"/>
        <path fill="#223265" d="M248.778 73.907c.032.018.068.027.105.027.075 0 .148-.039.187-.11.763-1.37 2.068-2.392 3.581-2.805.114-.032.182-.148.15-.264-.032-.114-.15-.183-.265-.15-1.622.44-3.023 1.536-3.843 3.01-.055.105-.018.235.085.292zM256.85 71.446c1.099.556 2.011 1.466 2.571 2.561.038.075.114.117.192.117.032 0 .066-.007.098-.023.105-.055.148-.183.094-.29-.601-1.175-1.579-2.15-2.758-2.75-.105-.055-.236-.012-.291.093-.054.11-.011.24.094.292z"/>
        <path fill="#223265" d="M266.024 70.312c-.062-.034-.226-.098-.427.048l-6.85 5.034c-.08.059-.119.16-.096.257.075.329.112.669.112 1.008 0 .776-.201 1.538-.574 2.21v-1.372c0-.653-.468-1.205-1.113-1.314l-.74-.126v-4.876c0-.367-.263-.68-.628-.74l-1.579-.268c-.044-.007-.085-.011-.128-.011-.416 0-.752.337-.752.752v4.621l-.678-.114c-.387-.064-.786.043-1.086.297-.105.089-.119.246-.03.353.09.105.25.119.355.03.187-.158.436-.226.676-.185l4.506.764c.402.069.694.413.694.819v2.19c0 .104.067.196.158.232h.002l.021.007.005.002c.006.002.011.002.018.005.002 0 .007 0 .009.002l.014.002h.025c.073 0 .146-.032.194-.093.731-.897 1.133-2.028 1.133-3.184 0-.322-.029-.643-.091-.956l6.596-4.844c.016.137.019.342.003.527l-.099 1.047c-.064.682-.429 1.293-1 1.674l-3.243 2.162c-.109.073-.144.216-.08.33.064.115.204.16.325.108l3.663-1.663-.074.219c-.159.481-.525.862-1.003 1.042l-2.794 1.058c-.121.046-.187.174-.153.3.032.123.153.205.281.184l3.087-.465-.064.107c-.204.342-.546.57-.939.63l-2.395.355c-.125.019-.217.128-.215.256.005.127.101.23.229.242l2.31.216-.073.082c-.242.272-.592.418-.955.4l-1.721-.08c-.121-.005-.231.077-.256.196-.027.118.037.24.149.287l1.439.602-.093.069c-.265.193-.601.26-.919.177l-.914-.235c-.114-.03-.233.026-.288.13-.052.105-.025.233.066.308l.711.575-.107.05c-.27.128-.581.128-.85 0l-.268-.125c-.125-.06-.274-.007-.336.119-.059.125-.006.273.119.333l.268.125c.203.096.422.146.642.146.219 0 .436-.048.639-.144l.469-.221c.078-.037.132-.112.142-.196.011-.085-.026-.171-.092-.224l-.144-.116c.409.055.82-.048 1.156-.296l.45-.331c.074-.053.112-.142.101-.23-.011-.09-.069-.167-.153-.201l-.539-.226.301.014c.517.022 1.01-.183 1.353-.566l.404-.451c.064-.071.083-.172.046-.258-.034-.09-.116-.148-.21-.158l-.75-.07.352-.053c.544-.08 1.017-.397 1.298-.869l.334-.56c.05-.083.045-.188-.007-.268-.055-.08-.151-.12-.247-.107l-1.286.194.596-.226c.619-.235 1.092-.727 1.3-1.352l.254-.764c.032-.096.004-.199-.071-.265-.073-.066-.181-.082-.272-.04l-1.375.624.674-.45c.699-.465 1.142-1.21 1.222-2.043l.098-1.047c.062-.64-.02-1.014-.242-1.138zm-11.977.352l1.578.266c.122.02.211.126.211.247v.043l-2.077-.351c.018-.132.144-.23.288-.205zm-.295.713l2.081.354v4.24l-2.081-.354v-4.24z"/>
        <path fill="#223265" d="M256.448 78.443v3.82c0 .094.05.178.133.221.036.021.077.03.118.03.048 0 .099-.014.14-.043l1.236-.83.002-.003h.003s.002 0 .002-.002l.014-.01c1.544-1.206 2.428-3.017 2.428-4.969 0-.139-.112-.25-.251-.25s-.251.111-.251.25c0 1.795-.814 3.462-2.23 4.57l-.841.564v-3.348c0-.652-.469-1.204-1.113-1.314l-4.812-.816c-.059-.01-.119-.016-.18-.016-.592 0-1.074.481-1.074 1.07v1.496c-.373-.673-.574-1.435-.574-2.21 0-.34.039-.68.112-1.008.023-.099-.016-.199-.096-.258l-6.85-5.034c-.201-.146-.366-.082-.427-.047-.22.123-.304.499-.249 1.117l.098 1.047c.078.835.523 1.578 1.222 2.043l.674.45-1.375-.625c-.092-.041-.199-.025-.272.04-.075.067-.103.172-.071.265l.254.764c.208.625.683 1.12 1.3 1.353l.596.226-1.286-.194c-.096-.014-.192.027-.247.107-.055.08-.057.185-.007.267l.334.56c.281.473.754.79 1.298.87l.351.052-.749.071c-.094.01-.176.07-.21.157-.034.09-.016.187.045.258l.405.452c.345.383.838.59 1.353.565l.301-.013-.539.225c-.085.035-.142.112-.153.201-.012.089.027.178.1.23l.451.331c.335.246.749.351 1.156.297l-.144.116c-.067.055-.101.14-.092.223.009.087.064.16.142.197l.468.22c.204.097.423.145.64.145.22 0 .439-.048.642-.146l.268-.126c.125-.06.178-.21.118-.333-.059-.125-.21-.178-.335-.118l-.268.125c-.269.128-.58.128-.85 0l-.107-.05.713-.575c.091-.075.119-.203.066-.308-.053-.105-.174-.16-.288-.13l-.914.235c-.32.082-.653.018-.918-.178l-.094-.068 1.439-.602c.112-.048.176-.17.149-.288-.028-.118-.137-.198-.256-.196l-1.721.08c-.363.016-.712-.13-.955-.4l-.073-.081 2.31-.217c.126-.011.224-.116.229-.242.004-.127-.089-.235-.215-.255l-2.395-.356c-.393-.06-.735-.287-.939-.63l-.064-.107 3.087.466c.128.02.249-.06.281-.185.032-.123-.034-.253-.153-.299l-2.794-1.058c-.476-.18-.841-.561-1.003-1.042l-.073-.22 3.662 1.663c.119.055.261.01.325-.107.064-.114.029-.258-.08-.33l-3.243-2.163c-.571-.38-.936-.992-1-1.674l-.099-1.044c-.016-.187-.013-.393.003-.53l6.596 4.847c-.059.315-.091.634-.091.956 0 1.156.402 2.287 1.133 3.184l.012.011c.011.014.025.025.038.034.003 0 .003.002.005.002l.014.01.007.004.011.007c.002.002.007.002.009.005.002.002.007.002.009.004.005.002.009.002.014.005l.009.002.016.004c.007.003.014.003.023.003H250.043c.003 0 .007 0 .01-.003l.013-.002.012-.002.014-.002c.004-.003.006-.003.011-.005l.011-.004.012-.007c.002-.003.007-.003.009-.005.004-.002.009-.004.014-.009.002-.002.004-.002.006-.005.005-.004.012-.006.016-.01.003 0 .003-.003.005-.003.007-.005.011-.012.018-.016l.016-.018c.003-.003.005-.007.007-.012l.007-.009.007-.011.007-.01c.002-.002.002-.006.004-.009l.007-.011.002-.01c.003-.004.005-.008.005-.015 0-.002 0-.005.002-.007.003-.007.003-.011.005-.018v-.002l.004-.028V77.346c0-.315.256-.57.572-.57.032 0 .064.002.096.009l4.812.816c.409.092.701.436.701.842z"/>
        <path fill="#223265" d="M254.883 78.26c-.137-.022-.268.069-.29.206-.023.137.068.267.205.29.194.031.336.198.336.396v6.443c0 .283-.231.516-.516.516-.03 0-.06-.002-.087-.007l-3.562-.604c-.402-.069-.695-.413-.695-.82v-3.25c0-.081-.039-.152-.1-.198-1.419-1.11-2.235-2.775-2.235-4.572 0-.14-.112-.251-.251-.251-.14 0-.252.111-.252.25 0 1.914.85 3.69 2.333 4.895v3.127c0 .652.469 1.204 1.113 1.314l3.562.604c.057.009.114.014.171.014.562 0 1.019-.457 1.019-1.018V79.15c.003-.44-.315-.814-.751-.89zM257.814 82.393c-.612 0-1.094.632-1.094 1.44 0 .403.121.764.318 1.021l-.802.52c-.117.076-.149.23-.074.347.048.073.128.114.211.114.048 0 .093-.014.137-.041l.889-.577c.013-.01.027-.02.038-.032.117.055.245.084.377.084.613 0 1.095-.632 1.095-1.439 0-.805-.48-1.437-1.095-1.437zm0 2.377c-.319 0-.591-.429-.591-.938 0-.508.269-.937.591-.937.32 0 .592.429.592.937 0 .509-.272.938-.592.938zM248.375 71.888c.133-.191.101-.356.014-.476l-.263.045c.016.04.012.085-.013.121-.037.053-.103.078-.179.075l-.706-.016-.205-1.026-.334.48.167.781-.48-.333-.285.41 1.476 1.02.285-.41-.509-.351-.016-.098.546.02c.231.005.384-.073.502-.242zM249.564 70.657l-.288-.31-.528.488-.199-.215.373-.344-.256-.276-.373.344-.19-.203.501-.46-.288-.31-.871.802 1.218 1.314.901-.83zM249.856 68.358l-1.01.618.937 1.526 1.042-.637-.222-.36-.614.376-.154-.25.435-.265-.197-.32-.434.265-.146-.237.582-.356-.219-.36zM251.896 68.175c-.123-.34-.47-.451-.875-.305l-.557.203.615 1.68.472-.17-.207-.573.086-.032c.304-.112.608-.413.466-.803zm-.616.486l-.06.02-.146-.398.075-.028c.126-.045.238-.002.284.126.05.139-.051.241-.153.28zM254.154 69.101l.356-.72.019.711.489-.011-.046-1.788-.421.011-.548 1.11-.605-1.08-.421.011.046 1.788.489-.011-.018-.712.393.703.267-.012zM256.242 69.373l.163-.669.859-.925-.549-.133-.434.518-.148-.66-.549-.131.339 1.217-.163.669.482.114zM259.229 69.332c.137-.237.064-.536-.3-.746l-.553-.322-.902 1.547.61.355c.34.199.679.128.825-.123.098-.169.084-.356-.005-.49.133-.01.245-.082.325-.221zm-.718.403c-.059.1-.166.114-.278.05l-.124-.07.185-.315.117.069c.128.07.151.182.1.266zm.256-.584c-.052.09-.132.099-.201.058l-.121-.071.162-.279.073.044c.115.066.142.155.087.248zM260.742 69.954l-.316-.292-1.723.846.375.347.245-.13.434.404-.112.253.374.347.723-1.775zm-1.086.596l.475-.256-.221.493-.254-.238zM261.052 71.67c.233-.158.553-.09.754.207.099.146.169.335.188.504l.356-.24c-.02-.187-.091-.383-.226-.581-.347-.516-.93-.618-1.364-.329-.434.292-.558.867-.21 1.383.134.198.288.337.452.428l.642-.43-.267-.395-.391.262-.027-.039c-.197-.296-.138-.618.093-.77z"/>
        <path fill="#223265" d="M244.731 71.528c.034.018.071.027.105.027.076 0 .149-.038.188-.11 1.722-3.019 4.818-4.998 8.285-5.295 4.062-.347 7.887 1.608 9.978 5.104.061.103.192.135.295.076.102-.062.134-.194.075-.295-2.175-3.637-6.156-5.674-10.385-5.311-3.608.307-6.832 2.367-8.623 5.51-.057.105-.021.235.082.294z"/>
        <path fill="url(#prefix__paint37_linear)" d="M365.337 298.39c-.946-13.78 39.092-8.395 60.408-10.553 10.156-1.029 25.177-1.615 32.324 2.408 44.471 25.034-91.937 19.724-92.732 8.145z" opacity=".25"/>
        <path fill="url(#prefix__paint38_linear)" d="M416.772 285.28l-.802 10.77s2.061 1.574.224 3.382c-1.837 1.809-7.369-.093-8.434-.378-2.223-.596 4.785-1.975 4.785-1.975l-.187-12.574 4.414.775z"/>
        <path fill="url(#prefix__paint39_linear)" d="M446.3 286.286l1.992 10.462s1.99 1.66.078 3.389c-1.912 1.729-7.357-.408-8.411-.739-2.196-.691 4.865-1.77 4.865-1.77l-2.703-12.215 4.179.873z"/>
        <path fill="url(#prefix__paint40_linear)" d="M442.303 186.921c2.114-.288 9.755 7.106 5.21 20.134-.085.239 2.077 7.895-4.252 35.227-.912 3.946 6.03 7.109 4.35 44.415-1.396.513-4.86 1.001-6.822.987-.718-.004-7.879-26.714-10.061-38.115-3.148-16.462-5.406-47.283-5.687-50.346-.521-5.62 14.916-11.983 17.262-12.302z"/>
        <path fill="url(#prefix__paint41_linear)" d="M435.202 190.645c2.091.534 7.07 10.044 1.307 17.6-.016.021-4.174 19.68-12.418 35.679-1.735 3.367 4.732 5.764-6.144 42.971-2.745.158-3.387.039-6.229-.593-.391-.086-1.618-28.472-1.234-40.202.555-16.939 5.089-47.26 5.482-50.294.724-5.572 16.919-5.752 19.236-5.161z"/>
        <path fill="url(#prefix__paint42_linear)" d="M447.979 293.062l.741 4.885s-4.209-.462-4.173-1.017c.037-.554-.815-3.48-.815-3.48s3.841-.461 4.247-.388z"/>
        <path fill="url(#prefix__paint43_linear)" d="M416.537 292.704l-.249 4.936s-4.271-1.106-4.122-1.642c.15-.536.148-3.825.148-3.825s3.83.376 4.223.531z"/>
        <path fill="#223265" d="M444.419 296.654s-5.899-.476-6.8 1.207c-1.439 2.691 9.533 4.787 11.37 3.499 2.502-1.757-.228-4.345-.228-4.345s-2.066.912-4.342-.361zM412.275 295.537s-5.753.248-6.546 1.895c-1.266 2.63 9.357 4.185 11.059 2.878 2.319-1.781-.395-4.141-.395-4.141s-1.892.492-4.118-.632z"/>
        <path fill="url(#prefix__paint44_linear)" d="M390.715 294.095c.629 2.051-.512 4.293-2.543 5.016-2.033.72-4.193-.356-4.821-2.404-.628-2.048.509-4.295 2.543-5.015 2.034-.719 4.191.355 4.821 2.403z"/>
        <path fill="url(#prefix__paint45_linear)" d="M393.8 185.411c-.089-1.143-.011-2.285.11-3.43l-2.041 1.053c-.505.263-.836.78-.866 1.346l-2.627 53.079c-.041.848.596 1.541 1.425 1.553.181.002.357-.027.519-.087.585-.207 1.026-.766 1.058-1.43l2.557-51.603c-.071-.137-.119-.296-.135-.481z"/>
        <path fill="url(#prefix__paint46_linear)" d="M399.533 179.896c-.437-.28-.997-.303-1.474-.057l-1.657.855c-.139 1.175-.274 2.352-.274 3.526l.948-.49-2.264 50.05c-.039.848.603 1.539 1.433 1.546.829.005 1.533-.675 1.572-1.523l2.381-52.591c.025-.534-.229-1.033-.665-1.316z"/>
        <path fill="url(#prefix__paint47_linear)" d="M398.123 293.578c.735 2.397-.599 5.026-2.98 5.868-2.381.844-4.908-.417-5.644-2.814-.735-2.397.599-5.027 2.98-5.869 2.381-.844 4.908.418 5.644 2.815z"/>
        <path fill="#223265" d="M369.127 239.648c-.274 9.023-1.021 38.681.503 51.756.03.249.018.495.007.746-.279 5.784 13.442 7.56 24.234 3.138 2.522-1.035 1.745-43.276 4.314-61.166.575-4.014.836-9.342-3.035-9.287-2.26.032-19.134 5.462-23.879 9.996-1.31 1.248-2.089 2.983-2.144 4.817z"/>
        <path fill="url(#prefix__paint48_linear)" d="M385.937 230.069l-1.944 63.278c-.075 2.406 2.02 4.211 4.238 3.649l9.348-2.36c1.615-.408 2.744-1.964 2.698-3.718l-1.684-62.557c-.064-2.358-2.184-4.019-4.341-3.398l-5.719 1.64c-1.49.428-2.548 1.84-2.596 3.466z"/>
        <path fill="url(#prefix__paint49_linear)" d="M399.718 183.287c-.037.021-.074.039-.112.06l-7.655 3.726c-.987.482-2.141.069-2.573-.921-.434-.99.014-2.176 1.003-2.664l7.655-3.727c.989-.481 2.141-.07 2.575.92.416.953.018 2.093-.893 2.606z"/>
        <path fill="url(#prefix__paint50_linear)" d="M441.406 142.6s-1.565-1.547-3.316-5.025c-.237-.472-4.528-13.315-5.906-13.819-1.597-.583-3.32-1.824-4.744-1.293-.703.263 1.974 4.71 1.636 12.656-.249 5.825-5.241 9.221-5.936 10.897-1.647 3.978 14.098 2.874 18.266-3.416z"/>
        <path fill="url(#prefix__paint51_linear)" d="M440.071 139.562s7.536 5.911 7.904 22.72c.383 17.548-2.959 21.966-1.534 38.154.048 6.571-21.951 9.406-31.618-3.868-.859-1.181 5.982-10.199 4.65-20.339-2.436-18.568-5.45-19.033 4.65-32.936 1.254-1.724 8.762-7.102 15.948-3.731z"/>
        <path fill="url(#prefix__paint52_linear)" d="M432.218 142.178s8.481 4.969 11.676 13.075c.93 1.225 5.433-2.794 5.433-2.794s-12.903-16.624-23.651-10.272c-10.748 6.352-1.307 47.587 10.488 59.75.464-1.464.989-6.749.989-6.749s-17.557-36.758-14.008-47.938c2.088-6.591 9.073-5.072 9.073-5.072z"/>
        <path fill="url(#prefix__paint53_linear)" d="M457.88 158.254c-2.267-1.078-2.585-5.129-5.477-8.336-4.533-5.024-8.946-2.885-9.169 2.746-1.342 33.666-12.679 40.533-8.322 47.811 4.357 7.277 17.774 5.733 23.011 1.651 3.117-2.429 10.207-18.761 6.533-24.064-3.674-5.3.24-16.564-6.576-19.808z"/>
        <path fill="url(#prefix__paint54_linear)" d="M434.005 148.021s2.851 25.044-4.287 31.934c-10.225 9.871-28.266 4.347-28.266 4.347s-4.904-.369-5.777-2.566c-.872-2.196-2.817-2.173-2.246-3.076 1.109-1.752 7.579.609 9.857 1.181 8.569 2.149 17.814-2.502 19.157-4.668 1.972-3.184 3.482-17.585 2.788-20.757-1.38-6.299 4.277-9.228 8.774-6.395z"/>
        <path fill="url(#prefix__paint55_linear)" d="M424.031 159.577s5.164 2.737 12.898 1.072c-.098.253 2.013-10.521-4.882-17.869-8.404-3.515-10.687 6.103-8.016 16.797z"/>
        <path fill="url(#prefix__paint56_linear)" d="M434.647 111.135c.663.575 10.337 7.458 4.177 20.148-1.271 3.539-12.241 7.43-14.656-2.4-2.387-9.711 3.101-24.132 10.479-17.748z"/>
        <path fill="#223265" d="M435.815 126.06c.322-.997.96-2.532-.153-3.583-1.183-1.113-2.454 1.87-2.454 1.87s-7.533-1.494-7.2-7.729c.005-.242-.808-.112-1.43 3.022-.743.305-3.74-7.595 6.932-11.057 4.294-.623 9.385-.251 13.458 5.674 1.963 2.673 1.68 6.749 1.031 9.876-.809 3.9-4.355 9.259-8.415 8.894-.489-.047-2.137-5.827-1.769-6.967z"/>
        <path fill="#223265" d="M423.796 116.157s-.341 6.363 4.561 9.21c4.901 2.848 6.738 2.611 6.546 5.952.02.078 1.311-3.015-2.438-5.127-4.709-2.654-6.121-4.401-5.303-9.786.818-5.383-3.366-.249-3.366-.249zM450.411 124.301c5.234 1.373 6.98 5.399 6.891 14.499-.076 7.939 12.592 11.269 10.958 6.785-1.634-4.486-3.852.579-3.96.13-.171-.723 1.476-6.589 6.334-2.148 3.996 3.651.816 11.458-5.237 12.849-6.053 1.389-20.363-1.366-19.748-9.994.537-7.551 4.268-16.179-2.696-17.342-.709-.119-.245-.048-.307-.338 0 .002-.249-6.539 7.765-4.441z"/>
        <path fill="#223265" d="M453.212 123.542c5.79 3.859 6.964 5.065 6.123 9.816-.841 4.751-3.192 11.105 2.594 13.44-1.154.055-6.156-2.937-4.072-11.909 1.94-8.35-5.244-11.151-7.867-11.354-2.621-.203-6.626 2.415-7.111 3.198 0 0-1.754.561-.479-.979 2.997-3.619 7.652-4.319 10.812-2.212z"/>
        <path fill="url(#prefix__paint57_linear)" d="M247.612 280.817c-1.544-13.646 33.401-7.262 51.742-8.829 8.74-.748 21.713-.928 28.111 3.237 39.819 25.918-78.555 17.057-79.853 5.592z" opacity=".25"/>
        <path fill="#223265" d="M328.377 192.668l-20.139.775c-1.965.075-3.512 1.706-3.48 3.667l.493 30.858c.035 2.099 1.844 3.727 3.937 3.542l23.165-2.034c2.033-.178 3.516-2 3.276-4.026l-3.516-29.601c-.222-1.868-1.849-3.254-3.736-3.181z"/>
        <path fill="url(#prefix__paint58_linear)" d="M316.733 178.534c.557.199 1.839 5.25 3.247 6.731 1.629 1.71 2.333 4.166 1.668 5.017-1.241 1.587-5.783 4.24-7.077 1.53-.596-1.247-.384-3.377-.484-5.218-.117-2.157-3.149-8.026-3.149-8.026l5.795-.034z"/>
        <path fill="#223265" d="M274.183 115.388s-1.848.787-1.999 4.391c-.301 1.5-2.904 45.08-3.13 45.08-.226 0 1.357 3.401 1.357 3.401l3.772-52.872z"/>
        <path fill="url(#prefix__paint59_linear)" d="M281.301 116.586s5.95-4.815 10.629.378c4.68 5.191 18.437 20.116 26.693 64.706-2.806 2.028-5.724 2.63-5.724 2.63s-8.669-16.282-17.153-31.082c-8.646-15.073-17.082-28.743-14.445-36.632z"/>
        <path fill="url(#prefix__paint60_linear)" d="M289.083 116.957c-.173-.355-2.269-4.924-3.747-8.958 2.134-5.652.171-14.088-1.917-16.284-1.912-2.01-3.775-2.705-7.499-.906-4.492 2.169-6.215 6.721-5.228 11.889.597 3.127 2.897 6.824 5.63 8.745-.295 5.783-3.121 8.123-3.781 9.848-1.613 4.217 16.092 8.452 20.21 1.772-.003 0-1.874-2.434-3.668-6.106z"/>
        <path fill="#223265" d="M309.593 196.114s.459-2.413 1.814-4.386c2.278-3.316 8.5-5.373 12.875-1.389 3.204 2.917 2.806 4.972 1.737 5.72-.558.392-2.39-.219-2.37-.903.028-.89-.18-2.066-1.206-3.015-2.6-2.404-8.015-2.345-9.768 3.045.105.593-2.408 4.773-3.082.928z"/>
        <path fill="url(#prefix__paint61_linear)" d="M278.438 269.297l-1.277 10.877s2.02 1.681.08 3.437c-1.94 1.754-7.463-.413-8.532-.748-2.228-.701 4.933-1.795 4.933-1.795l.354-12.747 4.442.976z"/>
        <path fill="#223265" d="M272.945 279.161s-6.651.005-7.647 1.866c-1.591 2.971 10.59 5.286 12.617 3.863 2.762-1.941-.254-4.801-.254-4.801s-2.203.479-4.716-.928z"/>
        <path fill="url(#prefix__paint62_linear)" d="M306.46 268.355l2.87 10.414s2.148 1.516.356 3.419c-1.791 1.904-7.471.187-8.561-.062-2.276-.52 4.773-2.185 4.773-2.185l-3.731-12.126 4.293.54z"/>
        <path fill="#223265" d="M305.21 279.043s-6.574 1.952-6.903 4.034c-.523 3.33 11.685 1.542 13.134-.467 1.972-2.74-1.819-4.452-1.819-4.452s-1.572 1.389-4.412.885z"/>
        <path fill="url(#prefix__paint63_linear)" d="M276.862 183.166c-.101-.917 2.46-1.973 2.46-1.973 1.568-3.578 2.781-14.445 5.468-15.766 9.606-4.728 16.755 7.551 16.074 25.808-1.071 28.68 9.154 84.514 9.154 84.514s-2.626 1.216-7.065 1.471c-18.549-40.464-25.175-85.814-26.091-94.054z"/>
        <path fill="url(#prefix__paint64_linear)" d="M272.095 276.675c-3.254-72.364-2.221-95.728-1.058-106.228.615-5.533 5.674-8.975 5.674-8.975 3.998-3.302 13.165-13.711 20.303 10.035 3.45 10.161-3.167 22.52-3.242 22.848-6.633 28.418-13.161 79.227-14.093 83.246-.51-.011-5.304.299-7.584-.926z"/>
        <path fill="url(#prefix__paint65_linear)" d="M287.945 113.662s9.247 6.308 11.681 20.378c3.336 19.29 3.359 28.748.754 39.67.544 4.021-29.375 5.013-30.481 3.403-1.435-2.087 1.472-6.502-.482-22.205-2.602-20.921 3.188-36.543 5.797-39.344.279-.303 9.521-.201 12.731-1.902z"/>
        <path fill="#223265" d="M268.544 91.543c-.121-.768-.171-1.525-.185-2.216-.025-1.426.971-2.555 2.221-2.43 1.712.17 4.284-.255 7.323-1.562 5.452-2.344 11.523 1.843 13.182 7.755 2.239 7.98-3.343 11.49-5.719 16.389-1.207 2.488-5.706 1.387-5.962-1.097-.395-3.836-3.036-7.764-5.828-10.336-2.317-2.135-4.435-2.694-5.032-6.503z"/>
        <path fill="url(#prefix__paint66_linear)" d="M274.412 99.736s1.273-1.784 1.965-.846c.939 1.275-.382 4.326-.382 4.326l-1.583-3.48z"/>
        <path fill="url(#prefix__paint67_linear)" d="M275.212 114.663s10.026 1.001 12.032-2.203c0-.299 2.607 1.45 2.607 2.153 0 .7-5.114 6.557-17.646 3.252-.252-.1 2.004-3.202 3.007-3.202z"/>
        <path fill="url(#prefix__paint68_linear)" d="M277.965 131.061c1.152 3.492-4.106 35.381-12.624 33.734-17.948-3.469-24.908-13.835-24.908-13.835s-4.483-3.357-2.742-7.528c1.865-4.464 5.982 4.183 6.339 4.404 10.698 6.65 17.948 8.938 18.631 6.279 1.844-7.196 9.359-22.203 9.589-28.142.147-3.745 3.937-.31 5.715 5.088z"/>
        <path fill="url(#prefix__paint69_linear)" d="M272.6 158.174c10.771-21.822 8.344-33.658 5.1-37.841-1.252-1.615-4.579-2.837-5.518-.557-6.089 14.782-9.213 29.782-10.216 34.656-9.466-2.817-17.043-7.388-17.703-6.742-1.291 1.256-.85.939-3.766 4.167 9.955 9.551 22.849 16.633 27.725 12.646 1.289-1.053 3.645-4.319 4.378-6.329z"/>
        <path fill="url(#prefix__paint70_linear)" d="M204.027 300.455c5.69-13.632-66.381-8.238-103.286-10.334-17.585-.999-43.864-1.555-57.621 2.436-85.618 24.832 156.125 19.352 160.907 7.898z" opacity=".25"/>
        <path fill="url(#prefix__paint71_linear)" d="M150.597 137.075s7.531-7.515-14.472-3.417c-11.219 2.089-22.297 7.907-23.862 4.099-1.565-3.807-6.649.782-5.769 5.467.88 4.686 2.347 9.469 10.268 6.538 7.92-2.926 19.557-14.348 33.835-12.687z"/>
        <path fill="url(#prefix__paint72_linear)" d="M151.449 134.972s7.099-3.104-9.816-5.681c-8.623-1.314-17.943-.165-18.267-3.022-.325-2.856-5.013-1.077-5.377 2.187-.361 3.264-.317 6.733 6.083 6.714 6.4-.018 17.328-4.687 27.377-.198z"/>
        <path fill="url(#prefix__paint73_linear)" d="M49.897 295.923c-.297 1.998-2.178 3.447-4.2 3.237-2.022-.21-3.422-2-3.125-3.996.297-1.998 2.177-3.446 4.2-3.236 2.024.209 3.422 1.998 3.125 3.995z"/>
        <path fill="url(#prefix__paint74_linear)" d="M96.664 204.691c.389-1.011.921-1.95 1.488-2.874l-2.166.071c-.535.018-1.028.324-1.282.796L70.91 246.786c-.379.704-.118 1.553.583 1.897.153.075.315.121.478.137.582.059 1.183-.237 1.48-.789l23.132-42.875c-.007-.146.019-.301.08-.465z"/>
        <path fill="url(#prefix__paint75_linear)" d="M103.782 202.319c-.258-.418-.724-.662-1.232-.646l-1.755.057c-.596.945-1.188 1.891-1.663 2.89l1.005-.032-22.255 41.673c-.374.705-.112 1.553.592 1.895.704.34 1.58.046 1.956-.659l23.384-43.787c.237-.447.226-.976-.032-1.391z"/>
        <path fill="url(#prefix__paint76_linear)" d="M56.414 298.48c-.348 2.338-2.55 4.035-4.918 3.788-2.369-.246-4.007-2.34-3.66-4.677.35-2.34 2.55-4.035 4.917-3.789 2.37.247 4.008 2.34 3.66 4.678z"/>
        <path fill="#223265" d="M81.801 238.78c-1.935-.887-18.498-3.094-24.38-1.156-1.62.534-2.986 1.695-3.779 3.234-3.896 7.565-16.577 32.503-20.592 44.241-.077.224-.185.429-.297.639-2.586 4.808 8.368 11.873 19.347 12.475 2.568.139 19.06-36.117 28.513-50.301 2.118-3.183 4.504-7.61 1.188-9.132z"/>
        <path fill="#223265" d="M80.983 238.529l-5.532-.919c-1.44-.239-2.913.534-3.617 1.898l-27.352 53.056c-1.04 2.018.009 4.402 2.122 4.821l8.914 1.775c1.54.305 3.135-.561 3.806-2.071l23.974-53.911c.902-2.033-.227-4.302-2.315-4.649zM102.564 201.598l-8.027.073c-1.04.014-1.901.842-1.935 1.861-.032 1.017.781 1.836 1.816 1.825l8.027-.075c.041 0 .08-.003.119-.005.982-.068 1.784-.876 1.816-1.857.032-1.015-.781-1.831-1.816-1.822z"/>
        <path fill="url(#prefix__paint77_linear)" d="M99.795 194.323l-2.299 2.684s-8.557 3.952-3.178 7.955c5.378 4.003 5.865 0 6.649-1.464.781-1.464 2.593-1.61 2.593-1.61s.537-.146.489-2.539c-.441-2.246 3.277-8.833 3.277-8.833l-4.451-1.512-3.08 5.319z"/>
        <path fill="url(#prefix__paint78_linear)" d="M174.436 287.708l3.55 8.966s-.987 2.315 1.433 2.965c2.42.65 6.784-.919 7.547-1.672 1.593-1.567-5.593-2.064-5.593-2.064l-4.44-11.073-2.497 2.878z"/>
        <path fill="url(#prefix__paint79_linear)" d="M180.523 292.6c-7.154-70.118-11.797-96.754-14.149-106.787-1.238-5.284-1.841-5.964-1.841-5.964-4.255-2.732-17.427-11.467-21.57 12.355.099 16.346 12.638 53.263 23.565 78.748 4.224 9.857 7.259 18.145 9.08 23.17.489-.071 4.464-1.296 4.915-1.522z"/>
        <path fill="#223265" d="M181.651 295.73s9.103-.413 10.1 1.32c1.592 2.773-11.448 5.223-13.456 4-1.929-1.172-.64-3.858-.64-3.858s1.96 1.101 3.996-1.462z"/>
        <path fill="#E9E9EA" d="M182.462 295.969s-.68.928-.749 1.852c.135.572 1.874-2.424.749-1.852zM184.375 296.058s-.674.922-.733 1.845c.134.57 1.85-2.411.733-1.845zM186.141 296.038s-.569.8-.605 1.614c.13.504 1.572-2.093.605-1.614z"/>
        <path fill="url(#prefix__paint80_linear)" d="M153.903 126.517l-3.891 15.048s6.485 6.708 9.967 7.093c4.049.45 1.759-20.959 1.759-20.959l-7.835-1.182z"/>
        <path fill="url(#prefix__paint81_linear)" d="M120.352 282.757l-7.501 6.153s-2.523-.23-2.399 2.283c.121 2.511 2.97 6.195 3.925 6.694 1.992 1.038.256-5.978.256-5.978l9.247-7.651-3.528-1.501z"/>
        <path fill="url(#prefix__paint82_linear)" d="M160.527 209.526l-.032.004c-.788-6.778-2.232-10.895-2.232-10.895s3.594-13.581-4.823-17.607c-8.418-4.025-25.888-13.923-18.417 34.754 7.472 48.677-21.066 70.537-21.066 70.537s3.468 4.445 3.692 4.311c42.038-28.196 44.775-63.461 42.878-81.104z"/>
        <path fill="url(#prefix__paint83_linear)" d="M177.175 143.584c-1.583-3.686-14.774-8.19-14.824-6.956-.016.371-.279 2.303-3.832 3.179-4.965 1.225-7.236-3.318-7.236-3.318-4.851-.762-14.386 3.71-16.673 6.833-5.295 7.223-6.894 65.196-1.033 67.406 4.165 1.569 32.637 1.92 38.827-3.273 8.509-26.748 7.033-58.603 4.771-63.871z"/>
        <path fill="#223265" d="M115.071 292.083s2.923 8.614 1.529 10.051c-2.228 2.294-8.2-9.531-7.579-11.796.594-2.173 3.537-1.685 3.537-1.685s-.516 2.187 2.513 3.43z"/>
        <path fill="#E9E9EA" d="M115.069 292.927s-1.083-.395-1.992-.206c-.514.288 2.854 1.125 1.992.206zM115.512 294.785s-1.073-.387-1.978-.193c-.512.289 2.831 1.108 1.978.193zM116.022 296.475s-.928-.323-1.723-.134c-.45.264 2.45.926 1.723.134z"/>
        <path fill="url(#prefix__paint84_linear)" d="M168.038 127.484c.717 1.542.123 2.475 2.36 5.1.987 1.159.29 4.94 1.449 5.611 1.158.668 5.113-1.686 4.796-3.264-.318-1.578-7.892-9.828-8.18-9.823-.286.004-2.171-1.371-.425 2.376z"/>
        <path fill="url(#prefix__paint85_linear)" d="M175.925 133.122c1.376-.157 18.152 22.96 11.327 40.971-.949 2.499-3.531 3.745-5.717 2.629-5.671-2.894-10.677-16.313-10.753-41.581 1.568-1.629 3.13-1.788 5.143-2.019z"/>
        <path fill="#223265" d="M168.943 115.987l8.648 12.154c.089.126.096.294.014.427l-3.46 5.574c-.15.241-.502.244-.653.004l-7.463-11.713c-.066-.103-.08-.231-.036-.343l2.276-6.014c.107-.289.495-.34.674-.089z"/>
        <path fill="url(#prefix__paint86_linear)" d="M168.863 116.617l7.636 10.703c.062.087.064.203.007.294l-3.069 4.797c-.103.159-.338.162-.441.002l-6.514-9.971c-.046-.069-.055-.155-.027-.231l1.946-5.526c.069-.205.338-.242.462-.068z"/>
        <path fill="url(#prefix__paint87_linear)" d="M168.73 119.912c.267-.228 2.548-.232 3.873.003 1.325.235 2.57 1.268 3.222 2.301.873 1.384.262 3.455.15 3.574-.079.084-1.649-2.231-1.649-2.231s-.071-.171-2.006-.13c-1.936.044-4.538-2.705-3.59-3.517z"/>
        <path fill="url(#prefix__paint88_linear)" d="M136.223 141.748s-.916-.842-4.255 2.746c-2.726 2.928-23.029 21.573-33.005 50.269.978 3.318 5.28 3.416 5.868 3.416.587 0 10.94-16.544 25.412-27.183 1.357-1.613 6.711-27.638 5.98-29.248z"/>
        <path fill="url(#prefix__paint89_linear)" d="M164.386 138.427c-3 2.233-10.113 5.857-18.85-1.035-.368-4.099 6.16-4.831 6.455-4.539.292.292 7.407 4.051 11.513 1.61.505-.641 1.068-.102 1.524.653.668 1.101.393 2.543-.642 3.311z"/>
        <path fill="url(#prefix__paint90_linear)" d="M161.4 105.996c-.637.282-9.258 3.24-7.3 14.466.263 5.398 7.41 8.509 11.47 1.681 4.06-6.829 2.904-19.281-4.17-16.147z"/>
        <path fill="#223265" d="M162.927 120.371c-.142-.256-.375-.445-.656-.525-.197-.052-.409-.116-.535-.164-.311-.116-.658-.068-.939.112-1.821 1.168-4.732 2.151-5.698-2.568-.405-2.39-1.052-2.39-1.052-2.39s-5.979 11.307 1.92 17.137c4.851 3.578 13.59-1.501 10.403-11.559-1.453 2.233-2.715 1.28-3.443-.043zM156.661 107.763s4.73-9.442 15.026-4.18c.441.225.829.572 1.042 1.019.797 1.674-1.492 2.728-3.233 2.573 2.518.353 4.227 3.152.223 3.642.967.853.09 3.259-1.969 3.318.089-.175.146-3.318-1.913-4.433-1.233-.669-4.766-2.144-6.354-1.291-3.409 1.831-5.413 6.019-5.413 6.019s.686-4.295 2.591-6.667z"/>
        <path fill="url(#prefix__paint91_linear)" d="M155.75 112.213s-2.091-2.783-2.587.214c-.393 2.377 1.872 2.783 1.872 2.783l.715-2.997z"/>
    </g>
    <defs>
        <linearGradient id="prefix__paint0_linear" x1="248.475" x2="248.475" y1="19.058" y2="285.781" gradientUnits="userSpaceOnUse">
            <stop stop-color="#F9D2D9"/>
            <stop offset="1" stop-color="#EDB0B9"/>
        </linearGradient>
        <linearGradient id="prefix__paint1_linear" x1="182.628" x2="182.628" y1="37.122" y2="68.181" gradientUnits="userSpaceOnUse">
            <stop stop-color="#F9D2D9"/>
            <stop offset="1" stop-color="#EDB0B9"/>
        </linearGradient>
        <linearGradient id="prefix__paint2_linear" x1="55.366" x2="18.921" y1="189.921" y2="197.744" gradientUnits="userSpaceOnUse">
            <stop stop-color="#E2C8CE"/>
            <stop offset="1" stop-color="#DFACB6"/>
        </linearGradient>
        <linearGradient id="prefix__paint3_linear" x1="77.922" x2="21.654" y1="166.054" y2="224.539" gradientUnits="userSpaceOnUse">
            <stop stop-color="#A0C4E8"/>
            <stop offset="1" stop-color="#67A3D8"/>
        </linearGradient>
        <linearGradient id="prefix__paint4_linear" x1="3.503" x2="30.662" y1="207.812" y2="204.194" gradientUnits="userSpaceOnUse">
            <stop stop-color="#75ACDD"/>
            <stop offset="1" stop-color="#406EAD"/>
        </linearGradient>
        <linearGradient id="prefix__paint5_linear" x1="44.289" x2="20.595" y1="241.025" y2="241.025" gradientUnits="userSpaceOnUse">
            <stop stop-color="#67A9DC"/>
            <stop offset="1" stop-color="#3A6EAE"/>
        </linearGradient>
        <linearGradient id="prefix__paint6_linear" x1="44.882" x2="20.084" y1="230.682" y2="230.682" gradientUnits="userSpaceOnUse">
            <stop stop-color="#D7EDFA"/>
            <stop offset="1" stop-color="#A7CFEE"/>
        </linearGradient>
        <linearGradient id="prefix__paint7_linear" x1="46.561" x2="18.277" y1="228.363" y2="228.363" gradientUnits="userSpaceOnUse">
            <stop stop-color="#2F5B91"/>
            <stop offset="1" stop-color="#00264C"/>
        </linearGradient>
        <linearGradient id="prefix__paint8_linear" x1="252.323" x2="252.323" y1="236.979" y2="-44.788" gradientUnits="userSpaceOnUse">
            <stop stop-color="#ECF5FB"/>
            <stop offset="1" stop-color="#BBD8ED"/>
        </linearGradient>
        <linearGradient id="prefix__paint9_linear" x1="83.8" x2="121.074" y1="57.248" y2="143.543" gradientUnits="userSpaceOnUse">
            <stop stop-color="#F7BF83"/>
            <stop offset="1" stop-color="#F09021"/>
        </linearGradient>
        <linearGradient id="prefix__paint10_linear" x1="82.683" x2="120.419" y1="142.558" y2="227.472" gradientUnits="userSpaceOnUse">
            <stop stop-color="#F7BF83"/>
            <stop offset="1" stop-color="#F09021"/>
        </linearGradient>
        <linearGradient id="prefix__paint11_linear" x1="134.565" x2="172.302" y1="55.896" y2="140.81" gradientUnits="userSpaceOnUse">
            <stop stop-color="#F7BF83"/>
            <stop offset="1" stop-color="#F09021"/>
        </linearGradient>
        <linearGradient id="prefix__paint12_linear" x1="190.364" x2="217.639" y1="53.564" y2="114.937" gradientUnits="userSpaceOnUse">
            <stop stop-color="#F7BF83"/>
            <stop offset="1" stop-color="#F09021"/>
        </linearGradient>
        <linearGradient id="prefix__paint13_linear" x1="243.046" x2="265.19" y1="52.42" y2="102.247" gradientUnits="userSpaceOnUse">
            <stop stop-color="#F7BF83"/>
            <stop offset="1" stop-color="#F09021"/>
        </linearGradient>
        <linearGradient id="prefix__paint14_linear" x1="246.14" x2="262.115" y1="195.896" y2="231.842" gradientUnits="userSpaceOnUse">
            <stop stop-color="#F7BF83"/>
            <stop offset="1" stop-color="#F09021"/>
        </linearGradient>
        <linearGradient id="prefix__paint15_linear" x1="246.859" x2="261.4" y1="173.069" y2="205.788" gradientUnits="userSpaceOnUse">
            <stop stop-color="#F7BF83"/>
            <stop offset="1" stop-color="#F09021"/>
        </linearGradient>
        <linearGradient id="prefix__paint16_linear" x1="246.14" x2="262.115" y1="147.052" y2="182.998" gradientUnits="userSpaceOnUse">
            <stop stop-color="#F7BF83"/>
            <stop offset="1" stop-color="#F09021"/>
        </linearGradient>
        <linearGradient id="prefix__paint17_linear" x1="190.364" x2="217.639" y1="110.99" y2="172.363" gradientUnits="userSpaceOnUse">
            <stop stop-color="#F7BF83"/>
            <stop offset="1" stop-color="#F09021"/>
        </linearGradient>
        <linearGradient id="prefix__paint18_linear" x1="190.364" x2="217.639" y1="168.417" y2="229.79" gradientUnits="userSpaceOnUse">
            <stop stop-color="#F7BF83"/>
            <stop offset="1" stop-color="#F09021"/>
        </linearGradient>
        <linearGradient id="prefix__paint19_linear" x1="289.86" x2="317.135" y1="53.564" y2="114.937" gradientUnits="userSpaceOnUse">
            <stop stop-color="#F7BF83"/>
            <stop offset="1" stop-color="#F09021"/>
        </linearGradient>
        <linearGradient id="prefix__paint20_linear" x1="289.86" x2="317.135" y1="110.99" y2="172.363" gradientUnits="userSpaceOnUse">
            <stop stop-color="#F7BF83"/>
            <stop offset="1" stop-color="#F09021"/>
        </linearGradient>
        <linearGradient id="prefix__paint21_linear" x1="289.86" x2="317.135" y1="168.417" y2="229.79" gradientUnits="userSpaceOnUse">
            <stop stop-color="#F7BF83"/>
            <stop offset="1" stop-color="#F09021"/>
        </linearGradient>
        <linearGradient id="prefix__paint22_linear" x1="339.099" x2="366.373" y1="53.564" y2="114.937" gradientUnits="userSpaceOnUse">
            <stop stop-color="#F7BF83"/>
            <stop offset="1" stop-color="#F09021"/>
        </linearGradient>
        <linearGradient id="prefix__paint23_linear" x1="339.099" x2="366.373" y1="110.99" y2="172.363" gradientUnits="userSpaceOnUse">
            <stop stop-color="#F7BF83"/>
            <stop offset="1" stop-color="#F09021"/>
        </linearGradient>
        <linearGradient id="prefix__paint24_linear" x1="339.099" x2="366.374" y1="168.417" y2="229.79" gradientUnits="userSpaceOnUse">
            <stop stop-color="#F7BF83"/>
            <stop offset="1" stop-color="#F09021"/>
        </linearGradient>
        <linearGradient id="prefix__paint25_linear" x1="389.521" x2="416.796" y1="53.564" y2="114.937" gradientUnits="userSpaceOnUse">
            <stop stop-color="#F7BF83"/>
            <stop offset="1" stop-color="#F09021"/>
        </linearGradient>
        <linearGradient id="prefix__paint26_linear" x1="389.521" x2="416.796" y1="110.99" y2="172.363" gradientUnits="userSpaceOnUse">
            <stop stop-color="#F7BF83"/>
            <stop offset="1" stop-color="#F09021"/>
        </linearGradient>
        <linearGradient id="prefix__paint27_linear" x1="389.521" x2="416.796" y1="168.417" y2="229.79" gradientUnits="userSpaceOnUse">
            <stop stop-color="#F7BF83"/>
            <stop offset="1" stop-color="#F09021"/>
        </linearGradient>
        <linearGradient id="prefix__paint28_linear" x1="134.565" x2="172.302" y1="142.558" y2="227.472" gradientUnits="userSpaceOnUse">
            <stop stop-color="#F7BF83"/>
            <stop offset="1" stop-color="#F09021"/>
        </linearGradient>
        <linearGradient id="prefix__paint29_linear" x1="262.407" x2="242.945" y1="131.886" y2="102.64" gradientUnits="userSpaceOnUse">
            <stop stop-color="#A0C4E8"/>
            <stop offset="1" stop-color="#67A3D8"/>
        </linearGradient>
        <linearGradient id="prefix__paint30_linear" x1="265.721" x2="272.997" y1="138.926" y2="152.047" gradientUnits="userSpaceOnUse">
            <stop stop-color="#2F5B91"/>
            <stop offset="1" stop-color="#00264C"/>
        </linearGradient>
        <linearGradient id="prefix__paint31_linear" x1="243.87" x2="230.747" y1="141.268" y2="148.571" gradientUnits="userSpaceOnUse">
            <stop stop-color="#2F5B91"/>
            <stop offset="1" stop-color="#00264C"/>
        </linearGradient>
        <linearGradient id="prefix__paint32_linear" x1="254.193" x2="255.193" y1="102.06" y2="103.864" gradientUnits="userSpaceOnUse">
            <stop stop-color="#2F5B91"/>
            <stop offset="1" stop-color="#00264C"/>
        </linearGradient>
        <linearGradient id="prefix__paint33_linear" x1="235.701" x2="236.701" y1="75.883" y2="77.687" gradientUnits="userSpaceOnUse">
            <stop stop-color="#2F5B91"/>
            <stop offset="1" stop-color="#00264C"/>
        </linearGradient>
        <linearGradient id="prefix__paint34_linear" x1="235.701" x2="236.701" y1="213.554" y2="215.358" gradientUnits="userSpaceOnUse">
            <stop stop-color="#2F5B91"/>
            <stop offset="1" stop-color="#00264C"/>
        </linearGradient>
        <linearGradient id="prefix__paint35_linear" x1="235.701" x2="236.701" y1="189.827" y2="191.631" gradientUnits="userSpaceOnUse">
            <stop stop-color="#2F5B91"/>
            <stop offset="1" stop-color="#00264C"/>
        </linearGradient>
        <linearGradient id="prefix__paint36_linear" x1="235.701" x2="236.701" y1="164.852" y2="166.655" gradientUnits="userSpaceOnUse">
            <stop stop-color="#2F5B91"/>
            <stop offset="1" stop-color="#00264C"/>
        </linearGradient>
        <linearGradient id="prefix__paint37_linear" x1="414.845" x2="418.637" y1="285.795" y2="323.137" gradientUnits="userSpaceOnUse">
            <stop stop-color="#F9D2D9"/>
            <stop offset="1" stop-color="#EDB0B9"/>
        </linearGradient>
        <linearGradient id="prefix__paint38_linear" x1="409.045" x2="418.016" y1="291.459" y2="293.576" gradientUnits="userSpaceOnUse">
            <stop stop-color="#FBD4DA"/>
            <stop offset="1" stop-color="#EDB0BA"/>
        </linearGradient>
        <linearGradient id="prefix__paint39_linear" x1="440.24" x2="450.288" y1="292.079" y2="294.913" gradientUnits="userSpaceOnUse">
            <stop stop-color="#FBD4DA"/>
            <stop offset="1" stop-color="#EDB0BA"/>
        </linearGradient>
        <linearGradient id="prefix__paint40_linear" x1="460.062" x2="426.486" y1="232.084" y2="242.565" gradientUnits="userSpaceOnUse">
            <stop stop-color="#2F5B91"/>
            <stop offset="1" stop-color="#00264C"/>
        </linearGradient>
        <linearGradient id="prefix__paint41_linear" x1="439.598" x2="410.261" y1="238.523" y2="238.83" gradientUnits="userSpaceOnUse">
            <stop stop-color="#2F5B91"/>
            <stop offset="1" stop-color="#00264C"/>
        </linearGradient>
        <linearGradient id="prefix__paint42_linear" x1="448.41" x2="444.246" y1="295.279" y2="296.086" gradientUnits="userSpaceOnUse">
            <stop stop-color="#D7EDFA"/>
            <stop offset="1" stop-color="#A7CFEE"/>
        </linearGradient>
        <linearGradient id="prefix__paint43_linear" x1="416.515" x2="412.17" y1="294.945" y2="294.904" gradientUnits="userSpaceOnUse">
            <stop stop-color="#D7EDFA"/>
            <stop offset="1" stop-color="#A7CFEE"/>
        </linearGradient>
        <linearGradient id="prefix__paint44_linear" x1="383.461" x2="390.599" y1="297.029" y2="293.763" gradientUnits="userSpaceOnUse">
            <stop stop-color="#67A9DC"/>
            <stop offset="1" stop-color="#3A6EAE"/>
        </linearGradient>
        <linearGradient id="prefix__paint45_linear" x1="380.599" x2="408.52" y1="214.244" y2="205.022" gradientUnits="userSpaceOnUse">
            <stop stop-color="#67A9DC"/>
            <stop offset="1" stop-color="#3A6EAE"/>
        </linearGradient>
        <linearGradient id="prefix__paint46_linear" x1="379.929" x2="407.851" y1="213.282" y2="204.06" gradientUnits="userSpaceOnUse">
            <stop stop-color="#67A9DC"/>
            <stop offset="1" stop-color="#3A6EAE"/>
        </linearGradient>
        <linearGradient id="prefix__paint47_linear" x1="389.631" x2="397.988" y1="297.012" y2="293.188" gradientUnits="userSpaceOnUse">
            <stop stop-color="#67A9DC"/>
            <stop offset="1" stop-color="#3A6EAE"/>
        </linearGradient>
        <linearGradient id="prefix__paint48_linear" x1="400.277" x2="383.99" y1="260.967" y2="260.967" gradientUnits="userSpaceOnUse">
            <stop stop-color="#2F5B91"/>
            <stop offset="1" stop-color="#00264C"/>
        </linearGradient>
        <linearGradient id="prefix__paint49_linear" x1="400.775" x2="389.213" y1="183.418" y2="183.418" gradientUnits="userSpaceOnUse">
            <stop stop-color="#2F5B91"/>
            <stop offset="1" stop-color="#00264C"/>
        </linearGradient>
        <linearGradient id="prefix__paint50_linear" x1="442.285" x2="424.464" y1="138.906" y2="134.663" gradientUnits="userSpaceOnUse">
            <stop stop-color="#DDBCC2"/>
            <stop offset="1" stop-color="#D9A2AB"/>
        </linearGradient>
        <linearGradient id="prefix__paint51_linear" x1="448.063" x2="414.569" y1="172.114" y2="172.365" gradientUnits="userSpaceOnUse">
            <stop stop-color="#67A9DC"/>
            <stop offset="1" stop-color="#3A6EAE"/>
        </linearGradient>
        <linearGradient id="prefix__paint52_linear" x1="448.314" x2="420.162" y1="171.89" y2="170.423" gradientUnits="userSpaceOnUse">
            <stop stop-color="#2F5B91"/>
            <stop offset="1" stop-color="#00264C"/>
        </linearGradient>
        <linearGradient id="prefix__paint53_linear" x1="459.905" x2="444.327" y1="150.45" y2="205.808" gradientUnits="userSpaceOnUse">
            <stop stop-color="#2F5B91"/>
            <stop offset="1" stop-color="#00264C"/>
        </linearGradient>
        <linearGradient id="prefix__paint54_linear" x1="409.483" x2="433.491" y1="162.717" y2="174.005" gradientUnits="userSpaceOnUse">
            <stop stop-color="#FBD4DA"/>
            <stop offset="1" stop-color="#EDB0BA"/>
        </linearGradient>
        <linearGradient id="prefix__paint55_linear" x1="430.42" x2="429.248" y1="161.323" y2="142.006" gradientUnits="userSpaceOnUse">
            <stop stop-color="#67A9DC"/>
            <stop offset="1" stop-color="#3A6EAE"/>
        </linearGradient>
        <linearGradient id="prefix__paint56_linear" x1="423.663" x2="440.943" y1="120.126" y2="125.191" gradientUnits="userSpaceOnUse">
            <stop stop-color="#FBD4DA"/>
            <stop offset="1" stop-color="#EDB0BA"/>
        </linearGradient>
        <linearGradient id="prefix__paint57_linear" x1="289.809" x2="293.006" y1="269.677" y2="306.87" gradientUnits="userSpaceOnUse">
            <stop stop-color="#F9D2D9"/>
            <stop offset="1" stop-color="#EDB0B9"/>
        </linearGradient>
        <linearGradient id="prefix__paint58_linear" x1="312.161" x2="319.447" y1="186.766" y2="183.288" gradientUnits="userSpaceOnUse">
            <stop stop-color="#FBD4DA"/>
            <stop offset="1" stop-color="#EDB0BA"/>
        </linearGradient>
        <linearGradient id="prefix__paint59_linear" x1="289.686" x2="309.582" y1="152.296" y2="146.387" gradientUnits="userSpaceOnUse">
            <stop stop-color="#D7EDFA"/>
            <stop offset="1" stop-color="#A7CFEE"/>
        </linearGradient>
        <linearGradient id="prefix__paint60_linear" x1="292.749" x2="270.421" y1="108.161" y2="108.161" gradientUnits="userSpaceOnUse">
            <stop stop-color="#FBD4DA"/>
            <stop offset="1" stop-color="#EDB0BA"/>
        </linearGradient>
        <linearGradient id="prefix__paint61_linear" x1="270.342" x2="279.34" y1="275.223" y2="277.757" gradientUnits="userSpaceOnUse">
            <stop stop-color="#FBD4DA"/>
            <stop offset="1" stop-color="#EDB0BA"/>
        </linearGradient>
        <linearGradient id="prefix__paint62_linear" x1="300.81" x2="311.198" y1="274.706" y2="276.748" gradientUnits="userSpaceOnUse">
            <stop stop-color="#FBD4DA"/>
            <stop offset="1" stop-color="#EDB0BA"/>
        </linearGradient>
        <linearGradient id="prefix__paint63_linear" x1="281.84" x2="305.26" y1="222.586" y2="219.623" gradientUnits="userSpaceOnUse">
            <stop stop-color="#2F5B91"/>
            <stop offset="1" stop-color="#00264C"/>
        </linearGradient>
        <linearGradient id="prefix__paint64_linear" x1="265.153" x2="302.587" y1="219.06" y2="214.55" gradientUnits="userSpaceOnUse">
            <stop stop-color="#2F5B91"/>
            <stop offset="1" stop-color="#00264C"/>
        </linearGradient>
        <linearGradient id="prefix__paint65_linear" x1="261.128" x2="304.223" y1="131.301" y2="169.865" gradientUnits="userSpaceOnUse">
            <stop stop-color="#D7EDFA"/>
            <stop offset="1" stop-color="#A7CFEE"/>
        </linearGradient>
        <linearGradient id="prefix__paint66_linear" x1="276.785" x2="274.523" y1="100.843" y2="101.037" gradientUnits="userSpaceOnUse">
            <stop stop-color="#FBD4DA"/>
            <stop offset="1" stop-color="#EDB0BA"/>
        </linearGradient>
        <linearGradient id="prefix__paint67_linear" x1="272.261" x2="289.748" y1="118.168" y2="114.134" gradientUnits="userSpaceOnUse">
            <stop stop-color="#D7EDFA"/>
            <stop offset="1" stop-color="#A7CFEE"/>
        </linearGradient>
        <linearGradient id="prefix__paint68_linear" x1="260.451" x2="252.356" y1="130.768" y2="161.889" gradientUnits="userSpaceOnUse">
            <stop stop-color="#FBD4DA"/>
            <stop offset="1" stop-color="#EDB0BA"/>
        </linearGradient>
        <linearGradient id="prefix__paint69_linear" x1="249.265" x2="278.011" y1="133.223" y2="146.747" gradientUnits="userSpaceOnUse">
            <stop stop-color="#D7EDFA"/>
            <stop offset="1" stop-color="#A7CFEE"/>
        </linearGradient>
        <linearGradient id="prefix__paint70_linear" x1="120.533" x2="118.372" y1="288.077" y2="325.911" gradientUnits="userSpaceOnUse">
            <stop stop-color="#F9D2D9"/>
            <stop offset="1" stop-color="#EDB0B9"/>
        </linearGradient>
        <linearGradient id="prefix__paint71_linear" x1="106.392" x2="151.84" y1="141.548" y2="141.548" gradientUnits="userSpaceOnUse">
            <stop stop-color="#D7EDFA"/>
            <stop offset="1" stop-color="#A7CFEE"/>
        </linearGradient>
        <linearGradient id="prefix__paint72_linear" x1="118.276" x2="151.384" y1="127.339" y2="138.221" gradientUnits="userSpaceOnUse">
            <stop stop-color="#D7EDFA"/>
            <stop offset="1" stop-color="#A7CFEE"/>
        </linearGradient>
        <linearGradient id="prefix__paint73_linear" x1="42.534" x2="49.935" y1="295.484" y2="295.604" gradientUnits="userSpaceOnUse">
            <stop stop-color="#67A9DC"/>
            <stop offset="1" stop-color="#3A6EAE"/>
        </linearGradient>
        <linearGradient id="prefix__paint74_linear" x1="73.721" x2="101.219" y1="223.883" y2="227.377" gradientUnits="userSpaceOnUse">
            <stop stop-color="#67A9DC"/>
            <stop offset="1" stop-color="#3A6EAE"/>
        </linearGradient>
        <linearGradient id="prefix__paint75_linear" x1="73.543" x2="101.041" y1="222.794" y2="226.287" gradientUnits="userSpaceOnUse">
            <stop stop-color="#67A9DC"/>
            <stop offset="1" stop-color="#3A6EAE"/>
        </linearGradient>
        <linearGradient id="prefix__paint76_linear" x1="47.792" x2="56.456" y1="297.965" y2="298.106" gradientUnits="userSpaceOnUse">
            <stop stop-color="#67A9DC"/>
            <stop offset="1" stop-color="#3A6EAE"/>
        </linearGradient>
        <linearGradient id="prefix__paint77_linear" x1="92.543" x2="107.325" y1="197.848" y2="197.848" gradientUnits="userSpaceOnUse">
            <stop stop-color="#FBD4DA"/>
            <stop offset="1" stop-color="#EDB0BA"/>
        </linearGradient>
        <linearGradient id="prefix__paint78_linear" x1="174.435" x2="187.197" y1="292.312" y2="292.312" gradientUnits="userSpaceOnUse">
            <stop stop-color="#FBD4DA"/>
            <stop offset="1" stop-color="#EDB0BA"/>
        </linearGradient>
        <linearGradient id="prefix__paint79_linear" x1="180.523" x2="142.962" y1="235.071" y2="235.071" gradientUnits="userSpaceOnUse">
            <stop stop-color="#2F5B91"/>
            <stop offset="1" stop-color="#00264C"/>
        </linearGradient>
        <linearGradient id="prefix__paint80_linear" x1="150.012" x2="162.383" y1="137.591" y2="137.591" gradientUnits="userSpaceOnUse">
            <stop stop-color="#DDBCC2"/>
            <stop offset="1" stop-color="#D9A2AB"/>
        </linearGradient>
        <linearGradient id="prefix__paint81_linear" x1="110.448" x2="123.88" y1="290.375" y2="290.375" gradientUnits="userSpaceOnUse">
            <stop stop-color="#FBD4DA"/>
            <stop offset="1" stop-color="#EDB0BA"/>
        </linearGradient>
        <linearGradient id="prefix__paint82_linear" x1="160.956" x2="113.954" y1="234.017" y2="234.017" gradientUnits="userSpaceOnUse">
            <stop stop-color="#2F5B91"/>
            <stop offset="1" stop-color="#00264C"/>
        </linearGradient>
        <linearGradient id="prefix__paint83_linear" x1="178.928" x2="129.853" y1="174.075" y2="174.075" gradientUnits="userSpaceOnUse">
            <stop stop-color="#A0C4E8"/>
            <stop offset="1" stop-color="#67A3D8"/>
        </linearGradient>
        <linearGradient id="prefix__paint84_linear" x1="166.994" x2="176.822" y1="131.437" y2="131.933" gradientUnits="userSpaceOnUse">
            <stop stop-color="#FBD4DA"/>
            <stop offset="1" stop-color="#EDB0BA"/>
        </linearGradient>
        <linearGradient id="prefix__paint85_linear" x1="186.989" x2="170.672" y1="151.073" y2="159.444" gradientUnits="userSpaceOnUse">
            <stop stop-color="#A0C4E8"/>
            <stop offset="1" stop-color="#67A3D8"/>
        </linearGradient>
        <linearGradient id="prefix__paint86_linear" x1="166.337" x2="176.682" y1="124.287" y2="124.809" gradientUnits="userSpaceOnUse">
            <stop stop-color="#67A9DC"/>
            <stop offset="1" stop-color="#3A6EAE"/>
        </linearGradient>
        <linearGradient id="prefix__paint87_linear" x1="168.42" x2="176.351" y1="122.519" y2="122.919" gradientUnits="userSpaceOnUse">
            <stop stop-color="#FBD4DA"/>
            <stop offset="1" stop-color="#EDB0BA"/>
        </linearGradient>
        <linearGradient id="prefix__paint88_linear" x1="98.963" x2="136.29" y1="169.921" y2="169.921" gradientUnits="userSpaceOnUse">
            <stop stop-color="#A0C4E8"/>
            <stop offset="1" stop-color="#67A3D8"/>
        </linearGradient>
        <linearGradient id="prefix__paint89_linear" x1="145.521" x2="165.391" y1="137.096" y2="137.096" gradientUnits="userSpaceOnUse">
            <stop stop-color="#D7EDFA"/>
            <stop offset="1" stop-color="#A7CFEE"/>
        </linearGradient>
        <linearGradient id="prefix__paint90_linear" x1="153.812" x2="167.901" y1="115.778" y2="115.778" gradientUnits="userSpaceOnUse">
            <stop stop-color="#FBD4DA"/>
            <stop offset="1" stop-color="#EDB0BA"/>
        </linearGradient>
        <linearGradient id="prefix__paint91_linear" x1="155.749" x2="153.117" y1="113.122" y2="113.122" gradientUnits="userSpaceOnUse">
            <stop stop-color="#FBD4DA"/>
            <stop offset="1" stop-color="#EDB0BA"/>
        </linearGradient>
        <clipPath id="prefix__clip0">
            <path fill="#fff" d="M0 0h517v334H0V0z"/>
        </clipPath>
    </defs>
</svg>
