<?xml version="1.0" encoding="iso-8859-1"?>
<!-- Generator: Adobe Illustrator 19.0.0, SVG Export Plug-In . SVG Version: 6.00 Build 0)  -->
<svg version="1.1" id="Capa_1" xmlns="http://www.w3.org/2000/svg" xmlns:xlink="http://www.w3.org/1999/xlink" x="0px" y="0px"
	 viewBox="0 0 512 512" style="enable-background:new 0 0 512 512;" xml:space="preserve">
<g>
	<g>
		<path d="M110,110.5c-60.654,0-110,49.346-110,110c0,60.309,48.933,110,110,110h5v-220H110z"/>
	</g>
</g>
<g>
	<g>
		<path d="M437,35.5h-80c-8.284,0-15,6.716-15,15c0,33.084-26.916,60-60,60H145v220h137c33.084,0,60,26.916,60,60
			c0,8.284,6.716,15,15,15h80c8.284,0,15-6.716,15-15v-340C452,42.216,445.284,35.5,437,35.5z"/>
	</g>
</g>
<g>
	<g>
		<path d="M92.434,359.404c-3.182-0.401-6.327-0.91-9.434-1.518V461.5c0,8.284,6.716,15,15,15h64c8.284,0,15-6.716,15-15v-101
			C111.733,360.194,107.21,361.246,92.434,359.404z"/>
	</g>
</g>
<g>
	<g>
		<path d="M482,174.687v91.625c17.641-7.731,30-25.351,30-45.813C512,200.037,499.641,182.419,482,174.687z"/>
	</g>
</g>
<g>
</g>
<g>
</g>
<g>
</g>
<g>
</g>
<g>
</g>
<g>
</g>
<g>
</g>
<g>
</g>
<g>
</g>
<g>
</g>
<g>
</g>
<g>
</g>
<g>
</g>
<g>
</g>
<g>
</g>
</svg>
