<?xml version="1.0" encoding="iso-8859-1"?>
<!-- Generator: Adobe Illustrator 19.0.0, SVG Export Plug-In . SVG Version: 6.00 Build 0)  -->
<svg version="1.1" id="Layer_1" xmlns="http://www.w3.org/2000/svg" xmlns:xlink="http://www.w3.org/1999/xlink" x="0px" y="0px"
	 viewBox="0 0 503.68 503.68" style="enable-background:new 0 0 503.68 503.68;" xml:space="preserve">
<g transform="translate(-1 -1)">
	<g>
		<g>
			<path d="M261.268,93.364V9.43c0-4.642-3.752-8.393-8.394-8.393c-4.642,0-8.393,3.752-8.393,8.393v83.934
				c0,4.642,3.752,8.393,8.393,8.393C257.516,101.758,261.268,98.006,261.268,93.364z"/>
			<path d="M320.022,101.758c2.149,0,4.297-0.823,5.934-2.459l67.148-67.148c3.282-3.282,3.282-8.586,0-11.868
				c-3.282-3.282-8.587-3.282-11.868,0L314.088,87.43c-3.282,3.282-3.282,8.586,0,11.868
				C315.724,100.935,317.873,101.758,320.022,101.758z"/>
			<path d="M188.186,99.299c1.637,1.637,3.785,2.459,5.934,2.459c2.149,0,4.297-0.823,5.934-2.459c3.282-3.282,3.282-8.586,0-11.868
				l-67.148-67.148c-3.282-3.282-8.586-3.282-11.868,0c-3.282,3.282-3.282,8.586,0,11.868L188.186,99.299z"/>
			<path d="M239.366,260.225c-11.121-9.459-31.358-8.754-41.64,1.519c-4.356,4.356-8.335,10.03-11.86,16.367l-0.143-100.814
				c0-16.216-11.801-33.574-29.377-33.574c-6.908,0-12.926,2.678-17.685,6.925c-5.036-8.738-13.513-15.318-23.93-15.318
				c-13.077,0-23.199,9.871-27.489,21.479c-4.113-2.921-8.956-4.692-14.302-4.692c-15.755,0-27.245,14.277-29.503,28.756
				c-3.785-2.249-8.108-3.576-12.817-3.576c-17.408,0-29.553,17.702-29.553,33.574L1.026,375.795
				c-0.126,32.533-0.134,39.97,8.712,53.307h33.297c4.642,0,8.393,3.752,8.393,8.393c0,4.642-3.752,8.393-8.393,8.393h-25.18v25.558
				c0.067,9.073,0.227,33.196,29.226,33.196h104.448c17.123,0,25.801-11.298,25.801-33.565l0.042-25.189H152.15
				c-4.633,0-8.393-3.752-8.393-8.393c0-4.642,3.76-8.393,8.393-8.393h44.712c11.994-12.028,22.436-30.594,22.436-57.033
				c0-20.178,7.672-58.964,20.169-76.28C254.189,275.409,243.109,263.415,239.366,260.225z"/>
			<path d="M462.645,429.102h33.297c8.847-13.337,8.838-20.774,8.712-53.315l-0.042-164.914c0-15.88-12.137-33.574-29.553-33.574
				c-4.709,0-9.031,1.326-12.817,3.576c-2.249-14.479-13.748-28.756-29.503-28.756c-5.338,0-10.181,1.771-14.302,4.692
				c-4.281-11.608-14.403-21.479-27.489-21.479c-10.408,0-18.902,6.589-23.938,15.31c-4.751-4.239-10.769-6.916-17.677-6.916
				c-17.576,0-29.377,17.358-29.377,33.565l-0.134,100.83c-3.525-6.337-7.504-12.019-11.868-16.376
				c-10.265-10.274-30.493-10.995-41.64-1.519c-3.744,3.19-14.814,15.175-0.092,35.563c12.489,17.307,20.161,56.093,20.161,76.28
				c0,26.439,10.45,45.006,22.436,57.033h44.712c4.642,0,8.393,3.752,8.393,8.393c0,4.642-3.752,8.393-8.393,8.393h-25.214
				l0.034,25.18c0,8.301,0,33.574,25.801,33.574h104.456c29.033,0,29.159-23.863,29.218-33.574v-25.18h-25.18
				c-4.642,0-8.393-3.752-8.393-8.393C454.251,432.854,458.003,429.102,462.645,429.102z"/>
		</g>
	</g>
</g>
<g>
</g>
<g>
</g>
<g>
</g>
<g>
</g>
<g>
</g>
<g>
</g>
<g>
</g>
<g>
</g>
<g>
</g>
<g>
</g>
<g>
</g>
<g>
</g>
<g>
</g>
<g>
</g>
<g>
</g>
</svg>
