<svg xmlns="http://www.w3.org/2000/svg" width="269" height="257" fill="none" viewBox="0 0 269 257">
    <path stroke="#008BAA" stroke-miterlimit="10" stroke-width="3.949" d="M126.499 251.017c68.769 0 124.518-55.749 124.518-124.518 0-68.77-55.749-124.519-124.518-124.519C57.729 1.98 1.98 57.73 1.98 126.5S57.73 251.017 126.5 251.017z"/>
    <path stroke="#4A657D" stroke-miterlimit="10" d="M264.485 117.762l-155.442 53.709c-3.114 1.072-6.505-.58-7.578-3.685L67.488 69.46c-1.073-3.114.58-6.505 3.685-7.577l155.442-53.71c3.114-1.072 6.505.58 7.578 3.686l33.977 98.326c1.073 3.105-.571 6.496-3.685 7.577z"/>
    <path stroke="#4A657D" stroke-miterlimit="10" d="M239.774 28.35L73.154 85.923l7.424 21.487 166.62-57.574-7.424-21.486z"/>
    <path fill="#FFA000" stroke="#fff" stroke-linecap="round" stroke-linejoin="round" stroke-miterlimit="10" stroke-width="3" d="M214.194 166.263L50.862 185.519c-3.27.389-6.228-1.955-6.617-5.225L32.065 76.986c-.389-3.27 1.955-6.229 5.225-6.618l163.332-19.255c3.269-.39 6.228 1.955 6.617 5.225l12.179 103.317c.381 3.261-1.955 6.219-5.224 6.608z"/>
    <path stroke="#fff" stroke-miterlimit="10" stroke-width="3" d="M89.442 121.586l-30.423 3.589c-1.479.173-2.82-.882-2.993-2.361l-2.145-18.165c-.173-1.48.882-2.82 2.362-2.993l30.422-3.59c1.48-.173 2.82.882 2.993 2.361l2.145 18.166c.182 1.479-.873 2.82-2.361 2.993z"/>
    <path stroke="#fff" stroke-miterlimit="10" d="M58.613 101.379c2.162-.251 4.117 1.289 4.368 3.451.25 2.163-1.289 4.118-3.451 4.369l-5.087.596M59.279 109.311c2.05-.242 3.9 1.22 4.143 3.27.242 2.05-1.22 3.901-3.27 4.143l-4.818.571M61.372 124.769c2.163-.251 3.702-2.215 3.451-4.369-.25-2.162-2.214-3.702-4.368-3.451l-5.086.597M83.82 98.403c-2.163.251-3.703 2.215-3.452 4.369.25 2.162 2.214 3.702 4.368 3.451l5.086-.597M85.013 106.284c-2.05.242-3.512 2.093-3.27 4.143s2.094 3.512 4.144 3.27l4.818-.571M86.57 121.802c-2.163.251-4.118-1.289-4.368-3.452-.251-2.162 1.288-4.117 3.451-4.368l5.086-.597M86.771 133.132l-29.456 3.473.937 7.946 29.456-3.473-.937-7.946zM125.159 128.607l-29.456 3.473.937 7.946 29.456-3.473-.937-7.946zM163.548 124.082l-29.457 3.474.937 7.946 29.457-3.474-.937-7.946zM201.944 119.548l-29.457 3.473.937 7.946 29.457-3.473-.937-7.946zM176.003 160.087c5.7 0 10.32-4.62 10.32-10.319 0-5.7-4.62-10.32-10.32-10.32-5.699 0-10.319 4.62-10.319 10.32 0 5.699 4.62 10.319 10.319 10.319z"/>
    <path stroke="#fff" stroke-miterlimit="10" d="M181.929 141.723c3.529-4.472 10.017-5.242 14.489-1.713 4.472 3.53 5.242 10.017 1.712 14.489-3.529 4.472-10.016 5.242-14.489 1.713M93.04 209.497v7.292c0 6.323 14.809 11.452 33.07 11.452 18.26 0 33.069-5.129 33.069-11.452v-7.292"/>
    <path fill="#2D3F58" stroke="#fff" stroke-miterlimit="10" d="M126.101 220.949c18.264 0 33.069-5.127 33.069-11.452 0-6.326-14.805-11.453-33.069-11.453-18.264 0-33.07 5.127-33.07 11.453 0 6.325 14.806 11.452 33.07 11.452z"/>
    <path stroke="#fff" stroke-miterlimit="10" d="M123.947 193.719v7.292c0 6.323 14.809 11.453 33.069 11.453 18.261 0 33.07-5.13 33.07-11.453v-7.292"/>
    <path fill="#2D3F58" stroke="#fff" stroke-miterlimit="10" d="M157.016 205.172c18.264 0 33.07-5.128 33.07-11.453 0-6.325-14.806-11.453-33.07-11.453-18.263 0-33.069 5.128-33.069 11.453 0 6.325 14.806 11.453 33.069 11.453z"/>
    <path stroke="#fff" stroke-miterlimit="10" d="M149.612 237.609v7.293c0 6.323 14.809 11.452 33.069 11.452 18.261 0 33.07-5.129 33.07-11.452v-7.293"/>
    <path fill="#2D3F58" stroke="#fff" stroke-miterlimit="10" d="M182.681 249.062c18.264 0 33.07-5.127 33.07-11.453 0-6.325-14.806-11.452-33.07-11.452-18.263 0-33.069 5.127-33.069 11.452 0 6.326 14.806 11.453 33.069 11.453z"/>
</svg>
