<svg xmlns="http://www.w3.org/2000/svg" width="256" height="268" fill="none" viewBox="0 0 256 268">
    <path fill="#2D3F58" stroke="#4A657D" stroke-miterlimit="10" d="M252.669 147.532H18.966c-1.562 0-2.83-1.269-2.83-2.83V26.18c0-1.561 1.268-2.83 2.83-2.83H252.67c1.562 0 2.831 1.268 2.831 2.83v118.522c0 1.561-1.269 2.83-2.831 2.83z"/>
    <path fill="#fff" d="M119.323 54.769c-1.812 1.605-4.185 2.407-7.11 2.407h-1.588v7.43h-5.488V39.202h7.076c2.925 0 5.298.802 7.11 2.407 1.812 1.605 2.727 3.797 2.727 6.584 0 2.779-.906 4.97-2.727 6.576zm-8.698-10.683v8.206h1.588c1.415 0 2.494-.362 3.236-1.078.742-.717 1.113-1.726 1.113-3.03 0-1.294-.371-2.303-1.113-3.028-.742-.716-1.821-1.079-3.236-1.079h-1.588v.009zM125.95 39.202h5.48v25.404h-5.488V39.202h.008zM136.383 38.14l12.599 13.73V39.201h5.488v26.465l-12.599-13.729v12.668h-5.488V38.14z"/>
    <path stroke="#008BAA" stroke-miterlimit="10" stroke-width="3.949" d="M126.192 250.408c68.603 0 124.216-55.613 124.216-124.216S194.795 1.976 126.192 1.976 1.976 57.589 1.976 126.192s55.613 124.216 124.216 124.216z"/>
    <path stroke="#4A657D" stroke-miterlimit="10" d="M67.842 127.469h-25.49c-4.678 0-8.474-3.797-8.474-8.474v-25.49c0-4.677 3.796-8.474 8.473-8.474h25.49c4.678 0 8.475 3.797 8.475 8.474v25.49c0 4.686-3.797 8.474-8.474 8.474z"/>
    <path fill="#fff" d="M53.103 102.747l-1.311-7.603h6.618l-1.372 7.663 6.032-4.979 3.34 5.704-7.335 2.684 7.334 2.752-3.34 5.704-6.03-5.048 1.371 7.732h-6.618l1.311-7.663-5.962 4.979-3.34-5.704 7.335-2.752-7.335-2.684 3.34-5.704 5.962 4.919z"/>
    <path stroke="#4A657D" stroke-linecap="round" stroke-linejoin="round" stroke-miterlimit="10" d="M118.158 127.469h-25.49c-4.677 0-8.474-3.797-8.474-8.474v-25.49c0-4.677 3.797-8.474 8.474-8.474h25.49c4.677 0 8.474 3.797 8.474 8.474v25.49c0 4.686-3.788 8.474-8.474 8.474z"/>
    <path fill="#fff" d="M103.42 102.747l-1.312-7.603h6.619l-1.372 7.663 6.023-4.979 3.339 5.704-7.334 2.684 7.334 2.752-3.339 5.704-6.023-5.048 1.372 7.732h-6.619l1.312-7.663-5.963 4.979-3.34-5.704 7.335-2.752-7.334-2.684 3.339-5.704 5.963 4.919z"/>
    <path stroke="#4A657D" stroke-miterlimit="10" d="M168.475 127.469h-25.491c-4.677 0-8.473-3.797-8.473-8.474v-25.49c0-4.677 3.796-8.474 8.473-8.474h25.491c4.677 0 8.474 3.797 8.474 8.474v25.49c0 4.686-3.789 8.474-8.474 8.474z"/>
    <path fill="#fff" d="M153.736 102.747l-1.311-7.603h6.618l-1.372 7.663 6.032-4.979 3.339 5.704-7.334 2.684 7.334 2.752-3.339 5.704-6.032-5.048 1.372 7.732h-6.618l1.311-7.663-5.962 4.979-3.34-5.704 7.335-2.752-7.335-2.684 3.34-5.704 5.962 4.919z"/>
    <path stroke="#4A657D" stroke-miterlimit="10" d="M218.791 127.469h-25.49c-4.677 0-8.474-3.797-8.474-8.474v-25.49c0-4.677 3.797-8.474 8.474-8.474h25.49c4.677 0 8.474 3.797 8.474 8.474v25.49c0 4.686-3.788 8.474-8.474 8.474z"/>
    <path fill="#fff" d="M204.053 102.747l-1.312-7.603h6.619l-1.372 7.663 6.031-4.979 3.34 5.704-7.335 2.684 7.335 2.752-3.34 5.704-6.031-5.048 1.372 7.732h-6.619l1.312-7.663-5.963 4.979-3.339-5.704 7.334-2.752-7.334-2.684 3.339-5.704 5.963 4.919z"/>
    <path fill="#FFA000" stroke="#fff" stroke-linecap="round" stroke-linejoin="round" stroke-miterlimit="10" stroke-width="3" d="M175.965 265.682c6.429 0 11.641-5.212 11.641-11.641v-72.044c0-6.429-5.212-11.641-11.641-11.641s-11.641 5.212-11.641 11.641v-4.729c0-6.429-5.212-11.641-11.64-11.641-5.264 0-9.708 3.504-11.149 8.301-.32-6.359-5.557-11.416-11.995-11.416-5.531 0-10.174 3.736-11.58 8.819v-39.176c0-6.645-5.385-12.029-12.029-12.029-6.645 0-12.03 5.384-12.03 12.029v77.3l-10.44-16.292c-3.47-5.411-10.666-6.99-16.076-3.521-5.411 3.469-6.99 10.666-3.521 16.076l34.844 54.39c2.106 3.287 5.583 5.151 9.199 5.341l68.058.233z"/>
</svg>
