<?xml version="1.0" encoding="utf-8"?>
<!-- Generator: Adobe Illustrator 24.1.0, SVG Export Plug-In . SVG Version: 6.00 Build 0)  -->
<svg version="1.1" id="Layer_1" xmlns="http://www.w3.org/2000/svg" xmlns:xlink="http://www.w3.org/1999/xlink" x="0px" y="0px"
	 viewBox="0 0 268 259" style="enable-background:new 0 0 268 259;" xml:space="preserve">
<style type="text/css">
	.st0{fill:none;stroke:#4A657D;stroke-miterlimit:10;}
	.st1{fill:none;stroke:#2E4057;stroke-miterlimit:10;}
	.st2{fill:none;stroke:#FFFFFF;stroke-width:3;stroke-miterlimit:10;}
	.st3{fill:none;stroke:#008BAA;stroke-width:4;stroke-miterlimit:10;}
	.st4{fill:#FFA000;stroke:#FFFFFF;stroke-width:3;stroke-miterlimit:10;}
	.st5{fill:#FFA000;stroke:#FFFFFF;stroke-width:3;stroke-linecap:round;stroke-linejoin:round;stroke-miterlimit:10;}
	.st6{fill:none;stroke:#FFFFFF;stroke-linecap:round;stroke-linejoin:round;stroke-miterlimit:10;}
	.st7{fill:none;stroke:#FFFFFF;}
</style>
<path class="st0" d="M150.6,43.6H56c-1.6,0-2.8-1-2.8-2.3V2.8c0-1.3,1.3-2.3,2.8-2.3h94.6c1.6,0,2.8,1,2.8,2.3v38.5
	C153.4,42.6,152.1,43.6,150.6,43.6L150.6,43.6z"/>
<path class="st1" d="M56,42.1c-0.8,0-1.3-0.4-1.3-0.8V2.8C54.7,2.4,55.2,2,56,2h94.6c0.8,0,1.3,0.4,1.3,0.8v38.5
	c0,0.4-0.6,0.8-1.3,0.8h-2.4l0,0H56z"/>
<path class="st2" d="M151,229.6H56c-1.6,0-2.8-1.3-2.8-2.8V56.4c0-1.6,1.3-2.8,2.8-2.8h95c1.6,0,2.8,1.3,2.8,2.8v170.4
	C153.9,228.4,152.6,229.6,151,229.6L151,229.6z"/>
<path class="st0" d="M263.8,103.7h-94.6c-1.6,0-2.8-1.2-2.8-2.6V3.1c0-1.4,1.3-2.6,2.8-2.6h94.6c1.6,0,2.8,1.1,2.8,2.6v98.1
	C266.6,102.6,265.4,103.7,263.8,103.7z M264.3,229.9h-95c-1.6,0-2.8-1.3-2.8-2.8V118.7c0-1.6,1.3-2.8,2.8-2.8h95
	c1.6,0,2.8,1.3,2.8,2.8v108.3C267.1,228.6,265.9,229.9,264.3,229.9z"/>
<path class="st1" d="M169.3,228.4c-0.7,0-1.3-0.6-1.3-1.3V118.7c0-0.7,0.6-1.3,1.3-1.3h95c0.7,0,1.3,0.6,1.3,1.3v108.3
	c0,0.7-0.6,1.3-1.3,1.3H169.3z M169.2,102.2c-0.7,0-1.3-0.5-1.3-1.1V3.1c0-0.6,0.6-1.1,1.3-1.1h94.6c0.7,0,1.3,0.5,1.3,1.1v98.1
	c0,0.6-0.6,1.1-1.3,1.1H169.2z"/>
<path class="st3" d="M126.4,257c68.7,0,124.4-55.7,124.4-124.4S195.1,8.2,126.4,8.2S2,63.9,2,132.6S57.7,257,126.4,257z"/>
<path class="st4" d="M157.5,231.4l42.8,20.2c3.2,1.5,5.8,0.1,5.8-3.2V34.8c0-3.3-2.6-4.7-5.8-3.2l-42.8,20.2c-2,1-3.7,3.8-3.7,6.4
	V225C153.9,227.6,155.5,230.4,157.5,231.4z"/>
<path class="st5" d="M126.4,215H81.4c-4.5,0-8.1-3.6-8.1-8.1V83.7c0-4.5,3.6-8.1,8.1-8.1h45.1c4.5,0,8.1,3.6,8.1,8.1V207
	C134.5,211.4,130.9,215,126.4,215z"/>
<path class="st6" d="M93.9,75.6v138.2"/>
<path class="st7" d="M133.6,203.3c0,6-4.9,10.9-10.9,10.9c-6,0-10.9-4.9-10.9-10.9s4.9-10.9,10.9-10.9
	C128.7,192.5,133.6,197.3,133.6,203.3z"/>
<path class="st6" d="M109.6,214.8c-2.7-3.1-4.3-7.1-4.3-11.5c0-9.6,7.8-17.4,17.4-17.4c4.2,0,8.1,1.5,11.1,4 M139.3,183.3h-3.1
	c-0.9,0-1.6-0.7-1.6-1.6V80.9c0-0.9,0.7-1.6,1.6-1.6h3.1c0.9,0,1.6,0.7,1.6,1.6v100.8C140.9,182.6,140.2,183.3,139.3,183.3
	L139.3,183.3z M104.4,75.7v65.2 M113.9,76.5v102.1 M86.4,75.6V215 M114.3,65.7h-12v10h12V65.7z M114.3,60.6h-12v5h12V60.6z
	 M60.2,223l13-14 M59.8,209.1V223h13.8 M147.4,223l-13-13 M147.1,209.1V223h-13.8 M60.2,60.6l17,17 M59.8,74.1V60.2h13.8
	 M147.4,60.6l-16,16 M147.2,74.1V60.2h-13.8"/>
</svg>
