<svg xmlns="http://www.w3.org/2000/svg" width="270" height="253" fill="none" viewBox="0 0 270 253">
    <path stroke="#466078" stroke-miterlimit="10" d="M63.557 18.784V234.19"/>
    <path fill="#2E4057" stroke="#4A657D" stroke-miterlimit="10" d="M135.676 111.626H82.601c-1.566 0-2.837-1.271-2.837-2.837v-97.07c0-1.565 1.271-2.836 2.837-2.836h53.084c1.565 0 2.836 1.27 2.836 2.836v97.07c0 1.566-1.271 2.837-2.845 2.837z"/>
    <path stroke="#fff" stroke-linecap="round" stroke-linejoin="round" stroke-miterlimit="10" stroke-width="3" d="M135.676 222.671H82.601c-1.566 0-2.837-1.272-2.837-2.837v-97.07c0-1.566 1.271-2.837 2.837-2.837h53.084c1.565 0 2.836 1.271 2.836 2.837v97.07c0 1.565-1.271 2.837-2.845 2.837z"/>
    <path fill="#2E4057" stroke="#4A657D" stroke-miterlimit="10" d="M201.785 75.89h-53.084c-1.566 0-2.837-1.272-2.837-2.837v-60.85c0-1.566 1.271-2.837 2.837-2.837h53.084c1.565 0 2.836 1.271 2.836 2.836v60.85c0 1.566-1.271 2.837-2.836 2.837z"/>
    <path fill="#2D3F58" stroke="#4A657D" stroke-miterlimit="10" d="M201.785 149.358h-53.084c-1.566 0-2.837-1.271-2.837-2.837v-60.85c0-1.566 1.271-2.837 2.837-2.837h53.084c1.565 0 2.836 1.271 2.836 2.837v60.85c0 1.566-1.271 2.837-2.836 2.837zM201.785 222.826h-53.084c-1.566 0-2.837-1.271-2.837-2.836v-60.851c0-1.565 1.271-2.836 2.837-2.836h53.084c1.565 0 2.836 1.271 2.836 2.836v60.851c0 1.565-1.271 2.836-2.836 2.836zM266.501 75.89h-53.084c-1.566 0-2.837-1.272-2.837-2.837v-60.85c0-1.566 1.271-2.837 2.837-2.837h53.084c1.565 0 2.836 1.271 2.836 2.836v60.85c.009 1.566-1.262 2.837-2.836 2.837zM266.501 149.358h-53.084c-1.566 0-2.837-1.271-2.837-2.837v-60.85c0-1.566 1.271-2.837 2.837-2.837h53.084c1.565 0 2.836 1.271 2.836 2.837v60.85c.009 1.566-1.262 2.837-2.836 2.837zM266.501 222.826h-53.084c-1.566 0-2.837-1.271-2.837-2.836v-60.851c0-1.565 1.271-2.836 2.837-2.836h53.084c1.565 0 2.836 1.271 2.836 2.836v60.851c.009 1.565-1.262 2.836-2.836 2.836z"/>
    <path fill="#fff" d="M101.869 39.186l4.766-8.06h6.339l-7.948 13.44 8.337 14.13h-6.417l-5.111-8.682-5.146 8.683h-6.34l8.294-14.054-7.913-13.518h6.417l4.722 8.06zM116.035 31.116h5.951v22.279h7.835v5.301h-13.786v-27.58zM169.059 101.255h5.95v22.27h7.836v5.301h-13.786v-27.571zM169.059 29.24h5.95v22.27h7.836v5.3h-13.786V29.24zM169.059 176.03h5.95v22.269h7.836v5.302h-13.786V176.03z"/>
    <path fill="#FFA000" stroke="#fff" stroke-miterlimit="10" stroke-width="3" d="M135.693 224.115l-27.882 14.209c-1.566.796-2.828-.778-2.828-3.511v-92.841c0-2.742 1.262-5.604 2.828-6.4l27.882-14.209c1.566-.796 2.828.778 2.828 3.511v92.841c0 2.733-1.271 5.604-2.828 6.4z"/>
    <path stroke="#fff" stroke-miterlimit="10" stroke-width="3" d="M80.568 221.166l23.982-21.734"/>
    <path stroke="#008BAA" stroke-miterlimit="10" stroke-width="4" d="M126.5 250.994c68.756 0 124.494-55.738 124.494-124.494S195.256 2.006 126.5 2.006 2.006 57.744 2.006 126.5 57.744 250.994 126.5 250.994z"/>
</svg>
