<?xml version="1.0" encoding="utf-8"?>
<!-- Generator: Adobe Illustrator 22.1.0, SVG Export Plug-In . SVG Version: 6.00 Build 0)  -->
<svg version="1.1" id="Слой_1" xmlns="http://www.w3.org/2000/svg" xmlns:xlink="http://www.w3.org/1999/xlink" x="0px" y="0px"
	 viewBox="0 0 637 328.8" style="enable-background:new 0 0 637 328.8;" xml:space="preserve">
<style type="text/css">
	.st0{fill:#252324;}
</style>
<g id="zipper">
	<g>
		<rect x="30" y="152.3" class="st0" width="12.4" height="43.2"/>
		<rect x="58.8" y="152.3" class="st0" width="12.4" height="43.2"/>
		<rect x="87.6" y="152.3" class="st0" width="12.4" height="43.2"/>
		<rect x="116.4" y="152.3" class="st0" width="12.4" height="43.2"/>
		<rect x="145.3" y="152.3" class="st0" width="12.4" height="43.2"/>
		<rect x="174.1" y="152.3" class="st0" width="12.4" height="43.2"/>
		<rect x="202.9" y="152.3" class="st0" width="12.4" height="43.2"/>
		<rect x="231.7" y="152.3" class="st0" width="12.4" height="43.2"/>
		<rect x="260.5" y="152.3" class="st0" width="12.4" height="43.2"/>
		<rect x="289.4" y="152.3" class="st0" width="12.4" height="43.2"/>
		<rect x="375.7" y="152.3" class="st0" width="12.4" height="43.2"/>
		
			<rect x="392.6" y="176.3" transform="matrix(9.707133e-02 -0.9953 0.9953 9.707133e-02 192.3078 577.0339)" class="st0" width="43.2" height="12.4"/>
		
			<rect x="424.3" y="183.7" transform="matrix(0.283 -0.9591 0.9591 0.283 137.5941 563.8616)" class="st0" width="43.2" height="12.4"/>
		
			<rect x="456.6" y="196.7" transform="matrix(0.3312 -0.9436 0.9436 0.3312 128.3571 586.99)" class="st0" width="43.2" height="12.4"/>
		
			<rect x="490.4" y="211.9" transform="matrix(0.3775 -0.926 0.926 0.3775 116.7465 609.8908)" class="st0" width="43.2" height="12.4"/>
		
			<rect x="520.3" y="232" transform="matrix(0.5107 -0.8598 0.8598 0.5107 60.3678 582.4709)" class="st0" width="43.2" height="12.4"/>
		
			<rect x="545.1" y="256" transform="matrix(0.6634 -0.7483 0.7483 0.6634 -5.4778 512.3045)" class="st0" width="43.2" height="12.4"/>
		
			<rect x="567.5" y="283.7" transform="matrix(0.7946 -0.6071 0.6071 0.7946 -55.0087 417.2031)" class="st0" width="43.2" height="12.4"/>
		<rect x="44.2" y="134.6" class="st0" width="12.4" height="43.2"/>
		<rect x="73" y="134.6" class="st0" width="12.4" height="43.2"/>
		<rect x="101.9" y="134.6" class="st0" width="12.4" height="43.2"/>
		<rect x="130.7" y="134.6" class="st0" width="12.4" height="43.2"/>
		<rect x="159.5" y="134.6" class="st0" width="12.4" height="43.2"/>
		<rect x="188.3" y="134.6" class="st0" width="12.4" height="43.2"/>
		<rect x="217.2" y="134.6" class="st0" width="12.4" height="43.2"/>
		<rect x="246" y="134.6" class="st0" width="12.4" height="43.2"/>
		<rect x="274.8" y="134.6" class="st0" width="12.4" height="43.2"/>
		
			<rect x="390.1" y="127.4" transform="matrix(0.9876 -0.1567 0.1567 0.9876 -18.4531 63.9429)" class="st0" width="12.4" height="43.2"/>
		
			<rect x="421.1" y="119.8" transform="matrix(0.9685 -0.249 0.249 0.9685 -21.7567 110.8707)" class="st0" width="12.4" height="43.2"/>
		
			<rect x="456" y="107" transform="matrix(0.9426 -0.3339 0.3339 0.9426 -16.4303 161.7298)" class="st0" width="12.4" height="43.2"/>
		
			<rect x="488.7" y="92.9" transform="matrix(0.8464 -0.5326 0.5326 0.8464 15.0038 281.1522)" class="st0" width="12.4" height="43.2"/>
		
			<rect x="517.8" y="72.2" transform="matrix(0.7051 -0.7091 0.7091 0.7051 87.9899 399.2577)" class="st0" width="12.4" height="43.2"/>
		
			<rect x="542.2" y="45.7" transform="matrix(0.6101 -0.7923 0.7923 0.6101 160.4923 460.8014)" class="st0" width="12.4" height="43.2"/>
		
			<rect x="564.9" y="16.8" transform="matrix(0.4911 -0.8711 0.8711 0.4911 257.2042 517.0455)" class="st0" width="12.4" height="43.2"/>
		<g>
			<path class="st0" d="M356.2,172.5c-0.1-3.7-3.2-6.7-6.9-6.7h-0.1v7.1h1.2l2.6,31.9h-28.6l2.6-31.9h1.2v-7.1h-0.6
				c-3.7,0-6.8,3-6.9,6.7l-4,134c-0.1,3.7,2.8,6.7,6.5,6.7h30.8c3.7,0,6.6-3,6.5-6.7L356.2,172.5z M338.7,305.6
				c-8.2,0-14.8-6.6-14.8-14.8c0-8.2,6.6-14.8,14.8-14.8c8.2,0,14.8,6.6,14.8,14.8C353.5,298.9,346.9,305.6,338.7,305.6z"/>
			<rect x="330.8" y="145.7" class="st0" width="15.7" height="38.7"/>
			<g>
				<path class="st0" d="M372.7,155.3c0-17.8-14.5-32.3-32.3-32.3h-3.5c-17.8,0-32.3,14.5-32.3,32.3c0,3.3,0.5,6.5,1.4,9.5h0
					c0,0,0,0,0,0.1c0,0,0,0,0,0c3.2,8.4,3.2,20.7,3.2,32.4c0,0,0,0,0.1,0c0.4,6.5,3.5,12.2,8.1,16.1l1.4-43.6c0.1-3.8,3.6-7,7.7-7
					h1.7V143h21v19.9h1.2c4.1,0,7.5,3.1,7.7,7l1.5,43.9c4.8-3.9,8-9.8,8.4-16.4c0,0,0,0,0,0c0-0.3,0-0.6,0-0.9c0-0.2,0-0.3,0-0.5
					c0-0.2,0-0.3,0-0.5c0-10.9,0.2-22,3-29.9C372.1,162.3,372.7,158.9,372.7,155.3z"/>
			</g>
		</g>
	</g>
</g>
</svg>
