<?xml version="1.0" encoding="iso-8859-1"?>
<!-- Generator: Adobe Illustrator 19.0.0, SVG Export Plug-In . SVG Version: 6.00 Build 0)  -->
<svg version="1.1" id="Capa_1" xmlns="http://www.w3.org/2000/svg" xmlns:xlink="http://www.w3.org/1999/xlink" x="0px" y="0px"
	 viewBox="0 0 512 512" style="enable-background:new 0 0 512 512;" xml:space="preserve">
<g>
	<g>
		<path d="M144.463,353.35C136.538,338.95,121.421,330,105,330c-17.3,0-32.783,9.653-40.415,25.195
			c-3.792,7.711-4.893,16.084-4.014,24.582C74.114,386.157,89.066,390,105,390c15.989,0,30.987-3.875,44.564-10.296
			C150.5,370.496,148.93,361.474,144.463,353.35z"/>
	</g>
</g>
<g>
	<g>
		<path d="M105,270c-8.276,0-15,6.724-15,15s6.724,15,15,15s15-6.724,15-15S113.276,270,105,270z"/>
	</g>
</g>
<g>
	<g>
		<path d="M377,0c-74.443,0-135,60.557-135,135c0,18.459,4.05,35.848,10.886,51.801l-64.717,34.845
			C168.966,196.509,138.999,180,105,180C47.109,180,0,227.109,0,285c0,29.464,12.288,56.039,31.904,75.128
			c1.245-6.193,2.88-12.336,5.742-18.16c6.779-13.784,17.413-24.501,30.088-31.778C62.856,302.997,60,294.327,60,285
			c0-24.814,20.186-45,45-45c24.814,0,45,20.186,45,45c0,9.282-2.831,17.913-7.665,25.085c11.719,6.736,21.667,16.527,28.422,28.806
			c3.673,6.683,6.044,13.797,7.509,21.096c3.642-3.56,6.744-7.619,9.846-11.666L303.8,414.597c-2.251,7.121-3.8,14.55-3.8,22.403
			c0,41.353,33.647,75,75,75c41.353,0,75-33.647,75-75c0-41.353-33.647-75-75-75c-22.72,0-42.865,10.371-56.631,26.382
			l-115.582-66.217C207.237,310.574,210,298.147,210,285c0-13.141-2.708-25.602-7.139-37.207l65.018-35.013
			c2.95,4.087,5.733,8.309,9.097,12.052c3.869-12.889,9.73-25.181,18.404-35.881c10.203-12.594,22.947-22.375,37.163-29.024
			C322.986,149.297,317,135.39,317,120c0-33.091,26.909-60,60-60s60,26.909,60,60c0,15.515-6.068,29.535-15.764,40.195
			c15.738,7.35,29.782,18.256,40.314,32.534c7.262,9.847,11.935,20.874,15.341,32.267C498.478,201.057,512,169.698,512,135
			C512,60.557,451.443,0,377,0z"/>
	</g>
</g>
<g>
	<g>
		<path d="M377,90c-16.538,0-30,13.462-30,30c0,16.538,13.462,30,30,30c16.538,0,30-13.462,30-30C407,103.462,393.538,90,377,90z"/>
	</g>
</g>
<g>
	<g>
		<path d="M437.411,210.542C423.304,191.411,400.73,180,377,180c-22.734,0-43.975,10.137-58.301,27.832
			c-9.281,11.442-14.388,25.298-15.835,39.783C324.17,261.687,349.607,270,377,270c27.415,0,52.875-8.32,74.193-22.414
			C449.882,234.261,445.486,221.492,437.411,210.542z"/>
	</g>
</g>
<g>
</g>
<g>
</g>
<g>
</g>
<g>
</g>
<g>
</g>
<g>
</g>
<g>
</g>
<g>
</g>
<g>
</g>
<g>
</g>
<g>
</g>
<g>
</g>
<g>
</g>
<g>
</g>
<g>
</g>
</svg>
