<?xml version="1.0" encoding="utf-8"?>
<!-- Generator: Adobe Illustrator 21.0.0, SVG Export Plug-In . SVG Version: 6.00 Build 0)  -->
<svg version="1.1" id="Слой_1" xmlns="http://www.w3.org/2000/svg" xmlns:xlink="http://www.w3.org/1999/xlink" x="0px" y="0px"
	 viewBox="0 0 2267.7 951.1" style="enable-background:new 0 0 2267.7 951.1;" xml:space="preserve">
<style type="text/css">
	.st0{fill:#fff;}
	<!-- .st0{fill:#020203;} -->
</style>
<g>
	<path d="M7.1,916.1v-157h32.7v157H7.1z"/>
	<path d="M147.7,918.7c-17.5,0-31.9-5.6-43.2-16.7c-11.3-11.1-17-25.5-17-43.3c0-16.8,5.4-31,16.1-42.6
		c10.8-11.6,24.4-17.4,40.9-17.4c18.2,0,32.1,6,41.7,18.1c9.6,12,14.4,26.9,14.4,44.5c0,1.7-0.1,4.6-0.4,8.6H120
		c1.6,7.3,4.8,12.9,9.7,16.8c4.9,3.9,11,5.8,18.5,5.8c10.2,0,19.5-3.9,27.9-11.8l18.7,16.6C183.2,911.5,167.5,918.7,147.7,918.7z
		 M119.6,849.4h49.2c-1-7.5-3.6-13.4-7.8-17.8c-4.2-4.4-9.7-6.7-16.4-6.7c-6.6,0-12.1,2.2-16.4,6.6
		C123.7,835.9,120.9,841.8,119.6,849.4z"/>
	<path d="M280.2,918.2c-11.3,0-20.7-3.2-28.3-9.5c-7.5-6.3-11.3-15.1-11.3-26.2c0-12.2,4.2-21.4,12.6-27.5
		c8.4-6.2,19.7-9.2,33.9-9.2c9.6,0,19,1.6,28.2,4.7v-1.9c0-14-8.2-21.1-24.7-21.1c-9.9,0-20.5,2.1-31.8,6.2l-8.2-24.9
		c14-6.2,29-9.2,44.7-9.2c17.3,0,30.3,4.3,38.9,12.9c8.3,8.3,12.5,20.6,12.5,36.8v66.9H315v-12.5
		C306.3,913.4,294.6,918.2,280.2,918.2z M290.1,895.7c7.6,0,13.8-1.9,18.5-5.7c4.7-3.8,7.1-8.6,7.1-14.5v-5.8
		c-6.2-2.9-13.1-4.3-20.9-4.3c-7.2,0-12.7,1.4-16.7,4.2c-3.9,2.8-5.9,6.8-5.9,12.1c0,4.3,1.6,7.7,4.9,10.2
		C280.5,894.4,284.8,895.7,290.1,895.7z"/>
	<path d="M397.3,916.1V800.8H430v23.2c7.5-17.6,19.7-26.1,36.8-25.4v34.2h-1.7c-11.2,0-19.8,3.4-25.9,10.2c-6.1,6.8-9.1,17-9.1,30.4
		v42.6H397.3z"/>
	<path d="M509.8,916.1V800.8h32.7v16.3c9.6-12.3,20.9-18.5,33.8-18.5c12.3,0,21.9,3.8,28.8,11.4c6.9,7.6,10.3,18.1,10.3,31.4v74.6
		h-32.7v-64.3c0-7.6-1.7-13.4-5.2-17.4c-3.4-4-8.3-6-14.6-6c-6.3,0-11.3,2-14.9,6c-3.7,4-5.5,9.8-5.5,17.4v64.3H509.8z"/>
	<path d="M667,788.2v-29h34.4v29H667z M667.8,916.1V800.8h32.7v115.2H667.8z"/>
	<path d="M753.8,916.1V800.8h32.7v16.3c9.6-12.3,20.9-18.5,33.8-18.5c12.3,0,21.9,3.8,28.8,11.4c6.9,7.6,10.3,18.1,10.3,31.4v74.6
		h-32.7v-64.3c0-7.6-1.7-13.4-5.2-17.4c-3.4-4-8.3-6-14.6-6c-6.3,0-11.3,2-14.9,6c-3.7,4-5.5,9.8-5.5,17.4v64.3H753.8z"/>
	<path d="M961.9,950.9c-18.8,0-35.8-4-51-12l11.2-24.5c12.5,7,25.4,10.5,38.9,10.5c21.9,0,32.9-10.5,32.9-31.4v-5.6
		c-5.2,6.3-10.6,11-16.4,14.1c-5.8,3.1-12.9,4.6-21.2,4.6c-14.2,0-26.3-4.9-36.2-14.6c-10-9.7-14.9-22.9-14.9-39.6
		c0-16.5,5-29.6,15-39.2c10-9.7,22.1-14.5,36.1-14.5c14.3,0,26.7,5.7,37.2,17.2v-15h32.7v89.2c0,20.5-4.9,35.6-14.6,45.4
		C1001.3,945.8,984.7,950.9,961.9,950.9z M945.8,872.1c5.3,4.9,12,7.4,20,7.4c8,0,14.7-2.5,20.1-7.5c5.4-5,8.1-11.5,8.1-19.6
		c0-7.7-2.7-14.1-8.1-19.1c-5.4-5-12.1-7.5-20.1-7.5c-8,0-14.7,2.5-20,7.5c-5.3,5-8,11.5-8,19.6
		C937.8,860.8,940.5,867.2,945.8,872.1z"/>
	<path d="M1233.7,918.2c-14.3,0-26.3-5.7-35.9-17.2v15h-32.7v-157h32.7v58.3c9.2-12.5,21.1-18.7,35.9-18.7c14.3,0,26.7,5.4,37,16.1
		c10.3,10.8,15.5,25.4,15.5,43.9c0,18.3-5.1,32.9-15.4,43.5C1260.5,912.9,1248.2,918.2,1233.7,918.2z M1205.4,881.6
		c5.4,6,12,8.9,19.9,8.9c7.9,0,14.5-3,20-8.9c5.4-5.9,8.2-13.7,8.2-23.3c0-9.3-2.7-16.9-8.2-22.9c-5.4-5.9-12.1-8.9-20-8.9
		c-7.9,0-14.5,3-19.9,8.9c-5.4,5.9-8.1,13.7-8.1,23.3C1197.3,868,1200,875.6,1205.4,881.6z"/>
	<path d="M1360.3,951.1c-10.3,0-20-2.7-29-8l11-23.6c5,3,9.7,4.5,14,4.5c5.2,0,9-2.5,11.4-7.5l-45.2-115.7h34.6l26.2,78.5l25.2-78.5
		h34l-44.3,118c-4.4,11.9-9.5,20.2-15.1,25C1377.5,948.7,1369.9,951.1,1360.3,951.1z"/>
	<path d="M1618.7,918.2c-14.3,0-26.7-5.4-37-16.1c-10.3-10.8-15.5-25.4-15.5-43.9c0-18.3,5.1-32.9,15.4-43.5
		c10.2-10.7,22.6-16,37.1-16c14.3,0,26.3,5.7,35.9,17.2v-56.8h32.7v157h-32.7v-16.6C1645.5,912,1633.5,918.2,1618.7,918.2z
		 M1607.1,881.6c5.4,6,12.1,8.9,20,8.9c7.9,0,14.5-3,19.9-8.9c5.4-5.9,8.1-13.7,8.1-23.3c0-9.3-2.7-16.9-8.1-22.9
		c-5.4-5.9-12-8.9-19.9-8.9c-7.9,0-14.5,3-20,8.9c-5.4,5.9-8.2,13.7-8.2,23.3C1599,868,1601.7,875.6,1607.1,881.6z"/>
	<path d="M1840.3,901.2c-12,11.6-26.8,17.4-44.6,17.4c-17.8,0-32.6-5.8-44.4-17.3c-11.8-11.5-17.7-25.8-17.7-42.7
		c0-16.8,6-31,18-42.6c12-11.6,26.8-17.4,44.6-17.4c17.8,0,32.6,5.8,44.4,17.3c11.8,11.5,17.7,25.8,17.7,42.7
		C1858.2,875.5,1852.3,889.6,1840.3,901.2z M1796.1,890.5c9,0,16.3-3,21.7-9.1c5.4-6.1,8.2-13.7,8.2-22.7c0-8.7-2.8-16.2-8.5-22.5
		c-5.7-6.2-12.9-9.4-21.8-9.4c-9,0-16.3,3-21.7,9.1c-5.4,6.1-8.2,13.7-8.2,22.7c0,8.7,2.8,16.2,8.5,22.5
		C1779.9,887.4,1787.2,890.5,1796.1,890.5z"/>
	<path d="M1905.1,788.2v-29h34.4v29H1905.1z M1906,916.1V800.8h32.7v115.2H1906z"/>
	<path d="M1992,916.1V800.8h32.7v16.3c9.6-12.3,20.9-18.5,33.8-18.5c12.3,0,21.9,3.8,28.8,11.4c6.9,7.6,10.3,18.1,10.3,31.4v74.6
		h-32.7v-64.3c0-7.6-1.7-13.4-5.2-17.4c-3.4-4-8.3-6-14.6-6c-6.3,0-11.3,2-14.9,6c-3.7,4-5.5,9.8-5.5,17.4v64.3H1992z"/>
	<path d="M2200.1,950.9c-18.8,0-35.8-4-51-12l11.2-24.5c12.5,7,25.4,10.5,38.9,10.5c21.9,0,32.9-10.5,32.9-31.4v-5.6
		c-5.2,6.3-10.6,11-16.4,14.1c-5.8,3.1-12.9,4.6-21.2,4.6c-14.2,0-26.3-4.9-36.2-14.6c-10-9.7-14.9-22.9-14.9-39.6
		c0-16.5,5-29.6,15-39.2c10-9.7,22.1-14.5,36.1-14.5c14.3,0,26.7,5.7,37.2,17.2v-15h32.7v89.2c0,20.5-4.9,35.6-14.6,45.4
		C2239.4,945.8,2222.9,950.9,2200.1,950.9z M2184,872.1c5.3,4.9,12,7.4,20,7.4c8,0,14.7-2.5,20.1-7.5c5.4-5,8.1-11.5,8.1-19.6
		c0-7.7-2.7-14.1-8.1-19.1c-5.4-5-12.1-7.5-20.1-7.5c-8,0-14.7,2.5-20,7.5c-5.3,5-8,11.5-8,19.6C2176,860.8,2178.7,867.2,2184,872.1
		z"/>
</g>
<g>
	<path class="st0" d="M570.1,216.5c0-51.8-0.1-103.6,0-155.4h0.1v-30c0-6.1,0.1-12.3,0.1-18.4c0-1.2,0-2.3-0.1-3.3V0H451v13.4
		c0,0.6,0,1.3,0,2c0,2.3,0,4.6,0,6.9v38.9h0.2c0.4,110.6,0.2,221.1,0.1,331.7c0,11,0.1,22.2-1.9,32.9
		c-20.1,105-139.6,162.7-238.8,114.3c-62.3-30.4-92.9-80.4-92.7-148.2c0.4-110.3,0.1-220.5,0.3-330.8h0V37.2c0-8.1,0-16.2,0-24.3
		c0-0.8,0-1.5,0-2.2V0H0v61.1h0.1c0.2,116.9,0,233.9,0.4,350.8c0.1,30.7,7.1,60.6,19.5,88.9c51.1,117.2,184,185.2,314.1,164.4
		C456.5,645.7,575.3,536.2,570.4,393C568.4,334.2,570.1,275.3,570.1,216.5z"/>
	<path class="st0" d="M2267.7,356.8h-263.5c-11.9,0-23.9-0.1-35.8-0.1c-0.8,0-1.6,0-2.3,0.1h-9.2v108.6h10.4
		c1.5,0.2,3.3,0.3,5.3,0.2c8.3-0.1,16.7-0.2,25-0.2h129c-13.1,20.5-26.3,37.5-42.9,51.7c-44.4,38-96.4,47.2-152.7,41.6
		c-142.8-14.2-237.5-159-192.6-295.2c49.7-150.9,244.9-206,367.7-103.3c4,3.4,9.3,7.1,9.3,7.1s5.8-4.8,9.2-8.3
		c19.2-19.4,38.5-38.7,58.9-56.8c4.3-3.8,10.5-10.6,10.5-10.6s-6.3-5.7-11.3-9.9c-84.5-71.6-182-93.4-289.7-76
		c-150.6,24.4-314.5,179.8-268.3,400.4c35.1,167.4,218.9,311.9,435.1,246.6c112.8-34.1,198.5-148.5,207.8-282.3
		C2267.8,366.8,2267.7,356.8,2267.7,356.8z"/>
	<polygon class="st0" points="1257.1,0.3 1145.1,0.3 1145.1,669 1257.1,669 1257.1,669 1533.7,669 1533.7,550.4 1263.7,550.4 
		1263.7,395.8 1489.8,395.8 1489.8,277.2 1263.7,277.2 1263.7,118.9 1533.7,118.9 1533.7,0.3 1263.7,0.3 	"/>
	<polygon class="st0" points="780.6,0.3 668.5,0.3 668.5,669 780.6,669 780.6,669 787.2,669 787.2,550.4 787.2,395.8 1013.2,395.8 
		1013.2,277.2 787.2,277.2 787.2,118.9 1057.1,118.9 1057.1,0.3 787.2,0.3 	"/>
</g>
</svg>
