<svg xmlns="http://www.w3.org/2000/svg" width="236" height="201" fill="none" viewBox="0 0 236 201">
    <path fill="#fff" d="M68.126 78.999c.318.176.66.259 1.001.259.726 0 1.43-.382 1.807-1.061 7.322-13.17 19.83-22.986 34.315-26.934 1.1-.3 1.749-1.434 1.449-2.533-.3-1.1-1.443-1.75-2.535-1.447-15.554 4.238-28.98 14.774-36.84 28.91-.553.996-.193 2.251.803 2.806zM145.506 55.361c10.526 5.351 19.275 14.09 24.638 24.602.365.716 1.089 1.126 1.841 1.126.316 0 .636-.073.936-.225 1.016-.518 1.42-1.76.903-2.775-5.755-11.283-15.146-20.66-26.443-26.406-1.016-.518-2.259-.114-2.777.902-.519 1.016-.115 2.258.902 2.776z"/>
    <path fill="#fff" d="M233.455 44.461c-.59-.333-2.168-.95-4.087.462l-65.675 48.333c-.771.568-1.132 1.534-.922 2.467.714 3.16 1.075 6.416 1.075 9.68 0 7.449-1.922 14.771-5.502 21.225v-13.185c0-6.259-4.484-11.566-10.662-12.615l-7.106-1.207V52.78c0-3.533-2.529-6.526-6.015-7.118l-15.131-2.57c-.406-.069-.817-.104-1.224-.104-3.979 0-7.217 3.241-7.217 7.223v44.386l-6.505-1.105c-3.7-.622-7.545.423-10.409 2.84-1.016.857-1.144 2.374-.285 3.39.857 1.015 2.377 1.144 3.394.287 1.79-1.51 4.186-2.161 6.494-1.77l43.196 7.337c3.854.654 6.651 3.963 6.651 7.869v21.03c0 1.015.629 1.881 1.517 2.234.004.001.01.003.014.006.067.026.134.049.203.069l.048.012c.058.016.116.03.175.042l.086.013c.048.007.094.014.142.018.048.005.095.006.145.008.027.001.053.004.079.004h.009c.698-.001 1.391-.305 1.865-.889 7-8.612 10.854-19.474 10.854-30.588 0-3.089-.293-6.172-.869-9.189l63.232-46.532c.155 1.316.177 3.286.021 5.068l-.948 10.05c-.617 6.558-4.116 12.42-9.597 16.081l-31.077 20.76c-1.043.698-1.376 2.076-.765 3.171.611 1.095 1.959 1.54 3.102 1.019l35.121-15.964-.703 2.112c-1.538 4.632-5.039 8.281-9.605 10.012l-26.792 10.157c-1.152.437-1.788 1.669-1.476 2.859.311 1.191 1.47 1.961 2.69 1.77l29.597-4.462-.61 1.027c-1.947 3.283-5.232 5.486-9.007 6.049l-22.962 3.421c-1.204.178-2.084 1.229-2.053 2.445.034 1.217.97 2.217 2.182 2.332l22.156 2.088-.705.788c-2.331 2.604-5.674 3.998-9.164 3.841l-16.492-.77c-1.155-.036-2.205.737-2.462 1.875-.258 1.139.341 2.297 1.418 2.749l13.809 5.779-.896.66c-2.539 1.869-5.75 2.487-8.804 1.704l-8.753-2.255c-1.097-.285-2.243.237-2.753 1.248-.51 1.011-.245 2.24.635 2.953l6.823 5.52-1.03.488c-2.59 1.229-5.562 1.229-8.155-.004l-2.553-1.215c-1.198-.567-2.638-.061-3.21 1.139-.572 1.2-.062 2.636 1.14 3.208l2.553 1.215c1.954.929 4.053 1.393 6.153 1.393 2.093 0 4.188-.461 6.138-1.386l4.486-2.128c.747-.355 1.26-1.068 1.358-1.889.099-.821-.233-1.634-.875-2.155l-1.387-1.124c3.913.535 7.872-.464 11.094-2.838l4.313-3.177c.698-.513 1.065-1.364.962-2.222-.103-.861-.661-1.598-1.462-1.934l-5.163-2.161 2.889.134c4.949.228 9.677-1.754 12.978-5.441l3.887-4.341c.605-.677.779-1.637.447-2.484-.331-.845-1.111-1.433-2.016-1.517l-7.189-.678 3.371-.503c5.216-.774 9.75-3.821 12.441-8.353l3.2-5.392c.475-.799.446-1.801-.074-2.572-.521-.772-1.441-1.17-2.357-1.035l-12.325 1.858 5.712-2.165c5.926-2.247 10.471-6.984 12.469-12.994l2.44-7.343c.301-.91.036-1.91-.677-2.55-.711-.638-1.737-.794-2.608-.399l-13.195 5.999 6.469-4.321c6.692-4.471 10.961-11.626 11.716-19.632l.949-10.065c.526-5.932-.278-9.542-2.389-10.726zm-114.833 3.377l15.133 2.571c1.162.197 2.005 1.196 2.005 2.371v.421l-19.916-3.381c.206-1.274 1.397-2.225 2.778-1.982zm-2.813 6.86l19.951 3.387v40.72l-19.951-3.39V54.699z"/>
    <path fill="#fff" d="M141.644 122.565v36.685c0 .889.491 1.707 1.276 2.125.355.188.745.282 1.132.282.47 0 .94-.139 1.346-.411l11.856-7.977c.009-.006.016-.012.025-.016l.013-.009c.007-.004.011-.01.019-.014.04-.028.081-.056.121-.087 14.8-11.578 23.288-28.977 23.288-47.737 0-1.33-1.079-2.407-2.409-2.407-1.33 0-2.41 1.077-2.41 2.407 0 17.246-7.793 33.243-21.385 43.903l-8.055 5.419v-32.163c0-6.26-4.484-11.567-10.662-12.616l-46.13-7.834c-.566-.097-1.147-.146-1.728-.146-5.675 0-10.292 4.613-10.292 10.283v14.369c-3.577-6.453-5.498-13.772-5.498-21.216 0-3.267.362-6.524 1.075-9.68.212-.933-.15-1.903-.921-2.469L6.63 44.923c-1.918-1.413-3.498-.794-4.086-.462C.435 45.645-.37 49.255.156 55.201l.948 10.052c.753 8.008 5.024 15.163 11.716 19.632l6.468 4.321-13.195-5.998c-.87-.395-1.896-.238-2.608.4-.712.64-.978 1.64-.676 2.548l2.44 7.343c1.996 6.012 6.542 10.748 12.47 12.993l5.71 2.167-12.325-1.859c-.917-.128-1.837.265-2.357 1.035-.52.772-.549 1.773-.074 2.573l3.2 5.391c2.69 4.532 7.224 7.579 12.44 8.354l3.373.502-7.19.679c-.903.084-1.684.673-2.016 1.517-.332.847-.158 1.806.448 2.484l3.887 4.341c3.3 3.687 8.037 5.668 12.978 5.441l2.889-.135-5.164 2.161c-.8.336-1.357 1.073-1.462 1.934-.102.86.266 1.71.962 2.222l4.315 3.177c3.222 2.376 7.181 3.376 11.095 2.839l-1.388 1.123c-.644.521-.974 1.335-.876 2.156.099.822.612 1.534 1.36 1.888l4.483 2.128c1.952.925 4.045 1.388 6.139 1.388 2.099 0 4.198-.466 6.153-1.395l2.552-1.214c1.201-.571 1.713-2.008 1.14-3.208-.572-1.2-2.01-1.705-3.21-1.139l-2.553 1.214c-2.591 1.234-5.563 1.235-8.155.005l-1.03-.488 6.824-5.521c.88-.714 1.144-1.942.635-2.953-.51-1.01-1.658-1.533-2.753-1.248l-8.754 2.256c-3.056.783-6.265.165-8.804-1.704l-.897-.66 13.809-5.78c1.078-.452 1.676-1.61 1.418-2.749-.257-1.137-1.311-1.913-2.462-1.874l-16.492.77c-3.486.158-6.833-1.238-9.164-3.842l-.705-.787 22.156-2.089c1.212-.114 2.148-1.114 2.182-2.332.033-1.216-.848-2.265-2.053-2.445l-22.962-3.42c-3.775-.563-7.058-2.766-9.007-6.049l-.61-1.028 29.597 4.463c1.219.194 2.379-.579 2.69-1.77.312-1.19-.324-2.424-1.476-2.859l-26.79-10.159c-4.567-1.729-8.067-5.379-9.607-10.01l-.701-2.112 35.12 15.964c1.142.518 2.491.077 3.102-1.019.61-1.094.279-2.475-.764-3.172l-31.08-20.762C10.015 77.22 6.517 71.36 5.9 64.802l-.946-10.037c-.158-1.792-.138-3.767.019-5.085l63.233 46.536c-.577 3.014-.87 6.097-.87 9.189 0 11.114 3.854 21.976 10.854 30.588.002.003.005.005.006.008.034.04.068.076.105.115.115.125.243.236.378.33l.037.028c.045.03.09.056.136.082.022.013.044.028.067.039.04.021.078.038.117.057.032.014.064.032.098.045.032.013.065.023.097.036.042.016.082.032.124.045.028.009.055.014.083.022.048.013.095.026.145.036.07.014.14.024.211.032.02.002.042.002.063.005.065.006.131.01.197.01h.007l.062-.002c.057-.002.113-.003.17-.009.031-.003.062-.009.094-.013.046-.006.093-.012.139-.022.036-.007.07-.017.107-.026l.122-.03c.039-.012.075-.026.113-.039.036-.013.072-.025.107-.039l.119-.055.093-.045c.044-.023.086-.051.13-.077.025-.015.05-.028.072-.043.054-.035.105-.074.154-.113l.035-.026c.001-.002.002-.003.004-.003.06-.05.119-.102.175-.157l.006-.004c.055-.055.109-.113.158-.174.028-.032.05-.066.075-.1l.066-.086c.023-.035.043-.071.065-.108.019-.031.039-.062.056-.095.018-.032.03-.064.047-.096.018-.039.039-.078.055-.118.01-.026.018-.052.029-.078.017-.048.036-.096.052-.144l.016-.059c.016-.055.03-.11.042-.168l.003-.023c.016-.087.027-.174.034-.264.005-.06.01-.121.01-.182v-22.233c0-3.017 2.455-5.47 5.474-5.47.308 0 .616.026.917.078l46.133 7.835c3.852.653 6.65 3.963 6.65 7.87z"/>
    <path fill="#fff" d="M126.651 120.811c-1.32-.225-2.556.66-2.779 1.97-.223 1.31.659 2.553 1.97 2.776 1.862.315 3.212 1.913 3.212 3.801v61.88c0 2.727-2.222 4.948-4.952 4.948-.279 0-.559-.024-.83-.07l-34.155-5.8c-3.853-.654-6.65-3.963-6.65-7.87v-31.199c0-.783-.375-1.477-.954-1.915-13.61-10.659-21.414-26.667-21.414-43.926 0-1.33-1.08-2.407-2.41-2.407s-2.409 1.077-2.409 2.407c0 18.368 8.138 35.431 22.369 47.002v30.038c0 6.26 4.484 11.567 10.66 12.616l34.155 5.8c.537.092 1.088.138 1.637.138 5.388 0 9.77-4.379 9.77-9.76v-61.881c.002-4.244-3.036-7.836-7.22-8.548zM154.754 160.495c-5.879 0-10.484 6.074-10.484 13.825 0 3.878 1.154 7.334 3.041 9.823l-7.687 4.998c-1.115.725-1.431 2.216-.705 3.329.462.709 1.233 1.094 2.021 1.094.45 0 .905-.126 1.312-.389l8.525-5.542c.136-.089.261-.19.372-.299 1.12.524 2.333.811 3.605.811 5.879 0 10.484-6.072 10.484-13.824s-4.605-13.826-10.484-13.826zm0 22.836c-3.072 0-5.666-4.126-5.666-9.011 0-4.884 2.594-9.012 5.666-9.012 3.071 0 5.667 4.127 5.667 9.012 0 4.884-2.596 9.011-5.667 9.011zM64.252 59.612c1.277-1.84.968-3.413.124-4.587l-2.513.436c.154.363.105.806-.137 1.155-.345.495-.996.747-1.719.725l-6.775-.162-1.968-9.863-3.19 4.603 1.607 7.514-4.606-3.188-2.741 3.954 14.14 9.783 2.741-3.953-4.88-3.375-.15-.952 5.239.202c2.234.072 3.708-.673 4.828-2.292zM75.641 47.783l-2.754-2.976-5.068 4.684-1.912-2.065 3.58-3.308-2.447-2.644-3.579 3.309-1.81-1.956 4.802-4.435-2.756-2.976-8.334 7.704L67.04 55.733l8.601-7.95zM78.466 25.7l-9.68 5.93 8.99 14.652 9.991-6.121-2.12-3.457-5.887 3.608-1.474-2.402 4.159-2.545-1.884-3.068-4.158 2.544-1.392-2.268 5.576-3.417-2.12-3.457zM98.007 23.945c-1.19-3.27-4.516-4.346-8.387-2.937l-5.35 1.945 5.886 16.148 4.525-1.645-2.001-5.488.824-.3c2.962-1.076 5.87-3.97 4.503-7.723zm-5.907 4.66l-.567.208-1.401-3.836.712-.26c1.196-.436 2.28-.025 2.726 1.198.485 1.337-.474 2.327-1.47 2.69zM119.653 32.837l3.426-6.927.177 6.834 4.691-.12-.443-17.178-4.025.103-5.267 10.668-5.811-10.381-4.025.103.443 17.177 4.691-.12-.176-6.837 3.778 6.744 2.541-.066zM139.687 35.444l1.56-6.409 8.243-8.899-5.267-1.278-4.17 4.965-1.423-6.324-5.267-1.28 3.235 11.688-1.561 6.409 4.65 1.128zM168.313 35.05c1.325-2.275.614-5.139-2.867-7.164l-5.309-3.089-8.653 14.846 5.859 3.409c3.269 1.902 6.5 1.227 7.903-1.177.944-1.62.801-3.418-.051-4.72 1.265-.07 2.341-.773 3.118-2.105zm-6.881 3.869c-.563.967-1.59 1.106-2.662.48l-1.178-.684 1.767-3.031 1.125.654c1.205.7 1.421 1.773.948 2.581zm2.46-5.602c-.502.864-1.279.935-1.934.555l-1.15-.67 1.553-2.665.707.41c1.072.625 1.343 1.48.824 2.37zM182.797 41.03l-3.017-2.8-16.523 8.125 3.594 3.336 2.354-1.24 4.171 3.87-1.068 2.436 3.595 3.338 6.894-17.064zM172.4 46.748l4.559-2.46-2.12 4.724-2.439-2.264zM185.777 57.496c2.236-1.507 5.297-.863 7.225 1.999.948 1.407 1.619 3.216 1.803 4.846l3.417-2.298c-.192-1.804-.872-3.68-2.158-5.59-3.331-4.948-8.922-5.93-13.07-3.143-4.171 2.804-5.341 8.332-2.01 13.28 1.285 1.908 2.77 3.246 4.344 4.119l6.158-4.139-2.553-3.79-3.745 2.518-.254-.378c-1.928-2.863-1.369-5.939.843-7.424z"/>
    <path fill="#fff" d="M29.321 56.143c.323.182.672.269 1.019.269.718 0 1.415-.375 1.796-1.044C48.646 26.365 78.34 7.352 111.57 4.508c38.951-3.322 75.611 15.448 95.656 49.015.585.978 1.851 1.298 2.831.715.979-.585 1.299-1.852.716-2.829C189.909 16.474 151.766-3.086 111.217.4 76.633 3.356 45.73 23.145 28.547 53.33c-.563.99-.217 2.25.774 2.813z"/>
</svg>
