<?xml version="1.0" encoding="utf-8"?>
<!-- Generator: Adobe Illustrator 22.1.0, SVG Export Plug-In . SVG Version: 6.00 Build 0)  -->
<svg version="1.1" id="Слой_1" xmlns="http://www.w3.org/2000/svg" xmlns:xlink="http://www.w3.org/1999/xlink" x="0px" y="0px"
	 viewBox="0 0 130 38" style="enable-background:new 0 0 130 38;" xml:space="preserve">
<g>
	<g>
		<path d="M100.1,31.4c-0.1-0.9-0.2-2.2-0.2-3.9V19c0-2.2-0.2-3.7-0.6-4.5c-0.4-0.8-1-1.5-2-2.1c-0.7-0.4-1.6-0.8-2.7-1
			c-1.1-0.2-2.3-0.4-3.7-0.4c-1.7,0-3.2,0.2-4.4,0.6H75.7v-6H69v6h-7.3v-6H55v6h-7.3v-6H41v6h-8.6l-1.7-7.2h-8.9l-7,29.1h7.5
			l0.9-5.6h5.9l0.9,5.6h7.5l-4.1-17.3H41v10c0,1.6,0.1,2.7,0.2,3.5c0.1,0.8,0.3,1.4,0.6,1.9c0.4,0.7,1.1,1.3,2.1,1.7
			c0.9,0.4,2.1,0.6,3.4,0.6c0.4,0,0.9,0,1.6-0.1c0.6-0.1,1.3-0.2,2.1-0.3v-4.2c-0.1,0-0.1,0-0.2,0c-0.3,0-0.6,0.1-0.7,0.1
			c-0.9,0-1.5-0.2-1.8-0.7c-0.3-0.4-0.5-1.6-0.5-3.5v-8.9H55v10c0,1.6,0.1,2.7,0.2,3.5c0.1,0.8,0.3,1.4,0.6,1.9
			c0.4,0.7,1.1,1.3,2.1,1.7c0.9,0.4,2.1,0.6,3.4,0.6c0.4,0,0.9,0,1.6-0.1c0.6-0.1,1.3-0.2,2.1-0.3v-4.2c-0.1,0-0.1,0-0.2,0
			c-0.3,0-0.6,0.1-0.7,0.1c-0.9,0-1.5-0.2-1.8-0.7c-0.3-0.4-0.5-1.6-0.5-3.5v-8.9H69v10c0,1.6,0.1,2.7,0.2,3.5
			c0.1,0.8,0.3,1.4,0.6,1.9c0.4,0.7,1.1,1.3,2.1,1.7c0.9,0.4,2.1,0.6,3.4,0.6c0.4,0,0.9,0,1.6-0.1c0.6-0.1,1.3-0.2,2.1-0.3v-4.2
			c-0.1,0-0.1,0-0.2,0c-0.3,0-0.6,0.1-0.7,0.1c-0.9,0-1.5-0.2-1.8-0.7c-0.3-0.4-0.5-1.6-0.5-3.5v-8.9h6.3c-0.2,0.7-0.2,1.4-0.2,2.1
			h6.7v-0.2c0-0.9,0.2-1.6,0.6-2.1c0.4-0.4,1-0.7,1.8-0.7c0.7,0,1.2,0.2,1.6,0.5c0.4,0.3,0.5,0.8,0.5,1.5c0,1-1.3,2-3.8,2.8
			c-0.9,0.3-1.6,0.5-2.1,0.7c-2.1,0.8-3.7,1.7-4.6,2.8c-0.9,1.1-1.4,2.4-1.4,4.1c0,1.9,0.5,3.4,1.6,4.5c1.1,1.1,2.6,1.7,4.5,1.7
			c1.2,0,2.3-0.2,3.3-0.6c1-0.4,1.9-1,2.8-1.8l0.4,2h7C100.5,33,100.3,32.3,100.1,31.4z M24,22.8l2.2-12.7l2.1,12.7H24z M92.9,25.5
			c0,1.4-0.2,2.4-0.7,3c-0.4,0.6-1.2,0.9-2.1,0.9c-0.7,0-1.2-0.2-1.6-0.6c-0.4-0.4-0.6-1-0.6-1.7c0-1,0.4-1.8,1.2-2.5
			c0.8-0.7,2.1-1.2,3.8-1.6V25.5z"/>
	</g>
	<path d="M110.1,12.6c0,1.3-0.3,2.3-1,2.9c-0.7,0.6-1.7,1-3,1c-1.5,0-2.6-0.4-3.2-1.2c-0.6-0.8-0.9-2.2-0.9-4.2s0.3-3.4,0.9-4.2
		c0.6-0.8,1.7-1.2,3.2-1.2c1.4,0,2.4,0.3,3,1c0.6,0.6,1,1.6,1,3v0.2h-3V9.6c0-0.6-0.1-1-0.2-1.3c-0.1-0.3-0.4-0.4-0.7-0.4
		c-0.4,0-0.7,0.2-0.8,0.5c-0.1,0.3-0.2,1.2-0.2,2.7c0,1.4,0.1,2.3,0.2,2.7c0.1,0.4,0.4,0.6,0.8,0.6c0.3,0,0.6-0.1,0.7-0.4
		c0.2-0.3,0.2-0.7,0.2-1.3c0,0,0-0.1,0-0.2c0-0.1,0-0.2,0-0.2h3.1c0,0.1,0,0.1,0,0.2C110.1,12.5,110.1,12.5,110.1,12.6z"/>
	<path d="M120,9.1v7.1h-3.1V9.9c0-0.8-0.1-1.3-0.2-1.5c-0.1-0.2-0.3-0.3-0.6-0.3c-0.3,0-0.6,0.2-0.8,0.5c-0.2,0.3-0.3,0.7-0.3,1.3
		v6.3h-3.1V2.7h3.1v4.4c0.3-0.4,0.6-0.7,1-1c0.4-0.2,0.9-0.3,1.5-0.3c0.9,0,1.5,0.3,1.9,0.8C119.8,7.1,120,8,120,9.1z"/>
</g>
</svg>
