<?xml version="1.0" encoding="iso-8859-1"?>
<!-- Generator: Adobe Illustrator 18.0.0, SVG Export Plug-In . SVG Version: 6.00 Build 0)  -->
<!DOCTYPE svg PUBLIC "-//W3C//DTD SVG 1.1//EN" "http://www.w3.org/Graphics/SVG/1.1/DTD/svg11.dtd">
<svg version="1.1" id="Capa_1" xmlns="http://www.w3.org/2000/svg" xmlns:xlink="http://www.w3.org/1999/xlink" x="0px" y="0px"
	 viewBox="0 0 481.715 481.715" style="enable-background:new 0 0 481.715 481.715;" xml:space="preserve">
<path id="XMLID_135_" d="M470.951,106.124L375.59,10.765c-14.352-14.352-37.611-14.352-51.976,0
	c-6.892,6.889-10.762,16.219-10.762,25.965c0,7.133,2.114,14.055,5.938,19.961L191.378,166.288
	c-13.12-6.07-27.472-9.416-42.217-9.416c-26.655,0-52.226,10.58-71.104,29.459c-13.763,13.777-13.763,36.086,0,49.863l57.309,57.324
	L0,481.714l188.197-135.365l57.309,57.31c13.76,13.762,36.1,13.762,49.879,0c18.846-18.863,29.439-44.432,29.439-71.103
	c0-14.729-3.327-29.08-9.397-42.186l109.615-127.443c5.889,3.82,12.794,5.938,19.929,5.938c9.743,0,19.095-3.871,25.98-10.777
	C485.303,143.735,485.303,120.476,470.951,106.124z"/>
<g>
</g>
<g>
</g>
<g>
</g>
<g>
</g>
<g>
</g>
<g>
</g>
<g>
</g>
<g>
</g>
<g>
</g>
<g>
</g>
<g>
</g>
<g>
</g>
<g>
</g>
<g>
</g>
<g>
</g>
</svg>
