<?xml version="1.0" encoding="iso-8859-1"?>
<!-- Generator: Adobe Illustrator 19.0.0, SVG Export Plug-In . SVG Version: 6.00 Build 0)  -->
<svg version="1.1" id="Capa_1" xmlns="http://www.w3.org/2000/svg" xmlns:xlink="http://www.w3.org/1999/xlink" x="0px" y="0px"
	 viewBox="0 0 477.2 477.2" style="enable-background:new 0 0 477.2 477.2;" xml:space="preserve">
<g>
	<g>
		<path d="M238.448,110.5c-0.7,0-1.4,0-2.1,0c-34.1,0.5-66.7,14.6-91.7,39.6s-39.1,57.6-39.6,91.7c-0.6,35.3,12.3,68.9,36.1,93.9
			c17.8,18.7,27.2,43.7,26.2,69.5h-3.8c-5.5,0-10,4.5-10,10s4.5,10,10,10h150.1c5.5,0,10-4.5,10-10s-4.5-10-10-10h-5.4
			c-1.2-26,8-49.3,26.7-68.9c0,0,0.1-0.2,0.1-0.3c23.4-24.9,36.5-57.7,36.6-91.9C371.748,170.5,312.148,110.7,238.448,110.5z
			 M238.648,240.6c14.1,0,26.7,9.1,31,22.6c5.5,17.1-3.9,35.5-21,41v7.2c0,5.5-4.5,10-10,10s-10-4.5-10-10v-7.1
			c-13.5-4.4-22.6-16.9-22.6-31c0-5.5,4.5-10,10-10s10,4.5,10,10c0,7,5.7,12.6,12.6,12.6c7,0,12.6-5.7,12.6-12.6
			c0-7-5.7-12.6-12.6-12.6c-14.1-0.1-26.7-9.2-31-22.6c-5.5-17.2,3.9-35.6,21-41.1v-5.6c0-5.5,4.5-10,10-10s10,4.5,10,10v5.6
			c13.5,4.3,22.6,16.9,22.6,31c0,5.5-4.5,10-10,10s-10-4.5-10-10c0-6.9-5.6-12.6-12.6-12.6s-12.6,5.7-12.6,12.6
			C226.048,235,231.648,240.6,238.648,240.6z"/>
	</g>
</g>
<g>
	<g>
		<path d="M284.548,457.2h-91.7c-5.5,0-10,4.5-10,10s4.5,10,10,10h91.7c5.5,0,10-4.5,10-10S290.048,457.2,284.548,457.2z"/>
	</g>
</g>
<g>
	<g>
		<path d="M235.648,0c-5.5,0-10,4.5-10,10v51.1c0,5.5,4.5,10,10,10s10-4.5,10-10V10C245.648,4.5,241.148,0,235.648,0z"/>
	</g>
</g>
<g>
	<g>
		<path d="M405.948,73.5c-3.8-4-10.1-4.2-14.1-0.4l-37.5,35.4c-4,3.8-4.2,10.1-0.4,14.1s10.1,4.2,14.1,0.4l37.5-35.4
			C409.548,83.8,409.748,77.5,405.948,73.5z"/>
	</g>
</g>
<g>
	<g>
		<path d="M121.648,104.1l-36-36.5c-3.9-4-10.2-4-14.1-0.2c-4,3.9-4,10.2-0.2,14.1l0.1,0.1l36,36.5c1.9,1.9,4.5,3,7.1,3
			c5.5,0,10-4.5,10-10C124.548,108.5,123.548,106,121.648,104.1z"/>
	</g>
</g>
<g>
</g>
<g>
</g>
<g>
</g>
<g>
</g>
<g>
</g>
<g>
</g>
<g>
</g>
<g>
</g>
<g>
</g>
<g>
</g>
<g>
</g>
<g>
</g>
<g>
</g>
<g>
</g>
<g>
</g>
</svg>
