<svg xmlns="http://www.w3.org/2000/svg" width="823" height="484" fill="none" viewBox="0 0 823 484">
    <path fill="#000" d="M309.733 443.096H143.731c-.46 0-.83-.37-.83-.83 0-.46.37-.83.83-.83h166.002c.46 0 .83.37.83.83 0 .46-.37.83-.83.83z"/>
    <path fill="#FCE163" d="M310.623 192.198v217.674c0 8.614-6.983 15.587-15.586 15.587h-136.55c-8.613 0-15.586-6.973-15.586-15.587V192.198c0-8.604 6.983-15.587 15.586-15.587h136.55c1.84 0 3.621.32 5.252.91 6.023 2.161 10.334 7.914 10.334 14.677z"/>
    <path fill="#FAD431" d="M147.903 377.718V224.352c0-23.601 19.138-42.739 42.738-42.739h72.232c23.6 0 42.738 19.138 42.738 42.739v153.356c0 23.6-19.138 42.739-42.738 42.739h-72.232c-23.6.01-42.738-19.129-42.738-42.729z"/>
    <path fill="#BBB" d="M203.907 87.402h-5.002v89.269h5.002V87.402z"/>
    <path fill="#757575" d="M203.907 87.402h-1.721v89.269h1.721V87.402z"/>
    <path fill="#BBB" d="M254.609 87.402h-5.002v89.269h5.002V87.402z"/>
    <path fill="#757575" d="M254.609 87.402h-1.721v89.269h1.721V87.402z"/>
    <path fill="#B66D28" d="M312.564 325.385v-4.001c3.872 0 7.023-3.152 7.023-7.023v-26.932c0-3.872-3.151-7.023-7.023-7.023v-4.002c6.083 0 11.025 4.942 11.025 11.025v26.932c0 6.082-4.942 11.024-11.025 11.024z"/>
    <path fill="#9B5714" d="M312.564 280.406v-1.591c2.471.35 4.522 1.991 5.473 4.222-1.291-1.601-3.262-2.631-5.473-2.631zM323.589 287.429v26.932c0 6.082-4.942 11.024-11.025 11.024v-1.71c5.613-.5 10.024-5.233 10.024-10.975v-26.932c0-1.72-.4-3.351-1.1-4.802 1.321 1.811 2.101 4.052 2.101 6.463z"/>
    <path fill="#F7C634" d="M160.378 406.391c-.81 0-1.47-.661-1.47-1.471V197.15c0-.811.66-1.471 1.47-1.471.811 0 1.471.66 1.471 1.471v207.77c0 .81-.65 1.471-1.471 1.471zM172.454 406.391c-.811 0-1.471-.661-1.471-1.471V197.15c0-.811.66-1.471 1.471-1.471.81 0 1.47.66 1.47 1.471v207.77c-.01.82-.66 1.471-1.47 1.471zM184.519 406.401c-.811 0-1.471-.661-1.471-1.471V197.16c0-.811.66-1.471 1.471-1.471.81 0 1.47.66 1.47 1.471v207.77c0 .81-.66 1.471-1.47 1.471zM196.584 406.401c-.81 0-1.471-.661-1.471-1.471V197.16c0-.811.661-1.471 1.471-1.471s1.471.66 1.471 1.471v207.77c0 .82-.661 1.471-1.471 1.471zM208.659 406.411c-.81 0-1.47-.661-1.47-1.471V197.17c0-.811.66-1.471 1.47-1.471.811 0 1.471.66 1.471 1.471v207.77c0 .81-.66 1.471-1.471 1.471zM220.724 406.411c-.81 0-1.47-.661-1.47-1.471V248.202c0-.81.66-1.471 1.47-1.471.811 0 1.471.661 1.471 1.471V404.95c0 .81-.66 1.461-1.471 1.461zM232.79 406.421c-.811 0-1.471-.661-1.471-1.471V248.212c0-.81.66-1.471 1.471-1.471.81 0 1.47.661 1.47 1.471V404.96c0 .8-.66 1.461-1.47 1.461zM220.724 225.842c-.81 0-1.47-.66-1.47-1.47V197.16c0-.811.66-1.471 1.47-1.471.811 0 1.471.66 1.471 1.471v27.212c0 .81-.66 1.47-1.471 1.47zM232.79 225.842c-.811 0-1.471-.66-1.471-1.47V197.16c0-.811.66-1.471 1.471-1.471.81 0 1.47.66 1.47 1.471v27.212c0 .82-.66 1.47-1.47 1.47zM244.865 406.421c-.811 0-1.471-.661-1.471-1.471V197.18c0-.81.66-1.471 1.471-1.471.81 0 1.47.661 1.47 1.471v207.77c-.01.82-.66 1.471-1.47 1.471zM256.93 406.431c-.81 0-1.47-.661-1.47-1.471V197.19c0-.81.66-1.471 1.47-1.471.81 0 1.471.661 1.471 1.471v207.77c0 .81-.661 1.471-1.471 1.471zM268.995 406.431c-.81 0-1.47-.661-1.47-1.471V197.19c0-.81.66-1.471 1.47-1.471.811 0 1.471.661 1.471 1.471v207.77c0 .82-.66 1.471-1.471 1.471zM281.071 406.441c-.811 0-1.471-.661-1.471-1.471V197.2c0-.81.66-1.471 1.471-1.471.81 0 1.47.661 1.47 1.471v207.77c-.01.81-.66 1.471-1.47 1.471zM293.136 406.441c-.811 0-1.471-.661-1.471-1.471V197.2c0-.81.66-1.471 1.471-1.471.81 0 1.47.661 1.47 1.471v207.78c0 .81-.66 1.461-1.47 1.461z"/>
    <path fill="#F6B22D" d="M310.563 330.778v-59.376c1.101 0 2.001.9 2.001 2.001v55.374c0 1.1-.89 2.001-2.001 2.001z"/>
    <path fill="#EBA023" d="M312.564 325.756v3.021c0 1.1-.9 2.001-2.001 2.001v-3.021c1.111 0 2.001-.901 2.001-2.001z"/>
    <path fill="#1A1A1A" d="M254.769 101.938h-5.302c-.84 0-1.521-.68-1.521-1.52v-20.76c0-.31-.25-.56-.56-.56h-41.238c-.31 0-.56.25-.56.56v20.77c0 .84-.68 1.52-1.521 1.52h-5.302c-.84 0-1.521-.68-1.521-1.52v-20.77c0-4.911 3.982-8.903 8.904-8.903h41.238c4.912 0 8.904 3.982 8.904 8.904v20.769c-.01.84-.69 1.51-1.521 1.51z"/>
    <path fill="#757575" d="M249.947 80.66v19.118c0 .28-.22.5-.5.5s-.5-.22-.5-.5V80.659c0-.71 1-.73 1 0zM248.507 71.915c.57.09.5.94-.081.93h-41.998c-3.841 0-6.963 3.152-6.963 7.044v19.909c0 .26-.21.47-.46.47h-.08c-.25 0-.46-.21-.46-.47v-20.12c0-4.341 3.471-7.853 7.763-7.853h41.158c.37 0 .75.03 1.121.09z"/>
    <path fill="#F7C634" d="M310.623 192.198v217.674c0 8.614-6.983 15.587-15.586 15.587h-136.55c-8.613 0-15.586-6.973-15.586-15.587v-.49c9.154-.6 18.608-1.911 28.122-4.152.97-.23 1.931-.46 2.901-.71 3.041-.771 6.093-1.651 9.134-2.631.981-.311 1.961-.641 2.931-.981 3.052-1.05 6.103-2.211 9.134-3.491.981-.411 1.961-.831 2.932-1.271 3.061-1.371 6.112-2.851 9.134-4.472.98-.52 1.96-1.06 2.931-1.611 3.071-1.74 6.122-3.621 9.134-5.642.98-.66 1.961-1.341 2.931-2.031 3.091-2.191 6.143-4.542 9.134-7.063.98-.83 1.961-1.671 2.931-2.541 3.112-2.761 6.163-5.713 9.134-8.864.991-1.05 1.971-2.111 2.932-3.201 3.141-3.522 6.182-7.273 9.134-11.275.99-1.341 1.97-2.721 2.941-4.122 3.181-4.602 6.232-9.514 9.134-14.746 1-1.791 1.971-3.632 2.931-5.503 3.261-6.373 6.323-13.196 9.134-20.489 1.01-2.621 1.991-5.292 2.931-8.043 3.512-10.175 6.583-21.209 9.134-33.175 1.071-5.012 2.051-10.184 2.931-15.526 3.442-20.799 5.443-44.149 5.693-70.321 6.033 2.161 10.344 7.914 10.344 14.677z"/>
    <path fill="#F6B22D" d="M173.914 404.52v.41c0 .81-.66 1.471-1.471 1.471-.71 0-1.3-.501-1.43-1.171.97-.23 1.941-.46 2.901-.71zM185.989 400.908v4.022c0 .81-.66 1.471-1.47 1.471-.811 0-1.471-.661-1.471-1.471v-3.041c.98-.321 1.961-.641 2.941-.981zM198.055 396.156v8.784c0 .81-.661 1.471-1.471 1.471s-1.471-.661-1.471-1.471v-7.523c.991-.401 1.971-.831 2.942-1.261zM210.13 390.064v14.876c0 .81-.66 1.471-1.471 1.471-.81 0-1.47-.661-1.47-1.471v-13.256c.98-.53 1.96-1.07 2.941-1.62zM222.195 382.4v22.55c0 .81-.66 1.471-1.471 1.471-.81 0-1.47-.661-1.47-1.471v-20.519c.99-.66 1.971-1.341 2.941-2.031zM234.26 372.796v32.164c0 .81-.66 1.471-1.47 1.471-.811 0-1.471-.661-1.471-1.471v-29.623c.99-.83 1.971-1.681 2.941-2.541zM246.335 360.721v44.239c0 .81-.66 1.471-1.47 1.471-.811 0-1.471-.661-1.471-1.471v-41.028c.991-1.05 1.971-2.121 2.941-3.211zM258.401 345.334v59.636c0 .81-.661 1.471-1.471 1.471s-1.47-.661-1.47-1.471v-55.514c.99-1.351 1.97-2.721 2.941-4.122zM270.466 325.075v79.885c0 .81-.66 1.471-1.471 1.471-.81 0-1.47-.661-1.47-1.471v-74.382c1-1.791 1.981-3.632 2.941-5.503zM282.531 296.543V404.97c0 .81-.66 1.471-1.471 1.471-.81 0-1.47-.661-1.47-1.471V304.587c1.02-2.622 2.001-5.303 2.941-8.044zM294.606 247.842V404.98c0 .81-.66 1.471-1.47 1.471-.811 0-1.471-.661-1.471-1.471V263.378c1.071-5.012 2.051-10.184 2.941-15.536zM164.8 176.051c.32 0 .59.26.58.59-.04 1.711-.27 3.381-.67 4.972-1.02 4.132-3.161 7.823-6.073 10.735-2.911 2.911-6.602 5.052-10.734 6.072-1.601.4-3.262.631-4.972.671-.321.01-.591-.261-.591-.581v-6.473c0-8.833 7.163-15.986 15.987-15.986h6.473z"/>
    <path fill="#EBA023" d="M164.71 181.613c-1.02 4.132-3.161 7.823-6.073 10.735-2.911 2.911-6.602 5.052-10.734 6.072v-6.232c0-5.833 4.752-10.585 10.584-10.585h6.223v.01z"/>
    <path fill="#F6B22D" d="M288.814 176.051c-.32 0-.59.26-.58.59.04 1.711.27 3.381.67 4.972 1.021 4.132 3.161 7.823 6.073 10.735 2.911 2.911 6.603 5.052 10.734 6.072 1.601.4 3.262.631 4.973.671.32.01.59-.261.59-.581v-6.473c0-8.833-7.163-15.986-15.987-15.986h-6.473z"/>
    <path fill="#EBA023" d="M288.914 181.613c1.02 4.132 3.161 7.823 6.073 10.735 2.911 2.911 6.602 5.052 10.734 6.072v-6.232c0-5.833-4.742-10.585-10.584-10.585h-6.223v.01z"/>
    <path fill="#F6B22D" d="M164.8 425.989c.32 0 .59-.26.58-.59-.04-1.711-.27-3.382-.67-4.972-1.02-4.132-3.161-7.824-6.073-10.735-2.911-2.911-6.602-5.052-10.734-6.073-1.601-.4-3.262-.63-4.972-.67-.321-.01-.591.26-.591.58v6.473c0 8.834 7.163 15.987 15.987 15.987h6.473z"/>
    <path fill="#EBA023" d="M164.71 420.427c-1.02-4.132-3.161-7.824-6.073-10.735-2.911-2.911-6.602-5.052-10.734-6.073v6.233c0 5.833 4.752 10.585 10.584 10.585h6.223v-.01z"/>
    <path fill="#F6B22D" d="M288.814 425.989c-.32 0-.59-.26-.58-.59.04-1.711.27-3.382.67-4.972 1.021-4.132 3.161-7.824 6.073-10.735 2.911-2.911 6.603-5.052 10.734-6.073 1.601-.4 3.262-.63 4.973-.67.32-.01.59.26.59.58v6.473c0 8.834-7.163 15.987-15.987 15.987h-6.473z"/>
    <path fill="#EBA023" d="M288.914 420.427c1.02-4.132 3.161-7.824 6.073-10.735 2.911-2.911 6.602-5.052 10.734-6.073v6.233c0 5.833-4.742 10.585-10.584 10.585h-6.223v-.01z"/>
    <path fill="#474747" d="M171.383 442.266c-1.471 0-2.671-1.19-2.671-2.671v-9.724c0-1.471 1.2-2.671 2.671-2.671 1.471 0 2.671 1.19 2.671 2.671v9.724c0 1.481-1.19 2.671-2.671 2.671z"/>
    <path fill="#000" d="M177.886 425.459h-3.832v13.936h3.832v-13.936z"/>
    <path fill="#474747" d="M180.557 442.266c-1.471 0-2.671-1.19-2.671-2.671v-9.724c0-1.471 1.2-2.671 2.671-2.671 1.471 0 2.671 1.19 2.671 2.671v9.724c0 1.481-1.19 2.671-2.671 2.671z"/>
    <path fill="#000" d="M174.054 435.623v3.972c0 1.471-1.19 2.671-2.671 2.671-1.471 0-2.671-1.19-2.671-2.671v-3.972c0 1.471 1.2 2.671 2.671 2.671 1.481 0 2.671-1.19 2.671-2.671zM183.228 435.623v3.972c0 1.471-1.2 2.671-2.671 2.671-1.471 0-2.671-1.19-2.671-2.671v-3.972c0 1.471 1.19 2.671 2.671 2.671 1.471 0 2.671-1.19 2.671-2.671zM182.538 426.149h-13.126c-.38 0-.7-.31-.7-.69h14.506c.01.38-.3.69-.68.69z"/>
    <path fill="#474747" d="M273.147 442.266c-1.47 0-2.671-1.19-2.671-2.671v-9.724c0-1.471 1.191-2.671 2.671-2.671 1.481 0 2.671 1.19 2.671 2.671v9.724c0 1.481-1.2 2.671-2.671 2.671z"/>
    <path fill="#000" d="M279.65 425.459h-3.832v13.936h3.832v-13.936z"/>
    <path fill="#474747" d="M282.321 442.266c-1.471 0-2.671-1.19-2.671-2.671v-9.724c0-1.471 1.19-2.671 2.671-2.671 1.481 0 2.671 1.19 2.671 2.671v9.724c-.01 1.481-1.2 2.671-2.671 2.671z"/>
    <path fill="#000" d="M275.818 435.623v3.972c0 1.471-1.19 2.671-2.671 2.671-1.48 0-2.671-1.19-2.671-2.671v-3.972c0 1.471 1.201 2.671 2.671 2.671 1.471 0 2.671-1.19 2.671-2.671zM284.992 435.623v3.972c0 1.471-1.2 2.671-2.671 2.671-1.471 0-2.671-1.19-2.671-2.671v-3.972c0 1.471 1.19 2.671 2.671 2.671 1.481 0 2.671-1.19 2.671-2.671zM284.292 426.149h-13.126c-.38 0-.69-.31-.69-.69h14.506c0 .38-.31.69-.69.69z"/>
    <path fill="#F7C634" d="M214.992 235.957c0-3.622 2.931-6.553 6.543-6.553h10.444c3.622 0 6.553 2.931 6.553 6.553 0 3.611-2.931 6.542-6.553 6.542h-10.444c-3.612 0-6.543-2.931-6.543-6.542z"/>
    <path fill="#F3F3F3" d="M234 241.499h-14.476c-1.951 0-3.532-1.581-3.532-3.531v-4.022c0-1.951 1.581-3.532 3.532-3.532H234c1.951 0 3.532 1.581 3.532 3.532v4.022c0 1.95-1.581 3.531-3.532 3.531z"/>
    <path fill="#5F5F5F" d="M218.433 233.836h16.668c.55 0 1-.451 1-1.001 0-.55-.45-1-1-1h-16.668c-.55 0-1 .45-1 1s.45 1.001 1 1.001zM218.433 236.387h16.668c.55 0 1-.45 1-1.001 0-.55-.45-1-1-1h-16.668c-.55 0-1 .45-1 1 0 .551.45 1.001 1 1.001zM218.433 238.928h14.417c.55 0 1-.45 1-1.001 0-.55-.45-1-1-1h-14.417c-.55 0-1 .45-1 1 0 .561.45 1.001 1 1.001z"/>
    <path fill="#000" d="M702.744 443.096h-205.78c-.46 0-.83-.37-.83-.83 0-.46.37-.83.83-.83h205.78c.46 0 .83.37.83.83 0 .46-.37.83-.83.83z"/>
    <path fill="#EBA023" d="M703.574 192.198v217.674c0 8.614-6.973 15.587-15.587 15.587H551.438c-8.614 0-15.587-6.973-15.587-15.587V192.198c0-8.604 6.983-15.587 15.587-15.587h136.549c1.841 0 3.612.32 5.252.91 6.023 2.161 10.335 7.914 10.335 14.677z"/>
    <path fill="#9B5714" d="M677.883 192.198v217.674c0 8.614-6.983 15.587-15.587 15.587H525.757c-8.614 0-15.587-6.973-15.587-15.587V192.198c0-8.604 6.973-15.587 15.587-15.587h136.549c1.841 0 3.612.32 5.252.91 6.023 2.161 10.325 7.914 10.325 14.677z"/>
    <path fill="#EBA023" d="M675.552 192.198v217.674c0 8.614-6.983 15.587-15.587 15.587H523.416c-8.614 0-15.587-6.973-15.587-15.587V192.198c0-8.604 6.973-15.587 15.587-15.587h136.549c1.841 0 3.612.32 5.252.91 6.033 2.161 10.335 7.914 10.335 14.677z"/>
    <path fill="#FCE163" d="M663.857 192.198v217.674c0 8.614-6.973 15.587-15.587 15.587H511.721c-8.614 0-15.587-6.973-15.587-15.587V192.198c0-8.604 6.983-15.587 15.587-15.587H648.27c1.841 0 3.612.32 5.252.91 6.033 2.161 10.335 7.914 10.335 14.677z"/>
    <path fill="#FAD431" d="M501.136 377.718V224.352c0-23.601 19.138-42.739 42.739-42.739h72.231c23.6 0 42.739 19.138 42.739 42.739v153.356c0 23.6-19.139 42.739-42.739 42.739h-72.231c-23.601.01-42.739-19.129-42.739-42.729z"/>
    <path fill="#BBB" d="M573.828 69.394h-5.002v107.277h5.002V69.394z"/>
    <path fill="#757575" d="M573.828 69.394h-1.721v107.277h1.721V69.394z"/>
    <path fill="#BBB" d="M624.53 69.394h-5.002v107.277h5.002V69.394z"/>
    <path fill="#757575" d="M624.53 69.394h-1.721v107.277h1.721V69.394z"/>
    <path fill="#F7C634" d="M513.622 406.391c-.811 0-1.471-.661-1.471-1.471V197.15c0-.811.66-1.471 1.471-1.471.81 0 1.47.66 1.47 1.471v207.77c0 .81-.66 1.471-1.47 1.471zM525.687 406.391c-.811 0-1.471-.661-1.471-1.471V197.15c0-.811.66-1.471 1.471-1.471.81 0 1.47.66 1.47 1.471v207.77c0 .82-.66 1.471-1.47 1.471zM537.762 406.401c-.81 0-1.471-.661-1.471-1.471V197.16c0-.811.661-1.471 1.471-1.471s1.471.66 1.471 1.471v207.77c-.01.81-.661 1.471-1.471 1.471zM549.827 406.401c-.81 0-1.47-.661-1.47-1.471V197.16c0-.811.66-1.471 1.47-1.471.811 0 1.471.66 1.471 1.471v207.77c0 .82-.66 1.471-1.471 1.471zM561.892 406.411c-.81 0-1.47-.661-1.47-1.471V197.17c0-.811.66-1.471 1.47-1.471.811 0 1.471.66 1.471 1.471v207.77c0 .81-.66 1.471-1.471 1.471zM573.958 406.411c-.811 0-1.471-.661-1.471-1.471V248.202c0-.81.66-1.471 1.471-1.471.81 0 1.47.661 1.47 1.471V404.95c0 .81-.65 1.461-1.47 1.461zM586.033 406.421c-.81 0-1.471-.661-1.471-1.471V248.212c0-.81.661-1.471 1.471-1.471s1.471.661 1.471 1.471V404.96c0 .8-.661 1.461-1.471 1.461zM573.958 225.842c-.811 0-1.471-.66-1.471-1.47V197.16c0-.811.66-1.471 1.471-1.471.81 0 1.47.66 1.47 1.471v27.212c0 .81-.65 1.47-1.47 1.47zM586.033 225.842c-.81 0-1.471-.66-1.471-1.47V197.16c0-.811.661-1.471 1.471-1.471s1.471.66 1.471 1.471v27.212c0 .82-.661 1.47-1.471 1.47zM598.098 406.421c-.81 0-1.47-.661-1.47-1.471V197.18c0-.811.66-1.471 1.47-1.471.811 0 1.471.66 1.471 1.471v207.77c0 .82-.66 1.471-1.471 1.471zM610.163 406.431c-.81 0-1.47-.661-1.47-1.471V197.19c0-.811.66-1.471 1.47-1.471.811 0 1.471.66 1.471 1.471v207.77c0 .81-.66 1.471-1.471 1.471zM622.239 406.431c-.811 0-1.471-.661-1.471-1.471V197.19c0-.811.66-1.471 1.471-1.471.81 0 1.47.66 1.47 1.471v207.77c0 .82-.66 1.471-1.47 1.471zM634.304 406.441c-.81 0-1.471-.661-1.471-1.471V197.2c0-.811.661-1.471 1.471-1.471s1.471.66 1.471 1.471v207.77c0 .81-.661 1.471-1.471 1.471zM646.369 406.441c-.81 0-1.47-.661-1.47-1.471V197.2c0-.811.66-1.471 1.47-1.471.811 0 1.471.66 1.471 1.471v207.78c0 .81-.66 1.461-1.471 1.461z"/>
    <path fill="#1A1A1A" d="M624.68 83.93h-5.303c-.84 0-1.52-.68-1.52-1.52V61.65c0-.31-.25-.56-.56-.56h-41.238c-.311 0-.561.25-.561.56v20.77c0 .84-.68 1.52-1.52 1.52h-5.303c-.84 0-1.52-.68-1.52-1.52V61.65c0-4.911 3.981-8.903 8.904-8.903h41.238c4.912 0 8.903 3.982 8.903 8.904V82.42c0 .84-.68 1.51-1.52 1.51z"/>
    <path fill="#757575" d="M619.858 62.651V81.77c0 .28-.22.5-.501.5-.28 0-.5-.22-.5-.5V62.65c0-.71 1.001-.73 1.001 0zM618.417 53.908c.57.09.5.94-.08.93h-41.998c-3.842 0-6.963 3.151-6.963 7.043V81.79c0 .26-.21.47-.46.47h-.08c-.251 0-.461-.21-.461-.47V61.67c0-4.342 3.472-7.853 7.764-7.853h41.158c.37 0 .75.03 1.12.09z"/>
    <path fill="#F7C634" d="M663.857 192.198v217.674c0 8.614-6.973 15.587-15.587 15.587H511.721c-8.614 0-15.587-6.973-15.587-15.587v-.49c9.154-.6 18.608-1.911 28.122-4.152.971-.23 1.931-.46 2.901-.71 3.042-.771 6.093-1.651 9.134-2.631.981-.31 1.961-.641 2.932-.981 3.051-1.05 6.092-2.211 9.134-3.491.98-.41 1.96-.831 2.931-1.271 3.061-1.37 6.112-2.851 9.134-4.472.98-.52 1.961-1.06 2.931-1.61 3.071-1.741 6.123-3.622 9.134-5.643.98-.66 1.961-1.341 2.931-2.031 3.092-2.191 6.133-4.542 9.134-7.063.981-.83 1.961-1.671 2.932-2.541 3.111-2.761 6.152-5.712 9.134-8.864.99-1.05 1.97-2.111 2.931-3.201 3.141-3.522 6.182-7.273 9.134-11.275.99-1.341 1.971-2.721 2.941-4.122 3.181-4.602 6.233-9.514 9.134-14.746 1-1.791 1.971-3.632 2.931-5.503 3.262-6.372 6.323-13.195 9.134-20.489 1.011-2.621 1.991-5.292 2.931-8.043 3.512-10.174 6.583-21.209 9.134-33.174 1.071-5.013 2.051-10.185 2.932-15.527 3.441-20.799 5.442-44.149 5.692-70.321 6.043 2.161 10.345 7.914 10.345 14.677z"/>
    <path fill="#F6B22D" d="M527.157 404.52v.41c0 .81-.66 1.471-1.47 1.471-.711 0-1.301-.501-1.431-1.171.971-.23 1.931-.46 2.901-.71zM539.223 400.908v4.022c0 .81-.661 1.471-1.471 1.471s-1.471-.661-1.471-1.471v-3.041c.991-.321 1.971-.641 2.942-.981zM551.298 396.156v8.784c0 .81-.66 1.471-1.471 1.471-.81 0-1.47-.661-1.47-1.471v-7.523c.98-.401 1.96-.831 2.941-1.261zM563.363 390.063v14.877c0 .81-.66 1.471-1.471 1.471-.81 0-1.47-.661-1.47-1.471v-13.256c.99-.53 1.971-1.07 2.941-1.621zM575.428 382.4v22.55c0 .81-.66 1.471-1.47 1.471-.811 0-1.471-.661-1.471-1.471v-20.519c.99-.66 1.971-1.341 2.941-2.031zM587.504 372.796v32.164c0 .81-.661 1.471-1.471 1.471s-1.471-.661-1.471-1.471v-29.623c.991-.83 1.971-1.681 2.942-2.541zM599.569 360.721v44.239c0 .81-.66 1.471-1.471 1.471-.81 0-1.47-.661-1.47-1.471v-41.028c.99-1.05 1.97-2.121 2.941-3.211zM611.634 345.334v59.636c0 .81-.66 1.471-1.471 1.471-.81 0-1.47-.661-1.47-1.471v-55.514c1-1.351 1.981-2.721 2.941-4.122zM623.699 325.075v79.885c0 .81-.66 1.471-1.47 1.471-.811 0-1.471-.661-1.471-1.471v-74.382c1.01-1.791 1.981-3.632 2.941-5.503zM635.775 296.543V404.97c0 .81-.661 1.471-1.471 1.471s-1.471-.661-1.471-1.471V304.586c1.011-2.621 1.991-5.302 2.942-8.043zM647.84 247.842V404.98c0 .81-.66 1.471-1.471 1.471-.81 0-1.47-.661-1.47-1.471V263.378c1.08-5.012 2.06-10.184 2.941-15.536zM518.033 176.051c.321 0 .591.26.581.59-.04 1.711-.27 3.381-.671 4.972-1.02 4.132-3.161 7.823-6.072 10.735-2.912 2.911-6.603 5.052-10.735 6.072-1.601.4-3.261.631-4.972.671-.32.01-.59-.261-.59-.581v-6.473c0-8.833 7.163-15.986 15.987-15.986h6.472z"/>
    <path fill="#EBA023" d="M517.943 181.613c-1.02 4.132-3.161 7.823-6.072 10.735-2.912 2.911-6.603 5.052-10.735 6.072v-6.232c0-5.833 4.752-10.585 10.585-10.585h6.222v.01z"/>
    <path fill="#F6B22D" d="M642.057 176.051c-.32 0-.59.26-.58.59.04 1.711.27 3.381.67 4.972 1.021 4.132 3.162 7.823 6.073 10.735 2.911 2.911 6.603 5.052 10.735 6.072 1.6.4 3.261.631 4.972.671.32.01.59-.261.59-.581v-6.473c0-8.833-7.163-15.986-15.997-15.986h-6.463z"/>
    <path fill="#EBA023" d="M642.147 181.613c1.021 4.132 3.162 7.823 6.073 10.735 2.911 2.911 6.603 5.052 10.735 6.072v-6.232c0-5.833-4.752-10.585-10.585-10.585h-6.223v.01z"/>
    <path fill="#F6B22D" d="M518.033 425.989c.321 0 .591-.26.581-.59-.04-1.711-.27-3.382-.671-4.972-1.02-4.132-3.161-7.824-6.072-10.735-2.912-2.911-6.603-5.052-10.735-6.073-1.601-.4-3.261-.63-4.972-.67-.32-.01-.59.26-.59.58v6.473c0 8.834 7.163 15.987 15.987 15.987h6.472z"/>
    <path fill="#EBA023" d="M517.943 420.427c-1.02-4.132-3.161-7.824-6.072-10.735-2.912-2.911-6.603-5.052-10.735-6.073v6.233c0 5.833 4.752 10.585 10.585 10.585h6.222v-.01z"/>
    <path fill="#F6B22D" d="M642.057 425.989c-.32 0-.59-.26-.58-.59.04-1.711.27-3.382.67-4.972 1.021-4.132 3.162-7.824 6.073-10.735 2.911-2.911 6.603-5.052 10.735-6.073 1.6-.4 3.261-.63 4.972-.67.32-.01.59.26.59.58v6.473c0 8.834-7.163 15.987-15.997 15.987h-6.463z"/>
    <path fill="#EBA023" d="M642.147 420.427c1.021-4.132 3.162-7.824 6.073-10.735 2.911-2.911 6.603-5.052 10.735-6.073v6.233c0 5.833-4.752 10.585-10.585 10.585h-6.223v-.01z"/>
    <path fill="#F7C634" d="M568.225 235.957c0-3.622 2.932-6.553 6.553-6.553h10.445c3.611 0 6.542 2.931 6.542 6.553 0 3.611-2.931 6.542-6.542 6.542h-10.445c-3.621 0-6.553-2.931-6.553-6.542z"/>
    <path fill="#F3F3F3" d="M587.233 241.499h-14.476c-1.951 0-3.531-1.581-3.531-3.531v-4.022c0-1.951 1.58-3.532 3.531-3.532h14.476c1.951 0 3.532 1.581 3.532 3.532v4.022c0 1.95-1.581 3.531-3.532 3.531z"/>
    <path fill="#5F5F5F" d="M571.667 233.836h16.667c.55 0 1-.451 1-1.001 0-.55-.45-1-1-1h-16.667c-.551 0-1.001.45-1.001 1s.45 1.001 1.001 1.001zM571.667 236.387h16.667c.55 0 1-.45 1-1.001 0-.55-.45-1-1-1h-16.667c-.551 0-1.001.45-1.001 1 0 .551.45 1.001 1.001 1.001zM571.667 238.928h14.416c.55 0 1-.45 1-1.001 0-.55-.45-1-1-1h-14.416c-.551 0-1.001.45-1.001 1 0 .561.45 1.001 1.001 1.001z"/>
    <path fill="#9B5714" d="M690.448 330.778c-2.441 0-4.412-1.971-4.412-4.412v-50.552c0-2.441 1.971-4.412 4.412-4.412s4.412 1.971 4.412 4.412v50.552c0 2.441-1.971 4.412-4.412 4.412z"/>
    <path fill="#F6B22D" d="M691.789 330.778c-2.441 0-4.412-1.971-4.412-4.412v-50.552c0-2.441 1.971-4.412 4.412-4.412s4.412 1.971 4.412 4.412v50.552c0 2.441-1.981 4.412-4.412 4.412z"/>
    <path fill="#9B5714" d="M695.24 278.375c0 1.511-1.23 2.741-2.741 2.741-1.51 0-2.741-1.23-2.741-2.741 0-1.511 1.231-2.741 2.741-2.741 1.511 0 2.741 1.23 2.741 2.741zM695.24 323.485c0 1.51-1.23 2.741-2.741 2.741-1.51 0-2.741-1.231-2.741-2.741 0-1.511 1.231-2.742 2.741-2.742 1.511 0 2.741 1.231 2.741 2.742z"/>
    <path fill="#B66D28" d="M692.549 276.404c-1.1 0-2.001.901-2.001 2.001 0 1.101.901 2.001 2.001 2.001 3.872 0 7.023 3.151 7.023 7.023v26.932c0 3.871-3.151 7.023-7.023 7.023-1.1 0-2.001.9-2.001 2.001 0 1.11.901 2 2.001 2 6.083 0 11.025-4.942 11.025-11.024v-26.932c0-6.073-4.952-11.025-11.025-11.025z"/>
    <path fill="#9B5714" d="M690.588 278.835c.28.15.611.24.951.24 2.591 0 4.862 1.411 6.082 3.512-1.28-1.341-3.081-2.181-5.082-2.181-.95 0-1.751-.67-1.951-1.571zM703.574 287.429v26.932c0 6.082-4.942 11.024-11.025 11.024-.96 0-1.761-.67-1.951-1.57.28.15.611.24.951.24 6.082 0 11.025-4.942 11.025-11.025v-26.932c0-2.181-.641-4.211-1.731-5.922 1.691 1.941 2.731 4.482 2.731 7.253z"/>
    <path fill="#474747" d="M620.518 434.733c0 1.12.16 2.191.46 3.141.79 2.571 2.531 4.362 4.542 4.362h3.672c.62 0 1.22-.17 1.77-.49 1.231-.7 2.221-2.101 2.772-3.882.3-.95.46-2.021.46-3.141 0-3.202-1.341-5.943-3.232-7.023-.55-.31-1.15-.49-1.77-.49h-3.672c-2.761.02-5.002 3.381-5.002 7.523z"/>
    <path fill="#000" d="M629.192 441.436c2.469 0 4.472-3.001 4.472-6.703 0-3.702-2.003-6.703-4.472-6.703-2.47 0-4.472 3.001-4.472 6.703 0 3.702 2.002 6.703 4.472 6.703z"/>
    <path fill="#000" d="M626.37 434.733c0 2.341 1.261 4.242 2.832 4.242 1.57 0 2.831-1.901 2.831-4.242s-1.271-4.242-2.831-4.242c-1.561 0-2.832 1.901-2.832 4.242z"/>
    <path fill="#000" d="M632.883 425.459h-3.831v13.936h3.831v-13.936z"/>
    <path fill="#000" d="M624.41 426.149h13.115c.38 0 .701-.31.701-.69h-14.507c-.01.38.3.69.691.69z"/>
    <path fill="#474747" d="M627.741 434.733c0 1.12.16 2.191.46 3.141.54 1.781 1.541 3.182 2.771 3.882.551.31 1.151.49 1.771.49h3.672c2.011 0 3.751-1.791 4.542-4.362.3-.95.46-2.021.46-3.141 0-4.142-2.241-7.503-5.002-7.503h-3.672c-.62 0-1.22.17-1.771.49-1.89 1.06-3.231 3.802-3.231 7.003z"/>
    <path fill="#000" d="M620.978 437.874c.79 2.571 2.531 4.362 4.542 4.362h3.672c.62 0 1.22-.17 1.77-.49.551.31 1.151.49 1.771.49h3.672c2.011 0 3.751-1.791 4.542-4.362h-19.969z"/>
    <path fill="#000" d="M636.415 441.436c2.47 0 4.472-3.001 4.472-6.703 0-3.702-2.002-6.703-4.472-6.703-2.47 0-4.472 3.001-4.472 6.703 0 3.702 2.002 6.703 4.472 6.703z"/>
    <path fill="#757575" d="M633.584 434.733c0 2.341 1.26 4.242 2.831 4.242s2.831-1.901 2.831-4.242-1.27-4.242-2.831-4.242-2.831 1.901-2.831 4.242z"/>
    <path fill="#474747" d="M518.764 434.733c0 1.12.16 2.191.46 3.141.79 2.571 2.531 4.362 4.542 4.362h3.671c.621 0 1.221-.17 1.771-.49 1.231-.7 2.221-2.101 2.771-3.882.301-.95.461-2.021.461-3.141 0-3.202-1.341-5.943-3.232-7.023-.55-.31-1.15-.49-1.771-.49h-3.671c-2.761.02-5.002 3.381-5.002 7.523z"/>
    <path fill="#000" d="M527.437 441.436c2.47 0 4.472-3.001 4.472-6.703 0-3.702-2.002-6.703-4.472-6.703-2.469 0-4.471 3.001-4.471 6.703 0 3.702 2.002 6.703 4.471 6.703z"/>
    <path fill="#000" d="M527.437 438.975c1.564 0 2.832-1.899 2.832-4.242s-1.268-4.242-2.832-4.242c-1.563 0-2.831 1.899-2.831 4.242s1.268 4.242 2.831 4.242z"/>
    <path fill="#000" d="M531.129 425.459h-3.832v13.936h3.832v-13.936z"/>
    <path fill="#000" d="M522.645 426.149h13.126c.38 0 .69-.31.69-.69h-14.506c0 .38.31.69.69.69z"/>
    <path fill="#474747" d="M525.977 434.733c0 1.12.16 2.191.46 3.141.54 1.781 1.541 3.182 2.771 3.882.55.31 1.151.49 1.771.49h3.672c2.01 0 3.751-1.791 4.542-4.362.3-.95.46-2.021.46-3.141 0-4.142-2.241-7.503-5.002-7.503h-3.672c-.62 0-1.221.17-1.771.49-1.891 1.06-3.231 3.802-3.231 7.003z"/>
    <path fill="#000" d="M519.224 437.874c.79 2.571 2.531 4.362 4.542 4.362h3.671c.621 0 1.221-.17 1.771-.49.55.31 1.151.49 1.771.49h3.672c2.01 0 3.751-1.791 4.542-4.362h-19.969z"/>
    <path fill="#000" d="M534.651 441.436c2.469 0 4.472-3.001 4.472-6.703 0-3.702-2.003-6.703-4.472-6.703-2.47 0-4.472 3.001-4.472 6.703 0 3.702 2.002 6.703 4.472 6.703z"/>
    <path fill="#757575" d="M531.829 434.733c0 2.341 1.271 4.242 2.832 4.242 1.56 0 2.831-1.901 2.831-4.242s-1.261-4.242-2.831-4.242c-1.571 0-2.832 1.901-2.832 4.242z"/>
    <path fill="#474747" d="M657.864 434.733c0 1.12.16 2.191.46 3.141.791 2.571 2.531 4.362 4.542 4.362h3.672c.62 0 1.22-.17 1.771-.49 1.23-.7 2.221-2.101 2.771-3.882.3-.95.46-2.021.46-3.141 0-3.202-1.34-5.943-3.231-7.023-.551-.31-1.151-.49-1.771-.49h-3.672c-2.761.02-5.002 3.381-5.002 7.523z"/>
    <path fill="#000" d="M666.538 441.436c2.47 0 4.472-3.001 4.472-6.703 0-3.702-2.002-6.703-4.472-6.703-2.47 0-4.472 3.001-4.472 6.703 0 3.702 2.002 6.703 4.472 6.703z"/>
    <path fill="#000" d="M663.707 434.733c0 2.341 1.27 4.242 2.831 4.242s2.831-1.901 2.831-4.242-1.26-4.242-2.831-4.242-2.831 1.901-2.831 4.242z"/>
    <path fill="#000" d="M670.23 425.459h-3.832v13.936h3.832v-13.936z"/>
    <path fill="#000" d="M661.746 426.149h13.126c.38 0 .69-.31.69-.69h-14.506c0 .38.31.69.69.69z"/>
    <path fill="#474747" d="M665.077 434.733c0 1.12.16 2.191.46 3.141.541 1.781 1.541 3.182 2.772 3.882.55.31 1.15.49 1.77.49h3.672c2.011 0 3.752-1.791 4.542-4.362.3-.95.46-2.021.46-3.141 0-4.142-2.241-7.503-5.002-7.503h-3.672c-.62 0-1.22.17-1.77.49-1.891 1.06-3.232 3.802-3.232 7.003z"/>
    <path fill="#000" d="M658.324 437.874c.791 2.571 2.531 4.362 4.542 4.362h3.672c.62 0 1.22-.17 1.771-.49.55.31 1.15.49 1.77.49h3.672c2.011 0 3.752-1.791 4.542-4.362h-19.969z"/>
    <path fill="#000" d="M673.751 441.436c2.47 0 4.472-3.001 4.472-6.703 0-3.702-2.002-6.703-4.472-6.703-2.47 0-4.472 3.001-4.472 6.703 0 3.702 2.002 6.703 4.472 6.703z"/>
    <path fill="#757575" d="M670.93 434.733c0 2.341 1.27 4.242 2.831 4.242s2.831-1.901 2.831-4.242-1.26-4.242-2.831-4.242-2.831 1.901-2.831 4.242z"/>
    <path fill="#474747" d="M556.11 434.733c0 1.12.16 2.191.46 3.141.79 2.571 2.531 4.362 4.542 4.362h3.672c.62 0 1.22-.17 1.77-.49 1.231-.7 2.221-2.101 2.772-3.882.3-.95.46-2.021.46-3.141 0-3.202-1.341-5.943-3.232-7.023-.55-.31-1.15-.49-1.77-.49h-3.672c-2.761.02-5.002 3.381-5.002 7.523z"/>
    <path fill="#000" d="M564.774 441.436c2.47 0 4.472-3.001 4.472-6.703 0-3.702-2.002-6.703-4.472-6.703-2.47 0-4.472 3.001-4.472 6.703 0 3.702 2.002 6.703 4.472 6.703z"/>
    <path fill="#000" d="M561.952 434.733c0 2.341 1.261 4.242 2.832 4.242 1.57 0 2.831-1.901 2.831-4.242s-1.271-4.242-2.831-4.242c-1.561 0-2.832 1.901-2.832 4.242z"/>
    <path fill="#000" d="M568.465 425.459h-3.831v13.936h3.831v-13.936z"/>
    <path fill="#000" d="M559.992 426.149h13.125c.381 0 .701-.31.701-.69h-14.507c-.01.38.3.69.681.69z"/>
    <path fill="#474747" d="M563.323 434.733c0 1.12.16 2.191.46 3.141.541 1.781 1.541 3.182 2.772 3.882.55.31 1.15.49 1.77.49h3.672c2.011 0 3.751-1.791 4.542-4.362.3-.95.46-2.021.46-3.141 0-4.142-2.241-7.503-5.002-7.503h-3.672c-.62 0-1.22.17-1.77.49-1.891 1.06-3.232 3.802-3.232 7.003z"/>
    <path fill="#000" d="M556.57 437.874c.79 2.571 2.531 4.362 4.542 4.362h3.672c.62 0 1.22-.17 1.77-.49.551.31 1.151.49 1.771.49h3.672c2.011 0 3.751-1.791 4.542-4.362H556.57z"/>
    <path fill="#000" d="M571.997 441.436c2.47 0 4.472-3.001 4.472-6.703 0-3.702-2.002-6.703-4.472-6.703-2.47 0-4.472 3.001-4.472 6.703 0 3.702 2.002 6.703 4.472 6.703z"/>
    <path fill="#757575" d="M571.997 438.975c1.564 0 2.831-1.899 2.831-4.242s-1.267-4.242-2.831-4.242-2.831 1.899-2.831 4.242 1.267 4.242 2.831 4.242z"/>
    <path fill="#fff" d="M698.882 123.148l-45.13-20.639c-6.212-2.842-8.733-10.335-5.512-16.357l23.45-43.74c1.421-2.65 3.802-4.661 6.653-5.622L785.69.624c6.192-2.09 12.905 1.241 14.996 7.434l21.69 64.368c2.09 6.192-1.241 12.905-7.434 14.996l-107.356 36.166c-2.862.97-5.973.81-8.704-.44zm-17.898-38.927c-1.5-4.462-6.333-6.853-10.785-5.353-4.451 1.501-6.853 6.333-5.352 10.785 1.501 4.462 6.333 6.853 10.785 5.352 4.452-1.5 6.853-6.322 5.352-10.784z"/>
    <path fill="#9B5714" d="M746.925 76.552l-11.779-8.51-4.145 13.873-6.235 2.1 5.887-18.728-15.23-10.96 6.193-2.085 11.074 7.95 3.923-13.002 5.94-2-5.525 17.715 16.216 11.518-6.319 2.129zm-.289-32.738l5.477-1.844 8.371 24.855 15.419-5.193 1.561 4.634-20.895 7.037-9.933-29.489z"/>
    <path fill="#fff" d="M119.18 356.473c0-1.854.363-3.226 1.09-4.115.714-.89 1.691-1.335 2.931-1.335.789 0 1.503.195 2.142.583.639.388 1.147.971 1.522 1.748.376.776.564 1.735.564 2.875 0 .939-.131 1.848-.394 2.724-.276.877-.652 1.617-1.128 2.218l-1.898-1.034c.401-.488.72-1.071.958-1.747.226-.689.339-1.397.339-2.124 0-.864-.176-1.541-.526-2.029-.364-.501-.859-.752-1.485-.752-.676 0-1.184.269-1.522.808-.351.526-.526 1.435-.526 2.725v3.176l-7.16-.677v-7.723h2.048v5.656l3.045.282v-1.259zm0-10.882c0-1.854.363-3.226 1.09-4.116.714-.889 1.691-1.334 2.931-1.334.789 0 1.503.194 2.142.583.639.388 1.147.971 1.522 1.747.376.777.564 1.735.564 2.875 0 .94-.131 1.848-.394 2.725-.276.877-.652 1.616-1.128 2.218l-1.898-1.034c.401-.488.72-1.071.958-1.747.226-.69.339-1.397.339-2.124 0-.864-.176-1.541-.526-2.029-.364-.502-.859-.752-1.485-.752-.676 0-1.184.269-1.522.808-.351.526-.526 1.434-.526 2.725v3.176l-7.16-.677v-7.723h2.048v5.656l3.045.282v-1.259zm8.193-17.37c0 1.04-.219 1.973-.658 2.8-.438.827-1.046 1.472-1.823 1.935-.789.464-1.678.696-2.668.696-.99 0-1.873-.232-2.65-.696-.776-.463-1.384-1.102-1.822-1.916-.439-.827-.658-1.767-.658-2.819 0-.99.2-1.854.601-2.593.401-.752.977-1.316 1.729-1.692l1.052 1.804c-.463.288-.808.652-1.033 1.09-.238.426-.357.896-.357 1.41 0 .877.288 1.603.864 2.179.564.577 1.322.865 2.274.865s1.716-.282 2.292-.846c.564-.576.846-1.309.846-2.198 0-.514-.113-.984-.338-1.41-.238-.438-.589-.802-1.052-1.09l1.052-1.804c.752.389 1.334.959 1.747 1.71.401.739.602 1.598.602 2.575zm-10.279-18.981c0-1.265.369-2.267 1.109-3.006.726-.74 1.822-1.109 3.288-1.109h5.75v2.349h-5.449c-.877 0-1.535.194-1.973.582-.451.389-.677.946-.677 1.673 0 .789.263 1.422.789 1.898.514.476 1.253.714 2.218.714h5.092v2.349h-5.449c-.877 0-1.535.194-1.973.582-.451.389-.677.946-.677 1.673 0 .802.257 1.441.771 1.917.513.463 1.259.695 2.236.695h5.092v2.349h-10.034v-2.236h1.277c-.451-.376-.795-.846-1.033-1.41-.238-.564-.357-1.19-.357-1.879 0-.752.144-1.416.432-1.992.276-.589.689-1.052 1.24-1.39-.526-.414-.933-.946-1.221-1.598-.301-.651-.451-1.371-.451-2.161zM479.166 351.418c.313-.689.739-1.215 1.278-1.578.526-.376 1.146-.564 1.86-.564.802 0 1.504.225 2.105.676.601.439 1.065 1.065 1.391 1.879.313.815.469 1.761.469 2.838 0 1.077-.156 2.023-.469 2.837-.326.802-.79 1.422-1.391 1.861-.601.438-1.303.658-2.105.658-.714 0-1.334-.182-1.86-.545-.539-.364-.965-.884-1.278-1.56-.288.526-.664.933-1.127 1.221-.476.276-1.021.414-1.635.414-.739 0-1.385-.201-1.936-.602-.551-.413-.977-.989-1.278-1.728-.3-.74-.451-1.591-.451-2.556 0-.977.151-1.835.451-2.574.301-.74.727-1.316 1.278-1.729.551-.414 1.197-.62 1.936-.62.614 0 1.152.144 1.616.432.463.288.846.701 1.146 1.24zm-4.51 3.251c0 .764.163 1.372.489 1.823.325.438.783.657 1.372.657.563 0 1.014-.219 1.353-.657.325-.451.488-1.059.488-1.823 0-.777-.163-1.391-.488-1.842-.339-.451-.79-.676-1.353-.676-.589 0-1.047.232-1.372.695-.326.451-.489 1.059-.489 1.823zm9.697 0c0-.902-.188-1.616-.564-2.142-.376-.526-.896-.79-1.56-.79-.651 0-1.165.264-1.541.79-.376.526-.563 1.24-.563 2.142 0 .902.187 1.61.563 2.123.376.514.89.771 1.541.771.664 0 1.184-.257 1.56-.771.376-.513.564-1.221.564-2.123zm-5.995-12.578c.15-1.215.564-2.142 1.24-2.781.677-.639 1.522-.959 2.537-.959.764 0 1.46.195 2.086.583.626.388 1.128.977 1.503 1.766.364.777.545 1.729.545 2.857 0 .939-.131 1.848-.394 2.724-.276.865-.652 1.604-1.128 2.218l-1.898-1.052c.401-.476.721-1.053.959-1.729.225-.689.338-1.397.338-2.124 0-.864-.175-1.541-.526-2.029-.364-.501-.852-.752-1.466-.752s-1.09.238-1.428.714c-.351.464-.526 1.178-.526 2.142v1.203h-1.673l-3.551-2.988v5.976h-2.049v-8.964h1.635l3.796 3.195zm7.855-15.849c0 1.04-.219 1.973-.658 2.8-.438.827-1.046 1.472-1.822 1.936-.79.463-1.679.695-2.669.695s-1.873-.232-2.649-.695c-.777-.464-1.385-1.103-1.823-1.917-.439-.827-.658-1.766-.658-2.819 0-.989.2-1.854.601-2.593.401-.752.978-1.315 1.729-1.691l1.053 1.804c-.464.288-.809.651-1.034 1.09-.238.426-.357.895-.357 1.409 0 .877.288 1.604.864 2.18.564.576 1.322.864 2.274.864s1.716-.282 2.293-.845c.563-.577.845-1.31.845-2.199 0-.514-.112-.983-.338-1.409-.238-.439-.589-.802-1.052-1.09l1.052-1.804c.752.388 1.334.958 1.748 1.71.401.739.601 1.597.601 2.574zm-10.279-18.98c0-1.266.37-2.268 1.109-3.007.726-.739 1.823-1.109 3.288-1.109h5.75v2.349h-5.449c-.877 0-1.535.194-1.973.583-.451.388-.677.946-.677 1.672 0 .79.263 1.422.79 1.898.513.476 1.252.714 2.217.714h5.092v2.349h-5.449c-.877 0-1.535.194-1.973.583-.451.388-.677.946-.677 1.672 0 .802.257 1.441.771 1.917.513.463 1.259.695 2.236.695h5.092v2.349h-10.034v-2.236h1.278c-.451-.376-.796-.846-1.034-1.409-.238-.564-.357-1.19-.357-1.88 0-.751.144-1.415.432-1.991.276-.589.689-1.053 1.24-1.391-.526-.413-.933-.946-1.221-1.597-.301-.652-.451-1.372-.451-2.161zM330.192 441.355l-1.648 1.648 2.113 2.112-1.674 1.675-2.113-2.113-5.102 5.102-1.196-1.196-1.409-10.576 1.847-1.847 1.409 10.045 3.042-3.043-1.873-1.873 1.621-1.621 1.874 1.873 1.647-1.648 1.462 1.462zm6.852-2.361c-.744.744-1.594 1.222-2.551 1.435-.965.204-1.975.115-3.029-.266-1.063-.39-2.091-1.081-3.083-2.073s-1.679-2.015-2.06-3.069c-.389-1.063-.478-2.073-.265-3.03.203-.965.677-1.82 1.421-2.564s1.599-1.218 2.565-1.422c.965-.222 1.98-.137 3.043.252 1.054.381 2.077 1.068 3.069 2.06s1.683 2.02 2.073 3.083c.381 1.054.465 2.068.252 3.043-.212.956-.691 1.807-1.435 2.551zm-1.501-1.502c.664-.664.912-1.461.744-2.392-.16-.939-.784-1.953-1.874-3.042-1.089-1.09-2.103-1.714-3.042-1.874-.931-.168-1.728.08-2.392.744-.656.656-.904 1.453-.744 2.392.168.93.797 1.94 1.887 3.03 1.089 1.089 2.099 1.718 3.029 1.886.939.16 1.736-.088 2.392-.744zm13.955-11.031c-.736.735-1.551 1.24-2.445 1.514-.895.275-1.781.302-2.658.08-.886-.23-1.678-.695-2.378-1.395-.7-.7-1.161-1.488-1.382-2.365-.222-.877-.199-1.759.066-2.644.275-.895.784-1.714 1.528-2.459.7-.699 1.453-1.169 2.259-1.408.815-.248 1.621-.239 2.419.027l-.532 2.019c-.531-.124-1.032-.111-1.501.04-.47.133-.886.381-1.249.744-.621.62-.931 1.338-.931 2.153-.008.806.324 1.546.997 2.219.673.673 1.413 1.014 2.219 1.023.806-.009 1.524-.328 2.153-.957.363-.363.615-.775.757-1.236.142-.478.151-.983.027-1.514l2.019-.532c.257.806.266 1.621.027 2.445-.239.806-.704 1.555-1.395 2.246zm6.152-20.69c.895-.894 1.865-1.342 2.91-1.342 1.037-.009 2.073.505 3.11 1.542l4.066 4.066-1.661 1.661-3.854-3.854c-.62-.62-1.222-.948-1.807-.983-.593-.044-1.147.19-1.661.704-.558.558-.819 1.192-.784 1.9.027.7.381 1.391 1.063 2.073l3.601 3.601-1.661 1.661-3.853-3.853c-.62-.621-1.222-.948-1.807-.984-.594-.044-1.147.191-1.661.705-.567.566-.837 1.2-.811 1.9.036.691.399 1.382 1.09 2.072l3.601 3.601-1.661 1.661-7.096-7.095 1.582-1.581.903.903c-.053-.584.036-1.16.266-1.727.23-.567.589-1.094 1.076-1.581.532-.532 1.103-.9 1.714-1.103.612-.222 1.232-.257 1.861-.107-.08-.664.008-1.328.265-1.993.248-.673.651-1.289 1.209-1.847zM727.176 425.813l-1.648 1.648 2.113 2.112-1.674 1.675-2.113-2.113-5.102 5.102-1.196-1.196-1.409-10.576 1.847-1.847 1.409 10.045 3.042-3.043-1.873-1.873 1.621-1.621 1.874 1.873 1.647-1.648 1.462 1.462zm6.852-2.361c-.744.744-1.594 1.222-2.551 1.435-.965.203-1.975.115-3.029-.266-1.063-.39-2.091-1.081-3.083-2.073s-1.679-2.015-2.06-3.069c-.389-1.063-.478-2.073-.265-3.03.203-.965.677-1.82 1.421-2.564s1.599-1.218 2.565-1.422c.965-.222 1.98-.137 3.043.252 1.054.381 2.077 1.068 3.069 2.06s1.683 2.02 2.073 3.083c.381 1.054.465 2.068.252 3.042-.212.957-.691 1.808-1.435 2.552zm-1.501-1.502c.664-.664.912-1.461.744-2.392-.16-.939-.784-1.953-1.874-3.042-1.089-1.09-2.103-1.714-3.042-1.874-.931-.168-1.728.08-2.392.744-.656.656-.904 1.453-.744 2.392.168.93.797 1.94 1.887 3.029 1.089 1.09 2.099 1.719 3.029 1.887.939.16 1.736-.088 2.392-.744zm13.955-11.031c-.736.735-1.551 1.24-2.445 1.514-.895.275-1.781.302-2.658.08-.886-.23-1.678-.695-2.378-1.395-.7-.7-1.161-1.488-1.382-2.365-.222-.877-.199-1.759.066-2.644.275-.895.784-1.715 1.528-2.459.7-.699 1.453-1.169 2.259-1.408.815-.248 1.621-.239 2.419.026l-.532 2.02c-.531-.124-1.032-.111-1.501.04-.47.133-.886.381-1.249.744-.621.62-.931 1.338-.931 2.153-.008.806.324 1.546.997 2.219.673.673 1.413 1.014 2.219 1.023.806-.009 1.524-.328 2.153-.957.363-.363.615-.775.757-1.236.142-.478.151-.983.027-1.514l2.019-.532c.257.806.266 1.621.027 2.445-.239.806-.704 1.555-1.395 2.246zm6.152-20.69c.895-.894 1.865-1.342 2.91-1.342 1.037-.009 2.073.505 3.11 1.542l4.066 4.066-1.661 1.661-3.854-3.854c-.62-.62-1.222-.948-1.807-.983-.593-.044-1.147.19-1.661.704-.558.558-.819 1.192-.784 1.9.027.7.381 1.391 1.063 2.073l3.601 3.601-1.661 1.661-3.853-3.853c-.62-.621-1.223-.948-1.807-.984-.594-.044-1.147.191-1.661.705-.567.566-.837 1.2-.811 1.9.036.691.399 1.382 1.09 2.072l3.601 3.601-1.661 1.661-7.096-7.095 1.582-1.581.903.903c-.053-.585.036-1.16.266-1.727.23-.567.589-1.094 1.076-1.581.532-.532 1.103-.9 1.714-1.103.612-.222 1.232-.257 1.861-.107-.08-.664.008-1.328.265-1.993.248-.673.651-1.289 1.209-1.847zM205.008 473.582h-2.33v2.987h-2.368v-2.987h-7.216v-1.692l6.483-8.475h2.612l-6.107 8.099h4.303v-2.649h2.293v2.649h2.33v2.068zm5.088-5.074c1.854 0 3.226.363 4.116 1.09.889.714 1.334 1.691 1.334 2.931 0 .789-.194 1.504-.583 2.142-.388.639-.971 1.147-1.747 1.523-.777.375-1.735.563-2.875.563-.94 0-1.848-.131-2.725-.394-.877-.276-1.616-.652-2.218-1.128l1.034-1.898c.489.401 1.071.721 1.748.959.689.225 1.396.338 2.123.338.864 0 1.541-.176 2.029-.526.502-.364.752-.858.752-1.485 0-.676-.269-1.184-.808-1.522-.526-.351-1.434-.526-2.725-.526h-3.175l.676-7.16h7.723v2.049h-5.656l-.282 3.044h1.259zm17.37 8.193c-1.04 0-1.973-.219-2.8-.658-.826-.438-1.472-1.046-1.935-1.823-.464-.789-.695-1.678-.695-2.668 0-.99.231-1.873.695-2.65.463-.776 1.102-1.384 1.917-1.822.826-.439 1.766-.658 2.818-.658.99 0 1.854.2 2.594.601.751.401 1.315.977 1.691 1.729l-1.804 1.052c-.288-.463-.652-.808-1.09-1.033-.426-.238-.896-.357-1.41-.357-.876 0-1.603.288-2.179.864-.577.564-.865 1.322-.865 2.274s.282 1.716.846 2.293c.576.563 1.309.845 2.198.845.514 0 .984-.112 1.41-.338.438-.238.802-.589 1.09-1.052l1.804 1.052c-.389.752-.959 1.334-1.71 1.748-.739.401-1.598.601-2.575.601zm18.981-10.279c1.265 0 2.267.37 3.006 1.109.74.726 1.109 1.822 1.109 3.288v5.75h-2.349v-5.449c0-.877-.194-1.535-.582-1.973-.389-.451-.946-.677-1.673-.677-.789 0-1.422.263-1.898.789-.476.514-.714 1.253-.714 2.218v5.092h-2.349v-5.449c0-.877-.194-1.535-.582-1.973-.389-.451-.946-.677-1.673-.677-.802 0-1.44.257-1.916.771-.464.513-.696 1.259-.696 2.236v5.092h-2.349v-10.034h2.236v1.278c.376-.451.846-.796 1.41-1.034s1.19-.357 1.879-.357c.752 0 1.416.144 1.992.432.589.276 1.052.689 1.39 1.24.414-.526.946-.933 1.598-1.221.651-.301 1.372-.451 2.161-.451zM572.141 472.494h-2.33v2.988h-2.368v-2.988h-7.216v-1.691l6.483-8.475h2.612l-6.107 8.099h4.303v-2.649h2.293v2.649h2.33v2.067zm5.088-5.073c1.854 0 3.226.363 4.116 1.089.889.715 1.334 1.692 1.334 2.932 0 .789-.194 1.503-.583 2.142-.388.639-.971 1.146-1.747 1.522-.777.376-1.735.564-2.875.564-.94 0-1.848-.131-2.725-.395-.877-.275-1.616-.651-2.218-1.127l1.034-1.898c.489.401 1.071.72 1.748.958.689.226 1.396.339 2.123.339.864 0 1.541-.176 2.03-.527.501-.363.751-.858.751-1.484 0-.677-.269-1.184-.808-1.522-.526-.351-1.434-.526-2.725-.526h-3.175l.676-7.16h7.723v2.048h-5.656l-.282 3.045h1.259zm17.37 8.193c-1.039 0-1.973-.22-2.8-.658-.826-.438-1.472-1.046-1.935-1.823-.464-.789-.695-1.679-.695-2.668 0-.99.231-1.873.695-2.65.463-.777 1.102-1.384 1.917-1.823.826-.438 1.766-.657 2.818-.657.99 0 1.854.2 2.594.601.751.401 1.315.977 1.691 1.729l-1.804 1.052c-.288-.463-.652-.808-1.09-1.033-.426-.238-.896-.357-1.409-.357-.877 0-1.604.288-2.18.864-.577.564-.865 1.322-.865 2.274s.282 1.716.846 2.292c.576.564 1.309.846 2.199.846.513 0 .983-.113 1.409-.338.438-.238.802-.589 1.09-1.053l1.804 1.053c-.389.751-.959 1.334-1.71 1.747-.739.401-1.598.602-2.575.602zm18.981-10.279c1.265 0 2.267.369 3.006 1.108.74.727 1.109 1.823 1.109 3.289v5.75h-2.349v-5.449c0-.877-.194-1.535-.582-1.974-.389-.451-.946-.676-1.673-.676-.789 0-1.422.263-1.898.789-.476.514-.714 1.253-.714 2.218v5.092h-2.349v-5.449c0-.877-.194-1.535-.582-1.974-.389-.451-.946-.676-1.673-.676-.801 0-1.44.257-1.916.77-.464.514-.696 1.259-.696 2.237v5.092h-2.349v-10.035h2.237v1.278c.375-.451.845-.795 1.409-1.033.564-.238 1.19-.357 1.879-.357.752 0 1.416.144 1.992.432.589.276 1.052.689 1.391 1.24.413-.526.945-.933 1.597-1.221.651-.301 1.372-.451 2.161-.451zM115.829 142.046L8.162 106.83C1.95 104.8-1.442 98.117.59 91.904l21.119-64.558c2.03-6.213 8.714-9.604 14.927-7.573L144.3 54.988c2.861.93 5.253 2.921 6.703 5.562l23.83 43.529c3.282 5.993.821 13.506-5.362 16.407l-44.949 21.03c-2.722 1.28-5.833 1.47-8.694.53zm31.684-28.863c4.472 1.461 9.284-.98 10.744-5.442 1.461-4.472-.98-9.274-5.442-10.745-4.472-1.46-9.274.98-10.745 5.443-1.46 4.482.971 9.284 5.443 10.744z"/>
    <path fill="#9B5714" d="M70.69 60.854l5.492 1.797-8.154 24.928 15.464 5.059-1.52 4.647-20.957-6.855 9.674-29.576z"/>
    <path fill="#FCE163" d="M198.305 102.839c-7.704-1.821-15.617-2.741-23.531-2.741-.55 0-1 .45-1 1s.45 1.001 1 1.001c7.764.01 15.527.9 23.07 2.691.541.13 1.081-.21 1.201-.741.13-.54-.21-1.08-.74-1.21z"/>
    <path fill="#FCE163" d="M156.967 101.638c-1.651.29-3.482.651-5.072 1.731-.711.49-1.321 1.121-1.771 1.871-.45.74-.741 1.611-.741 2.521 0 .29.03.59.09.89.281 1.301 1.121 2.261 2.051 2.962.941.7 2.001 1.19 2.962 1.59l23.62 9.965c4.202 1.77 8.554 3.611 13.276 4.142.81.09 1.63.14 2.451.14 4.001 0 8.103-1.121 11.125-3.912 1.34-1.241 2.351-2.931 3.051-4.772.7-1.851 1.08-3.852 1.08-5.763 0-.85-.08-1.69-.24-2.481-.26-1.25-.82-2.321-1.56-3.211-.741-.891-1.661-1.591-2.642-2.171-.48-.28-1.09-.12-1.37.36s-.12 1.091.36 1.371c.84.49 1.561 1.06 2.121 1.72.55.671.95 1.421 1.14 2.331.13.641.2 1.341.2 2.071 0 1.641-.34 3.432-.95 5.052-.61 1.621-1.501 3.062-2.541 4.012-2.531 2.351-6.123 3.382-9.764 3.382-.741 0-1.491-.04-2.221-.13-4.342-.491-8.524-2.231-12.726-4.002l-23.62-9.964c-.91-.381-1.841-.821-2.541-1.351s-1.141-1.1-1.291-1.781c-.03-.15-.05-.3-.05-.46 0-.48.16-1 .451-1.491.29-.49.72-.93 1.19-1.26 1.141-.791 2.671-1.131 4.292-1.411.54-.1.91-.61.81-1.16-.11-.521-.63-.891-1.17-.791zM665.367 87.622c1.071.28 1.981.99 2.632 1.981.65.98 1.02 2.231 1.02 3.432 0 .28-.02.56-.06.83-.2 1.35-.78 2.611-1.641 3.762-.85 1.14-1.971 2.15-3.191 2.961-4.602 3.071-10.215 3.641-16.167 3.912-5.933.28-12.155.26-17.848 2.501-1.981.78-3.862 1.81-5.712 2.621-1.851.81-3.642 1.4-5.403 1.39-.42 0-.84-.03-1.27-.1-1.551-.25-3.012-1.11-4.092-2.311-1.081-1.2-1.781-2.741-1.871-4.312-.01-.12-.01-.24-.01-.36 0-1.5.55-2.961 1.491-4.201.94-1.231 2.261-2.221 3.721-2.742.661-.24 1.201-.39 1.561-.48.18-.05.32-.08.41-.1l.1-.02h.02c.541-.09.911-.61.821-1.15-.09-.54-.611-.91-1.151-.82-.05.01-.98.17-2.441.69-1.841.67-3.461 1.88-4.632 3.411-1.17 1.541-1.901 3.411-1.901 5.412 0 .16 0 .32.01.481.13 2.08 1.021 4.021 2.381 5.532 1.361 1.511 3.202 2.611 5.253 2.951.54.09 1.07.13 1.59.13 2.201 0 4.252-.71 6.203-1.56 1.951-.861 3.822-1.871 5.642-2.592 5.213-2.07 11.205-2.09 17.208-2.361 5.992-.28 12.025-.81 17.177-4.241 1.381-.921 2.661-2.071 3.682-3.432 1.01-1.36 1.761-2.931 2.011-4.662.05-.37.08-.75.08-1.12 0-1.611-.48-3.202-1.351-4.532-.87-1.33-2.171-2.401-3.801-2.822-.531-.14-1.081.18-1.221.72-.11.52.21 1.061.75 1.201z"/>
    <path fill="#FCE163" d="M625.42 95.396c7.833-.89 14.736-2.702 22.09-5.483.52-.2.78-.77.58-1.29-.2-.52-.77-.78-1.291-.58-7.233 2.74-13.946 4.491-21.609 5.362-.55.06-.94.56-.88 1.11.07.55.56.95 1.11.88z"/>
    <path fill="#fff" d="M108.065 468.658h77.294c.55 0 1-.451 1-1.001 0-.55-.45-1-1-1h-77.294c-.55 0-1 .45-1 1s.45 1.001 1 1.001zM255.74 469.298h77.413c.551 0 1.001-.45 1.001-1 0-.551-.45-1.001-1.001-1.001H255.74c-.551 0-1.001.45-1.001 1.001 0 .55.44 1 1.001 1z"/>
    <path fill="#fff" d="M287.153 482.434l28.793-28.793c.39-.39.39-1.02 0-1.411-.39-.39-1.021-.39-1.411 0l-28.792 28.793c-.39.39-.39 1.02 0 1.411.39.39 1.02.39 1.41 0zM365.207 404.38l19.829-19.829c.39-.39.39-1.02 0-1.411-.39-.39-1.021-.39-1.411 0l-19.828 19.829c-.391.39-.391 1.021 0 1.411.38.39 1.02.39 1.41 0zM124.302 482.373V367.854c0-.55-.45-1.001-1-1.001s-1 .451-1 1.001v114.519c0 .551.45 1.001 1 1.001s1-.45 1-1.001zM124.302 297.473V177.841c0-.55-.45-1-1-1s-1 .45-1 1v119.632c0 .551.45 1.001 1 1.001s1-.45 1-1.001zM466.461 468.658h77.294c.55 0 1-.451 1-1.001 0-.55-.45-1-1-1h-77.294c-.55 0-1 .45-1 1s.44 1.001 1 1.001zM629.352 469.298h77.413c.551 0 1.001-.45 1.001-1 0-.551-.45-1.001-1.001-1.001h-77.413c-.55 0-1.001.45-1.001 1.001 0 .55.441 1 1.001 1z"/>
    <path fill="#fff" d="M670.77 482.434l28.792-28.793c.39-.39.39-1.02 0-1.411-.39-.39-1.02-.39-1.41 0l-28.793 28.793c-.39.39-.39 1.02 0 1.411.39.39 1.021.39 1.411 0zM765.361 387.853l28.792-28.793c.39-.39.39-1.02 0-1.411-.39-.39-1.02-.39-1.41 0l-28.793 28.793c-.39.39-.39 1.02 0 1.411.38.39 1.011.39 1.411 0zM482.698 482.374v-114.52c0-.55-.45-1.001-1-1.001-.551 0-1.001.451-1.001 1.001v114.52c0 .55.45 1 1.001 1 .55 0 1-.45 1-1zM482.698 297.473V177.841c0-.55-.45-1-1-1-.551 0-1.001.45-1.001 1v119.632c0 .551.45 1.001 1.001 1.001.55 0 1-.45 1-1.001z"/>
</svg>
