<?xml version="1.0" encoding="iso-8859-1"?>
<!-- Generator: Adobe Illustrator 19.0.0, SVG Export Plug-In . SVG Version: 6.00 Build 0)  -->
<svg version="1.1" id="Capa_1" xmlns="http://www.w3.org/2000/svg" xmlns:xlink="http://www.w3.org/1999/xlink" x="0px" y="0px"
	 viewBox="0 0 512 512" style="enable-background:new 0 0 512 512;" xml:space="preserve">
<g>
	<g>
		<path d="M271.003,283.462v-29.695h71.421c8.286,0,15.004-6.718,15.004-15.004s-6.718-15.004-15.004-15.004h-172.85
			c-8.286,0-15.004,6.718-15.004,15.004s6.718,15.004,15.004,15.004h71.421v29.695c-56.215,7.373-99.756,55.585-99.756,113.779
			C141.24,460.519,192.721,512,256,512s114.76-51.481,114.76-114.76C370.759,339.046,327.218,290.834,271.003,283.462z"/>
	</g>
</g>
<g>
	<g>
		<path d="M472.893,8.499C470.184,3.257,464.836,0,458.935,0h-68.781c-5.08,0-9.868,2.473-12.816,6.625L275.039,150.788
			l29.235,42.964h47.683L471.749,24.801C475.164,19.988,475.602,13.741,472.893,8.499z"/>
	</g>
</g>
<g>
	<g>
		<g>
			<path d="M121.845,0H53.064c-5.898,0-11.247,3.255-13.955,8.494c-2.71,5.24-2.275,11.485,1.139,16.304l119.794,168.954h107.3
				L134.654,6.615C131.713,2.473,126.924,0,121.845,0z"/>
			<polygon points="267.342,193.752 267.342,193.752 267.342,193.752 			"/>
		</g>
	</g>
</g>
<g>
</g>
<g>
</g>
<g>
</g>
<g>
</g>
<g>
</g>
<g>
</g>
<g>
</g>
<g>
</g>
<g>
</g>
<g>
</g>
<g>
</g>
<g>
</g>
<g>
</g>
<g>
</g>
<g>
</g>
</svg>
